<svg xmlns="http://www.w3.org/2000/svg" viewBox="0 0 69.66 77.75"><defs><style>.cls-1,.cls-5{fill:none;}.cls-1,.cls-3,.cls-5{stroke:#333;stroke-miterlimit:10;}.cls-1{stroke-width:4px;}.cls-2,.cls-3{fill:#f6f5eb;}.cls-3,.cls-5{stroke-width:2px;}.cls-4{fill:#ffd900;}.cls-5{stroke-linecap:round;}</style></defs><g id="レイヤー_2" data-name="レイヤー 2"><g id="レイヤー_1-2" data-name="レイヤー 1"><path class="cls-1" d="M62.07,30.47s-.66,17.33-.66,18.19A6.33,6.33,0,0,0,62,50.91c.23.36,4.15,4.93,4.56,5.58a3.71,3.71,0,0,1,.47,2c0,.66.71,13.78.66,14.8a2.28,2.28,0,0,1-1.76,2.33c-1.19.19-5.3.17-5.3.17h0s-4.12,0-5.31-.17a2.28,2.28,0,0,1-1.76-2.33c-.05-1,.62-14.14.66-14.8a3.71,3.71,0,0,1,.47-2c.41-.65,4.33-5.22,4.56-5.58a6.33,6.33,0,0,0,.56-2.25c0-.86-.66-18.19-.66-18.19"/><path class="cls-2" d="M62.07,30.47s-.66,17.33-.66,18.19A6.33,6.33,0,0,0,62,50.91c.23.36,4.15,4.93,4.56,5.58a3.71,3.71,0,0,1,.47,2c0,.66.71,13.78.66,14.8a2.28,2.28,0,0,1-1.76,2.33c-1.19.19-5.3.17-5.3.17h0s-4.12,0-5.31-.17a2.28,2.28,0,0,1-1.76-2.33c-.05-1,.62-14.14.66-14.8a3.71,3.71,0,0,1,.47-2c.41-.65,4.33-5.22,4.56-5.58a6.33,6.33,0,0,0,.56-2.25c0-.86-.66-18.19-.66-18.19"/><path class="cls-3" d="M57.48,27.11c0,1.44.06,2.89.06,2.92a.26.26,0,0,0,.26.31c.19,0,1.69-.15,2.89-.13s2.45.16,2.63.17.18-.11.19-.29,0-1.49.05-2.94"/><path class="cls-1" d="M62.61,25.69a10.38,10.38,0,0,0-2-.28,12.38,12.38,0,0,0-2.14.24c-.16-6-.57-21-.58-21.44a2.34,2.34,0,0,1,.52-1.44A2.91,2.91,0,0,1,60.46,2a2.69,2.69,0,0,1,2,.81,3.5,3.5,0,0,1,.62,1.71C63.09,5,62.75,19.78,62.61,25.69Z"/><path class="cls-4" d="M62.61,25.69a10.38,10.38,0,0,0-2-.28,12.38,12.38,0,0,0-2.14.24c-.16-6-.57-21-.58-21.44a2.34,2.34,0,0,1,.52-1.44A2.91,2.91,0,0,1,60.46,2a2.69,2.69,0,0,1,2,.81,3.5,3.5,0,0,1,.62,1.71C63.09,5,62.75,19.78,62.61,25.69Z"/><line class="cls-5" x1="60.6" y1="57.82" x2="60.6" y2="72.44"/><line class="cls-5" x1="57.44" y1="57.82" x2="56.83" y2="72.44"/><line class="cls-5" x1="63.78" y1="57.82" x2="64.45" y2="72.44"/><path class="cls-1" d="M37.34,30.38s-.46,20.87-.48,22.1A6.61,6.61,0,0,0,38,56.77c1,1.28,4,4.35,4,8.25a25.86,25.86,0,0,1-2.12,7c-.51,1.15-2.23,3.24-3.78,3.24S32.85,73.16,32.34,72a25.86,25.86,0,0,1-2.12-7c0-3.9,3-7,4-8.25a6.61,6.61,0,0,0,1.17-4.29c0-1.23-.48-22.1-.48-22.1"/><path class="cls-2" d="M37.34,30.38s-.46,20.87-.48,22.1A6.61,6.61,0,0,0,38,56.77c1,1.28,4,4.35,4,8.25a25.86,25.86,0,0,1-2.12,7c-.51,1.15-2.23,3.24-3.78,3.24S32.85,73.16,32.34,72a25.86,25.86,0,0,1-2.12-7c0-3.9,3-7,4-8.25a6.61,6.61,0,0,0,1.17-4.29c0-1.23-.48-22.1-.48-22.1"/><path class="cls-5" d="M31.05,71.35a14,14,0,0,1,.6-7.57c.85-2,2.43-4.61,4.57-4.61s3.45,2.37,4.23,3.85,1.22,6.9.64,8.74"/><path class="cls-3" d="M33,27.17c0,1.44.06,2.85.06,2.89s.07.3.27.31,1.69-.18,2.89-.16,2.45.16,2.63.17.19-.11.19-.29,0-1.45.06-2.9"/><path class="cls-1" d="M38.15,25.69a10.52,10.52,0,0,0-2-.28,12.41,12.41,0,0,0-2.15.24c-.16-6-.57-21-.58-21.44a2.41,2.41,0,0,1,.52-1.44A2.93,2.93,0,0,1,36,2a2.67,2.67,0,0,1,2,.81,3.4,3.4,0,0,1,.62,1.71C38.63,5,38.28,19.78,38.15,25.69Z"/><path class="cls-4" d="M38.15,25.69a10.52,10.52,0,0,0-2-.28,12.41,12.41,0,0,0-2.15.24c-.16-6-.57-21-.58-21.44a2.41,2.41,0,0,1,.52-1.44A2.93,2.93,0,0,1,36,2a2.67,2.67,0,0,1,2,.81,3.4,3.4,0,0,1,.62,1.71C38.63,5,38.28,19.78,38.15,25.69Z"/><path class="cls-1" d="M2,66.17C2,71,4.33,72.34,4.33,72.34a14,14,0,0,0,8.06,2.78c4.63,0,6.39-1.52,7.46-2.24s3.95-4.51,3-7"/><path class="cls-2" d="M2,66.17C2,71,4.33,72.34,4.33,72.34a14,14,0,0,0,8.06,2.78c4.63,0,6.39-1.52,7.46-2.24s3.95-4.51,3-7"/><path class="cls-1" d="M13.87,30.47s-.45,25.11-.45,26.73a5,5,0,0,0,1.24,3.4,7.76,7.76,0,0,0,3.67,1.82c1.22.18,4.57,1.88,4.57,3.47.2,2.16-4.66,3.6-10.51,3.6S1.81,68.05,2,65.89c0-1.59,3.35-3.29,4.56-3.47a7.81,7.81,0,0,0,3.68-1.82,5,5,0,0,0,1.24-3.4c0-1.62-.45-26.73-.45-26.73"/><path class="cls-2" d="M13.87,30.47s-.45,25.11-.45,26.73a5,5,0,0,0,1.24,3.4,7.76,7.76,0,0,0,3.67,1.82c1.22.18,4.57,1.88,4.57,3.47.2,2.16-4.66,3.6-10.51,3.6S1.81,68.05,2,65.89c0-1.59,3.35-3.29,4.56-3.47a7.81,7.81,0,0,0,3.68-1.82,5,5,0,0,0,1.24-3.4c0-1.62-.45-26.73-.45-26.73"/><path class="cls-3" d="M9.37,27.17c0,1.44.07,2.83.07,2.86a.26.26,0,0,0,.26.31c.19,0,1.71-.15,2.91-.13a23.63,23.63,0,0,1,2.64.26c.18,0,.19-.1.19-.28s0-1.43.06-2.88"/><path class="cls-1" d="M14.53,25.69a10.38,10.38,0,0,0-2-.28,12.38,12.38,0,0,0-2.14.24c-.16-6-.57-21-.58-21.44a2.34,2.34,0,0,1,.52-1.44A2.91,2.91,0,0,1,12.38,2a2.67,2.67,0,0,1,2,.81A3.5,3.5,0,0,1,15,4.52C15,5,14.67,19.78,14.53,25.69Z"/><path class="cls-4" d="M14.53,25.69a10.38,10.38,0,0,0-2-.28,12.38,12.38,0,0,0-2.14.24c-.16-6-.57-21-.58-21.44a2.34,2.34,0,0,1,.52-1.44A2.91,2.91,0,0,1,12.38,2a2.67,2.67,0,0,1,2,.81A3.5,3.5,0,0,1,15,4.52C15,5,14.67,19.78,14.53,25.69Z"/></g></g></svg>