<svg xmlns="http://www.w3.org/2000/svg" viewBox="0 0 84.58 54.93"><defs><style>.cls-1,.cls-3{fill:#f6f5eb;}.cls-1,.cls-2,.cls-4,.cls-6{stroke:#333;stroke-miterlimit:10;}.cls-1,.cls-4,.cls-6{stroke-width:2px;}.cls-2,.cls-4{fill:none;}.cls-2{stroke-width:4px;}.cls-5,.cls-6{fill:#ffd900;}</style></defs><g id="レイヤー_2" data-name="レイヤー 2"><g id="レイヤー_1-2" data-name="レイヤー 1"><path class="cls-1" d="M74.05,20.35H72.76l-4.71,2.83,4-1s11.58-2.1,11.58-5.7-8.08-4.63-11.89-5L73.41,13"/><path class="cls-1" d="M10.76,13.12,11.9,12S1.36,13.75,1,16.58C.39,21.11,14.26,22.2,14.26,22.2"/><path class="cls-2" d="M10.59,21.73s2.8,17.5,3.24,19.21a10.14,10.14,0,0,0,2,3.47c3.76,4.21,10.68,8,26.11,8.48,14.8.51,21.22-4,26.37-8.31,1.24-1,1.59-2.1,2.22-4.15S73.45,22.2,73.45,22.2"/><path class="cls-3" d="M10.59,21.73s2.8,17.5,3.24,19.21a10.14,10.14,0,0,0,2,3.47c3.76,4.21,10.68,8,26.11,8.48,14.8.51,21.22-4,26.37-8.31,1.24-1,1.59-2.1,2.22-4.15S73.45,22.2,73.45,22.2"/><ellipse class="cls-2" cx="42.16" cy="16.34" rx="33.39" ry="11.36"/><ellipse class="cls-3" cx="42.16" cy="16.34" rx="33.39" ry="11.36"/><ellipse class="cls-4" cx="42.13" cy="10.8" rx="22.08" ry="6.91"/><ellipse class="cls-4" cx="42.14" cy="13.32" rx="30.63" ry="9.55"/><ellipse class="cls-2" cx="41.93" cy="3.75" rx="6.3" ry="1.75"/><ellipse class="cls-5" cx="41.93" cy="3.75" rx="6.3" ry="1.75"/><path class="cls-6" d="M34.87,4.12V5a1.75,1.75,0,0,0,.92.94c.74.36,2.84.5,3.25,1.41a13.45,13.45,0,0,1,.63,2.2.86.86,0,0,0,.49.57,4.38,4.38,0,0,0,1.83.25A4.6,4.6,0,0,0,43.82,10a1.45,1.45,0,0,0,.44-.22c.1-.12.11-.13.15-.54A5,5,0,0,1,45,7.12a4.22,4.22,0,0,1,2.22-1.53c.36-.17,1.66-.25,1.75-.42a3.49,3.49,0,0,0,.26-1.42"/></g></g></svg>