<svg xmlns="http://www.w3.org/2000/svg" viewBox="0 0 54.25 57.22"><defs><style>.cls-1{fill:#f6f5eb;}.cls-1,.cls-4,.cls-5{stroke:#333;}.cls-1,.cls-2,.cls-4{stroke-miterlimit:10;}.cls-1,.cls-4{stroke-width:2px;}.cls-2,.cls-4,.cls-5{fill:none;}.cls-2,.cls-3{stroke:#000;}.cls-3{fill:#fff;}.cls-3,.cls-5{stroke-linecap:round;stroke-linejoin:round;}.cls-5{stroke-width:4px;}.cls-6{fill:#ffd900;}</style></defs><g id="レイヤー_2" data-name="レイヤー 2"><g id="レイヤー_1-2" data-name="レイヤー 1"><path class="cls-1" d="M44,2.54a3.15,3.15,0,0,1,.7,1.51c.15.91.33,3.13.33,3.13L45.24,9l-2,.16L42.12,4.53Z"/><path class="cls-2" d="M33.14,17.17s.92-1,1.21-1.43a2.66,2.66,0,0,0,.08-1.48"/><path class="cls-1" d="M20.62,12.31,18.15,13a.76.76,0,0,0-.52.61,3.73,3.73,0,0,0,0,1.11,17,17,0,0,0,1.15,2.65s-3.56,1.87-3.55,1.82a23.88,23.88,0,0,1-.84-3,2.76,2.76,0,0,1,.68-1.8,8.68,8.68,0,0,1,2.16-1.56,7,7,0,0,1,1.42-.48A11.9,11.9,0,0,1,20.62,12.31Z"/><path class="cls-1" d="M37.72,7.38l.07-.15A.4.4,0,0,1,38,7c.46-.11,1.19-.23,1.77-.43.43-.15,1-.38,1.21-.49a.39.39,0,0,1,.3,0,1.29,1.29,0,0,1,.36.11,2.46,2.46,0,0,1,.83.75c.2.38.67,2,.75,2.22L38.86,11"/><path class="cls-1" d="M42.77,5.93s-.84-.71-3.36-.89a52.06,52.06,0,0,0-5.59,0,4.15,4.15,0,0,0-3.06,1.57l-1,1.46L26.67,8A36.66,36.66,0,0,1,30,4.62c.93-.68,4.4-3.22,6.22-3.49A17.55,17.55,0,0,1,42,1.4C44.34,2.2,44.34,3,44.34,4s-2,2.17-2.33,2.4"/><path class="cls-3" d="M24.8,12.42a5.23,5.23,0,0,0,0,2l3.43-2"/><path class="cls-1" d="M32.9,10.2c-.13,0-14.13,7.21-14.13,7.21l-3.55,1.82-4.4,2L5.23,25S.8,28.57,1,32.8c.13,2.83.57,3.52,2.24,4.82a9.27,9.27,0,0,0,7.59,1.6,13,13,0,0,0,4.38-1.35l6.44-2.72a40.25,40.25,0,0,0,4.7-4.84c1-1.54,2-3.82,2.83-4.88A22,22,0,0,1,31,23.37"/><path class="cls-4" d="M46.3,13.54c-.06.28-.14.84-1.46,1.85A43.72,43.72,0,0,1,40.33,18"/><path class="cls-5" d="M16.67,37a5.43,5.43,0,0,0,.13-1.9c-.19-1.21-2.3-3.48-3.35-4.56s-4.92-4.28-5.62-4.84a14,14,0,0,0-1.71-1.11,9.08,9.08,0,0,0-.89.41c-.43.38-.8-.21-.46-1a27.37,27.37,0,0,1,3.45-3.64c.23-.21.88-.09,1.56.2S13,23,14.25,23.72A40.78,40.78,0,0,1,19,27.57,12,12,0,0,1,20.78,30a10.14,10.14,0,0,1,1.06,3,11.57,11.57,0,0,1-.18,2.13,20.15,20.15,0,0,1-2.75,1.47A8.07,8.07,0,0,1,16.67,37Z"/><path class="cls-6" d="M16.67,37a5.43,5.43,0,0,0,.13-1.9c-.19-1.21-2.3-3.48-3.35-4.56s-4.92-4.28-5.62-4.84a14,14,0,0,0-1.71-1.11,9.08,9.08,0,0,0-.89.41c-.43.38-.8-.21-.46-1a27.37,27.37,0,0,1,3.45-3.64c.23-.21.88-.09,1.56.2S13,23,14.25,23.72A40.78,40.78,0,0,1,19,27.57,12,12,0,0,1,20.78,30a10.14,10.14,0,0,1,1.06,3,11.57,11.57,0,0,1-.18,2.13,20.15,20.15,0,0,1-2.75,1.47A8.07,8.07,0,0,1,16.67,37Z"/><path class="cls-1" d="M34.35,12.47c-.14.12-3.6,0-6.12,0l-7.61-.16L16.85,13c.33-.43,3.77-3.12,3.77-3.12a8.69,8.69,0,0,1,2.06-1.32A7.61,7.61,0,0,1,25,8.06c1.12-.1,2.61,0,4.38,0s5.67-.25,6.24-.24a6.82,6.82,0,0,0,1.48-.06c.41-.09.25-.38.6-.38a.93.93,0,0,1,.79.24A2.9,2.9,0,0,1,38.86,9v2Z"/><path class="cls-1" d="M38.08,50.62s-9.32,7.5-20.76,5.13c-10.46-2.25-3.8-11.82-3.8-11.82l6.38-6.81S24,35.06,24.25,35s5.34-2.73,7-4.67A17.57,17.57,0,0,0,33.82,26l2-5.35,1.93-5.87a.14.14,0,0,0-.15-.18l-1.08.14.63-3S42.74,9.36,44,9.11a9.85,9.85,0,0,1,3.82.27,4.16,4.16,0,0,1,2.76,3.17,11.84,11.84,0,0,1,.28,4.62,6,6,0,0,0-.73-1.78c-.43-.54-1.29-1.51-3.84-1.85a33.12,33.12,0,0,0-4.45,0,.66.66,0,0,0-.6.44l-1.64,4.42a11.73,11.73,0,0,1,3.89-1.21,14.63,14.63,0,0,1,5.41,1.06,5.43,5.43,0,0,1,1.92,1.12c.67,2.4,1.27,5.79-.1,8.69-.76,1.6-3.53,2.73-4,4.19s-1.54,5-2.48,8.49c0,0-1.33,3.86-1.39,4s-1.29,2.34-1.29,2.34"/><path class="cls-5" d="M41.59,47.06a.57.57,0,0,0,.1-.42,2.69,2.69,0,0,0-.82-2.5c-1.45-1.54-6.82-3.61-11.87-5A68.38,68.38,0,0,0,18.69,37a15.85,15.85,0,0,0-2.2,0,2.89,2.89,0,0,0-1.27.88l-2.09,3.9S13,42.66,13,43c-.1,1.76.53,1.31.56.75s.42-1.65,1-1.73a30.68,30.68,0,0,1,5.14.61c3.58.71,6.46,1.53,7.57,1.87s7,2.09,9.56,3.65A3.48,3.48,0,0,1,38,49.26a6.36,6.36,0,0,1,.07,1.36C41.2,48.25,41.59,47.06,41.59,47.06Z"/><path class="cls-6" d="M41.59,47.06a.57.57,0,0,0,.1-.42,2.69,2.69,0,0,0-.82-2.5c-1.45-1.54-6.82-3.61-11.87-5A68.38,68.38,0,0,0,18.69,37a15.85,15.85,0,0,0-2.2,0,2.89,2.89,0,0,0-1.27.88l-2.09,3.9S13,42.66,13,43c-.1,1.76.53,1.31.56.75s.42-1.65,1-1.73a30.68,30.68,0,0,1,5.14.61c3.58.71,6.46,1.53,7.57,1.87s7,2.09,9.56,3.65A3.48,3.48,0,0,1,38,49.26a6.36,6.36,0,0,1,.07,1.36C41.2,48.25,41.59,47.06,41.59,47.06Z"/><path class="cls-1" d="M44,39.46c-.18-1.09-3.74-6.77-3.74-6.77a43.41,43.41,0,0,0-4-5c-1.79-1.77-4.8-3.9-5.83-4.84a6.08,6.08,0,0,1-1.82-2.64A2.82,2.82,0,0,1,29,18.55c.17-.27,2.81-3.1,2.81-3.1s1.27-1.69,1.82-1.69.81.3.85.5a.4.4,0,0,1-.29.48c-.17,0-.41-.61-.62-.51a2,2,0,0,0-1,1.79A6.31,6.31,0,0,0,34,18.65c.91,1,2.13,2.44,3,3.26a26.85,26.85,0,0,1,3.25,3A30.73,30.73,0,0,1,44,30.33c.57,1.1,1.49,3.18,1.68,3.7s.66,2.78.66,2.78a.39.39,0,0,1,0,.26c-.27.55-1.77,3.26-2,3.65S44.09,40.29,44,39.46Z"/><path class="cls-1" d="M46.75,32.23c1.3-.17,5.5-5.6,5.92-6.32a8.38,8.38,0,0,0,.57-2.49,16.07,16.07,0,0,0-.06-2.25,22.75,22.75,0,0,0-1.34-3.71,3.09,3.09,0,0,1-.19-.61l-.51-2.66a3.76,3.76,0,0,0-.13-.48l-.64-1.86.22.7a41.39,41.39,0,0,1,.13,8.56,44.06,44.06,0,0,1-1.56,8.2,7.6,7.6,0,0,1-2.32,2.53L46,35.44"/><path class="cls-1" d="M34.78,19.55V16.9a.7.7,0,0,1,.18-.48c.53-.57,2-2.18,2.2-2.36s.29-2.43-.35-2.7a1.65,1.65,0,0,0-1.22,0l-2.35,2.16-.81.86c-.1.1-.1.41-.1.41"/></g></g></svg>