<svg xmlns="http://www.w3.org/2000/svg" viewBox="0 0 75.26 57.55"><defs><style>.cls-1,.cls-7,.cls-8{fill:none;}.cls-1,.cls-3,.cls-4,.cls-5,.cls-7,.cls-8{stroke:#333;}.cls-1,.cls-3,.cls-4,.cls-5,.cls-6,.cls-7,.cls-8,.cls-9{stroke-miterlimit:10;}.cls-1{stroke-width:4px;}.cls-2,.cls-3,.cls-4,.cls-9{fill:#f6f5eb;}.cls-4,.cls-8{stroke-linecap:round;}.cls-4,.cls-5,.cls-7,.cls-8{stroke-width:2px;}.cls-5,.cls-6{fill:#ffd900;}.cls-6,.cls-9{stroke:#000;}</style></defs><g id="レイヤー_2" data-name="レイヤー 2"><g id="レイヤー_1-2" data-name="レイヤー 1"><path class="cls-1" d="M59.7,12.88l-.16-3c0-1-.59-4.87-1.36-5.9a5.25,5.25,0,0,0-2.29-1.66,2.36,2.36,0,0,0-1.8-.18c-1,.23-1.7,2.15-2.51,3.19s-1.16,1.59-1.76,1.76a18.28,18.28,0,0,1-2.67.19l-8.74-.07a2.32,2.32,0,0,0-1.43,0,9.42,9.42,0,0,0-2.11,1.56c-.76.64-6.73,7.26-8.18,8.23s-8.49,4.78-10.21,5.49a11.93,11.93,0,0,1-3.64,1.07,9.62,9.62,0,0,0-3.51,1.62L4,29a6.39,6.39,0,0,0-1.88,2.53,9.93,9.93,0,0,0,0,3.57,5.38,5.38,0,0,0,1.45,3,16,16,0,0,0,4.6,2.31,28.74,28.74,0,0,0,6,1.1c1,0,2.42-.11,2.42-.11"/><path class="cls-2" d="M59.7,12.88l-.16-3c0-1-.59-4.87-1.36-5.9a5.25,5.25,0,0,0-2.29-1.66,2.36,2.36,0,0,0-1.8-.18c-1,.23-1.7,2.15-2.51,3.19s-1.16,1.59-1.76,1.76a18.28,18.28,0,0,1-2.67.19l-8.74-.07a2.32,2.32,0,0,0-1.43,0,9.42,9.42,0,0,0-2.11,1.56c-.76.64-6.73,7.26-8.18,8.23s-8.49,4.78-10.21,5.49a11.93,11.93,0,0,1-3.64,1.07,9.62,9.62,0,0,0-3.51,1.62L4,29a6.39,6.39,0,0,0-1.88,2.53,9.93,9.93,0,0,0,0,3.57,5.38,5.38,0,0,0,1.45,3,16,16,0,0,0,4.6,2.31,28.74,28.74,0,0,0,6,1.1c1,0,2.42-.11,2.42-.11"/><path class="cls-3" d="M31.44,14.15l-1.22-.65-1.29,1.33,1.59.61,1,.21Z"/><path class="cls-3" d="M22.86,19.1s1.18.48,1.18.48a7.79,7.79,0,0,1-.37,1.24c-.07,0-1.42-.58-1.49-.64s-.57-.4-.57-.4Z"/><path class="cls-3" d="M21.07,20.58s.66,2.18.61,2.19S20,23.88,20,23.88l-.61-2.81Z"/><path class="cls-4" d="M3.7,28.16a4.21,4.21,0,0,0-.17,3.73c1.24,2.17,4,3.33,6.73,4s11.12.62,11.12.62"/><path class="cls-5" d="M35.82,10.72c0-.05,4.33-5.86,4.82-6.18a4.21,4.21,0,0,1,2-.6,7.81,7.81,0,0,1,2.78,1.13,8.53,8.53,0,0,1,1.9,2.48c.24.49,1,3.17,1,3.17L48.48,12"/><path class="cls-4" d="M18.08,36.41a31.83,31.83,0,0,0,.51-3.28c.08-1.21-.23-6.27-.13-6.84a4.08,4.08,0,0,1,1.4-2.23c.75-.51,10.22-6.94,11.4-7.88s7.16-5.71,7.82-5.94a12.44,12.44,0,0,1,3.69-.92,7.47,7.47,0,0,1,3.66,1.46L48,12"/><path class="cls-3" d="M34.87,8.73s.67,2.19.81,2.55,1.38,2.25,1.54,2.52a2.74,2.74,0,0,1,.23,1.12c0,.29-.15.67-.32.7a.55.55,0,0,1-.59-.13,17.16,17.16,0,0,1-1.92-2.61c-.25-.57-.92-3-.92-3"/><path class="cls-3" d="M31.48,12.19c.08.06,3.95.14,4.49.17s2.21.3,2.67.37,1.67.43,2,.43a1,1,0,0,0,.71-.61c.05-.21-.37-.8-.74-.91a20.58,20.58,0,0,0-2.66-.73A17.63,17.63,0,0,0,35,10.82c-.86,0-2.34.08-2.34.08Z"/><path class="cls-3" d="M33.17,18.11a1.09,1.09,0,0,0,.38-.9c-.1-.34-.55-1.7-.61-2.11a5.12,5.12,0,0,1,0-1.58l.3-.36-.84.25a3.11,3.11,0,0,0-.92.5.75.75,0,0,0,0,.24,8.34,8.34,0,0,0,0,1.38A19,19,0,0,0,32,17.68a2.48,2.48,0,0,0,.89.55C33,18.23,33,18.19,33.17,18.11Z"/><path class="cls-3" d="M29.62,16.05a3.58,3.58,0,0,0-.56,1.45,15.42,15.42,0,0,0,.49,1.83,2.69,2.69,0,0,1,.07,1.14c-.1.26-.07.63-.28.7a1.66,1.66,0,0,1-1-.19,8,8,0,0,1-.83-1.9,2,2,0,0,1-.16-.95,8.12,8.12,0,0,1,.32-1.19,1.36,1.36,0,0,1,.43-.39C28.3,16.44,29.62,16.05,29.62,16.05Z"/><path class="cls-3" d="M25.91,18.84s.21.85-.07.9-.51,0-.55.18a6,6,0,0,0,.17,1.36,11.84,11.84,0,0,1,.36,1.59c0,.28-.21,1.05-.41,1.12a1,1,0,0,1-.65,0,1.69,1.69,0,0,1-.63-.7,18.31,18.31,0,0,1-.46-2.09A5.77,5.77,0,0,1,24,19.58a.48.48,0,0,1,.09-.13,3,3,0,0,1,.94-.45Z"/><path class="cls-3" d="M21.75,26.77a1.47,1.47,0,0,0,0-1.17c-.22-.29-3.29-3.23-3.55-3.4a4,4,0,0,0-.81-.36.33.33,0,0,0-.14,0L16,22.29a.2.2,0,0,0-.14.2v.11a.2.2,0,0,0,.07.16l.7.62s2.33,1.77,2.69,2.15A14.83,14.83,0,0,0,20.57,27,2.42,2.42,0,0,0,21.75,26.77Z"/><path class="cls-1" d="M72.65,26c1.18,1.11.35,5.25,0,6.7A5.94,5.94,0,0,1,71,35.81c-.7.7-9.06,5.46-11.8,7.34s-5.44,4.57-8.29,6.57a29.84,29.84,0,0,1-15.38,5.7c-7.37.48-12-.33-16.24-2.26a10.31,10.31,0,0,1-4.52-4.41,6.61,6.61,0,0,1,0-4c.19-.79.54-3.18,2.26-3.45"/><path class="cls-2" d="M72.65,26c1.18,1.11.35,5.25,0,6.7A5.94,5.94,0,0,1,71,35.81c-.7.7-9.06,5.46-11.8,7.34s-5.44,4.57-8.29,6.57a29.84,29.84,0,0,1-15.38,5.7c-7.37.48-12-.33-16.24-2.26a10.31,10.31,0,0,1-4.52-4.41,6.61,6.61,0,0,1,0-4c.19-.79.54-3.18,2.26-3.45"/><path class="cls-1" d="M34.27,49.82h.67c7-.17,15.06-4.36,18.67-7.39s8.52-7,10.27-8.07,8-5.15,8.39-5.83A7.53,7.53,0,0,0,72.65,26l.1-5.89s-.18-7.85-.35-8.6a3,3,0,0,0-.88-1.62A5.74,5.74,0,0,0,69,8.33a6.83,6.83,0,0,0-3.31,0c-.75.27-1.16,1.67-2.58,2.5s-3.74,2.23-3.74,2.23l-9-.29a5.69,5.69,0,0,0-1.33-.65,3.84,3.84,0,0,0-1.51,0,9.77,9.77,0,0,0-2.09,1.29s-5.28,6.7-7.67,8.82-11.13,9.66-11.13,9.66l-4.36,3.46S19,39.23,17,41.32"/><path class="cls-2" d="M34.27,49.82h.67c7-.17,15.06-4.36,18.67-7.39s8.52-7,10.27-8.07,8-5.15,8.39-5.83A7.53,7.53,0,0,0,72.65,26l.1-5.89s-.18-7.85-.35-8.6a3,3,0,0,0-.88-1.62A5.74,5.74,0,0,0,69,8.33a6.83,6.83,0,0,0-3.31,0c-.75.27-1.16,1.67-2.58,2.5s-3.74,2.23-3.74,2.23l-9-.29a5.69,5.69,0,0,0-1.33-.65,3.84,3.84,0,0,0-1.51,0,9.77,9.77,0,0,0-2.09,1.29s-5.28,6.7-7.67,8.82-11.13,9.66-11.13,9.66l-4.36,3.46S19,39.23,17,41.32"/><path class="cls-6" d="M28.93,30.42s19.75-15.1,20.19-15.53c.2-.2,3-4.8,5.2-4.58s4.78,1.6,4.72,3c0,.93,5.16,4.92,5.05,5.8,0,.24.25,2.39-.91,2.12a42.72,42.72,0,0,1-5.88-2.33s-2.72.17-2.68.21c.36.37-19.75,16.17-19.75,16.17"/><path class="cls-7" d="M47.31,16.12s5-5.42,5.45-5.85a2.18,2.18,0,0,1,1.65-.43,9.43,9.43,0,0,1,3.45,1.8,43.84,43.84,0,0,1,3.76,4.26c.14.11,2.08,2,2.44,2.33a1.6,1.6,0,0,1,.32,1.51c-.17.37-1.2,2.33-1.2,2.33"/><path class="cls-8" d="M73.54,13.51s-1.29,3.79-1.65,4.9a19.66,19.66,0,0,1-2.58,4.14,5.07,5.07,0,0,1-2.47,1.24c-1,.16-2.67-.66-3.39-1.07s-2.1-1.74-2.85-2.1a8,8,0,0,0-3.07-1,6.34,6.34,0,0,0-2.58.27,53.42,53.42,0,0,0-4.68,2.63l-1.43.78"/><path class="cls-9" d="M30.37,31.67a8.12,8.12,0,0,0,1.56.7c.3,0,2.34-.08,2.52,0L37,33.58l-1.16,1S32.74,33.07,32.55,33s-1.88-.78-1.88-.78Z"/><path class="cls-8" d="M52.91,19.84S35,35.19,34.27,36a2.79,2.79,0,0,0-1,2.1,44,44,0,0,0,1,4.6s.81,4.92,0,7.12"/><path class="cls-4" d="M17,40.31s-.38,5.55,2,7.49c3.28,2.72,12.66,3,15.25,3"/><path class="cls-3" d="M55.89,22.45c.38.05.54-.26.62-.6a1.32,1.32,0,0,0-.62-1.33c-.32-.1-12.68-4.47-13.31-4.47a1.71,1.71,0,0,0-1,.32s-.65.49-.65.9.12,1.16.43,1.14,0-1.1.33-.91c.82.66,12.06,3.86,12.64,4.09S55.5,22.39,55.89,22.45Z"/><path class="cls-3" d="M27.12,29.9a35.38,35.38,0,0,1,3.55,2.28s5.62,4.1,5.83,4.28a2.67,2.67,0,0,1,.65,1.15c0,.23-.08.8-.35,1a1.63,1.63,0,0,1-1.16.16c-.28-.12-5.56-4.29-5.62-4.42s-2.55-2.1-2.9-2.37-1.12-.13-1.21-.36S26.8,29.9,27.12,29.9Z"/><path class="cls-3" d="M49.42,22.76l-8.51-3.51a5.56,5.56,0,0,0-1-.17,2.25,2.25,0,0,0-.83.38c-.15.15-.71.66-.83.81a2,2,0,0,0-.43.75,2.13,2.13,0,0,0,.16.73.65.65,0,0,0,.25.15c.26-.76.67-1.33.88-1.34s1.48.31,1.48.31L46.32,23l1.81.86"/><path class="cls-3" d="M45.41,26.28c-.14-.1-7.19-3.17-7.19-3.17a9.7,9.7,0,0,0-1.5-.25,1.86,1.86,0,0,0-1.13.43,4.67,4.67,0,0,0-1.11,1,2.56,2.56,0,0,0,0,.75l.79-.66s.22-.37.52-.34,3.33,1.11,3.33,1.11l5,2.24"/><path class="cls-3" d="M41.4,29.74c-.19-.14-7.16-3.63-7.59-3.72a4.8,4.8,0,0,0-1.56,0,4.77,4.77,0,0,0-1.29.89s-.62.43-.7.7.07,1.16.11,1a1.77,1.77,0,0,1,1.32-1.13,6,6,0,0,1,2.76.64c.64.29,3.12,1.19,3.13,1.22S40,30.92,40,30.92"/><path class="cls-3" d="M32.07,28.6a26.9,26.9,0,0,1,2.2,2.88,33.44,33.44,0,0,1,1.28,3.36l-.68.41L33,33.91l-1-2.24L30.83,29.6Z"/><path class="cls-3" d="M39.76,21.88l.88,1.1,2.29,4.66s1.58,2.11,1.67,2.26a4.71,4.71,0,0,1,.27,1.29,2.12,2.12,0,0,1-.54.7,1.24,1.24,0,0,1-.74,0c-.14-.11-2-2.77-2-2.77l-2.45-4.76-.7-1.43Z"/><path class="cls-3" d="M36.09,25.37s.81,1.05,1.15,1.54.56,2.35,1,3l1.4,2a13.88,13.88,0,0,1,1.47,2.23c0,.37-.53,1-.68,1.11s-.28.29-.5.21a19.74,19.74,0,0,1-2.16-2.55c-.28-.41-1.89-3.83-1.89-3.83l-1-2.87Z"/><path class="cls-3" d="M45.25,13.38l5.63,8.2s1.58,1.69,1.73,1.94a2.16,2.16,0,0,1,.27,1,8.59,8.59,0,0,1-.52.74.23.23,0,0,1-.34,0c-.31-.3-.92-.88-1.05-1S49,22.15,49,22.15l-4.92-7.31-.31-.57a.28.28,0,0,1,.08-.36,1.29,1.29,0,0,1,.47-.36,4.68,4.68,0,0,1,.66-.26A.22.22,0,0,1,45.25,13.38Z"/><path class="cls-3" d="M43,18.49a.19.19,0,0,1,.27,0c.47.51,2.1,2.27,2.37,2.64s.94,1.93,1.27,2.27.75.52,1,.78A23.56,23.56,0,0,1,49,26.7l.1.7a.43.43,0,0,1-.12.36l-.8.76a.29.29,0,0,1-.43,0c-.35-.48-1.07-1.47-1.09-1.57s-2.84-4.46-2.84-4.46l-1.7-3a.23.23,0,0,1,0-.28Z"/></g></g></svg>