<svg xmlns="http://www.w3.org/2000/svg" viewBox="0 0 62.32 60.04"><defs><style>.cls-1,.cls-5{fill:none;stroke-miterlimit:10;}.cls-1,.cls-3,.cls-5{stroke:#333;}.cls-1{stroke-width:4px;}.cls-2,.cls-3{fill:#f6f5eb;}.cls-3,.cls-5{stroke-linecap:round;stroke-width:2px;}.cls-3{stroke-linejoin:round;}.cls-4{fill:#ffd900;}</style></defs><g id="レイヤー_2" data-name="レイヤー 2"><g id="レイヤー_1-2" data-name="レイヤー 1"><path class="cls-1" d="M40,10.09v.81a1.31,1.31,0,0,0,.13.55l.18.36a1.13,1.13,0,0,1,.12.51l.13,24.58a.26.26,0,0,0,.38.22,3.77,3.77,0,0,0,1.18-.63c1.6-1.36,2.68-4,3.38-5.37S48.84,22,50,20a7.8,7.8,0,0,1,3.37-3.24,29,29,0,0,1,4.34-1.57,1.83,1.83,0,0,1,1.83.71c.41.45.86,1.36.72,1.62s-1.62.22-2.69.36A7.25,7.25,0,0,0,54,19.76c-1.07,1-1.93,3.93-1.93,3.93S48.5,38,47.77,40.48s-1.17,4.32-2,5.44a7.69,7.69,0,0,1-2.46,1.86.53.53,0,0,0-.3.47l-.12,3.43a1.07,1.07,0,0,1-.26.68C41.57,53.59,37,58,27.25,58c-9.28,0-12.81-3.59-13.8-4.9a1.73,1.73,0,0,1-.34-.93,27.92,27.92,0,0,1-.31-5.6,17.24,17.24,0,0,1,1.59-4.23,1.09,1.09,0,0,0,.08-.81l.19-.88L15,39.38s1-6.63,1.24-11.27,0-11.65,0-11.65l.23-2.25.08-2.12a1.39,1.39,0,0,1,.18-.63l.25-.41a1,1,0,0,0,0-.58L16.78,9.3"/><path class="cls-2" d="M40,10.09v.81a1.31,1.31,0,0,0,.13.55l.18.36a1.13,1.13,0,0,1,.12.51l.13,24.58a.26.26,0,0,0,.38.22,3.77,3.77,0,0,0,1.18-.63c1.6-1.36,2.68-4,3.38-5.37S48.84,22,50,20a7.8,7.8,0,0,1,3.37-3.24,29,29,0,0,1,4.34-1.57,1.83,1.83,0,0,1,1.83.71c.41.45.86,1.36.72,1.62s-1.62.22-2.69.36A7.25,7.25,0,0,0,54,19.76c-1.07,1-1.93,3.93-1.93,3.93S48.5,38,47.77,40.48s-1.17,4.32-2,5.44a7.69,7.69,0,0,1-2.46,1.86.53.53,0,0,0-.3.47l-.12,3.43a1.07,1.07,0,0,1-.26.68C41.57,53.59,37,58,27.25,58c-9.28,0-12.81-3.59-13.8-4.9a1.73,1.73,0,0,1-.34-.93,27.92,27.92,0,0,1-.31-5.6,17.24,17.24,0,0,1,1.59-4.23,1.09,1.09,0,0,0,.08-.81l.19-.88L15,39.38s1-6.63,1.24-11.27,0-11.65,0-11.65l.23-2.25.08-2.12a1.39,1.39,0,0,1,.18-.63l.25-.41a1,1,0,0,0,0-.58L16.78,9.3"/><path class="cls-3" d="M4.37,14.5A35.25,35.25,0,0,0,4,21c.2,2.72,3.36,8.46,3.36,8.46L13.75,40l-1,2.59-1.92-1.57a.85.85,0,0,1-.56-.4c-1-1.66-5.74-9.34-6.76-11.38A16.38,16.38,0,0,1,1.33,23.5c-.41-2.57-.46-3,0-4.68A8.38,8.38,0,0,1,4.37,14.5Z"/><path class="cls-3" d="M15.23,14.17l.07-.06a.7.7,0,0,1-.48-.26c-.52-.63-2.08-2.37-3.64-2.66a8.24,8.24,0,0,0-6.44,1.27c-1.6,1.11-3.45,6.36-3.45,6.36s3.14-5.15,4.78-5.39a6.19,6.19,0,0,1,3.38.64c.73.22,5.88,4.79,5.88,4.79Z"/><path class="cls-1" d="M24.9,5.35c-4.73.51-8.15,2-8.15,3.7,0,2.15,5.3,3.9,11.84,3.9s11.84-1.75,11.84-3.9c0-1.73-3.42-3.19-8.15-3.7"/><path class="cls-4" d="M24.9,5.35c-4.73.51-8.15,2-8.15,3.7,0,2.15,5.3,3.9,11.84,3.9s11.84-1.75,11.84-3.9c0-1.73-3.42-3.19-8.15-3.7"/><path class="cls-1" d="M24.73,6.72,25,6.54A.38.38,0,0,0,25.06,6h0a.76.76,0,0,1-.16-.46V3.71a.84.84,0,0,1,.28-.63A4.92,4.92,0,0,1,28.59,2,4.9,4.9,0,0,1,32,3.08a.84.84,0,0,1,.28.63V5.53a.76.76,0,0,1-.16.46h0a.38.38,0,0,0,.08.55l.25.18"/><path class="cls-4" d="M24.73,6.72,25,6.54A.38.38,0,0,0,25.06,6h0a.76.76,0,0,1-.16-.46V3.71a.84.84,0,0,1,.28-.63A4.92,4.92,0,0,1,28.59,2,4.9,4.9,0,0,1,32,3.08a.84.84,0,0,1,.28.63V5.53a.76.76,0,0,1-.16.46h0a.38.38,0,0,0,.08.55l.25.18"/><path class="cls-5" d="M57.19,14.37A3.17,3.17,0,0,0,56.63,17c.26.81,1.76,1.58,1.76,1.58"/><path class="cls-5" d="M32.88,6.72s-4.56,2.43-8.61,0"/></g></g></svg>