<svg xmlns="http://www.w3.org/2000/svg" viewBox="0 0 70.1 57.92"><defs><style>.cls-1{fill:#f6f5eb;}.cls-1,.cls-2,.cls-4,.cls-5,.cls-6{stroke:#333;}.cls-1,.cls-4,.cls-5,.cls-6{stroke-miterlimit:10;}.cls-1,.cls-4,.cls-5{stroke-width:2px;}.cls-2,.cls-4,.cls-5,.cls-6{fill:none;}.cls-2,.cls-5{stroke-linecap:round;}.cls-2{stroke-linejoin:round;stroke-width:4px;}.cls-3{fill:#ffd900;}</style></defs><g id="レイヤー_2" data-name="レイヤー 2"><g id="レイヤー_1-2" data-name="レイヤー 1"><path class="cls-1" d="M3.19,27.56a8,8,0,0,1,1.28-2A24.7,24.7,0,0,1,10,22.13c1.81-.8,6.88-1.88,9.22-2.85a44.92,44.92,0,0,0,8.39-4.35C29.53,13.46,39.19,3.14,39.19,3.14s.93-1,1.48-.94,1.4.74,1.51.77S42,3.81,45.9,4.09,54.26,2.58,56.64,2.2s5.5-2.12,7.18-.57,1.42,1.23,1.89,2.72a37.32,37.32,0,0,1,1,7.37,40.34,40.34,0,0,1-.53,4.88L44.88,30.93,21.75,34.67S5,32.1,4.7,31.81s-2-2.66-2-2.66Z"/><path class="cls-2" d="M3.19,27.56s-.07,1.1,2,2.46a18.93,18.93,0,0,0,7.94,2.82c3.46.51,12,.93,12,.93l.87,1.62s-4.47.14-8.61,0a49.09,49.09,0,0,1-11.2-1.72c-3.14-.87-4-2.33-4.23-3a3.14,3.14,0,0,1,.37-2C2.59,28.47,3.19,27.56,3.19,27.56Z"/><path class="cls-3" d="M3.19,27.56s-.07,1.1,2,2.46a18.93,18.93,0,0,0,7.94,2.82c3.46.51,12,.93,12,.93l.87,1.62s-4.47.14-8.61,0a49.09,49.09,0,0,1-11.2-1.72c-3.14-.87-4-2.33-4.23-3a3.14,3.14,0,0,1,.37-2C2.59,28.47,3.19,27.56,3.19,27.56Z"/><path class="cls-1" d="M8.45,48.12a5,5,0,0,1,1-2.43c.95-1.29,5.67-4.44,5.67-4.44s2.38-1.74,4.65-3.18a60.68,60.68,0,0,0,8.88-7.6c2.26-2.42,10.06-12.39,10.06-12.39s2.67-3.53,3-3.67.33-.08.68,0a1.73,1.73,0,0,1,.69.5.39.39,0,0,0,.28.13,20.35,20.35,0,0,0,2.81.12,16.44,16.44,0,0,0,4.38-1.47s4.29-2.8,6.47-3.33S61.87,9,63.74,9.83s2.15,1.57,2.42,2.31.17,1.8.46,3.18.75,3.53,1,5.82a11.73,11.73,0,0,1,0,3.59l.3,3.36L57.85,36.94l-4.77,4.57-5.33,7.3L38,53,15.09,54.7l-7-3.85Z"/><path class="cls-2" d="M8.51,47.66A3.28,3.28,0,0,0,9,50.23a7.33,7.33,0,0,0,4,2.31c2.4.69,4.19,1.77,12.16,1a108.72,108.72,0,0,0,16.92-2.81A12.59,12.59,0,0,0,48,47.18c2.3-2.21,5.61-7.57,5.87-7.82s6.38-6.13,6.38-6.13,5.51-4.19,6.21-5.1a9.75,9.75,0,0,0,1.19-2.21,12,12,0,0,0,.3-1.19c.45.53,0,6.86-.3,7.57s-7.91,6.38-7.91,6.38l-2.89-.09-3.49,3.49s-2.51,4-3.66,5.44A14.66,14.66,0,0,1,43.7,52.1c-3,1.27-12.12,2.87-14.88,3.24a105.76,105.76,0,0,1-12.95.53,13.67,13.67,0,0,1-6.1-1.72,6.47,6.47,0,0,1-2.18-2,3.35,3.35,0,0,1-.25-1,19.46,19.46,0,0,1,.23-2c.12-.4.27-.77.27-.77Z"/><path class="cls-3" d="M8.51,47.66A3.28,3.28,0,0,0,9,50.23a7.33,7.33,0,0,0,4,2.31c2.4.69,4.19,1.77,12.16,1a108.72,108.72,0,0,0,16.92-2.81A12.59,12.59,0,0,0,48,47.18c2.3-2.21,5.61-7.57,5.87-7.82s6.38-6.13,6.38-6.13,5.51-4.19,6.21-5.1a9.75,9.75,0,0,0,1.19-2.21,12,12,0,0,0,.3-1.19c.45.53,0,6.86-.3,7.57s-7.91,6.38-7.91,6.38l-2.89-.09-3.49,3.49s-2.51,4-3.66,5.44A14.66,14.66,0,0,1,43.7,52.1c-3,1.27-12.12,2.87-14.88,3.24a105.76,105.76,0,0,1-12.95.53,13.67,13.67,0,0,1-6.1-1.72,6.47,6.47,0,0,1-2.18-2,3.35,3.35,0,0,1-.25-1,19.46,19.46,0,0,1,.23-2c.12-.4.27-.77.27-.77Z"/><path class="cls-4" d="M20.71,37.44s2.38-.69,5.5,1.29,6.35,6.75,7.2,9a22.9,22.9,0,0,1,1.16,4.64"/><path class="cls-5" d="M28.66,30.47l6.9,4.18s1.9,1.07,3.3,1.79a11.29,11.29,0,0,0,1.3.59c.9.29,1.87.4,4.36-.79s7.94-5.62,9.53-6,4.52-.05,5.32,1.58"/><path class="cls-4" d="M52.29,20.31s-5.14,2.66-7.84,6-5.59,10.12-5.59,10.12"/><path class="cls-6" d="M33,31.81c.11-.17,8.67-13.89,9.86-14.4s4.68,0,4.68,0"/><line class="cls-6" x1="32.27" y1="30.68" x2="34.57" y2="32.08"/><line class="cls-6" x1="32.96" y1="27.56" x2="37.98" y2="31.08"/><line class="cls-6" x1="34.57" y1="24.73" x2="39.87" y2="28.37"/><line class="cls-6" x1="36.47" y1="22.46" x2="41.69" y2="25.58"/><line class="cls-6" x1="38.51" y1="19.91" x2="42.82" y2="22.13"/><path class="cls-6" d="M41.69,18l2.88,6s1.82,5.12,1.82,7.36a55.3,55.3,0,0,1-.81,6.79"/><path class="cls-6" d="M42.54,18.32s5.46,6,6.12,7.26S51.72,31,50,32.08s-4.77-6-4.77-6"/><path class="cls-6" d="M41.29,16.64S40.4,15.2,40,15.05a1,1,0,0,0-1,0c-.3.17-1,2.57-1.1,2.68a36.9,36.9,0,0,1-2.51,3.6A3.81,3.81,0,0,1,33,22.46c-1.27,0-2.55-.79-2.29-2.15S35,16.41,35,16.41l2.6-.6,2.61.49.72.49v.79l.74-.68L44,18l1.54,2.7"/><path class="cls-4" d="M40.23,3.56h1.21A8.72,8.72,0,0,1,44,5c.16.11,5.72,4.93,7.23,5.59s3.21.15,5.71-.23,3.36-.56,4.76-2,2.76-3.1,2.95-4.16a3.85,3.85,0,0,0-.21-2"/><path class="cls-4" d="M18.68,19.5a7.76,7.76,0,0,1,2.43,2.63,16.73,16.73,0,0,1,1.64,4.7l.65,6.84"/><path class="cls-4" d="M26.48,15.72s3,2.78,3.36,3,3.31,2.07,3.58,2.32a11.61,11.61,0,0,0,2.68.38"/><line class="cls-6" x1="28.66" y1="15.72" x2="39.53" y2="4.15"/><line class="cls-6" x1="32.27" y1="15.37" x2="29.44" y2="13.27"/><line class="cls-6" x1="34.57" y1="13.27" x2="31.29" y2="10.5"/><line class="cls-6" x1="36.47" y1="10.84" x2="33.42" y2="8.46"/><line class="cls-6" x1="38.51" y1="8.68" x2="35.73" y2="6.3"/><path class="cls-6" d="M38,4.15c-.38.11-1.67.79-3.41,1.64s-1.15,2-2.3,3.29c-1.83,2.14-3.76.68-4.63-1.19s-.65-2.5.55-3.29c1.59-1,10.32-1,10.32-1a7.53,7.53,0,0,1,4,1c1.5,1.08,1.84,3.84,2.38,5.33s0,5.79,0,5.79L44.57,18s-1.07-5.9-1.41-7.71A10.48,10.48,0,0,0,41.4,6.79a24.2,24.2,0,0,0-2.54-2.64"/><path class="cls-4" d="M63.74,9.83a5.61,5.61,0,0,1,1.14,1.52,7,7,0,0,1,.62,3.17A9.17,9.17,0,0,1,62,20.65c-2.27,1.64-3.85,1.64-5.16,1.3a38.52,38.52,0,0,1-7.31-3.23c-1.48-1-2.78-1.76-3-2S43.32,15,43.32,15a7.19,7.19,0,0,1,0,1.3,2.41,2.41,0,0,1-.5,1.07"/></g></g></svg>