<?xml version="1.0" encoding="utf-8"?>
<!-- Generator: Adobe Illustrator 26.0.1, SVG Export Plug-In . SVG Version: 6.00 Build 0)  -->
<svg version="1.1" id="レイヤー_1" xmlns="http://www.w3.org/2000/svg" xmlns:xlink="http://www.w3.org/1999/xlink" x="0px"
	 y="0px" viewBox="0 0 467 273.4" style="enable-background:new 0 0 467 273.4;" xml:space="preserve">
<style type="text/css">
	.st0{fill:#FFD900;stroke:#333333;stroke-miterlimit:10;}
	.st1{fill:none;stroke:#333333;stroke-width:4;stroke-miterlimit:10;}
	.st2{fill:#FFD900;}
	.st3{fill:#F6F5EB;}
	.st4{enable-background:new    ;}
	.st5{fill:#333333;}
	.st6{fill:none;stroke:#000000;stroke-width:2;stroke-linecap:round;stroke-linejoin:round;}
	.st7{fill:#F9E44D;stroke:#333333;stroke-miterlimit:10;}
	.st8{fill:#FFFFFF;stroke:#333333;stroke-width:2;stroke-linecap:round;stroke-miterlimit:10;}
	.st9{fill:#FAF9F1;stroke:#333333;stroke-width:2;stroke-linecap:round;stroke-miterlimit:10;}
	.st10{fill:none;stroke:#333333;stroke-width:2;stroke-miterlimit:10;}
	.st11{fill:none;stroke:#333333;stroke-miterlimit:10;}
	.st12{fill:#F6F5EB;stroke:#000000;stroke-miterlimit:10;}
	.st13{fill:none;stroke:#000000;stroke-miterlimit:10;}
	.st14{fill:#FFD900;stroke:#000000;stroke-miterlimit:10;}
</style>
<g id="レイヤー_2_00000053541209143693441970000003424058311393613728_">
	<g id="レイヤー_1-2">
		<path class="st0" d="M129,57.3c-0.2-0.3-0.3-0.5-0.6-0.7c-0.3-0.3-0.5-0.5-0.8-0.8c-0.2-0.2-0.5-0.4-0.8-0.6
			c1.1-0.7,2.1-1.5,2.9-2.5c0.8-1,1.5-2.1,2-3.2c0.6-1.4,1-2.8,1.2-4.3c0.3-1.9,0.4-3.8,0.4-5.7h-3.7l0.2,0.2
			c-0.4,0.9-0.9,1.8-1.4,2.7s-1.1,1.7-1.7,2.6c0.4,0.3,0.9,0.7,1.4,1c0.5,0.3,1,0.7,1.5,1.1l1.2,0.8c-0.3,0.3-0.7,0.6-0.9,1
			c-0.3,0.4-0.6,0.7-0.8,1.1c-0.4-0.3-0.8-0.6-1.3-1s-1-0.8-1.5-1.2v9.5h-2.8v-8.6c-0.4,0.4-0.8,0.8-1.3,1.1s-0.9,0.7-1.4,1
			c-0.3-0.4-0.6-0.8-0.9-1.2s-0.7-0.7-1.1-1c0.7-0.4,1.4-0.9,2-1.4c0.7-0.6,1.4-1.2,2-1.9s1.2-1.3,1.8-2c0.5-0.6,0.9-1.3,1.3-1.9
			H120v-2.7h3.5v-4.1h2.8v4.1h2.2l1,0.7v-2.6h12.1v4.4c0,1.6,0,3.1-0.1,4.6s-0.2,2.7-0.3,3.8s-0.2,2-0.3,2.7c-0.1,1-0.4,2.1-0.9,3
			c-0.4,0.7-1,1.2-1.7,1.5c-0.8,0.3-1.7,0.4-2.5,0.4h-1.5c0-0.3-0.1-0.6-0.1-1s-0.1-0.8-0.2-1.1c-0.1-0.3-0.2-0.6-0.3-0.9h2
			c0.4,0,0.8,0,1.1-0.2c0.3-0.1,0.6-0.4,0.7-0.7c0.2-0.5,0.4-1,0.4-1.5c0.1-0.5,0.2-1.2,0.3-2.2s0.2-2.2,0.3-3.7s0.1-3,0.1-4.7v-1.7
			h-2.4c0,2.6-0.3,5.3-0.8,7.9c-0.4,2-1.2,4-2.3,5.7C132,54.7,130.6,56.1,129,57.3z M129.7,46.3c-0.3-0.3-0.6-0.6-0.9-0.8
			c-0.3-0.3-0.6-0.5-1-0.7c0.4-0.5,0.9-1,1.2-1.6c0.4-0.5,0.7-1.1,1-1.7l2.2,1.4c-0.2,0.4-0.5,0.7-0.7,1.1c-0.3,0.4-0.6,0.8-1,1.3
			S129.9,46,129.7,46.3L129.7,46.3z"/>
		<path class="st0" d="M156.4,52c-0.4-0.3-0.9-0.5-1.3-0.8c-0.4-0.2-0.9-0.5-1.4-0.6c0.4-0.5,0.8-1.1,1.1-1.7
			c0.4-0.7,0.8-1.4,1.1-2.1c0.4-0.7,0.7-1.5,1-2.2c0.2-0.6,0.5-1.2,0.6-1.9l2.9,1c-0.2,0.7-0.4,1.3-0.7,2s-0.6,1.5-1,2.2
			c-0.3,0.7-0.7,1.5-1.2,2.2C157.3,50.9,156.8,51.5,156.4,52z M164.9,56.5c-0.8,0.1-1.6-0.1-2.2-0.5c-0.5-0.4-0.7-1-0.6-1.6V41.1
			h3.1v11.8c0,0.2,0.1,0.4,0.2,0.6c0.2,0.1,0.5,0.2,0.8,0.2h3.2c0.6,0.1,1.1-0.2,1.4-0.7c0.3-0.8,0.5-1.6,0.5-2.4l0.9,0.4
			c0.4,0.1,0.7,0.3,1.1,0.4s0.7,0.2,1,0.3c-0.1,1.1-0.4,2.1-0.8,3.1c-0.2,0.6-0.7,1.1-1.2,1.5c-0.7,0.3-1.4,0.4-2.1,0.4L164.9,56.5z
			 M168.7,40.7c-0.6-0.5-1.3-1-2-1.5s-1.5-1-2.2-1.4c-0.6-0.4-1.3-0.7-2-1l1.5-2.4c0.7,0.3,1.4,0.7,2.2,1.1s1.6,0.9,2.4,1.4
			c0.7,0.4,1.3,0.8,1.9,1.3c-0.2,0.2-0.4,0.5-0.6,0.8s-0.5,0.6-0.7,0.9C169,40.2,168.8,40.4,168.7,40.7z M175.4,50.6
			c-0.7-1.3-1.5-2.5-2.4-3.7c-0.9-1.1-1.9-2.2-3-3.1l2.2-1.8c0.7,0.6,1.4,1.3,2.1,2c0.7,0.8,1.4,1.6,2.1,2.5
			c0.6,0.8,1.1,1.5,1.6,2.3c-0.3,0.1-0.6,0.3-0.9,0.5c-0.4,0.2-0.7,0.5-1,0.7C175.9,50.2,175.7,50.4,175.4,50.6z"/>
		<path class="st0" d="M194.8,57.1v-7.5c-1.4,0.6-3,1.3-4.6,1.9c-0.1-0.3-0.2-0.6-0.4-0.9c-0.2-0.3-0.4-0.7-0.5-1
			c-0.2-0.3-0.3-0.5-0.5-0.8c1.9-0.5,3.8-1.2,5.6-2c1.7-0.7,3.4-1.6,4.9-2.6h-9.8v-2.6h8.9v-2.1h-6.3V37h6.3v-2.7h3V37h3.6v2.2
			c1.1-1.3,2-2.7,2.8-4.3l2.6,1.4c-1.2,1.9-2.6,3.7-4.1,5.4h6v2.6h-8.7c-0.5,0.4-1,0.8-1.6,1.2s-1.1,0.8-1.7,1.2h8.1v10.4
			C208.4,57.1,194.8,57.1,194.8,57.1z M197.8,50.8h7.9v-1.7h-7.9V50.8z M197.8,54.7h7.9V53h-7.9V54.7z M201.4,41.7h1.2
			c0.4-0.3,0.7-0.7,1.1-1s0.7-0.7,1-1.1h-3.2L201.4,41.7z"/>
		<path class="st1" d="M129,57.3c-0.2-0.3-0.3-0.5-0.6-0.7c-0.3-0.3-0.5-0.5-0.8-0.8c-0.2-0.2-0.5-0.4-0.8-0.6
			c1.1-0.7,2.1-1.5,2.9-2.5c0.8-1,1.5-2.1,2-3.2c0.6-1.4,1-2.8,1.2-4.3c0.3-1.9,0.4-3.8,0.4-5.7h-3.7l0.2,0.2
			c-0.4,0.9-0.9,1.8-1.4,2.7s-1.1,1.7-1.7,2.6c0.4,0.3,0.9,0.7,1.4,1c0.5,0.3,1,0.7,1.5,1.1l1.2,0.8c-0.3,0.3-0.7,0.6-0.9,1
			c-0.3,0.4-0.6,0.7-0.8,1.1c-0.4-0.3-0.8-0.6-1.3-1s-1-0.8-1.5-1.2v9.5h-2.8v-8.6c-0.4,0.4-0.8,0.8-1.3,1.1s-0.9,0.7-1.4,1
			c-0.3-0.4-0.6-0.8-0.9-1.2s-0.7-0.7-1.1-1c0.7-0.4,1.4-0.9,2-1.4c0.7-0.6,1.4-1.2,2-1.9s1.2-1.3,1.8-2c0.5-0.6,0.9-1.3,1.3-1.9
			H120v-2.7h3.5v-4.1h2.8v4.1h2.2l1,0.7v-2.6h12.1v4.4c0,1.6,0,3.1-0.1,4.6s-0.2,2.7-0.3,3.8s-0.2,2-0.3,2.7c-0.1,1-0.4,2.1-0.9,3
			c-0.4,0.7-1,1.2-1.7,1.5c-0.8,0.3-1.7,0.4-2.5,0.4h-1.5c0-0.3-0.1-0.6-0.1-1s-0.1-0.8-0.2-1.1c-0.1-0.3-0.2-0.6-0.3-0.9h2
			c0.4,0,0.8,0,1.1-0.2c0.3-0.1,0.6-0.4,0.7-0.7c0.2-0.5,0.4-1,0.4-1.5c0.1-0.5,0.2-1.2,0.3-2.2s0.2-2.2,0.3-3.7s0.1-3,0.1-4.7v-1.7
			h-2.4c0,2.6-0.3,5.3-0.8,7.9c-0.4,2-1.2,4-2.3,5.7C132,54.7,130.6,56.1,129,57.3z M129.7,46.3c-0.3-0.3-0.6-0.6-0.9-0.8
			c-0.3-0.3-0.6-0.5-1-0.7c0.4-0.5,0.9-1,1.2-1.6c0.4-0.5,0.7-1.1,1-1.7l2.2,1.4c-0.2,0.4-0.5,0.7-0.7,1.1c-0.3,0.4-0.6,0.8-1,1.3
			S129.9,46,129.7,46.3L129.7,46.3z"/>
		<path class="st1" d="M156.4,52c-0.4-0.3-0.9-0.5-1.3-0.8c-0.4-0.2-0.9-0.5-1.4-0.6c0.4-0.5,0.8-1.1,1.1-1.7
			c0.4-0.7,0.8-1.4,1.1-2.1c0.4-0.7,0.7-1.5,1-2.2c0.2-0.6,0.5-1.2,0.6-1.9l2.9,1c-0.2,0.7-0.4,1.3-0.7,2s-0.6,1.5-1,2.2
			c-0.3,0.7-0.7,1.5-1.2,2.2C157.3,50.9,156.8,51.5,156.4,52z M164.9,56.5c-0.8,0.1-1.6-0.1-2.2-0.5c-0.5-0.4-0.7-1-0.6-1.6V41.1
			h3.1v11.8c0,0.2,0.1,0.4,0.2,0.6c0.2,0.1,0.5,0.2,0.8,0.2h3.2c0.6,0.1,1.1-0.2,1.4-0.7c0.3-0.8,0.5-1.6,0.5-2.4l0.9,0.4
			c0.4,0.1,0.7,0.3,1.1,0.4s0.7,0.2,1,0.3c-0.1,1.1-0.4,2.1-0.8,3.1c-0.2,0.6-0.7,1.1-1.2,1.5c-0.7,0.3-1.4,0.4-2.1,0.4L164.9,56.5z
			 M168.7,40.7c-0.6-0.5-1.3-1-2-1.5s-1.5-1-2.2-1.4c-0.6-0.4-1.3-0.7-2-1l1.5-2.4c0.7,0.3,1.4,0.7,2.2,1.1s1.6,0.9,2.4,1.4
			c0.7,0.4,1.3,0.8,1.9,1.3c-0.2,0.2-0.4,0.5-0.6,0.8s-0.5,0.6-0.7,0.9C169,40.2,168.8,40.4,168.7,40.7z M175.4,50.6
			c-0.7-1.3-1.5-2.5-2.4-3.7c-0.9-1.1-1.9-2.2-3-3.1l2.2-1.8c0.7,0.6,1.4,1.3,2.1,2c0.7,0.8,1.4,1.6,2.1,2.5
			c0.6,0.8,1.1,1.5,1.6,2.3c-0.3,0.1-0.6,0.3-0.9,0.5c-0.4,0.2-0.7,0.5-1,0.7C175.9,50.2,175.7,50.4,175.4,50.6z"/>
		<path class="st1" d="M194.8,57.1v-7.5c-1.4,0.6-3,1.3-4.6,1.9c-0.1-0.3-0.2-0.6-0.4-0.9c-0.2-0.3-0.4-0.7-0.5-1
			c-0.2-0.3-0.3-0.5-0.5-0.8c1.9-0.5,3.8-1.2,5.6-2c1.7-0.7,3.4-1.6,4.9-2.6h-9.8v-2.6h8.9v-2.1h-6.3V37h6.3v-2.7h3V37h3.6v2.2
			c1.1-1.3,2-2.7,2.8-4.3l2.6,1.4c-1.2,1.9-2.6,3.7-4.1,5.4h6v2.6h-8.7c-0.5,0.4-1,0.8-1.6,1.2s-1.1,0.8-1.7,1.2h8.1v10.4
			C208.4,57.1,194.8,57.1,194.8,57.1z M197.8,50.8h7.9v-1.7h-7.9V50.8z M197.8,54.7h7.9V53h-7.9V54.7z M201.4,41.7h1.2
			c0.4-0.3,0.7-0.7,1.1-1s0.7-0.7,1-1.1h-3.2L201.4,41.7z"/>
		<path class="st2" d="M129,57.3c-0.2-0.3-0.3-0.5-0.6-0.7c-0.3-0.3-0.5-0.5-0.8-0.8c-0.2-0.2-0.5-0.4-0.8-0.6
			c1.1-0.7,2.1-1.5,2.9-2.5c0.8-1,1.5-2.1,2-3.2c0.6-1.4,1-2.8,1.2-4.3c0.3-1.9,0.4-3.8,0.4-5.7h-3.7l0.2,0.2
			c-0.4,0.9-0.9,1.8-1.4,2.7s-1.1,1.7-1.7,2.6c0.4,0.3,0.9,0.7,1.4,1c0.5,0.3,1,0.7,1.5,1.1l1.2,0.8c-0.3,0.3-0.7,0.6-0.9,1
			c-0.3,0.4-0.6,0.7-0.8,1.1c-0.4-0.3-0.8-0.6-1.3-1s-1-0.8-1.5-1.2v9.5h-2.8v-8.6c-0.4,0.4-0.8,0.8-1.3,1.1s-0.9,0.7-1.4,1
			c-0.3-0.4-0.6-0.8-0.9-1.2s-0.7-0.7-1.1-1c0.7-0.4,1.4-0.9,2-1.4c0.7-0.6,1.4-1.2,2-1.9s1.2-1.3,1.8-2c0.5-0.6,0.9-1.3,1.3-1.9
			H120v-2.7h3.5v-4.1h2.8v4.1h2.2l1,0.7v-2.6h12.1v4.4c0,1.6,0,3.1-0.1,4.6s-0.2,2.7-0.3,3.8s-0.2,2-0.3,2.7c-0.1,1-0.4,2.1-0.9,3
			c-0.4,0.7-1,1.2-1.7,1.5c-0.8,0.3-1.7,0.4-2.5,0.4h-1.5c0-0.3-0.1-0.6-0.1-1s-0.1-0.8-0.2-1.1c-0.1-0.3-0.2-0.6-0.3-0.9h2
			c0.4,0,0.8,0,1.1-0.2c0.3-0.1,0.6-0.4,0.7-0.7c0.2-0.5,0.4-1,0.4-1.5c0.1-0.5,0.2-1.2,0.3-2.2s0.2-2.2,0.3-3.7s0.1-3,0.1-4.7v-1.7
			h-2.4c0,2.6-0.3,5.3-0.8,7.9c-0.4,2-1.2,4-2.3,5.7C132,54.7,130.6,56.1,129,57.3z M129.7,46.3c-0.3-0.3-0.6-0.6-0.9-0.8
			c-0.3-0.3-0.6-0.5-1-0.7c0.4-0.5,0.9-1,1.2-1.6c0.4-0.5,0.7-1.1,1-1.7l2.2,1.4c-0.2,0.4-0.5,0.7-0.7,1.1c-0.3,0.4-0.6,0.8-1,1.3
			S129.9,46,129.7,46.3L129.7,46.3z"/>
		<path class="st2" d="M156.4,52c-0.4-0.3-0.9-0.5-1.3-0.8c-0.4-0.2-0.9-0.5-1.4-0.6c0.4-0.5,0.8-1.1,1.1-1.7
			c0.4-0.7,0.8-1.4,1.1-2.1c0.4-0.7,0.7-1.5,1-2.2c0.2-0.6,0.5-1.2,0.6-1.9l2.9,1c-0.2,0.7-0.4,1.3-0.7,2s-0.6,1.5-1,2.2
			c-0.3,0.7-0.7,1.5-1.2,2.2C157.3,50.9,156.8,51.5,156.4,52z M164.9,56.5c-0.8,0.1-1.6-0.1-2.2-0.5c-0.5-0.4-0.7-1-0.6-1.6V41.1
			h3.1v11.8c0,0.2,0.1,0.4,0.2,0.6c0.2,0.1,0.5,0.2,0.8,0.2h3.2c0.6,0.1,1.1-0.2,1.4-0.7c0.3-0.8,0.5-1.6,0.5-2.4l0.9,0.4
			c0.4,0.1,0.7,0.3,1.1,0.4s0.7,0.2,1,0.3c-0.1,1.1-0.4,2.1-0.8,3.1c-0.2,0.6-0.7,1.1-1.2,1.5c-0.7,0.3-1.4,0.4-2.1,0.4L164.9,56.5z
			 M168.7,40.7c-0.6-0.5-1.3-1-2-1.5s-1.5-1-2.2-1.4c-0.6-0.4-1.3-0.7-2-1l1.5-2.4c0.7,0.3,1.4,0.7,2.2,1.1s1.6,0.9,2.4,1.4
			c0.7,0.4,1.3,0.8,1.9,1.3c-0.2,0.2-0.4,0.5-0.6,0.8s-0.5,0.6-0.7,0.9C169,40.2,168.8,40.4,168.7,40.7z M175.4,50.6
			c-0.7-1.3-1.5-2.5-2.4-3.7c-0.9-1.1-1.9-2.2-3-3.1l2.2-1.8c0.7,0.6,1.4,1.3,2.1,2c0.7,0.8,1.4,1.6,2.1,2.5
			c0.6,0.8,1.1,1.5,1.6,2.3c-0.3,0.1-0.6,0.3-0.9,0.5c-0.4,0.2-0.7,0.5-1,0.7C175.9,50.2,175.7,50.4,175.4,50.6z"/>
		<path class="st2" d="M194.8,57.1v-7.5c-1.4,0.6-3,1.3-4.6,1.9c-0.1-0.3-0.2-0.6-0.4-0.9c-0.2-0.3-0.4-0.7-0.5-1
			c-0.2-0.3-0.3-0.5-0.5-0.8c1.9-0.5,3.8-1.2,5.6-2c1.7-0.7,3.4-1.6,4.9-2.6h-9.8v-2.6h8.9v-2.1h-6.3V37h6.3v-2.7h3V37h3.6v2.2
			c1.1-1.3,2-2.7,2.8-4.3l2.6,1.4c-1.2,1.9-2.6,3.7-4.1,5.4h6v2.6h-8.7c-0.5,0.4-1,0.8-1.6,1.2s-1.1,0.8-1.7,1.2h8.1v10.4
			C208.4,57.1,194.8,57.1,194.8,57.1z M197.8,50.8h7.9v-1.7h-7.9V50.8z M197.8,54.7h7.9V53h-7.9V54.7z M201.4,41.7h1.2
			c0.4-0.3,0.7-0.7,1.1-1s0.7-0.7,1-1.1h-3.2L201.4,41.7z"/>
		<path class="st1" d="M61.6,133.2v-15.1c-2.5,1.4-5,2.6-7.7,3.7c-2.6,1.1-5.2,2.1-7.8,3c-0.4-1-0.8-1.9-1.3-2.8
			c-0.6-1-1.2-1.9-1.9-2.8c5-1.3,9.8-3.1,14.4-5.4c4.3-2.1,8.3-4.7,11.9-7.8l-5.8,0.1c-2.1,0-4,0-5.9,0.1l-4.9,0.2
			c-1.4,0.1-2.3,0.1-2.7,0.1v-6l2.8,0.1c1.3,0,2.8,0.1,4.6,0.1s3.6,0,5.5,0c1.9,0,3.8,0,5.5,0s3.3,0,4.6-0.1s2.2-0.1,2.8-0.2
			l3.3,3.3c-1.5,2-3.3,3.9-5.1,5.6c-1.9,1.8-3.9,3.4-6.1,4.8v19h-6.2V133.2z M69.2,99.2c-0.5-0.3-1.3-0.6-2.4-1.1s-2.4-1-3.8-1.5
			s-2.7-1-4-1.4c-1-0.4-2-0.7-3-0.9l2.4-5.4c0.9,0.2,1.9,0.5,2.8,0.8c1.2,0.4,2.5,0.8,3.9,1.3s2.7,1,3.9,1.5
			c0.9,0.4,1.8,0.8,2.7,1.2L69.2,99.2z M81.5,126.1c-0.5-0.6-1.3-1.3-2.2-2.1s-1.9-1.7-3-2.6s-2.1-1.7-3.1-2.4
			c-0.8-0.6-1.6-1.1-2.4-1.5l3.5-4.6c0.7,0.4,1.6,0.9,2.6,1.6s2.1,1.4,3.3,2.2s2.2,1.6,3.1,2.3c0.8,0.6,1.5,1.3,2.2,1.9L81.5,126.1z
			"/>
		<path class="st3" d="M61.6,133.2v-15.1c-2.5,1.4-5,2.6-7.7,3.7c-2.6,1.1-5.2,2.1-7.8,3c-0.4-1-0.8-1.9-1.3-2.8
			c-0.6-1-1.2-1.9-1.9-2.8c5-1.3,9.8-3.1,14.4-5.4c4.3-2.1,8.3-4.7,11.9-7.8l-5.8,0.1c-2.1,0-4,0-5.9,0.1l-4.9,0.2
			c-1.4,0.1-2.3,0.1-2.7,0.1v-6l2.8,0.1c1.3,0,2.8,0.1,4.6,0.1s3.6,0,5.5,0c1.9,0,3.8,0,5.5,0s3.3,0,4.6-0.1s2.2-0.1,2.8-0.2
			l3.3,3.3c-1.5,2-3.3,3.9-5.1,5.6c-1.9,1.8-3.9,3.4-6.1,4.8v19h-6.2V133.2z M69.2,99.2c-0.5-0.3-1.3-0.6-2.4-1.1s-2.4-1-3.8-1.5
			s-2.7-1-4-1.4c-1-0.4-2-0.7-3-0.9l2.4-5.4c0.9,0.2,1.9,0.5,2.8,0.8c1.2,0.4,2.5,0.8,3.9,1.3s2.7,1,3.9,1.5
			c0.9,0.4,1.8,0.8,2.7,1.2L69.2,99.2z M81.5,126.1c-0.5-0.6-1.3-1.3-2.2-2.1s-1.9-1.7-3-2.6s-2.1-1.7-3.1-2.4
			c-0.8-0.6-1.6-1.1-2.4-1.5l3.5-4.6c0.7,0.4,1.6,0.9,2.6,1.6s2.1,1.4,3.3,2.2s2.2,1.6,3.1,2.3c0.8,0.6,1.5,1.3,2.2,1.9L81.5,126.1z
			"/>
		<path class="st1" d="M112.5,115.8c-0.1-0.9-0.4-1.7-0.7-2.6c-0.3-1-0.7-2-1.1-3c-0.3-0.8-0.7-1.6-1.1-2.3l4.6-1.7
			c0.4,0.8,0.8,1.6,1.1,2.4c0.4,1,0.8,2.1,1.1,3.1s0.6,1.9,0.8,2.7L112.5,115.8z M115.6,131.2c-0.3-0.8-0.7-1.7-1.2-2.4
			c-0.4-0.8-1-1.5-1.6-2.1c5.3-1.1,10.1-3.6,14-7.3c3.6-3.5,5.7-8.2,6.6-14.2l4.9,0.8c-0.6,4.3-2,8.5-4.2,12.2c-2,3.2-4.6,6-7.8,8.1
			C123,128.3,119.4,130,115.6,131.2L115.6,131.2z M121,113.9c-0.1-0.9-0.3-1.7-0.6-2.6c-0.3-1-0.6-2.1-1-3.1
			c-0.3-0.8-0.6-1.6-1.1-2.3l4.6-1.5c0.4,0.8,0.7,1.6,1,2.4c0.4,1,0.7,2.1,1,3.1c0.3,0.9,0.5,1.8,0.7,2.7L121,113.9z"/>
		<path class="st3" d="M112.5,115.8c-0.1-0.9-0.4-1.7-0.7-2.6c-0.3-1-0.7-2-1.1-3c-0.3-0.8-0.7-1.6-1.1-2.3l4.6-1.7
			c0.4,0.8,0.8,1.6,1.1,2.4c0.4,1,0.8,2.1,1.1,3.1s0.6,1.9,0.8,2.7L112.5,115.8z M115.6,131.2c-0.3-0.8-0.7-1.7-1.2-2.4
			c-0.4-0.8-1-1.5-1.6-2.1c5.3-1.1,10.1-3.6,14-7.3c3.6-3.5,5.7-8.2,6.6-14.2l4.9,0.8c-0.6,4.3-2,8.5-4.2,12.2c-2,3.2-4.6,6-7.8,8.1
			C123,128.3,119.4,130,115.6,131.2L115.6,131.2z M121,113.9c-0.1-0.9-0.3-1.7-0.6-2.6c-0.3-1-0.6-2.1-1-3.1
			c-0.3-0.8-0.6-1.6-1.1-2.3l4.6-1.5c0.4,0.8,0.7,1.6,1,2.4c0.4,1,0.7,2.1,1,3.1c0.3,0.9,0.5,1.8,0.7,2.7L121,113.9z"/>
		<path class="st1" d="M168.8,132.1V91.8h6.1V107l2.2-3.2c0.8,0.6,1.9,1.3,3.2,2.1s2.7,1.7,4.2,2.6s2.9,1.7,4.4,2.4
			c1.2,0.6,2.3,1.2,3.6,1.7c-0.5,0.5-1,1-1.4,1.6c-0.5,0.7-1,1.4-1.4,2.1s-0.8,1.3-1.1,1.8c-0.8-0.4-1.8-1-3-1.7s-2.5-1.4-3.8-2.3
			c-1.3-0.8-2.6-1.7-3.8-2.5s-2.3-1.6-3.2-2.2v22.7H168.8z"/>
		<path class="st3" d="M168.8,132.1V91.8h6.1V107l2.2-3.2c0.8,0.6,1.9,1.3,3.2,2.1s2.7,1.7,4.2,2.6s2.9,1.7,4.4,2.4
			c1.2,0.6,2.3,1.2,3.6,1.7c-0.5,0.5-1,1-1.4,1.6c-0.5,0.7-1,1.4-1.4,2.1s-0.8,1.3-1.1,1.8c-0.8-0.4-1.8-1-3-1.7s-2.5-1.4-3.8-2.3
			c-1.3-0.8-2.6-1.7-3.8-2.5s-2.3-1.6-3.2-2.2v22.7H168.8z"/>
		<path class="st1" d="M224.6,114.3c-0.9-0.7-1.8-1.3-2.8-1.8c-1.2-0.7-2.4-1.3-3.7-1.9c-1.1-0.5-2.2-1-3.3-1.4l3.1-5.4
			c1,0.4,2.1,0.9,3.4,1.5s2.5,1.3,3.7,1.9s2.1,1.2,2.9,1.7L224.6,114.3z M222.2,130.6l-3.4-6.1c2.6-0.6,5.1-1.4,7.5-2.5
			c2.7-1.2,5.3-2.5,7.8-4c2.6-1.5,5.1-3.2,7.4-5c2.2-1.7,4.4-3.5,6.4-5.4c1.7-1.6,3.3-3.3,4.6-5.2c0.2,0.7,0.4,1.4,0.7,2.1
			c0.3,0.8,0.7,1.6,1,2.4s0.7,1.4,1,1.8c-1.9,2.3-3.9,4.4-6.2,6.3c-2.6,2.2-5.3,4.3-8.1,6.2c-3,2-6,3.8-9.2,5.4
			C228.7,128.1,225.5,129.5,222.2,130.6z M231.5,104.1c-0.6-0.5-1.2-1-1.9-1.4c-0.8-0.6-1.7-1.2-2.7-1.8s-1.9-1.2-2.8-1.7
			c-0.7-0.4-1.4-0.8-2.2-1.1l3.4-5.2c0.7,0.3,1.5,0.8,2.4,1.3l2.8,1.8c0.9,0.6,1.8,1.2,2.6,1.8s1.4,1,1.9,1.4L231.5,104.1z"/>
		<path class="st3" d="M224.6,114.3c-0.9-0.7-1.8-1.3-2.8-1.8c-1.2-0.7-2.4-1.3-3.7-1.9c-1.1-0.5-2.2-1-3.3-1.4l3.1-5.4
			c1,0.4,2.1,0.9,3.4,1.5s2.5,1.3,3.7,1.9s2.1,1.2,2.9,1.7L224.6,114.3z M222.2,130.6l-3.4-6.1c2.6-0.6,5.1-1.4,7.5-2.5
			c2.7-1.2,5.3-2.5,7.8-4c2.6-1.5,5.1-3.2,7.4-5c2.2-1.7,4.4-3.5,6.4-5.4c1.7-1.6,3.3-3.3,4.6-5.2c0.2,0.7,0.4,1.4,0.7,2.1
			c0.3,0.8,0.7,1.6,1,2.4s0.7,1.4,1,1.8c-1.9,2.3-3.9,4.4-6.2,6.3c-2.6,2.2-5.3,4.3-8.1,6.2c-3,2-6,3.8-9.2,5.4
			C228.7,128.1,225.5,129.5,222.2,130.6z M231.5,104.1c-0.6-0.5-1.2-1-1.9-1.4c-0.8-0.6-1.7-1.2-2.7-1.8s-1.9-1.2-2.8-1.7
			c-0.7-0.4-1.4-0.8-2.2-1.1l3.4-5.2c0.7,0.3,1.5,0.8,2.4,1.3l2.8,1.8c0.9,0.6,1.8,1.2,2.6,1.8s1.4,1,1.9,1.4L231.5,104.1z"/>
		<path class="st1" d="M277,128.6V124c0.7,0,1.8,0.1,3.4,0.1s3.5,0.1,5.8,0.1h10.1v-4.9h-7.7h-4.9c-1.5,0-2.9,0-4,0.1
			s-1.9,0.1-2.3,0.1v-4.6c0.7,0,1.8,0.1,3.4,0.1s3.5,0.1,5.7,0.1s4.6,0,7.1,0h2.7v-4.5H288h-4.9c-1.5,0-2.9,0-4,0.1
			s-1.9,0.1-2.4,0.1V106c0.7,0,1.8,0.1,3.4,0.1s3.5,0.1,5.7,0.1s4.6,0,7.2,0c2,0,3.8,0,5.2-0.1s2.4-0.1,2.9-0.1v22.4h-12.9h-5
			l-4,0.1C278.2,128.5,277.4,128.6,277,128.6z"/>
		<path class="st3" d="M277,128.6V124c0.7,0,1.8,0.1,3.4,0.1s3.5,0.1,5.8,0.1h10.1v-4.9h-7.7h-4.9c-1.5,0-2.9,0-4,0.1
			s-1.9,0.1-2.3,0.1v-4.6c0.7,0,1.8,0.1,3.4,0.1s3.5,0.1,5.7,0.1s4.6,0,7.1,0h2.7v-4.5H288h-4.9c-1.5,0-2.9,0-4,0.1
			s-1.9,0.1-2.4,0.1V106c0.7,0,1.8,0.1,3.4,0.1s3.5,0.1,5.7,0.1s4.6,0,7.2,0c2,0,3.8,0,5.2-0.1s2.4-0.1,2.9-0.1v22.4h-12.9h-5
			l-4,0.1C278.2,128.5,277.4,128.6,277,128.6z"/>
		<path class="st1" d="M332.7,115.8c-0.1-0.9-0.4-1.7-0.6-2.6c-0.3-1-0.7-2-1.1-3c-0.3-0.8-0.7-1.6-1.1-2.3l4.5-1.7
			c0.4,0.8,0.8,1.6,1.1,2.4c0.4,1,0.8,2.1,1.1,3.1c0.3,0.9,0.6,1.8,0.8,2.7L332.7,115.8z M335.8,131.2c-0.3-0.8-0.7-1.7-1.2-2.4
			c-0.4-0.8-1-1.5-1.6-2.1c5.3-1.1,10.1-3.6,14-7.3c3.6-3.5,5.7-8.2,6.6-14.2l4.9,0.8c-0.5,4.3-2,8.5-4.2,12.2c-2,3.2-4.6,6-7.8,8.1
			C343.2,128.3,339.6,130,335.8,131.2L335.8,131.2z M341.2,113.9c-0.1-0.9-0.3-1.7-0.5-2.6c-0.3-1-0.6-2.1-1-3.1
			c-0.3-0.8-0.6-1.6-1-2.3l4.5-1.5c0.4,0.8,0.7,1.6,1,2.4c0.4,1,0.7,2.1,1,3.1c0.3,0.9,0.5,1.8,0.7,2.7L341.2,113.9z"/>
		<path class="st3" d="M332.7,115.8c-0.1-0.9-0.4-1.7-0.6-2.6c-0.3-1-0.7-2-1.1-3c-0.3-0.8-0.7-1.6-1.1-2.3l4.5-1.7
			c0.4,0.8,0.8,1.6,1.1,2.4c0.4,1,0.8,2.1,1.1,3.1c0.3,0.9,0.6,1.8,0.8,2.7L332.7,115.8z M335.8,131.2c-0.3-0.8-0.7-1.7-1.2-2.4
			c-0.4-0.8-1-1.5-1.6-2.1c5.3-1.1,10.1-3.6,14-7.3c3.6-3.5,5.7-8.2,6.6-14.2l4.9,0.8c-0.5,4.3-2,8.5-4.2,12.2c-2,3.2-4.6,6-7.8,8.1
			C343.2,128.3,339.6,130,335.8,131.2L335.8,131.2z M341.2,113.9c-0.1-0.9-0.3-1.7-0.5-2.6c-0.3-1-0.6-2.1-1-3.1
			c-0.3-0.8-0.6-1.6-1-2.3l4.5-1.5c0.4,0.8,0.7,1.6,1,2.4c0.4,1,0.7,2.1,1,3.1c0.3,0.9,0.5,1.8,0.7,2.7L341.2,113.9z"/>
		<path class="st1" d="M387.2,130.6c-0.3-0.6-0.6-1.2-1-1.7c-0.5-0.7-0.9-1.4-1.5-2.1c-0.4-0.6-0.9-1.2-1.5-1.7
			c5.8-1.7,11.2-4.7,15.8-8.6c4.2-3.8,7.3-8.7,9-14.1c-1.6,0-3.3,0.1-5.3,0.2l-6.1,0.2l-6,0.2l-5,0.2c-1.4,0-2.5,0.1-3.1,0.1
			l-0.4-6.7c1,0.1,2.2,0.1,3.8,0.2s3.3,0,5.2,0h5.9c2,0,4,0,5.9-0.1s3.6-0.1,5.1-0.2s2.8-0.2,3.6-0.2l4,2.2c-1,5.1-2.9,9.9-5.7,14.3
			c-2.6,4.2-5.8,7.8-9.7,10.8C396.4,126.6,391.9,129,387.2,130.6z M419.1,98.2c-2.8,0-5-2.2-5-5c0-1.3,0.5-2.6,1.5-3.5
			c0.9-0.9,2.2-1.5,3.5-1.4c2.7,0,5,2.3,5,5c0,1.3-0.5,2.6-1.5,3.5S420.4,98.2,419.1,98.2z M419.1,96c0.8,0,1.5-0.3,2-0.8
			s0.8-1.2,0.8-2s-0.3-1.5-0.8-2s-1.2-0.8-2-0.8s-1.5,0.3-2,0.8s-0.8,1.2-0.8,2s0.3,1.5,0.8,2C417.6,95.8,418.3,96.1,419.1,96z"/>
		<path class="st3" d="M387.2,130.6c-0.3-0.6-0.6-1.2-1-1.7c-0.5-0.7-0.9-1.4-1.5-2.1c-0.4-0.6-0.9-1.2-1.5-1.7
			c5.8-1.7,11.2-4.7,15.8-8.6c4.2-3.8,7.3-8.7,9-14.1c-1.6,0-3.3,0.1-5.3,0.2l-6.1,0.2l-6,0.2l-5,0.2c-1.4,0-2.5,0.1-3.1,0.1
			l-0.4-6.7c1,0.1,2.2,0.1,3.8,0.2s3.3,0,5.2,0h5.9c2,0,4,0,5.9-0.1s3.6-0.1,5.1-0.2s2.8-0.2,3.6-0.2l4,2.2c-1,5.1-2.9,9.9-5.7,14.3
			c-2.6,4.2-5.8,7.8-9.7,10.8C396.4,126.6,391.9,129,387.2,130.6z M419.1,98.2c-2.8,0-5-2.2-5-5c0-1.3,0.5-2.6,1.5-3.5
			c0.9-0.9,2.2-1.5,3.5-1.4c2.7,0,5,2.3,5,5c0,1.3-0.5,2.6-1.5,3.5S420.4,98.2,419.1,98.2z M419.1,96c0.8,0,1.5-0.3,2-0.8
			s0.8-1.2,0.8-2s-0.3-1.5-0.8-2s-1.2-0.8-2-0.8s-1.5,0.3-2,0.8s-0.8,1.2-0.8,2s0.3,1.5,0.8,2C417.6,95.8,418.3,96.1,419.1,96z"/>
		<path class="st1" d="M80.7,209.7v-44.3h19.5v16.8H86.4v27.5H80.7z M86.4,172h8.4v-2.5h-8.4V172z M86.4,178.1h8.4v-2.5h-8.4V178.1z
			 M91.2,211.1l-0.9-1.8c0,0-0.8-1.4-1.3-2.1c-0.5-0.7-1-1.3-1.6-1.8c1.9-0.8,3.7-1.8,5.2-3.2c1.2-1.3,2.1-2.9,2.3-4.7h-6.3V193h6.6
			v-4H90v-4.4h24.2v4.4h-4.9v3.9h6.3v4.6h-6.3v11H104v-11h-4.1c-0.4,2.7-1.5,5.3-3.3,7.4c-1.8,1.9-4,3.4-6.4,4.4 M100.2,193h3.8v-4
			h-3.8V193z M113.8,209.7c-0.1-0.8-0.2-1.8-0.3-2.9c-0.1-0.9-0.4-1.8-0.7-2.7h3.3c0.7,0.2,1.4-0.2,1.6-0.9c0.1-0.2,0.1-0.5,0-0.7
			v-20.2h-14v-16.8h19.7v39.2c0.1,1.4-0.4,2.8-1.4,3.9c-1.3,0.9-2.9,1.4-4.5,1.2L113.8,209.7z M109.2,172h8.6v-2.5h-8.6V172z
			 M109.2,178.1h8.6v-2.5h-8.6V178.1z"/>
		<path class="st3" d="M80.7,209.7v-44.3h19.5v16.8H86.4v27.5H80.7z M86.4,172h8.4v-2.5h-8.4V172z M86.4,178.1h8.4v-2.5h-8.4V178.1z
			 M90.2,209.4c-0.4-0.7-0.8-1.4-1.3-2.1c-0.5-0.7-1-1.3-1.6-1.8c1.9-0.8,3.7-1.8,5.2-3.2c1.2-1.3,2.1-2.9,2.3-4.7h-6.3V193h6.6v-4
			H90v-4.4h24.2v4.4h-4.9v3.9h6.3v4.6h-6.3v11H104v-11h-4.1c-0.4,2.7-1.5,5.3-3.3,7.4C94.9,206.9,92.7,208.4,90.2,209.4L90.2,209.4z
			 M100.2,193h3.8v-4h-3.8V193z M113.8,209.7c-0.1-0.8-0.2-1.8-0.3-2.9c-0.1-0.9-0.4-1.8-0.7-2.7h3.3c0.7,0.2,1.4-0.2,1.6-0.9
			c0.1-0.2,0.1-0.5,0-0.7v-20.2h-14v-16.8h19.7v39.2c0.1,1.4-0.4,2.8-1.4,3.9c-1.3,0.9-2.9,1.4-4.5,1.2L113.8,209.7z M109.2,172h8.6
			v-2.5h-8.6V172z M109.2,178.1h8.6v-2.5h-8.6V178.1z"/>
		<path class="st1" d="M150.8,177.5v-4.6h18.9v4.6H150.8z M171.4,211.4c0,0-1.2-3.6-1.7-4.4c-0.4-0.8-0.9-1.6-1.5-2.2v3.7H153v-14.4
			h15.2v10.6c1.9-0.5,3.8-1.2,5.6-2.1c1.7-0.9,3.3-1.9,4.8-3c-1.1-1.5-2.1-3-2.9-4.6c-0.8-1.6-1.5-3.3-2-5H170v-5h3.2
			c-0.7-0.6-1.4-1.2-2.1-1.8c-0.8-0.6-1.6-1.1-2.4-1.6c1-0.8,1.8-1.7,2.6-2.7c0.7-0.9,1.2-2,1.5-3.1c0.4-1.4,0.5-2.9,0.5-4.4v-6.1
			h15.9v11.2c0,0.3,0.1,0.5,0.2,0.7c0.3,0.2,0.6,0.2,0.9,0.2h0.9c0.5,0,1-0.3,1.3-0.8c0.4-1.1,0.6-2.3,0.5-3.4
			c0.8,0.3,1.6,0.6,2.4,0.8c1,0.3,1.9,0.5,2.7,0.6c-0.1,1.8-0.3,3.5-0.9,5.2c-0.3,1.1-1,1.9-2,2.5c-1.1,0.5-2.2,0.7-3.4,0.7h-3.2
			c-1.4,0.1-2.8-0.1-4-0.7c-0.8-0.6-1.2-1.7-1.1-2.7v-9.3h-4.6v1.6c0,2.5-0.4,5-1.3,7.3c-1,2.2-2.4,4.2-4.3,5.8H192l2.2,2.2
			c-1.6,4.6-4.1,8.9-7.4,12.5c1.5,1.1,3.2,2.1,4.9,2.8c1.8,0.8,3.7,1.4,5.6,1.7c-0.6,0.8-1.2,1.6-1.7,2.5c-0.5,0.8-0.9,1.7-1.3,2.6
			c-2.2-0.5-4.4-1.3-6.4-2.2c-1.9-0.9-3.7-2.1-5.4-3.4c-3.5,2.7-7.4,4.7-11.6,5.9v0.1 M153.2,184.5v-4.6h14.6v4.6H153.2z
			 M153.2,191.6V187h14.6v4.6H153.2z M153.2,170.5v-4.7h14.5v4.7H153.2z M158.1,203.9h5.1v-5.2h-5.1V203.9z M182.7,196
			c1.6-1.8,2.9-3.7,3.9-5.9h-7.4C180,192.2,181.2,194.3,182.7,196L182.7,196z"/>
		<path class="st3" d="M150.8,177.5v-4.6h18.9v4.6H150.8z M170.8,209.6c-0.3-0.9-0.7-1.7-1.1-2.6c-0.4-0.8-0.9-1.6-1.5-2.2v3.7H153
			v-14.4h15.2v10.6c1.9-0.5,3.8-1.2,5.6-2.1c1.7-0.9,3.3-1.9,4.8-3c-1.1-1.5-2.1-3-2.9-4.6c-0.8-1.6-1.5-3.3-2-5H170v-5h3.2
			c-0.7-0.6-1.4-1.2-2.1-1.8c-0.8-0.6-1.6-1.1-2.4-1.6c1-0.8,1.8-1.7,2.6-2.7c0.7-0.9,1.2-2,1.5-3.1c0.4-1.4,0.5-2.9,0.5-4.4v-6.1
			h15.9v11.2c0,0.3,0.1,0.5,0.2,0.7c0.3,0.2,0.6,0.2,0.9,0.2h0.9c0.5,0,1-0.3,1.3-0.8c0.4-1.1,0.6-2.3,0.5-3.4
			c0.8,0.3,1.6,0.6,2.4,0.8c1,0.3,1.9,0.5,2.7,0.6c-0.1,1.8-0.3,3.5-0.9,5.2c-0.3,1.1-1,1.9-2,2.5c-1.1,0.5-2.2,0.7-3.4,0.7h-3.2
			c-1.4,0.1-2.8-0.1-4-0.7c-0.8-0.6-1.2-1.7-1.1-2.7v-9.3h-4.6v1.6c0,2.5-0.4,5-1.3,7.3c-1,2.2-2.4,4.2-4.3,5.8H192l2.2,2.2
			c-1.6,4.6-4.1,8.9-7.4,12.5c1.5,1.1,3.2,2.1,4.9,2.8c1.8,0.8,3.7,1.4,5.6,1.7c-0.6,0.8-1.2,1.6-1.7,2.5c-0.5,0.8-0.9,1.7-1.3,2.6
			c-2.2-0.5-4.4-1.3-6.4-2.2c-1.9-0.9-3.7-2.1-5.4-3.4C179,206.3,175.1,208.3,170.8,209.6L170.8,209.6z M153.2,184.5v-4.6h14.6v4.6
			H153.2z M153.2,191.6V187h14.6v4.6H153.2z M153.2,170.5v-4.7h14.5v4.7H153.2z M158.1,203.9h5.1v-5.2h-5.1V203.9z M182.7,196
			c1.6-1.8,2.9-3.7,3.9-5.9h-7.4C180,192.2,181.2,194.3,182.7,196L182.7,196z"/>
		<path class="st1" d="M228.1,209.3c-1-1.9-2.5-3.6-4.2-4.9c4-1.6,7.6-4,10.4-7.2c2.9-3.4,5-7.4,6.1-11.7l-13.4,0.4l-0.5-5.9
			c0.4,0,1.4,0,2.9,0l5.4-0.1c2.2,0,4.4-0.1,6.8-0.1c0.4-3.4,0.6-6.8,0.6-10.2h6.2c0,1.8,0,3.5-0.1,5.2s-0.2,3.3-0.4,4.9l6.5-0.2
			c2-0.1,3.7-0.1,5.1-0.2l2.6-0.1c0,1.4-0.1,3.1-0.2,5s-0.4,4-0.6,6.1s-0.5,4.1-0.9,5.9s-0.6,3.3-0.9,4.4c-0.4,1.9-1.2,3.7-2.3,5.2
			c-1,1.2-2.4,2.1-4,2.4c-2.2,0.5-4.5,0.7-6.7,0.6c-0.2-1.1-0.4-2.1-0.7-3.1c-0.3-1.1-0.8-2.2-1.4-3.1c1.7,0,3.3,0,5-0.1
			c1-0.1,1.9-0.4,2.7-1c0.7-0.7,1.2-1.5,1.4-2.4c0.4-1.3,0.7-2.6,0.9-4c0.3-1.6,0.6-3.3,0.8-5.1s0.4-3.5,0.5-5l-9,0.3
			c-1.2,5.3-3.5,10.2-6.8,14.5C236.7,203.8,232.7,207,228.1,209.3z M260.9,177.7c-0.7-1.2-1.5-2.4-2.4-3.4c-0.8-1-1.7-2-2.7-2.9
			l2.8-2.1c0.6,0.6,1.2,1.2,1.7,1.9c0.7,0.8,1.4,1.6,2,2.4s1.2,1.5,1.5,2.1L260.9,177.7z M265.5,174.1c-0.4-0.8-1-1.5-1.5-2.2
			c-0.6-0.8-1.2-1.6-1.9-2.3c-0.6-0.6-1.1-1.2-1.8-1.8l2.8-2.1c0.5,0.4,1,1,1.8,1.8s1.4,1.6,2,2.4s1.2,1.5,1.5,2.1L265.5,174.1z"/>
		<path class="st2" d="M228.1,209.3c-1-1.9-2.5-3.6-4.2-4.9c4-1.6,7.6-4,10.4-7.2c2.9-3.4,5-7.4,6.1-11.7l-13.4,0.4l-0.5-5.9
			c0.4,0,1.4,0,2.9,0l5.4-0.1c2.2,0,4.4-0.1,6.8-0.1c0.4-3.4,0.6-6.8,0.6-10.2h6.2c0,1.8,0,3.5-0.1,5.2s-0.2,3.3-0.4,4.9l6.5-0.2
			c2-0.1,3.7-0.1,5.1-0.2l2.6-0.1c0,1.4-0.1,3.1-0.2,5s-0.4,4-0.6,6.1s-0.5,4.1-0.9,5.9s-0.6,3.3-0.9,4.4c-0.4,1.9-1.2,3.7-2.3,5.2
			c-1,1.2-2.4,2.1-4,2.4c-2.2,0.5-4.5,0.7-6.7,0.6c-0.2-1.1-0.4-2.1-0.7-3.1c-0.3-1.1-0.8-2.2-1.4-3.1c1.7,0,3.3,0,5-0.1
			c1-0.1,1.9-0.4,2.7-1c0.7-0.7,1.2-1.5,1.4-2.4c0.4-1.3,0.7-2.6,0.9-4c0.3-1.6,0.6-3.3,0.8-5.1s0.4-3.5,0.5-5l-9,0.3
			c-1.2,5.3-3.5,10.2-6.8,14.5C236.7,203.8,232.7,207,228.1,209.3z M260.9,177.7c-0.7-1.2-1.5-2.4-2.4-3.4c-0.8-1-1.7-2-2.7-2.9
			l2.8-2.1c0.6,0.6,1.2,1.2,1.7,1.9c0.7,0.8,1.4,1.6,2,2.4s1.2,1.5,1.5,2.1L260.9,177.7z M265.5,174.1c-0.4-0.8-1-1.5-1.5-2.2
			c-0.6-0.8-1.2-1.6-1.9-2.3c-0.6-0.6-1.1-1.2-1.8-1.8l2.8-2.1c0.5,0.4,1,1,1.8,1.8s1.4,1.6,2,2.4s1.2,1.5,1.5,2.1L265.5,174.1z"/>
		<path class="st1" d="M309.2,209.4v-21.7c-2.5,1.7-5.1,3.3-7.8,4.8c-2.6,1.5-5.2,2.8-7.8,3.9c-0.3-0.6-0.7-1.2-1.1-1.8
			c-0.5-0.7-1-1.3-1.5-2c-0.4-0.6-1-1.1-1.5-1.5c3.1-1.1,6.1-2.4,9-4c3.1-1.7,6.1-3.5,9-5.6c2.8-2,5.4-4.1,7.9-6.4
			c2.2-2,4.2-4.2,5.9-6.6l5.2,3.6c-1.5,2-3.2,3.9-5,5.6c-1.9,1.9-3.9,3.6-6.1,5.4v26.2L309.2,209.4z"/>
		<path class="st2" d="M309.2,209.4v-21.7c-2.5,1.7-5.1,3.3-7.8,4.8c-2.6,1.5-5.2,2.8-7.8,3.9c-0.3-0.6-0.7-1.2-1.1-1.8
			c-0.5-0.7-1-1.3-1.5-2c-0.4-0.6-1-1.1-1.5-1.5c3.1-1.1,6.1-2.4,9-4c3.1-1.7,6.1-3.5,9-5.6c2.8-2,5.4-4.1,7.9-6.4
			c2.2-2,4.2-4.2,5.9-6.6l5.2,3.6c-1.5,2-3.2,3.9-5,5.6c-1.9,1.9-3.9,3.6-6.1,5.4v26.2L309.2,209.4z"/>
		<path class="st1" d="M359.3,210.8v-40.3h6.1v15.1l2.2-3.2c0.8,0.6,1.9,1.3,3.2,2.1s2.7,1.7,4.2,2.6s3,1.7,4.4,2.4
			c1.2,0.6,2.3,1.2,3.5,1.6c-0.5,0.5-1,1-1.4,1.6c-0.5,0.7-1,1.4-1.5,2.1c-0.4,0.6-0.7,1.2-1,1.8c-0.8-0.4-1.8-0.9-3-1.6
			s-2.4-1.5-3.8-2.3s-2.6-1.6-3.8-2.5s-2.3-1.6-3.2-2.2v22.7L359.3,210.8z M378.7,181.4c-0.7-1.2-1.5-2.3-2.5-3.4
			c-0.8-1-1.8-2-2.8-2.9l2.8-2.1c0.5,0.4,1,1,1.8,1.8s1.4,1.6,2,2.4c0.5,0.7,1.1,1.3,1.5,2.1L378.7,181.4z M383.3,177.7
			c-0.7-1.2-1.6-2.3-2.5-3.4c-0.9-1-1.8-2-2.8-2.9l2.8-2.1c0.6,0.6,1.2,1.2,1.8,1.8c0.7,0.8,1.4,1.6,2,2.4c0.6,0.7,1.1,1.3,1.5,2.1
			L383.3,177.7z"/>
		<path class="st2" d="M359.3,210.8v-40.3h6.1v15.1l2.2-3.2c0.8,0.6,1.9,1.3,3.2,2.1s2.7,1.7,4.2,2.6s3,1.7,4.4,2.4
			c1.2,0.6,2.3,1.2,3.5,1.6c-0.5,0.5-1,1-1.4,1.6c-0.5,0.7-1,1.4-1.5,2.1c-0.4,0.6-0.7,1.2-1,1.8c-0.8-0.4-1.8-0.9-3-1.6
			s-2.4-1.5-3.8-2.3s-2.6-1.6-3.8-2.5s-2.3-1.6-3.2-2.2v22.7L359.3,210.8z M378.7,181.4c-0.7-1.2-1.5-2.3-2.5-3.4
			c-0.8-1-1.8-2-2.8-2.9l2.8-2.1c0.5,0.4,1,1,1.8,1.8s1.4,1.6,2,2.4c0.5,0.7,1.1,1.3,1.5,2.1L378.7,181.4z M383.3,177.7
			c-0.7-1.2-1.6-2.3-2.5-3.4c-0.9-1-1.8-2-2.8-2.9l2.8-2.1c0.6,0.6,1.2,1.2,1.8,1.8c0.7,0.8,1.4,1.6,2,2.4c0.6,0.7,1.1,1.3,1.5,2.1
			L383.3,177.7z"/>
		<path d="M237.7,58.4c-0.1-0.3-0.2-0.6-0.3-0.8c-0.2-0.3-0.4-0.6-0.6-0.9c-0.2-0.3-0.4-0.5-0.6-0.7c1.7-0.2,3.3-0.9,4.6-2
			c1-0.9,1.6-2.2,1.7-3.6c0.1-1-0.1-2-0.6-2.9c-0.4-0.8-1.1-1.5-1.9-2c-0.8-0.5-1.7-0.8-2.6-0.9c-0.1,1.4-0.3,2.8-0.7,4.2
			c-0.3,1.4-0.7,2.7-1.3,4c-0.5,1.2-1.2,2.2-2,3.2c-0.4,0.6-1.1,0.9-1.8,1.1c-0.6,0.1-1.2,0-1.8-0.2c-0.6-0.3-1.2-0.7-1.6-1.3
			c-0.5-0.6-0.8-1.3-1.1-2c-0.3-0.8-0.4-1.7-0.3-2.5c0.1-2.5,1.3-4.9,3.2-6.5c0.9-0.8,2-1.4,3.2-1.8c1.2-0.4,2.6-0.6,3.9-0.6
			c1.1,0.1,2.2,0.3,3.1,0.8c2,0.9,3.5,2.5,4.3,4.5c1.1,2.9,0.4,6.1-1.6,8.4C241.6,57.1,239.7,58,237.7,58.4z M230.6,54
			c0.1,0.1,0.3,0.2,0.5,0.2s0.4-0.1,0.5-0.3c0.6-0.7,1.1-1.4,1.5-2.2c0.5-1.1,0.9-2.2,1.1-3.3c0.3-1.2,0.5-2.5,0.6-3.7
			c-1,0.2-1.9,0.7-2.7,1.3s-1.4,1.4-1.9,2.2c-0.5,0.9-0.7,1.9-0.8,2.9c0,0.6,0,1.2,0.3,1.8C229.9,53.3,230.2,53.7,230.6,54z"/>
		<path d="M260.2,59.2c-0.4-0.2-0.8-0.5-1.2-0.6c-0.4-0.2-0.9-0.3-1.3-0.5c0.4-0.7,0.8-1.4,1.2-2.1c0.4-0.8,0.8-1.8,1.2-2.8
			c0.4-1,0.8-2.1,1.2-3.2s0.7-2.2,1-3.3c-0.8,0.1-1.6,0.1-2.4,0.2s-1.4,0-1.8,0l-0.2-2.6c0.8,0.1,1.5,0.1,2.3,0.1
			c0.9,0,1.9-0.1,2.8-0.2c0.2-0.8,0.4-1.5,0.5-2.1s0.2-1.1,0.2-1.7l2.8,0.4c-0.1,0.5-0.1,1-0.3,1.4c-0.1,0.5-0.2,1.1-0.4,1.7
			c0.6-0.1,1.2-0.2,1.7-0.3s0.9-0.2,1.3-0.4l0.4,2.5c-0.6,0.2-1.2,0.3-1.8,0.5c-0.7,0.2-1.5,0.3-2.4,0.4c-0.3,1.2-0.7,2.4-1.1,3.6
			c-0.4,1.2-0.8,2.4-1.2,3.6s-0.9,2.2-1.3,3.2S260.6,58.5,260.2,59.2z M275.1,58.3c-1.5,0.2-3,0.3-4.5,0.2c-1.3-0.1-2.5-0.4-3.7-0.9
			c-0.9-0.3-1.7-0.9-2.3-1.6l1.3-2c0.6,0.6,1.4,1,2.2,1.3c1.1,0.4,2.2,0.5,3.3,0.6c1.4,0,2.8-0.1,4.1-0.3c-0.2,0.4-0.3,0.9-0.3,1.4
			C275.2,57.4,275.1,57.8,275.1,58.3z M274.5,50.5c-0.5-0.2-1.1-0.3-1.7-0.4c-0.7-0.1-1.3-0.2-2-0.3s-1.4-0.1-2-0.1s-1.2,0-1.8,0
			l0.3-2.6c0.5,0,1.1,0,1.9,0s1.5,0.1,2.2,0.2s1.5,0.2,2.2,0.3s1.3,0.2,1.8,0.3L274.5,50.5z"/>
		<path d="M298.6,58.6c-0.1-0.4-0.3-0.8-0.5-1.2s-0.5-0.8-0.9-1.2c1.7,0,3.4-0.5,4.8-1.5c1.1-0.9,1.7-2.3,1.7-3.7
			c0-0.9-0.3-1.7-0.8-2.4c-0.6-0.7-1.4-1.2-2.3-1.5c-0.7,1.6-1.7,3.2-2.7,4.7c0.4,0.3,0.8,0.6,1.3,0.8c-0.3,0.3-0.6,0.6-0.9,0.9
			c-0.3,0.3-0.5,0.7-0.7,1.1c-0.2-0.1-0.4-0.2-0.7-0.4c-0.2-0.1-0.4-0.3-0.7-0.5c-0.8,0.9-1.7,1.7-2.7,2.3c-0.7,0.4-1.5,0.7-2.3,0.7
			c-0.7,0-1.3-0.3-1.7-0.8c-0.5-0.7-0.7-1.5-0.6-2.3c0-1.1,0.2-2.2,0.7-3.1c0.5-1,1.1-1.9,1.9-2.7c-0.4-0.8-0.8-1.6-1.2-2.5
			s-0.6-1.6-0.8-2.3l2.3-0.9c0.1,0.7,0.3,1.4,0.5,2c0.3,0.7,0.6,1.5,1,2.2c0.8-0.5,1.6-0.9,2.5-1.2s1.8-0.4,2.7-0.4h0.5
			c0.2-0.7,0.5-1.4,0.6-2.1c0.2-0.7,0.3-1.3,0.4-2l2.6,0.7c-0.1,0.6-0.3,1.3-0.5,1.9s-0.4,1.3-0.6,1.9c1,0.3,1.9,0.7,2.6,1.4
			c0.7,0.6,1.3,1.3,1.7,2.1c0.4,0.8,0.6,1.6,0.6,2.5c0,1.2-0.3,2.5-0.9,3.6s-1.5,2-2.6,2.6C301.6,58,300.1,58.4,298.6,58.6z
			 M292.4,54.1c0.8-0.5,1.5-1.1,2.1-1.8c-0.3-0.4-0.7-0.8-1-1.2s-0.6-0.8-0.9-1.2c-0.4,0.5-0.8,1.1-1.1,1.8c-0.3,0.6-0.4,1.3-0.4,2
			C291.2,54.4,291.6,54.5,292.4,54.1L292.4,54.1z M296,50.2c0.7-1.1,1.3-2.2,1.9-3.3c-0.6,0-1.2,0.2-1.8,0.4
			c-0.6,0.2-1.2,0.5-1.7,0.9C294.9,48.9,295.4,49.6,296,50.2z"/>
		<path d="M330.1,58.4c-0.1-0.3-0.2-0.6-0.3-0.8c-0.2-0.3-0.4-0.6-0.6-0.9c-0.2-0.3-0.4-0.5-0.6-0.7c1.7-0.2,3.3-0.9,4.6-2
			c1-0.9,1.6-2.2,1.7-3.6c0.1-1-0.1-2-0.6-2.9c-0.4-0.8-1.1-1.5-1.9-2.1c-0.8-0.5-1.7-0.8-2.6-0.9c-0.1,1.4-0.3,2.8-0.7,4.2
			c-0.3,1.4-0.7,2.7-1.3,4c-0.5,1.2-1.2,2.2-2,3.2c-0.4,0.6-1.1,0.9-1.8,1.1c-0.6,0.1-1.2,0-1.8-0.2c-0.6-0.3-1.2-0.7-1.6-1.3
			c-0.5-0.6-0.8-1.3-1.1-2c-0.3-0.8-0.4-1.7-0.3-2.5c0.1-2.5,1.3-4.9,3.2-6.5c1-0.8,2.1-1.4,3.2-1.8c1.2-0.4,2.6-0.6,3.9-0.5
			c1.1,0.1,2.2,0.3,3.1,0.8c2,0.9,3.5,2.5,4.3,4.5c1.1,2.9,0.4,6.1-1.6,8.4C334,57.1,332.1,58,330.1,58.4z M323,54
			c0.1,0.1,0.3,0.2,0.5,0.2s0.4-0.1,0.5-0.3c0.6-0.7,1.1-1.4,1.5-2.2c0.5-1.1,0.9-2.2,1.1-3.3c0.3-1.2,0.5-2.5,0.6-3.7
			c-1,0.2-1.9,0.7-2.7,1.3c-0.8,0.6-1.4,1.4-1.9,2.2c-0.5,0.9-0.7,1.9-0.8,2.9c0,0.6,0,1.2,0.3,1.8C322.3,53.3,322.6,53.7,323,54z"
			/>
		<path class="st1" d="M237.7,58.4c-0.1-0.3-0.2-0.6-0.3-0.8c-0.2-0.3-0.4-0.6-0.6-0.9c-0.2-0.3-0.4-0.5-0.6-0.7
			c1.7-0.2,3.3-0.9,4.6-2c1-0.9,1.6-2.2,1.7-3.6c0.1-1-0.1-2-0.6-2.9c-0.4-0.8-1.1-1.5-1.9-2c-0.8-0.5-1.7-0.8-2.6-0.9
			c-0.1,1.4-0.3,2.8-0.7,4.2c-0.3,1.4-0.7,2.7-1.3,4c-0.5,1.2-1.2,2.2-2,3.2c-0.4,0.6-1.1,0.9-1.8,1.1c-0.6,0.1-1.2,0-1.8-0.2
			c-0.6-0.3-1.2-0.7-1.6-1.3c-0.5-0.6-0.8-1.3-1.1-2c-0.3-0.8-0.4-1.7-0.3-2.5c0.1-2.5,1.3-4.9,3.2-6.5c0.9-0.8,2-1.4,3.2-1.8
			c1.2-0.4,2.6-0.6,3.9-0.6c1.1,0.1,2.2,0.3,3.1,0.8c2,0.9,3.5,2.5,4.3,4.5c1.1,2.9,0.4,6.1-1.6,8.4C241.6,57.1,239.7,58,237.7,58.4
			z M230.6,54c0.1,0.1,0.3,0.2,0.5,0.2s0.4-0.1,0.5-0.3c0.6-0.7,1.1-1.4,1.5-2.2c0.5-1.1,0.9-2.2,1.1-3.3c0.3-1.2,0.5-2.5,0.6-3.7
			c-1,0.2-1.9,0.7-2.7,1.3s-1.4,1.4-1.9,2.2c-0.5,0.9-0.7,1.9-0.8,2.9c0,0.6,0,1.2,0.3,1.8C229.9,53.3,230.2,53.7,230.6,54z"/>
		<path class="st1" d="M260.2,59.2c-0.4-0.2-0.8-0.5-1.2-0.6c-0.4-0.2-0.9-0.3-1.3-0.5c0.4-0.7,0.8-1.4,1.2-2.1
			c0.4-0.8,0.8-1.8,1.2-2.8c0.4-1,0.8-2.1,1.2-3.2s0.7-2.2,1-3.3c-0.8,0.1-1.6,0.1-2.4,0.2s-1.4,0-1.8,0l-0.2-2.6
			c0.8,0.1,1.5,0.1,2.3,0.1c0.9,0,1.9-0.1,2.8-0.2c0.2-0.8,0.4-1.5,0.5-2.1s0.2-1.1,0.2-1.7l2.8,0.4c-0.1,0.5-0.1,1-0.3,1.4
			c-0.1,0.5-0.2,1.1-0.4,1.7c0.6-0.1,1.2-0.2,1.7-0.3s0.9-0.2,1.3-0.4l0.4,2.5c-0.6,0.2-1.2,0.3-1.8,0.5c-0.7,0.2-1.5,0.3-2.4,0.4
			c-0.3,1.2-0.7,2.4-1.1,3.6c-0.4,1.2-0.8,2.4-1.2,3.6s-0.9,2.2-1.3,3.2S260.6,58.5,260.2,59.2z M275.1,58.3c-1.5,0.2-3,0.3-4.5,0.2
			c-1.3-0.1-2.5-0.4-3.7-0.9c-0.9-0.3-1.7-0.9-2.3-1.6l1.3-2c0.6,0.6,1.4,1,2.2,1.3c1.1,0.4,2.2,0.5,3.3,0.6c1.4,0,2.8-0.1,4.1-0.3
			c-0.2,0.4-0.3,0.9-0.3,1.4C275.2,57.4,275.1,57.8,275.1,58.3z M274.5,50.5c-0.5-0.2-1.1-0.3-1.7-0.4c-0.7-0.1-1.3-0.2-2-0.3
			s-1.4-0.1-2-0.1s-1.2,0-1.8,0l0.3-2.6c0.5,0,1.1,0,1.9,0s1.5,0.1,2.2,0.2s1.5,0.2,2.2,0.3s1.3,0.2,1.8,0.3L274.5,50.5z"/>
		<path class="st1" d="M298.6,58.6c-0.1-0.4-0.3-0.8-0.5-1.2s-0.5-0.8-0.9-1.2c1.7,0,3.4-0.5,4.8-1.5c1.1-0.9,1.7-2.3,1.7-3.7
			c0-0.9-0.3-1.7-0.8-2.4c-0.6-0.7-1.4-1.2-2.3-1.5c-0.7,1.6-1.7,3.2-2.7,4.7c0.4,0.3,0.8,0.6,1.3,0.8c-0.3,0.3-0.6,0.6-0.9,0.9
			c-0.3,0.3-0.5,0.7-0.7,1.1c-0.2-0.1-0.4-0.2-0.7-0.4c-0.2-0.1-0.4-0.3-0.7-0.5c-0.8,0.9-1.7,1.7-2.7,2.3c-0.7,0.4-1.5,0.7-2.3,0.7
			c-0.7,0-1.3-0.3-1.7-0.8c-0.5-0.7-0.7-1.5-0.6-2.3c0-1.1,0.2-2.2,0.7-3.1c0.5-1,1.1-1.9,1.9-2.7c-0.4-0.8-0.8-1.6-1.2-2.5
			s-0.6-1.6-0.8-2.3l2.3-0.9c0.1,0.7,0.3,1.4,0.5,2c0.3,0.7,0.6,1.5,1,2.2c0.8-0.5,1.6-0.9,2.5-1.2s1.8-0.4,2.7-0.4h0.5
			c0.2-0.7,0.5-1.4,0.6-2.1c0.2-0.7,0.3-1.3,0.4-2l2.6,0.7c-0.1,0.6-0.3,1.3-0.5,1.9s-0.4,1.3-0.6,1.9c1,0.3,1.9,0.7,2.6,1.4
			c0.7,0.6,1.3,1.3,1.7,2.1c0.4,0.8,0.6,1.6,0.6,2.5c0,1.2-0.3,2.5-0.9,3.6s-1.5,2-2.6,2.6C301.6,58,300.1,58.4,298.6,58.6z
			 M292.4,54.1c0.8-0.5,1.5-1.1,2.1-1.8c-0.3-0.4-0.7-0.8-1-1.2s-0.6-0.8-0.9-1.2c-0.4,0.5-0.8,1.1-1.1,1.8c-0.3,0.6-0.4,1.3-0.4,2
			C291.2,54.4,291.6,54.5,292.4,54.1L292.4,54.1z M296,50.2c0.7-1.1,1.3-2.2,1.9-3.3c-0.6,0-1.2,0.2-1.8,0.4
			c-0.6,0.2-1.2,0.5-1.7,0.9C294.9,48.9,295.4,49.6,296,50.2z"/>
		<path class="st1" d="M330.1,58.4c-0.1-0.3-0.2-0.6-0.3-0.8c-0.2-0.3-0.4-0.6-0.6-0.9c-0.2-0.3-0.4-0.5-0.6-0.7
			c1.7-0.2,3.3-0.9,4.6-2c1-0.9,1.6-2.2,1.7-3.6c0.1-1-0.1-2-0.6-2.9c-0.4-0.8-1.1-1.5-1.9-2.1c-0.8-0.5-1.7-0.8-2.6-0.9
			c-0.1,1.4-0.3,2.8-0.7,4.2c-0.3,1.4-0.7,2.7-1.3,4c-0.5,1.2-1.2,2.2-2,3.2c-0.4,0.6-1.1,0.9-1.8,1.1c-0.6,0.1-1.2,0-1.8-0.2
			c-0.6-0.3-1.2-0.7-1.6-1.3c-0.5-0.6-0.8-1.3-1.1-2c-0.3-0.8-0.4-1.7-0.3-2.5c0.1-2.5,1.3-4.9,3.2-6.5c1-0.8,2.1-1.4,3.2-1.8
			c1.2-0.4,2.6-0.6,3.9-0.5c1.1,0.1,2.2,0.3,3.1,0.8c2,0.9,3.5,2.5,4.3,4.5c1.1,2.9,0.4,6.1-1.6,8.4C334,57.1,332.1,58,330.1,58.4z
			 M323,54c0.1,0.1,0.3,0.2,0.5,0.2s0.4-0.1,0.5-0.3c0.6-0.7,1.1-1.4,1.5-2.2c0.5-1.1,0.9-2.2,1.1-3.3c0.3-1.2,0.5-2.5,0.6-3.7
			c-1,0.2-1.9,0.7-2.7,1.3c-0.8,0.6-1.4,1.4-1.9,2.2c-0.5,0.9-0.7,1.9-0.8,2.9c0,0.6,0,1.2,0.3,1.8C322.3,53.3,322.6,53.7,323,54z"
			/>
		<path class="st3" d="M237.7,58.4c-0.1-0.3-0.2-0.6-0.3-0.8c-0.2-0.3-0.4-0.6-0.6-0.9c-0.2-0.3-0.4-0.5-0.6-0.7
			c1.7-0.2,3.3-0.9,4.6-2c1-0.9,1.6-2.2,1.7-3.6c0.1-1-0.1-2-0.6-2.9c-0.4-0.8-1.1-1.5-1.9-2c-0.8-0.5-1.7-0.8-2.6-0.9
			c-0.1,1.4-0.3,2.8-0.7,4.2c-0.3,1.4-0.7,2.7-1.3,4c-0.5,1.2-1.2,2.2-2,3.2c-0.4,0.6-1.1,0.9-1.8,1.1c-0.6,0.1-1.2,0-1.8-0.2
			c-0.6-0.3-1.2-0.7-1.6-1.3c-0.5-0.6-0.8-1.3-1.1-2c-0.3-0.8-0.4-1.7-0.3-2.5c0.1-2.5,1.3-4.9,3.2-6.5c0.9-0.8,2-1.4,3.2-1.8
			c1.2-0.4,2.6-0.6,3.9-0.6c1.1,0.1,2.2,0.3,3.1,0.8c2,0.9,3.5,2.5,4.3,4.5c1.1,2.9,0.4,6.1-1.6,8.4C241.6,57.1,239.7,58,237.7,58.4
			z M230.6,54c0.1,0.1,0.3,0.2,0.5,0.2s0.4-0.1,0.5-0.3c0.6-0.7,1.1-1.4,1.5-2.2c0.5-1.1,0.9-2.2,1.1-3.3c0.3-1.2,0.5-2.5,0.6-3.7
			c-1,0.2-1.9,0.7-2.7,1.3s-1.4,1.4-1.9,2.2c-0.5,0.9-0.7,1.9-0.8,2.9c0,0.6,0,1.2,0.3,1.8C229.9,53.3,230.2,53.7,230.6,54z"/>
		<path class="st3" d="M260.2,59.2c-0.4-0.2-0.8-0.5-1.2-0.6c-0.4-0.2-0.9-0.3-1.3-0.5c0.4-0.7,0.8-1.4,1.2-2.1
			c0.4-0.8,0.8-1.8,1.2-2.8c0.4-1,0.8-2.1,1.2-3.2s0.7-2.2,1-3.3c-0.8,0.1-1.6,0.1-2.4,0.2s-1.4,0-1.8,0l-0.2-2.6
			c0.8,0.1,1.5,0.1,2.3,0.1c0.9,0,1.9-0.1,2.8-0.2c0.2-0.8,0.4-1.5,0.5-2.1s0.2-1.1,0.2-1.7l2.8,0.4c-0.1,0.5-0.1,1-0.3,1.4
			c-0.1,0.5-0.2,1.1-0.4,1.7c0.6-0.1,1.2-0.2,1.7-0.3s0.9-0.2,1.3-0.4l0.4,2.5c-0.6,0.2-1.2,0.3-1.8,0.5c-0.7,0.2-1.5,0.3-2.4,0.4
			c-0.3,1.2-0.7,2.4-1.1,3.6c-0.4,1.2-0.8,2.4-1.2,3.6s-0.9,2.2-1.3,3.2S260.6,58.5,260.2,59.2z M275.1,58.3c-1.5,0.2-3,0.3-4.5,0.2
			c-1.3-0.1-2.5-0.4-3.7-0.9c-0.9-0.3-1.7-0.9-2.3-1.6l1.3-2c0.6,0.6,1.4,1,2.2,1.3c1.1,0.4,2.2,0.5,3.3,0.6c1.4,0,2.8-0.1,4.1-0.3
			c-0.2,0.4-0.3,0.9-0.3,1.4C275.2,57.4,275.1,57.8,275.1,58.3z M274.5,50.5c-0.5-0.2-1.1-0.3-1.7-0.4c-0.7-0.1-1.3-0.2-2-0.3
			s-1.4-0.1-2-0.1s-1.2,0-1.8,0l0.3-2.6c0.5,0,1.1,0,1.9,0s1.5,0.1,2.2,0.2s1.5,0.2,2.2,0.3s1.3,0.2,1.8,0.3L274.5,50.5z"/>
		<path class="st3" d="M298.6,58.6c-0.1-0.4-0.3-0.8-0.5-1.2s-0.5-0.8-0.9-1.2c1.7,0,3.4-0.5,4.8-1.5c1.1-0.9,1.7-2.3,1.7-3.7
			c0-0.9-0.3-1.7-0.8-2.4c-0.6-0.7-1.4-1.2-2.3-1.5c-0.7,1.6-1.7,3.2-2.7,4.7c0.4,0.3,0.8,0.6,1.3,0.8c-0.3,0.3-0.6,0.6-0.9,0.9
			c-0.3,0.3-0.5,0.7-0.7,1.1c-0.2-0.1-0.4-0.2-0.7-0.4c-0.2-0.1-0.4-0.3-0.7-0.5c-0.8,0.9-1.7,1.7-2.7,2.3c-0.7,0.4-1.5,0.7-2.3,0.7
			c-0.7,0-1.3-0.3-1.7-0.8c-0.5-0.7-0.7-1.5-0.6-2.3c0-1.1,0.2-2.2,0.7-3.1c0.5-1,1.1-1.9,1.9-2.7c-0.4-0.8-0.8-1.6-1.2-2.5
			s-0.6-1.6-0.8-2.3l2.3-0.9c0.1,0.7,0.3,1.4,0.5,2c0.3,0.7,0.6,1.5,1,2.2c0.8-0.5,1.6-0.9,2.5-1.2s1.8-0.4,2.7-0.4h0.5
			c0.2-0.7,0.5-1.4,0.6-2.1c0.2-0.7,0.3-1.3,0.4-2l2.6,0.7c-0.1,0.6-0.3,1.3-0.5,1.9s-0.4,1.3-0.6,1.9c1,0.3,1.9,0.7,2.6,1.4
			c0.7,0.6,1.3,1.3,1.7,2.1c0.4,0.8,0.6,1.6,0.6,2.5c0,1.2-0.3,2.5-0.9,3.6s-1.5,2-2.6,2.6C301.6,58,300.1,58.4,298.6,58.6z
			 M292.4,54.1c0.8-0.5,1.5-1.1,2.1-1.8c-0.3-0.4-0.7-0.8-1-1.2s-0.6-0.8-0.9-1.2c-0.4,0.5-0.8,1.1-1.1,1.8c-0.3,0.6-0.4,1.3-0.4,2
			C291.2,54.4,291.6,54.5,292.4,54.1L292.4,54.1z M296,50.2c0.7-1.1,1.3-2.2,1.9-3.3c-0.6,0-1.2,0.2-1.8,0.4
			c-0.6,0.2-1.2,0.5-1.7,0.9C294.9,48.9,295.4,49.6,296,50.2z"/>
		<path class="st3" d="M330.1,58.4c-0.1-0.3-0.2-0.6-0.3-0.8c-0.2-0.3-0.4-0.6-0.6-0.9c-0.2-0.3-0.4-0.5-0.6-0.7
			c1.7-0.2,3.3-0.9,4.6-2c1-0.9,1.6-2.2,1.7-3.6c0.1-1-0.1-2-0.6-2.9c-0.4-0.8-1.1-1.5-1.9-2.1c-0.8-0.5-1.7-0.8-2.6-0.9
			c-0.1,1.4-0.3,2.8-0.7,4.2c-0.3,1.4-0.7,2.7-1.3,4c-0.5,1.2-1.2,2.2-2,3.2c-0.4,0.6-1.1,0.9-1.8,1.1c-0.6,0.1-1.2,0-1.8-0.2
			c-0.6-0.3-1.2-0.7-1.6-1.3c-0.5-0.6-0.8-1.3-1.1-2c-0.3-0.8-0.4-1.7-0.3-2.5c0.1-2.5,1.3-4.9,3.2-6.5c1-0.8,2.1-1.4,3.2-1.8
			c1.2-0.4,2.6-0.6,3.9-0.5c1.1,0.1,2.2,0.3,3.1,0.8c2,0.9,3.5,2.5,4.3,4.5c1.1,2.9,0.4,6.1-1.6,8.4C334,57.1,332.1,58,330.1,58.4z
			 M323,54c0.1,0.1,0.3,0.2,0.5,0.2s0.4-0.1,0.5-0.3c0.6-0.7,1.1-1.4,1.5-2.2c0.5-1.1,0.9-2.2,1.1-3.3c0.3-1.2,0.5-2.5,0.6-3.7
			c-1,0.2-1.9,0.7-2.7,1.3c-0.8,0.6-1.4,1.4-1.9,2.2c-0.5,0.9-0.7,1.9-0.8,2.9c0,0.6,0,1.2,0.3,1.8C322.3,53.3,322.6,53.7,323,54z"
			/>
		<g class="st4">
			<path d="M81.5,262.3c-1.3,0-2.4-0.3-3.4-0.9s-1.8-1.5-2.3-2.5c-0.6-1.1-0.8-2.4-0.8-3.9s0.3-2.8,0.8-3.9c0.6-1.1,1.3-2,2.3-2.6
				s2.1-0.9,3.4-0.9s2.4,0.3,3.4,0.9c1,0.6,1.8,1.5,2.3,2.6c0.6,1.1,0.8,2.4,0.8,3.9s-0.3,2.8-0.8,3.9c-0.6,1.1-1.3,2-2.3,2.5
				C83.9,262,82.8,262.3,81.5,262.3z M81.5,260.1c0.8,0,1.6-0.2,2.2-0.6s1.1-1,1.4-1.8s0.5-1.7,0.5-2.7c0-1-0.2-1.9-0.5-2.7
				s-0.8-1.4-1.4-1.8s-1.3-0.6-2.2-0.6c-0.8,0-1.6,0.2-2.2,0.6s-1.1,1-1.5,1.8c-0.3,0.8-0.5,1.7-0.5,2.7c0,1,0.2,1.9,0.5,2.7
				s0.8,1.4,1.5,1.8S80.7,260.1,81.5,260.1z"/>
			<path d="M93.2,262v-14h2.3l6.6,9.9V248h2.3v14h-2.2l-6.7-10.2V262H93.2z"/>
			<path d="M110.3,262v-14h2.3v11.9h7.3v2.1H110.3z"/>
			<path d="M124.7,262v-14h2.3v14H124.7z"/>
			<path d="M132.8,262v-14h2.3l6.6,9.9V248h2.3v14h-2.2l-6.7-10.2V262H132.8z"/>
			<path d="M149.9,262v-14h9.4v2.1h-7.1v3.6h6.4v2.2h-6.4v3.9h7.3v2.1L149.9,262L149.9,262z"/>
			<path d="M178.2,262.3c-1.2,0-2.2-0.2-3.2-0.7s-1.8-1.3-2.3-2.5l1.9-1.1c0.4,0.7,0.9,1.2,1.5,1.6s1.3,0.6,2.3,0.6
				c0.9,0,1.6-0.2,2-0.5s0.6-0.8,0.6-1.4c0-0.4-0.1-0.7-0.2-1c-0.2-0.3-0.5-0.5-1-0.8c-0.5-0.2-1.3-0.5-2.4-0.7
				c-1.3-0.3-2.2-0.8-2.9-1.5c-0.6-0.7-0.9-1.5-0.9-2.5c0-0.8,0.2-1.5,0.6-2.1s0.9-1.1,1.7-1.5s1.5-0.5,2.5-0.5
				c1.3,0,2.3,0.3,3.2,0.8c0.9,0.6,1.5,1.2,2,2l-1.8,1.4c-0.2-0.3-0.5-0.6-0.8-0.9c-0.3-0.3-0.7-0.5-1.1-0.7s-0.9-0.3-1.5-0.3
				c-0.7,0-1.3,0.1-1.7,0.4c-0.4,0.3-0.6,0.8-0.6,1.4c0,0.3,0.1,0.5,0.2,0.8c0.1,0.2,0.4,0.5,0.8,0.7c0.4,0.2,1.1,0.4,2,0.7
				c1.6,0.4,2.8,0.9,3.5,1.6c0.7,0.7,1.1,1.6,1.1,2.7c0,1.3-0.5,2.4-1.4,3.1C181,261.9,179.8,262.3,178.2,262.3z"/>
			<path d="M188.7,262v-14h2.3v5.6h6.4V248h2.3v14h-2.3v-6.3H191v6.3H188.7z"/>
			<path d="M211.3,262.3c-1.3,0-2.4-0.3-3.4-0.9s-1.8-1.5-2.3-2.5c-0.6-1.1-0.8-2.4-0.8-3.9s0.3-2.8,0.8-3.9c0.6-1.1,1.3-2,2.3-2.6
				s2.1-0.9,3.4-0.9s2.4,0.3,3.4,0.9c1,0.6,1.8,1.5,2.3,2.6c0.6,1.1,0.8,2.4,0.8,3.9s-0.3,2.8-0.8,3.9c-0.6,1.1-1.3,2-2.3,2.5
				C213.7,262,212.6,262.3,211.3,262.3z M211.3,260.1c0.8,0,1.6-0.2,2.2-0.6s1.1-1,1.4-1.8s0.5-1.7,0.5-2.7c0-1-0.2-1.9-0.5-2.7
				s-0.8-1.4-1.4-1.8s-1.3-0.6-2.2-0.6c-0.8,0-1.6,0.2-2.2,0.6s-1.1,1-1.5,1.8c-0.3,0.8-0.5,1.7-0.5,2.7c0,1,0.2,1.9,0.5,2.7
				s0.8,1.4,1.5,1.8S210.5,260.1,211.3,260.1z"/>
			<path d="M223,262v-14h6.4c1.3,0,2.3,0.3,3.1,0.9s1.2,1.6,1.2,3.1s-0.4,2.5-1.2,3.1s-1.8,0.9-3.1,0.9h-4.1v5.9H223V262z
				 M225.3,253.9h3.8c0.7,0,1.2-0.1,1.6-0.4c0.4-0.3,0.6-0.8,0.6-1.5s-0.2-1.1-0.6-1.4c-0.4-0.3-0.9-0.4-1.6-0.4h-3.8V253.9z"/>
			<path d="M253.1,262.3c-1.3,0-2.4-0.3-3.4-0.9s-1.8-1.5-2.3-2.5c-0.6-1.1-0.8-2.4-0.8-3.9s0.3-2.8,0.8-3.9c0.6-1.1,1.3-2,2.3-2.6
				s2.1-0.9,3.4-0.9s2.4,0.3,3.4,0.9c1,0.6,1.8,1.5,2.3,2.6c0.6,1.1,0.8,2.4,0.8,3.9s-0.3,2.8-0.8,3.9c-0.6,1.1-1.3,2-2.3,2.5
				C255.5,262,254.4,262.3,253.1,262.3z M253.1,260.1c0.8,0,1.6-0.2,2.2-0.6s1.1-1,1.4-1.8s0.5-1.7,0.5-2.7c0-1-0.2-1.9-0.5-2.7
				s-0.8-1.4-1.4-1.8s-1.3-0.6-2.2-0.6c-0.8,0-1.6,0.2-2.2,0.6s-1.1,1-1.5,1.8c-0.3,0.8-0.5,1.7-0.5,2.7c0,1,0.2,1.9,0.5,2.7
				s0.8,1.4,1.5,1.8S252.3,260.1,253.1,260.1z"/>
			<path d="M264.8,262v-14h6.4c1.3,0,2.3,0.3,3.1,0.9s1.2,1.6,1.2,3.1s-0.4,2.5-1.2,3.1c-0.8,0.6-1.8,0.9-3.1,0.9h-4.1v5.9h-2.3V262
				z M267.1,253.9h3.8c0.7,0,1.2-0.1,1.6-0.4c0.4-0.3,0.6-0.8,0.6-1.5s-0.2-1.1-0.6-1.4c-0.4-0.3-0.9-0.4-1.6-0.4h-3.8V253.9z"/>
			<path d="M280.4,262v-14h9.4v2.1h-7.1v3.6h6.4v2.2h-6.4v3.9h7.3v2.1L280.4,262L280.4,262z"/>
			<path d="M295.1,262v-14h2.3l6.6,9.9V248h2.3v14h-2.2l-6.7-10.2V262H295.1z"/>
			<path d="M326.6,262.3c-1.3,0-2.4-0.3-3.4-0.9s-1.7-1.5-2.3-2.5c-0.6-1.1-0.8-2.4-0.8-3.9s0.3-2.8,0.8-3.9c0.6-1.1,1.3-2,2.3-2.6
				s2.1-0.9,3.4-0.9c1,0,2,0.2,2.9,0.6c0.9,0.4,1.6,0.8,2.2,1.4l-1.5,1.8c-0.4-0.4-0.9-0.8-1.5-1.1s-1.3-0.4-2-0.4
				c-0.8,0-1.6,0.2-2.2,0.6c-0.6,0.4-1.1,1-1.4,1.8s-0.5,1.7-0.5,2.7c0,1,0.2,1.9,0.5,2.7s0.8,1.4,1.4,1.8s1.3,0.6,2.2,0.6
				c0.6,0,1.1-0.1,1.6-0.2c0.4-0.1,0.8-0.3,1.1-0.5v-3H327v-2.2h4.6v6.7c-0.6,0.4-1.4,0.8-2.2,1
				C328.5,262.2,327.6,262.3,326.6,262.3z"/>
			<path d="M342.3,262.3c-1.7,0-3.1-0.5-4-1.4s-1.4-2.3-1.4-4.2V248h2.3v8.6c0,1.2,0.3,2.1,0.8,2.6s1.3,0.8,2.2,0.8
				c0.9,0,1.7-0.3,2.2-0.8s0.8-1.4,0.8-2.6V248h2.3v8.7c0,1.9-0.5,3.2-1.4,4.2S344,262.3,342.3,262.3z"/>
			<path d="M353.3,262v-14h2.3v14H353.3z"/>
			<path d="M361.5,262v-14h4.5c1.4,0,2.6,0.3,3.6,0.8s1.8,1.3,2.4,2.3s0.8,2.3,0.8,3.9c0,1.5-0.3,2.8-0.8,3.9
				c-0.6,1-1.3,1.8-2.4,2.3c-1,0.5-2.2,0.8-3.6,0.8L361.5,262L361.5,262z M363.8,259.9h2c1.4,0,2.6-0.4,3.4-1.2s1.2-2,1.2-3.6
				s-0.4-2.8-1.2-3.6c-0.8-0.8-1.9-1.2-3.4-1.2h-2V259.9z"/>
			<path d="M377.9,262v-14h9.4v2.1h-7.1v3.6h6.4v2.2h-6.4v3.9h7.3v2.1L377.9,262L377.9,262z"/>
		</g>
		<polygon class="st5" points="5,268.4 5,250.4 0,250.4 0,273.4 23,273.4 23,268.4 		"/>
		<polygon class="st5" points="461.9,268.4 461.9,250.4 466.9,250.4 466.9,273.4 443.9,273.4 443.9,268.4 		"/>
		<polygon class="st5" points="462,13.4 462,31.4 467,31.4 467,8.4 444,8.4 444,13.4 		"/>
		<g id="レイヤー_2-2">
			<g id="レイヤー_1-2-2">
				<line class="st6" x1="99.8" y1="36.2" x2="90.3" y2="34.9"/>
				<line class="st6" x1="102.7" y1="28.5" x2="93.9" y2="22.9"/>
				<line class="st6" x1="108.6" y1="22.9" x2="102.6" y2="13.4"/>
				<line class="st6" x1="116.3" y1="20.2" x2="115.1" y2="10.4"/>
			</g>
		</g>
		<g id="レイヤー_2-3">
			<g id="レイヤー_1-2-3">
				<path class="st7" d="M350.9,28.8c-1.2-7.9-2-9-8.4-10.4c6.4-1.4,7.3-2.5,8.4-10.4"/>
				<path class="st7" d="M350.9,28.8c1.1-7.9,2-9,8.4-10.4c-6.4-1.4-7.3-2.5-8.4-10.4"/>
				<g id="レイヤー_2-2-2">
					<g id="レイヤー_1-2-2-2">
						<path class="st5" d="M350.9,34.3l-0.8-5.4c-1.1-7.6-1.8-8.4-7.9-9.7l-3.5-0.8l3.5-0.8c6.1-1.3,6.7-2.1,7.9-9.7l0.8-5.4
							l0.8,5.4c1.1,7.6,1.8,8.4,7.9,9.7l3.5,0.8l-3.5,0.8c-6.1,1.3-6.7,2.1-7.9,9.7L350.9,34.3z M345.6,18.4c3.1,1,4.4,2.5,5.3,6
							c0.9-3.5,2.2-5,5.3-6c-3.1-1-4.4-2.5-5.3-6C350.1,15.9,348.7,17.4,345.6,18.4z"/>
					</g>
				</g>
				<path class="st7" d="M371.4,28.1c-0.6-4.2-1.1-4.9-4.6-5.6c3.5-0.8,4-1.4,4.6-5.6"/>
				<path class="st7" d="M371.4,28.1c0.6-4.2,1.1-4.9,4.6-5.6c-3.5-0.8-4-1.4-4.6-5.6"/>
				<g id="レイヤー_2-3-2">
					<g id="レイヤー_1-2-3-2">
						<path class="st5" d="M371.4,31.1l-0.4-2.9c-0.6-4.1-1-4.5-4.2-5.3l-1.9-0.4l1.9-0.4c3.3-0.7,3.6-1.2,4.2-5.3l0.4-2.9l0.4,2.9
							c0.6,4.1,1,4.5,4.2,5.3l1.9,0.4l-1.9,0.4c-3.3,0.7-3.6,1.2-4.2,5.3L371.4,31.1z M368.5,22.5c1.5,0.4,2.7,1.7,2.9,3.2
							c0.2-1.6,1.3-2.9,2.9-3.2c-1.5-0.4-2.7-1.7-2.9-3.3C371.2,20.9,370.1,22.2,368.5,22.5L368.5,22.5z"/>
					</g>
				</g>
				<path class="st7" d="M361.3,47.1c-0.8-5.7-1.5-6.5-6.1-7.5c4.6-1,5.3-1.8,6.1-7.5"/>
				<path class="st7" d="M361.3,47.1c0.8-5.7,1.5-6.5,6.1-7.5c-4.6-1-5.3-1.8-6.1-7.5"/>
				<g id="レイヤー_2-4">
					<g id="レイヤー_1-2-4">
						<path class="st5" d="M361.3,51.1l-0.6-3.9c-0.8-5.5-1.3-6-5.7-7l-2.5-0.6L355,39c4.4-1,4.9-1.5,5.7-7l0.6-3.9l0.6,3.9
							c0.8,5.5,1.3,6.1,5.7,7l2.5,0.6l-2.5,0.6c-4.4,1-4.9,1.5-5.7,7L361.3,51.1z M357.4,39.6c2.3,0.7,3.2,1.8,3.8,4.3
							c0.6-2.5,1.6-3.6,3.8-4.3c-2.3-0.7-3.2-1.8-3.8-4.3C360.6,37.9,359.7,38.9,357.4,39.6z"/>
					</g>
				</g>
			</g>
		</g>
		<polygon class="st5" points="5,13.3 5,31.3 0,31.3 0,8.4 23,8.4 23,13.4 		"/>
	</g>
</g>
<g id="レイヤー_2_00000115481929814581407040000015289688916567764141_">
	<g id="レイヤー_1-2_00000088826128032600522350000018200448636082614687_">
		<path class="st1" d="M444.1,166.3l3-1.7c1,0,2.1,0.1,3.1,0.3c1,0.2,1.9,0.6,2.7,1.1l2.3,3c0.1,0,5.9,4.9,6.2,5.1
			c0.3,0.3,0.5,0.8,0.6,1.2c0.3,0.9,0.7,25.9,0.7,25.9l-0.5,8.8l0.4,3.3c0,0,0.1,0.3-0.1,0.4c-1.7,0.4-3.4,0.7-5.2,0.8
			c-0.3-0.1-0.3-0.2-0.3-0.2l-0.7-3.6c0,0-0.5-2.7-0.4-2.8c0-0.1,0.5-2.5,0.5-2.5l-1,0.3l-0.9,4.6c-0.7,0.2-1.4,0.4-2,0.8
			c-0.5,0.3-3.2,1.8-4.3,2c-1,0.2-7-0.8-8.3-1.1c-1.3-0.3-5.7-1.5-6.9-2.1c-1.1-0.6-3.4-4-3.9-4.5c-0.5-0.5-1.4-1.3-1.4-1.3l1.2-4.9
			l1.7-5.3l-0.1,0.2l-2.2,5.5c-0.3,0.7-2.7,3.9-2.7,3.9l0,0.4c-0.5,1-1.1,1.9-1.6,2.9c-0.1,0.1-0.3,0.2-0.5,0.1
			c-0.2,0-3.8-2-3.9-2.2c-0.1-0.2-0.1-0.3,0-0.5c0-0.2,1.6-3.3,1.6-3.3l5.1-13.5c0,0,8.7-18.2,8.9-18.4c0.2-0.3,0.4-0.5,0.7-0.7
			C436,168.1,444.1,166.3,444.1,166.3"/>
		<path class="st3" d="M444.1,166.3l3-1.7c1,0,2.1,0.1,3.1,0.3c1,0.2,1.9,0.6,2.7,1.1l2.3,3c0.1,0,5.9,4.9,6.2,5.1
			c0.3,0.3,0.5,0.8,0.6,1.2c0.3,0.9,0.7,25.9,0.7,25.9l-0.5,8.8l0.4,3.3c0,0,0.1,0.3-0.1,0.4c-1.7,0.4-3.4,0.7-5.2,0.8
			c-0.3-0.1-0.3-0.2-0.3-0.2l-0.7-3.6c0,0-0.5-2.7-0.4-2.8c0-0.1,0.5-2.5,0.5-2.5l-1,0.3l-0.9,4.6c-0.7,0.2-1.4,0.4-2,0.8
			c-0.5,0.3-3.2,1.8-4.3,2c-1,0.2-7-0.8-8.3-1.1c-1.3-0.3-5.7-1.5-6.9-2.1c-1.1-0.6-3.4-4-3.9-4.5c-0.5-0.5-1.4-1.3-1.4-1.3l1.2-4.9
			l1.7-5.3l-0.1,0.2l-2.2,5.5c-0.3,0.7-2.7,3.9-2.7,3.9l0,0.4c-0.5,1-1.1,1.9-1.6,2.9c-0.1,0.1-0.3,0.2-0.5,0.1
			c-0.2,0-3.8-2-3.9-2.2c-0.1-0.2-0.1-0.3,0-0.5c0-0.2,1.6-3.3,1.6-3.3l5.1-13.5c0,0,8.7-18.2,8.9-18.4c0.2-0.3,0.4-0.5,0.7-0.7
			C436,168.1,444.1,166.3,444.1,166.3"/>
		<path class="st8" d="M427.7,203.8c0.8,0,1.7,0.1,2.5,0.4c0.9,0.4,3.2,2.1,4,2.8c1.3,1,2.7,1.8,4.2,2.4c0.4,0,1.2-0.2,1.5-0.2
			c0.3,0.1,0.7,0.1,1,0.2"/>
		<path class="st9" d="M448.4,175c0.1,0,3.1-0.6,3.2-0.6c0.2-0.4,0.3-0.9,0.3-1.3c0.3-0.4,3.6-1,4.1-1.2c0.2-0.1-0.6-2.9-0.8-3.2
			c-0.2-0.3-0.8-0.9-0.9-1c-0.1-0.1,0-0.3-0.1-0.4c-0.1-0.1-1-1.3-1.2-1.3c0,0,0.7,1,0.2,2.9c-0.4,1.3-1,2.5-1.8,3.7
			C450.5,173.4,449.5,174.3,448.4,175c-0.5-0.7-0.9-1.5-1.2-2.3c-0.6-1.7-0.9-3.5-0.9-5.2c0-1,0.4-2.7,0.9-3l-0.2,0.1
			c-1,0.5-1.9,1-2.8,1.6c-0.3,0.3-1.8,2.4-1.7,2.6s3.1,2,3.3,2.1c0.3,0.5,0.5,1,0.7,1.5c0.2,0.5,0.4,0.9,0.7,1.3
			c0.2,0.1,0.5,0.2,0.7,0.3"/>
		<path class="st8" d="M420.9,201.1c0.7,0.6,1.5,1.1,2.3,1.5c0.8,0.4,1.6,0.7,2.4,1"/>
		<path class="st8" d="M456.4,210.6c0.1,0,1.5-0.1,3.1-0.2c0.9-0.1,1.8-0.2,2.7-0.5"/>
		<path class="st10" d="M448.4,175.3l-1.1,1.6l-2.6,12.5l-0.9,5.4l-0.7,3.1l-2.2,11.6l3.1,0.6c1,0.2,2.9,0.6,3.6,0.3
			c0.7-0.2,2.4-1,3-0.9l5.4,0.4"/>
		<path class="st1" d="M450.2,180.8c0,0-1.7,6.2-1.6,6.6c0.1,0.4,2.1,2.6,2.4,2.7c1.3,0,2.5-0.1,3.8-0.4c0.2-0.2,2.1-6.3,2.1-6.3
			s-2.3-0.6-3.1-0.9c-0.9-0.4-1.8-0.8-2.7-1.3C451.1,181.2,450.2,180.8,450.2,180.8z"/>
		<path class="st2" d="M450.2,180.8c0,0-1.7,6.2-1.6,6.6c0.1,0.4,2.1,2.6,2.4,2.7c1.3,0,2.5-0.1,3.8-0.4c0.2-0.2,2.1-6.3,2.1-6.3
			s-2.3-0.6-3.1-0.9c-0.9-0.4-1.8-0.8-2.7-1.3C451.1,181.2,450.2,180.8,450.2,180.8z"/>
		<path class="st8" d="M427.3,202.4c0.3-0.7,4.6-11.5,4.8-12.3c0.3-1.1,0.8-7.4,0.8-7.4c0-0.7,0-1.4,0.1-2c0.2-0.4,0.8-0.6,1.1-1
			c0.3-0.6,0.5-1.2,0.6-1.9l0.2-2.2"/>
		
			<ellipse transform="matrix(0.2029 -0.9792 0.9792 0.2029 177.6337 582.8014)" class="st11" cx="446.8" cy="182.3" rx="0.3" ry="0.3"/>
		
			<ellipse transform="matrix(0.2029 -0.9792 0.9792 0.2029 171.5173 586.1103)" class="st11" cx="445.7" cy="187.7" rx="0.3" ry="0.3"/>
		
			<ellipse transform="matrix(0.2029 -0.9792 0.9792 0.2029 165.5268 589.4863)" class="st11" cx="444.8" cy="193.1" rx="0.3" ry="0.3"/>
		
			<ellipse transform="matrix(0.2029 -0.9792 0.9792 0.2029 159.8574 592.5714)" class="st11" cx="443.9" cy="198.1" rx="0.3" ry="0.3"/>
		
			<ellipse transform="matrix(0.2029 -0.9792 0.9792 0.2029 154.2129 595.7843)" class="st11" cx="443" cy="203.2" rx="0.3" ry="0.3"/>
		<ellipse transform="matrix(0.2029 -0.9792 0.9792 0.2029 183.6102 579.59)" class="st11" cx="447.8" cy="177" rx="0.3" ry="0.3"/>
		<path class="st9" d="M455.8,209.9c0,0-0.5-5.7-0.5-6c0.1-0.3,0.5-1.8,0.6-2.3s0.7-6.6,0.7-6.6s2.1-6.6,2.2-6.9
			c0.1-0.3,0.6-0.6,0.7-0.9c0-0.6,0-1.1-0.1-1.6c-0.2-0.8-0.4-1.5-0.6-2.3c0-0.3,1.2-4.4,1.2-4.4"/>
	</g>
</g>
<g id="レイヤー_2_00000025413792086105889390000008366053537970899109_">
	<g id="レイヤー_1-2_00000127729436167504315830000017925032106514260149_">
		<path class="st12" d="M25.9,170.3c0,0-1.4-5.2-3.8-4.9c-2.4,0.3-2.3,5.5-2.3,5.5l-1,0.3c0,0-0.1-6.6,3-7c3.1-0.4,5.2,6,5.2,6"/>
		<path class="st12" d="M22.6,170.2c16.1-2,19.4,21.6,19.4,21.6l0.3,0.1c0.3,0.1,0.5,0.3,0.5,0.6c0,0,2.2,12,2.3,12.9s0.2,3.5-1,4.5
			c-1.2,1-15.7,3.2-15.7,3.2s-14.5,1.7-16,1.1c-1.4-0.6-2.1-3.2-2.2-4c-0.1-0.9-1.3-13-1.3-13c0-0.3,0.1-0.6,0.3-0.7l0.3-0.2
			C9.8,196.3,6.6,172.7,22.6,170.2"/>
		<path class="st13" d="M9.7,196.3l2.2,1c0.1,0.1,0.2,0.2,0.2,0.3c-0.3,1.2-0.5,2.5-0.6,3.7c0,1.6,0.8,6.7,0.9,8.2l0.3,3.8
			c0,0.3,0.1,0.5,0.3,0.7l0.5,0.5"/>
		<path class="st13" d="M9.3,196.7c0.2,0.3,0.4,0.5,0.7,0.6c0.4,0.1,0.8,0.2,1.2,0.1l0.8-0.1"/>
		<path class="st13" d="M9.2,198c0.3,0.2,0.7,0.4,1.1,0.4c0.5,0.1,1.1,0.1,1.7,0.1"/>
		<path class="st13" d="M23.1,174.1c-15.6,2.2-12.4,21.2-12.4,21.2"/>
		<path class="st13" d="M23.3,175.2c-15,2.1-10.7,21.5-10.7,21.5"/>
		<path class="st13" d="M42,191.8l-1.9,1.6c-0.1,0.1-0.1,0.2-0.1,0.3c0.6,1.1,1.1,2.2,1.5,3.4c0.5,1.6,1,6.7,1.3,8.1l0.7,3.7
			c0,0.3,0,0.5-0.1,0.8l-0.3,0.6"/>
		<path class="st13" d="M42.6,192.1c-0.1,0.3-0.3,0.6-0.6,0.7c-0.3,0.2-0.7,0.4-1.1,0.4l-0.8,0.1"/>
		<path class="st13" d="M43,193.3c-0.3,0.3-0.6,0.5-0.9,0.7c-0.5,0.3-1,0.4-1.6,0.5"/>
		<path class="st13" d="M23.1,174.1c15.6-2.2,17.7,17,17.7,17"/>
		<path class="st13" d="M23.3,175.2c15-2.1,16.1,17.8,16.1,17.8"/>
		<path class="st14" d="M13,198.3c0,0,0,3.4,0.1,3.7s0.6,0.6,1.2,0.5s25.2-3.8,25.7-3.9s0.8-0.3,0.7-0.6c0-0.4-0.9-2.6-1.2-3.4
			c-0.1-0.2-0.3-0.3-0.5-0.3l-25.6,3.6C13.2,197.9,13,198.1,13,198.3z"/>
		<path class="st13" d="M13.4,202.5c0,0,0.7,10.4,1,10.9c0.2,0.4,0.6,0.7,0.9,1"/>
		<path class="st13" d="M40.2,198.7c0,0,2.5,10.3,2.5,11c-0.1,0.7-0.8,1-0.8,1"/>
		<path class="st13" d="M37.8,199c0.2,1.2,0.5,2.4,0.8,3.6l0.8-0.1l-0.8-3.6"/>
		<line class="st13" x1="37.9" y1="199.6" x2="38.8" y2="199.5"/>
		<path class="st13" d="M37.7,185c0.1,0.2-0.8,4.9-0.8,4.9l1.2-0.1l0.5-1.9"/>
	</g>
</g>
</svg>
