<svg id="レイヤー_1" data-name="レイヤー 1" xmlns="http://www.w3.org/2000/svg" viewBox="0 0 211.06 77.48"><defs><style>.cls-1{fill:#333;}</style></defs><polyline class="cls-1" points="17.88 29.8 9.94 29.8 9.94 32.56 17.88 32.56"/><polyline class="cls-1" points="35.59 29.8 27.65 29.8 27.65 32.56 35.59 32.56"/><path class="cls-1" d="M40.49,42H27c-1.25,0-2-.55-2-1.9V38.23H42.75V24.28H3.06v14.2H20.77v1.71c0,3.31,1.66,5,4.82,5h15.3a9.14,9.14,0,0,0,4.62-1V40.44A8.21,8.21,0,0,1,40.49,42ZM25,32.56h0V29.8h0V27H38.53V29.8h0v2.76h0v2.86H25ZM20.87,29.8v5.62H7.28V27H20.87Z"/><rect class="cls-1" y="1.25" width="45.51" height="3.21"/><rect class="cls-1" x="27.8" y="13.5" width="11.29" height="2.56"/><rect class="cls-1" x="6.83" y="18.96" width="11.24" height="2.66"/><polygon class="cls-1" points="20.92 7.48 0.25 7.48 0.25 19.37 3.97 19.37 3.97 10.48 20.92 10.48 20.92 21.72 24.99 21.72 24.99 10.48 41.8 10.48 41.8 19.37 45.51 19.37 45.51 7.48 24.99 7.48 20.92 7.48"/><rect class="cls-1" x="6.83" y="13.5" width="11.24" height="2.56"/><rect class="cls-1" x="27.8" y="18.96" width="11.29" height="2.66"/><path class="cls-1" d="M76.61,37.93c0,2.11-.75,2.91-3.11,2.91H66.37v4.31H74.2c4.82,0,6.87-1.5,6.87-6.42V21.87H76.61Z"/><rect class="cls-1" x="55.54" y="21.87" width="18.19" height="4.32"/><polyline class="cls-1" points="98.48 5.12 98.48 0.9 57.84 0.9 57.84 5.12 93.32 5.12"/><rect class="cls-1" x="84.09" y="21.87" width="16.65" height="4.32"/><path class="cls-1" d="M90.24,7.53A36.18,36.18,0,0,1,76.61,13v8.83h4.46V16A39,39,0,0,0,96.2,7.53"/><path class="cls-1" d="M119.83,27.84c4.89-1.47,8.28-4.66,9.67-8.82h-3.88a9,9,0,0,1-5.79,5"/><path class="cls-1" d="M150.16,25.89V38.83a2,2,0,0,1-2,2.11h-3.66V28.75H122.11V41.59h20v3.56h7a5.21,5.21,0,0,0,5.47-5.46V12.89h-9.23L146.6,9h-4.66l-1.27,3.85H126.12c-.3-1.3-.68-2.59-1.1-3.85h-4.54a37.31,37.31,0,0,1,1.13,3.85h-9.53V45.15h4.31V16.61h33.77v5.72m-9.64,15.9H126.07V32.16h14.45Z"/><path class="cls-1" d="M146.72,22.83h-4.44a2,2,0,0,1-2-2V19h-3.66v2.3a4.82,4.82,0,0,0,5,4.92h5.14"/><polygon class="cls-1" points="142.73 6.62 147.4 6.62 155.88 6.62 155.88 2.71 135.51 2.71 135.51 0 131.14 0 131.14 2.71 110.67 2.71 110.67 6.62 119.5 6.62 124.12 6.62 142.73 6.62"/><polygon class="cls-1" points="192.3 2.71 192.3 0 187.78 0 187.78 2.71 167.86 2.71 167.86 6.67 172.23 6.67 211.06 6.67 211.06 2.71 192.3 2.71"/><path class="cls-1" d="M192.5,10.23H188V26.34H177.34V45.15H206.7V26.34H192.5V19.57h17.2V15.8H192.5Zm9.74,19.22V40.89H181.75V29.45Z"/><path class="cls-1" d="M167.86,9.09V25.74c0,7.52-.25,10-2,12.44v7.07c3.81-3.46,6.37-7.07,6.37-19.36V9.09"/><path class="cls-1" d="M10.73,77.48H9.12c-5.9,0-8.87-2.73-8.87-8.79v-4.2c0-6,3-8.82,8.87-8.82h1.61c5.9,0,8.87,2.78,8.87,8.82v4.2C19.6,74.75,16.63,77.48,10.73,77.48Zm6.49-13C17.22,59.76,15,58,10.73,58H9.12c-4.24,0-6.49,1.74-6.49,6.47v4.2c0,4.72,2.25,6.46,6.49,6.46h1.61c4.22,0,6.49-1.74,6.49-6.46Z"/><path class="cls-1" d="M37.87,69.43H28.09v8H25.71V55.7H37.87c4.62,0,6.44,2.89,6.44,5.85v2.09C44.31,66.36,42.63,69.43,37.87,69.43ZM42,61.74c0-2-1.12-3.69-4.3-3.69H28.09v9h9.57c3.15,0,4.3-1.73,4.3-3.58Z"/><path class="cls-1" d="M56.79,77.42c-5.75,0-7.22-2.51-7.22-7.16V63.05c0-5.11,2.14-7.35,7.38-7.35H67.29v2.35H57c-3.69,0-5,1.44-5,5.08v1.92H66.27v2.17H51.92V70.1c0,3.58,1,5,5.13,5H67.29v2.32Z"/><path class="cls-1" d="M87.75,77.48a2.72,2.72,0,0,1-2.88-1.74L77.2,59.39a1.13,1.13,0,0,0-1-.8c-.62,0-.86.34-.86,1.09v17.8H72.92V58.85c0-2.08.94-3.07,2.92-3.07,1.6,0,2.43.48,3,1.6l7.7,16.49c.29.61.61.77,1,.77.67,0,.88-.34.88-1.07V55.73H90.8V74.4C90.8,76.35,90.1,77.48,87.75,77.48Z"/><path class="cls-1" d="M120.83,77.45h-4.14c-6.42,0-8.42-3.15-8.42-8.76V64.52c0-5.61,2-8.85,8.42-8.85H120c5.29,0,7.64,2.06,7.82,6.34h-2.45c-.22-2.44-1.23-4-5.48-4h-3.07c-4.63,0-6.15,2.12-6.15,6.5v4.17c0,4.3,1.44,6.46,6.15,6.46h4c3.8,0,4.73-2,4.73-4.62V68.34h-7.45V66.07h9.8v4.41C127.85,74.75,126,77.45,120.83,77.45Z"/><path class="cls-1" d="M143.43,77.48h-1.66c-6,0-8.07-3-8.07-7.67V55.67h2.35V69.81c0,3.44,1.66,5.34,5.8,5.34h1.55c4.28,0,5.77-2,5.77-5.34V55.67h2.41V69.81C151.58,74.43,149.44,77.48,143.43,77.48Z"/><path class="cls-1" d="M158.44,77.45V55.7h2.44V77.45Z"/><path class="cls-1" d="M178.32,77.48H168V55.7h10c5.72,0,8.47,2.78,8.47,8.1v5.45C186.44,74.22,184,77.48,178.32,77.48Zm5.85-13.6c0-4-2.11-5.86-6.41-5.86h-7.37V75.15h7.69c4,0,6.09-2,6.09-6Z"/><path class="cls-1" d="M199.21,77.42c-5.74,0-7.21-2.51-7.21-7.16V63.05c0-5.11,2.14-7.35,7.37-7.35h10.34v2.35H199.37c-3.68,0-5,1.44-5,5.08v1.92H208.7v2.17H194.35V70.1c0,3.58,1,5,5.13,5h10.23v2.32Z"/></svg>