<svg xmlns="http://www.w3.org/2000/svg" viewBox="0 0 48.07 34.99"><defs><style>.cls-1{fill:#fff;}.cls-2{fill:#333;}</style></defs><g id="レイヤー_2" data-name="レイヤー 2"><g id="レイヤー_1-2" data-name="レイヤー 1"><rect class="cls-1" x="0.5" y="0.5" width="8.41" height="8.26" rx="1.07"/><path class="cls-2" d="M7.84,1a.58.58,0,0,1,.57.57V7.69a.58.58,0,0,1-.57.57H1.57A.58.58,0,0,1,1,7.69V1.57A.58.58,0,0,1,1.57,1H7.84m0-1H1.57A1.57,1.57,0,0,0,0,1.57V7.69A1.57,1.57,0,0,0,1.57,9.26H7.84A1.57,1.57,0,0,0,9.41,7.69V1.57A1.57,1.57,0,0,0,7.84,0Z"/><rect class="cls-1" x="0.5" y="13.03" width="8.41" height="8.26" rx="1.07"/><path class="cls-2" d="M7.84,13.53a.57.57,0,0,1,.57.56v6.13a.58.58,0,0,1-.57.57H1.57A.58.58,0,0,1,1,20.22V14.09a.57.57,0,0,1,.57-.56H7.84m0-1H1.57A1.56,1.56,0,0,0,0,14.09v6.13a1.57,1.57,0,0,0,1.57,1.57H7.84a1.57,1.57,0,0,0,1.57-1.57V14.09a1.56,1.56,0,0,0-1.57-1.56Z"/><rect class="cls-1" x="0.5" y="26.23" width="8.41" height="8.26" rx="1.07"/><path class="cls-2" d="M7.84,26.73a.57.57,0,0,1,.57.56v6.13a.58.58,0,0,1-.57.57H1.57A.58.58,0,0,1,1,33.42V27.29a.57.57,0,0,1,.57-.56H7.84m0-1H1.57A1.56,1.56,0,0,0,0,27.29v6.13A1.57,1.57,0,0,0,1.57,35H7.84a1.57,1.57,0,0,0,1.57-1.57V27.29a1.56,1.56,0,0,0-1.57-1.56Z"/><rect class="cls-1" x="12.57" y="0.5" width="35" height="8.26" rx="1.07"/><path class="cls-2" d="M46.5,1a.58.58,0,0,1,.57.57V7.69a.58.58,0,0,1-.57.57H13.64a.58.58,0,0,1-.57-.57V1.57A.58.58,0,0,1,13.64,1H46.5m0-1H13.64a1.57,1.57,0,0,0-1.57,1.57V7.69a1.57,1.57,0,0,0,1.57,1.57H46.5a1.58,1.58,0,0,0,1.57-1.57V1.57A1.57,1.57,0,0,0,46.5,0Z"/><rect class="cls-1" x="12.57" y="13.03" width="35" height="8.26" rx="1.07"/><path class="cls-2" d="M46.5,13.53a.57.57,0,0,1,.57.56v6.13a.58.58,0,0,1-.57.57H13.64a.58.58,0,0,1-.57-.57V14.09a.57.57,0,0,1,.57-.56H46.5m0-1H13.64a1.56,1.56,0,0,0-1.57,1.56v6.13a1.57,1.57,0,0,0,1.57,1.57H46.5a1.58,1.58,0,0,0,1.57-1.57V14.09a1.57,1.57,0,0,0-1.57-1.56Z"/><rect class="cls-1" x="12.57" y="26.23" width="35" height="8.26" rx="1.07"/><path class="cls-2" d="M46.5,26.73a.57.57,0,0,1,.57.56v6.13a.58.58,0,0,1-.57.57H13.64a.58.58,0,0,1-.57-.57V27.29a.57.57,0,0,1,.57-.56H46.5m0-1H13.64a1.56,1.56,0,0,0-1.57,1.56v6.13A1.57,1.57,0,0,0,13.64,35H46.5a1.58,1.58,0,0,0,1.57-1.57V27.29a1.57,1.57,0,0,0-1.57-1.56Z"/></g></g></svg>