<svg xmlns="http://www.w3.org/2000/svg" viewBox="0 0 74.5 99.03"><defs><style>.cls-1{fill:#ffd900;}.cls-1,.cls-2{stroke:#000;}.cls-1,.cls-2,.cls-3{stroke-miterlimit:10;}.cls-2{fill:#f6f5eb;}.cls-3{fill:none;stroke:#333;}</style></defs><g id="レイヤー_2" data-name="レイヤー 2"><g id="レイヤー_1-2" data-name="レイヤー 1"><path class="cls-1" d="M2,92,.9,96.14a.77.77,0,0,0,.37.85,11.47,11.47,0,0,0,8.22,1.25c.74-.81.24-2.87,1.18-5.29Z"/><path class="cls-1" d="M72.59,92l1,4.16a.77.77,0,0,1-.36.85,11.48,11.48,0,0,1-8.22,1.25c-.75-.81-.25-2.87-1.18-5.29Z"/><path class="cls-2" d="M37.5,92.82s18.15,0,19.55,0a4.08,4.08,0,0,0,3-1.18c.4-.56,1.36-5.54,1.43-5.36s.77,3.75,1,4.85a1.22,1.22,0,0,0,.28.57L63.83,93l9.15-1a.77.77,0,0,0,.53-.31A2.48,2.48,0,0,0,74,90.43c0-.62-.89-6.2-.89-6.2L69.93,49.12S67.1,33.76,67,31.88a29.11,29.11,0,0,0-.75-5.67,31.27,31.27,0,0,0-1.87-5.1,8,8,0,0,0-4.48-3.93l-3.55-.82a1.55,1.55,0,0,1-1.06-.87l-.05-.11a1.76,1.76,0,0,0-.37-.56l-.87-.9a1.79,1.79,0,0,1-.46-1l-.26-2.11a2.64,2.64,0,0,0-.2-.73L52,7.82a1.55,1.55,0,0,1-.15-.73l.06-1.39a1.68,1.68,0,0,0-1-1.6C48.68,3,43.1.5,37.25.5h0C31.4.5,25.82,3,23.56,4.1a1.68,1.68,0,0,0-.95,1.6l.06,1.39a1.67,1.67,0,0,1-.14.73l-1.06,2.29a2.64,2.64,0,0,0-.2.73L21,13a1.79,1.79,0,0,1-.46,1l-.87.9a2,2,0,0,0-.37.56l0,.11a1.55,1.55,0,0,1-1.06.87l-3.55.82a8,8,0,0,0-4.48,3.93,31.27,31.27,0,0,0-1.87,5.1,28.38,28.38,0,0,0-.74,5.67c-.16,1.88-3,17.24-3,17.24L1.39,84.23S.5,89.81.5,90.43A2.48,2.48,0,0,0,1,91.61a.77.77,0,0,0,.53.31l9.15,1,1.09-1.25a1.22,1.22,0,0,0,.28-.57c.22-1.1.94-4.69,1-4.85s1,4.8,1.44,5.36a4,4,0,0,0,3,1.18C18.85,92.85,37.5,92.82,37.5,92.82Z"/><path class="cls-3" d="M16,86.28v-7.9c0-2.91,8.19-15.14,8.19-15.14a2,2,0,0,1,1.63-1C29.61,62,38,61.7,38,61.7s9.58.47,12,.44a2.21,2.21,0,0,1,2,1.21s7.22,13.37,7.56,15.19.33,8.19.33,8.19"/><path class="cls-3" d="M22.67,7.09S31.58,17,38.35,18.53"/><path class="cls-3" d="M50.94,4.1c1,3.72-13.57,16.51-17.63,17.17"/><path class="cls-3" d="M18.79,16.09s10.53,3.36,11.94,3.77S36.3,22.92,37.5,23a13.15,13.15,0,0,0,4.65-.16c1.41-.46,7.51-4.32,7.51-4.32l5.58-3"/><path class="cls-3" d="M61.47,86.28l-1.6.45s-3.49.45-5.23.45H44.51c-2.57,0-5.72-.45-9.29-.34s-11.21.34-13.7,0S13,86.28,13,86.28l.81-13.75,1.5-25.81c-.06,1.6.59,1.56.18-12.91A29,29,0,0,0,13,24.22"/><path class="cls-3" d="M61.43,86.28l-.81-13.75L59.13,46.72s-.31-8.43-.19-12.91a29.29,29.29,0,0,1,2.49-9.59"/></g></g></svg>