<svg xmlns="http://www.w3.org/2000/svg" viewBox="0 0 49.77 64.06"><defs><style>.cls-1,.cls-2,.cls-5,.cls-7,.cls-9{fill:none;}.cls-1,.cls-2,.cls-4,.cls-5,.cls-6,.cls-7,.cls-9{stroke:#333;}.cls-1,.cls-2,.cls-4,.cls-5,.cls-7{stroke-linecap:round;}.cls-1,.cls-2,.cls-4,.cls-6,.cls-9{stroke-miterlimit:10;}.cls-1,.cls-4,.cls-5,.cls-6{stroke-width:2px;}.cls-2,.cls-7,.cls-9{stroke-width:4px;}.cls-3,.cls-4,.cls-6{fill:#f6f5eb;}.cls-5,.cls-7{stroke-linejoin:round;}.cls-8{fill:#ffd900;}</style></defs><g id="レイヤー_2" data-name="レイヤー 2"><g id="レイヤー_1-2" data-name="レイヤー 1"><polyline class="cls-1" points="37.21 32.44 37.21 42.71 40.98 42.94 44.72 41.63 44.16 22.92"/><line class="cls-1" x1="41.61" y1="42.27" x2="41.61" y2="30.32"/><path class="cls-2" d="M15.06,41.3a12.55,12.55,0,0,0,3-.76L45.17,14.68a31.51,31.51,0,0,0,.75-5.74,8.83,8.83,0,0,0-.87-3c-.37-.8-1.41-3.24-2.31-3.6A5.44,5.44,0,0,0,40.94,2l-1.16.17c-.73.26-4.54,3.59-6.74,5.33S23,17.58,23,17.58L12.52,28.75S10.31,30.23,10,30.42s-3.51,3.51-3.51,3.51"/><path class="cls-3" d="M15.06,41.3a12.55,12.55,0,0,0,3-.76L45.17,14.68a31.51,31.51,0,0,0,.75-5.74,8.83,8.83,0,0,0-.87-3c-.37-.8-1.41-3.24-2.31-3.6A5.44,5.44,0,0,0,40.94,2l-1.16.17c-.73.26-4.54,3.59-6.74,5.33S23,17.58,23,17.58L12.52,28.75S10.31,30.23,10,30.42s-3.51,3.51-3.51,3.51"/><path class="cls-2" d="M10.15,50.08s4.22-4.43,4.74-5.19,6.37-8.78,8.07-11S34.12,19,35.37,17.32s3.9-6.1,4.86-6.42a3.22,3.22,0,0,1,2.7,0c1.07.47,2,2.55,2.12,3a5.75,5.75,0,0,0,.3,1.41c.18.28,2,2.66,2.14,3.73s.28,3.76.28,3.76a10.64,10.64,0,0,1-.28,2.72c-.3.71-2.15,3.16-2.63,4s-2.81,4.62-3.47,5.84-4,9.19-4,9.19l-2,6a23.61,23.61,0,0,1-2.88,4.24c-1.07.94-4.19,4.47-8.56,5.93S11.47,63.39,8.32,59"/><path class="cls-3" d="M10.15,50.08s4.22-4.43,4.74-5.19,6.37-8.78,8.07-11S34.12,19,35.37,17.32s3.9-6.1,4.86-6.42a3.22,3.22,0,0,1,2.7,0c1.07.47,2,2.55,2.12,3a5.75,5.75,0,0,0,.3,1.41c.18.28,2,2.66,2.14,3.73s.28,3.76.28,3.76a10.64,10.64,0,0,1-.28,2.72c-.3.71-2.15,3.16-2.63,4s-2.81,4.62-3.47,5.84-4,9.19-4,9.19l-2,6a23.61,23.61,0,0,1-2.88,4.24c-1.07.94-4.19,4.47-8.56,5.93S11.47,63.39,8.32,59"/><path class="cls-4" d="M12.14,46.68a13.2,13.2,0,0,1,5.94,1.62c3.57,2,5.18,6.44,5.8,8.79a1.49,1.49,0,0,1-1.15,1.83l-1.12.24"/><path class="cls-5" d="M23.41,58.59s6.54-3.7,7.91-4.53,5.38-4.22,5.38-4.22"/><path class="cls-1" d="M16.42,42.77s.42,2.87,2.77,3.77a19.39,19.39,0,0,0,8.14,1.19c2.05-.34,4.79-2.65,6.42-5S39.1,30.4,40,28A138.67,138.67,0,0,0,43.34,13c0-.92-.09-2-.41-2.08"/><path class="cls-6" d="M8.32,31a6.49,6.49,0,0,1,2.44,1.15c3.41,2.15,4.3,9.15,4.3,9.15l-2.27,2.2"/><path class="cls-1" d="M41,1.08c2.37.43,1.13,2.63,1.13,2.63l-3.79,7.51-4.56,6.94s-6,8.44-7.26,9.82-4.56,4.07-6.23,4.47a12,12,0,0,1-6.42-.68c-1.6-.77-1.7-4-1.7-4"/><path class="cls-7" d="M10.15,50.08C8.72,52,6.06,57.66,8.93,59.2c1.5,1,6.51,1.75,11.11-.32a9.12,9.12,0,0,0-3.53-6.49A14.83,14.83,0,0,0,10.15,50.08Z"/><path class="cls-8" d="M10.15,50.08C8.72,52,6.06,57.66,8.93,59.2c1.5,1,6.51,1.75,11.11-.32a9.12,9.12,0,0,0-3.53-6.49A14.83,14.83,0,0,0,10.15,50.08Z"/><path class="cls-9" d="M6.08,34.36S3,37.29,2.64,37.81A5.14,5.14,0,0,0,2,39.93,2.8,2.8,0,0,0,3.15,42.2a5,5,0,0,0,2.93,1.13c1.94.22,5.65.17,5.65.17s.14-4.57-2.44-6.83A10.18,10.18,0,0,0,6.08,34.36Z"/><path class="cls-8" d="M6.08,34.36S3,37.29,2.64,37.81A5.14,5.14,0,0,0,2,39.93,2.8,2.8,0,0,0,3.15,42.2a5,5,0,0,0,2.93,1.13c1.94.22,5.65.17,5.65.17s.14-4.57-2.44-6.83A10.18,10.18,0,0,0,6.08,34.36Z"/></g></g></svg>