<svg xmlns="http://www.w3.org/2000/svg" viewBox="0 0 97.98 38.07"><defs><style>.cls-1{fill:none;stroke:#333;stroke-miterlimit:10;stroke-width:4px;}.cls-2{fill:#f6f5eb;}.cls-3{fill:#ffd900;}</style></defs><g id="レイヤー_2" data-name="レイヤー 2"><g id="レイヤー_1-2" data-name="レイヤー 1"><path class="cls-1" d="M30.45,19.87c-1.43,0-6.22-4.56-6.22-4.56l4.33-5.17L34.37,14"/><path class="cls-2" d="M30.45,19.87c-1.43,0-6.22-4.56-6.22-4.56l4.33-5.17L34.37,14"/><path class="cls-1" d="M96,18.8a16.07,16.07,0,0,1-.5,4.88c-.62,1.5-4.19,5.26-7,7.07S79,36.07,63,36.07,41.21,33.13,38,31a20.81,20.81,0,0,1-6.51-7.82,22.26,22.26,0,0,1-1.35-5.57"/><path class="cls-2" d="M96,18.8a16.07,16.07,0,0,1-.5,4.88c-.62,1.5-4.19,5.26-7,7.07S79,36.07,63,36.07,41.21,33.13,38,31a20.81,20.81,0,0,1-6.51-7.82,22.26,22.26,0,0,1-1.35-5.57"/><path class="cls-1" d="M30.09,17.61c0,4.27,15,8.54,33,8.54C82.7,26.15,96,23.07,96,18.8s-14.81-8.39-32.86-8.39S30.09,13.34,30.09,17.61Z"/><path class="cls-2" d="M30.09,17.61c0,4.27,15,8.54,33,8.54C82.7,26.15,96,23.07,96,18.8s-14.81-8.39-32.86-8.39S30.09,13.34,30.09,17.61Z"/><path class="cls-1" d="M27.46,10.64c1-.78.34-1.39-.75-2-10-5.8-19.34-7-23.52-6.5-.94.26-.92.6-1,.92a8,8,0,0,0,0,3.12.63.63,0,0,0,.5.51A51.68,51.68,0,0,1,12,8.45,33.54,33.54,0,0,1,23.3,14.5a1.06,1.06,0,0,0,1.64-.38A12.8,12.8,0,0,1,27.46,10.64Z"/><path class="cls-3" d="M27.46,10.64c1-.78.34-1.39-.75-2-10-5.8-19.34-7-23.52-6.5-.94.26-.92.6-1,.92a8,8,0,0,0,0,3.12.63.63,0,0,0,.5.51A51.68,51.68,0,0,1,12,8.45,33.54,33.54,0,0,1,23.3,14.5a1.06,1.06,0,0,0,1.64-.38A12.8,12.8,0,0,1,27.46,10.64Z"/></g></g></svg>