<svg xmlns="http://www.w3.org/2000/svg" viewBox="0 0 53.95 60.7"><defs><style>.cls-1{fill:none;stroke:#333;stroke-linecap:round;stroke-linejoin:round;stroke-width:2px;}.cls-2{fill:#ffe404;}.cls-3{fill:#ffd900;}</style></defs><g id="レイヤー_2" data-name="レイヤー 2"><g id="レイヤー_1-2" data-name="レイヤー 1"><path class="cls-1" d="M31.86,7.65a7.1,7.1,0,0,1,1.32-4c1.3-1.48,4.87-1.73,4.87-1.73"/><path class="cls-1" d="M50.75,3.86S52.69,4,52.69,5s-4.57,3-4.93,3.66S44.31,29.37,44.3,32.57s5.41,10,5.42,10.55l.08,5.51H48.66l0-.7s-27.83,5.14-30,5.31-2.89.38-4.3,0-8-3.92-8.24-4.69-.24-2.09.51-2.3l26.12-7.33a.47.47,0,0,0,.35-.46v-2L31.4,33"/><path class="cls-1" d="M47.21,11.42c-.73,0-36.13,4.35-36.13,4.35L1,12,31.86,7.65Z"/><line class="cls-1" x1="1.63" y1="28.63" x2="1" y2="12.02"/><polygon class="cls-1" points="44.29 32.73 11.16 33.04 1.63 28.63 31.03 27.73 44.29 32.73"/><polygon class="cls-2" points="44.29 32.73 11.16 33.04 1.63 28.63 31.03 27.73 44.29 32.73"/><line class="cls-1" x1="11.08" y1="15.77" x2="11.16" y2="33.04"/><line class="cls-1" x1="3.94" y1="13.12" x2="3.94" y2="29.7"/><line class="cls-1" x1="7.47" y1="14.43" x2="7.47" y2="31.34"/><line class="cls-1" x1="15.86" y1="15.18" x2="15.38" y2="33"/><line class="cls-1" x1="21.46" y1="14.49" x2="21.46" y2="32.95"/><line class="cls-1" x1="27.9" y1="13.71" x2="27.57" y2="32.89"/><line class="cls-1" x1="34.48" y1="13.12" x2="33.5" y2="32.83"/><line class="cls-1" x1="40.97" y1="12.13" x2="39.52" y2="32.78"/><circle class="cls-1" cx="17.38" cy="57.35" r="2.35"/><circle class="cls-3" cx="17.38" cy="57.35" r="2.35"/><path class="cls-1" d="M12.17,52.36A2.43,2.43,0,0,1,9.82,54.8a2.35,2.35,0,0,1-1.15-4.4"/><path class="cls-3" d="M12.17,52.36A2.43,2.43,0,0,1,9.82,54.8a2.35,2.35,0,0,1-1.15-4.4"/><circle class="cls-1" cx="34.95" cy="43.77" r="2.35"/><circle class="cls-3" cx="34.95" cy="43.77" r="2.35"/><circle class="cls-1" cx="50.6" cy="51.6" r="2.35"/><circle class="cls-3" cx="50.6" cy="51.6" r="2.35"/><polygon class="cls-1" points="38.55 1 50.57 3.17 50.38 4.74 38.34 2.56 38.55 1"/><polygon class="cls-3" points="38.55 1 50.57 3.17 50.38 4.74 38.34 2.56 38.55 1"/></g></g></svg>