<?xml version="1.0" encoding="utf-8"?>
<!-- Generator: Adobe Illustrator 26.0.1, SVG Export Plug-In . SVG Version: 6.00 Build 0)  -->
<svg version="1.1" id="レイヤー_1" xmlns="http://www.w3.org/2000/svg" xmlns:xlink="http://www.w3.org/1999/xlink" x="0px"
	 y="0px" viewBox="0 0 476.2 205.4" style="enable-background:new 0 0 476.2 205.4;" xml:space="preserve">
<style type="text/css">
	.st0{fill:#F6F5EB;stroke:#333333;stroke-width:2;stroke-miterlimit:10;}
	.st1{fill:#FFD900;stroke:#333333;stroke-width:2;stroke-miterlimit:10;}
	.st2{fill:none;stroke:#333333;stroke-width:4;stroke-miterlimit:10;}
	.st3{fill:#FFD900;}
	.st4{fill:#F6F5EB;stroke:#333333;stroke-miterlimit:10;}
	.st5{fill:#F6F5EB;}
	.st6{display:none;fill:#F6F5EB;stroke:#333333;stroke-miterlimit:10;}
	.st7{fill:#333333;}
	.st8{fill:none;stroke:#000000;stroke-width:2;stroke-linecap:round;stroke-linejoin:round;}
</style>
<g id="レイヤー_2_00000148626892285497732900000002404126322765025178_">
	<g id="レイヤー_1-2">
		<path class="st0" d="M449,175.4l4-3.5c0.3-0.2,0.3-0.7,0.1-1c-0.1-0.1-0.2-0.2-0.4-0.2l-30.2-7.1c-0.4-0.1-0.8,0-1.1,0.1l-29,15.2
			c-0.4,0.2-0.6,0.6-0.6,1v7.7c0.1,1.5,0.9,2.9,2.2,3.7l31.6,13c0.4,0.2,0.8,0.1,1.1-0.2l26.3-22.6c0.2-0.2,0.2-0.6,0-0.8
			c-0.1-0.1-0.2-0.1-0.3-0.2l-3.1-0.6"/>
		<path class="st1" d="M449.8,175.8v5.1c0,0.3-0.1,0.6-0.4,0.8L426.8,201c-0.4,0.3-0.9,0.4-1.4,0.2L396,189.7
			c-0.4-0.2-0.7-0.6-0.7-1.1v-6.7c0-0.3,0.3-0.6,0.6-0.6c0.1,0,0.1,0,0.2,0l29.5,11.4c0.4,0.2,0.9,0.1,1.3-0.2l22-17.1
			c0.2-0.2,0.5-0.2,0.6,0C449.7,175.5,449.8,175.6,449.8,175.8z"/>
		<path class="st0" d="M453.9,168.4c0,0,2.7-0.5,2.4-0.7s-17.5-10-17.5-10l-40.4,9.4c-0.3,0.1-0.5,0.3-0.5,0.7v5.4
			c0,0.2,0.1,0.4,0.2,0.5l16.4,14.9l41.2-14.2c0.3-0.1,0.5-0.4,0.4-0.8c0-0.1-0.1-0.3-0.3-0.3l-1.8-1.1"/>
		<polygon class="st1" points="414.5,181.6 400.4,169.4 400.4,173.2 414.3,185.9 453.9,172.2 453.9,168.4 		"/>
		<path class="st2" d="M47.2,59.5c-0.2-0.3-0.3-0.5-0.6-0.7c-0.3-0.3-0.5-0.5-0.8-0.8c-0.2-0.2-0.5-0.4-0.8-0.6
			c1.1-0.7,2.1-1.5,3-2.5c0.8-1,1.5-2.1,2-3.2c0.6-1.4,1-2.8,1.2-4.3c0.3-1.9,0.4-3.8,0.4-5.7h-3.7l0.2,0.2
			c-0.4,0.9-0.9,1.8-1.4,2.7c-0.5,0.9-1.1,1.7-1.7,2.5c0.4,0.3,0.9,0.7,1.4,1s1,0.7,1.5,1l1.2,0.8c-0.3,0.3-0.7,0.6-0.9,1
			c-0.3,0.3-0.6,0.7-0.8,1.1L46,51c-0.5-0.4-1-0.8-1.5-1.2v9.5h-2.9v-8.6c-0.4,0.4-0.8,0.8-1.3,1.1s-0.9,0.7-1.4,1
			c-0.3-0.4-0.6-0.8-0.9-1.1c-0.4-0.4-0.8-0.8-1.1-1c0.7-0.4,1.4-0.9,2-1.4c0.7-0.6,1.4-1.2,2-1.9c0.6-0.6,1.2-1.3,1.8-2
			c0.5-0.6,0.9-1.3,1.3-1.9h-6v-2.6h3.5v-4.1h2.8v4.1h2.2l1,0.7v-2.6h12.1v4.4c0,1.6,0,3.1-0.1,4.6s-0.2,2.7-0.3,3.8s-0.2,2-0.3,2.7
			c-0.1,1-0.4,2.1-0.9,3c-0.4,0.7-1,1.2-1.7,1.5c-0.8,0.3-1.7,0.5-2.5,0.4h-1.3c0-0.3-0.1-0.6-0.2-1s-0.1-0.8-0.2-1.1
			c-0.1-0.3-0.2-0.6-0.3-0.9h2c0.4,0,0.7-0.1,1.1-0.2c0.3-0.1,0.6-0.4,0.7-0.7c0.2-0.5,0.4-1,0.4-1.5c0.1-0.5,0.2-1.2,0.3-2.2
			s0.2-2.2,0.3-3.7s0.1-3,0.1-4.7v-1.7h-2.4c0,2.6-0.3,5.3-0.8,7.9c-0.4,2-1.2,4-2.3,5.7C50.2,56.9,48.8,58.3,47.2,59.5z M47.9,48.5
			c-0.3-0.3-0.6-0.6-0.9-0.8c-0.3-0.3-0.6-0.5-1-0.7c0.5-0.5,0.9-1,1.3-1.6c0.4-0.5,0.7-1.1,1-1.7l2.2,1.4c-0.2,0.4-0.5,0.7-0.7,1.1
			c-0.3,0.4-0.6,0.8-1,1.3C48.4,47.8,48.1,48.2,47.9,48.5L47.9,48.5z"/>
		<path class="st2" d="M72.1,54.3c-0.4-0.3-0.9-0.5-1.3-0.8c-0.4-0.2-0.9-0.5-1.4-0.6c0.4-0.5,0.8-1.1,1.1-1.6
			c0.4-0.7,0.8-1.4,1.1-2.1c0.4-0.8,0.7-1.5,1-2.2c0.2-0.6,0.5-1.2,0.6-1.9l2.9,1c-0.2,0.7-0.4,1.3-0.7,2c-0.3,0.7-0.6,1.5-1,2.2
			s-0.8,1.5-1.2,2.2C73,53.1,72.6,53.7,72.1,54.3z M80.7,58.8c-0.8,0.1-1.6-0.1-2.2-0.5c-0.5-0.4-0.7-1-0.7-1.6V43.3h3.1v11.8
			c0,0.2,0.1,0.4,0.2,0.6c0.2,0.1,0.5,0.2,0.8,0.2H85c0.6,0.1,1.1-0.2,1.4-0.7c0.4-0.8,0.6-1.6,0.6-2.4c0.2,0.1,0.5,0.2,0.9,0.4
			s0.7,0.3,1.1,0.4s0.7,0.2,1,0.3c-0.1,1.1-0.4,2.1-0.8,3.1c-0.2,0.6-0.7,1.1-1.2,1.5c-0.7,0.3-1.4,0.4-2.1,0.4H80.7z M84.4,42.9
			c-0.6-0.5-1.3-1-2-1.5c-0.7-0.5-1.5-1-2.2-1.4c-0.6-0.4-1.3-0.7-2-1l1.5-2.4c0.8,0.3,1.5,0.7,2.2,1.1c0.8,0.5,1.6,0.9,2.4,1.4
			c0.7,0.4,1.3,0.8,1.9,1.3c-0.2,0.2-0.4,0.5-0.6,0.8s-0.5,0.6-0.7,0.9C84.7,42.4,84.5,42.6,84.4,42.9z M91.2,52.8
			c-0.7-1.3-1.5-2.5-2.4-3.7c-0.9-1.1-1.9-2.1-3-3.1l2.2-1.9c0.7,0.6,1.4,1.3,2.1,2c0.7,0.8,1.4,1.6,2.1,2.5
			c0.6,0.7,1.1,1.5,1.6,2.3c-0.3,0.1-0.6,0.3-0.9,0.5c-0.3,0.2-0.7,0.5-1,0.7S91.3,52.6,91.2,52.8z"/>
		<path class="st2" d="M108,59.3v-7.5c-1.4,0.6-3,1.3-4.6,1.9c-0.1-0.3-0.2-0.6-0.3-0.9c-0.2-0.3-0.3-0.7-0.5-1
			c-0.2-0.3-0.3-0.5-0.5-0.8c1.9-0.6,3.8-1.2,5.6-2c1.7-0.7,3.4-1.6,4.9-2.6h-9.8v-2.6h8.9v-2.1h-6.3v-2.6h6.3v-2.7h3v2.7h3.6v2.2
			c1.1-1.3,2-2.7,2.8-4.3l2.7,1.4c-1.2,1.9-2.6,3.7-4.1,5.4h6v2.6h-8.7c-0.5,0.4-1,0.8-1.6,1.2s-1.1,0.8-1.7,1.2h8.2v10.4H108z
			 M111,53h8v-1.7h-8V53z M111,56.9h8v-1.7h-8V56.9z M114.7,43.9h1.2c0.4-0.3,0.7-0.7,1.1-1s0.7-0.7,1-1.1h-3.2L114.7,43.9z"/>
		<path class="st3" d="M47.2,59.5c-0.2-0.3-0.3-0.5-0.6-0.7c-0.3-0.3-0.5-0.5-0.8-0.8c-0.2-0.2-0.5-0.4-0.8-0.6
			c1.1-0.7,2.1-1.5,3-2.5c0.8-1,1.5-2.1,2-3.2c0.6-1.4,1-2.8,1.2-4.3c0.3-1.9,0.4-3.8,0.4-5.7h-3.7l0.2,0.2
			c-0.4,0.9-0.9,1.8-1.4,2.7c-0.5,0.9-1.1,1.7-1.7,2.5c0.4,0.3,0.9,0.7,1.4,1s1,0.7,1.5,1l1.2,0.8c-0.3,0.3-0.7,0.6-0.9,1
			c-0.3,0.3-0.6,0.7-0.8,1.1L46,51c-0.5-0.4-1-0.8-1.5-1.2v9.5h-2.9v-8.6c-0.4,0.4-0.8,0.8-1.3,1.1s-0.9,0.7-1.4,1
			c-0.3-0.4-0.6-0.8-0.9-1.1c-0.4-0.4-0.8-0.8-1.1-1c0.7-0.4,1.4-0.9,2-1.4c0.7-0.6,1.4-1.2,2-1.9c0.6-0.6,1.2-1.3,1.8-2
			c0.5-0.6,0.9-1.3,1.3-1.9h-6v-2.6h3.5v-4.1h2.8v4.1h2.2l1,0.7v-2.6h12.1v4.4c0,1.6,0,3.1-0.1,4.6s-0.2,2.7-0.3,3.8s-0.2,2-0.3,2.7
			c-0.1,1-0.4,2.1-0.9,3c-0.4,0.7-1,1.2-1.7,1.5c-0.8,0.3-1.7,0.5-2.5,0.4h-1.3c0-0.3-0.1-0.6-0.2-1s-0.1-0.8-0.2-1.1
			c-0.1-0.3-0.2-0.6-0.3-0.9h2c0.4,0,0.7-0.1,1.1-0.2c0.3-0.1,0.6-0.4,0.7-0.7c0.2-0.5,0.4-1,0.4-1.5c0.1-0.5,0.2-1.2,0.3-2.2
			s0.2-2.2,0.3-3.7s0.1-3,0.1-4.7v-1.7h-2.4c0,2.6-0.3,5.3-0.8,7.9c-0.4,2-1.2,4-2.3,5.7C50.2,56.9,48.8,58.3,47.2,59.5z M47.9,48.5
			c-0.3-0.3-0.6-0.6-0.9-0.8c-0.3-0.3-0.6-0.5-1-0.7c0.5-0.5,0.9-1,1.3-1.6c0.4-0.5,0.7-1.1,1-1.7l2.2,1.4c-0.2,0.4-0.5,0.7-0.7,1.1
			c-0.3,0.4-0.6,0.8-1,1.3C48.4,47.8,48.1,48.2,47.9,48.5L47.9,48.5z"/>
		<path class="st3" d="M72.1,54.3c-0.4-0.3-0.9-0.5-1.3-0.8c-0.4-0.2-0.9-0.5-1.4-0.6c0.4-0.5,0.8-1.1,1.1-1.6
			c0.4-0.7,0.8-1.4,1.1-2.1c0.4-0.8,0.7-1.5,1-2.2c0.2-0.6,0.5-1.2,0.6-1.9l2.9,1c-0.2,0.7-0.4,1.3-0.7,2c-0.3,0.7-0.6,1.5-1,2.2
			s-0.8,1.5-1.2,2.2C73,53.1,72.6,53.7,72.1,54.3z M80.7,58.8c-0.8,0.1-1.6-0.1-2.2-0.5c-0.5-0.4-0.7-1-0.7-1.6V43.3h3.1v11.8
			c0,0.2,0.1,0.4,0.2,0.6c0.2,0.1,0.5,0.2,0.8,0.2H85c0.6,0.1,1.1-0.2,1.4-0.7c0.4-0.8,0.6-1.6,0.6-2.4c0.2,0.1,0.5,0.2,0.9,0.4
			s0.7,0.3,1.1,0.4s0.7,0.2,1,0.3c-0.1,1.1-0.4,2.1-0.8,3.1c-0.2,0.6-0.7,1.1-1.2,1.5c-0.7,0.3-1.4,0.4-2.1,0.4H80.7z M84.4,42.9
			c-0.6-0.5-1.3-1-2-1.5c-0.7-0.5-1.5-1-2.2-1.4c-0.6-0.4-1.3-0.7-2-1l1.5-2.4c0.8,0.3,1.5,0.7,2.2,1.1c0.8,0.5,1.6,0.9,2.4,1.4
			c0.7,0.4,1.3,0.8,1.9,1.3c-0.2,0.2-0.4,0.5-0.6,0.8s-0.5,0.6-0.7,0.9C84.7,42.4,84.5,42.6,84.4,42.9z M91.2,52.8
			c-0.7-1.3-1.5-2.5-2.4-3.7c-0.9-1.1-1.9-2.1-3-3.1l2.2-1.9c0.7,0.6,1.4,1.3,2.1,2c0.7,0.8,1.4,1.6,2.1,2.5
			c0.6,0.7,1.1,1.5,1.6,2.3c-0.3,0.1-0.6,0.3-0.9,0.5c-0.3,0.2-0.7,0.5-1,0.7S91.3,52.6,91.2,52.8z"/>
		<path class="st3" d="M108,59.3v-7.5c-1.4,0.6-3,1.3-4.6,1.9c-0.1-0.3-0.2-0.6-0.3-0.9c-0.2-0.3-0.3-0.7-0.5-1
			c-0.2-0.3-0.3-0.5-0.5-0.8c1.9-0.6,3.8-1.2,5.6-2c1.7-0.7,3.4-1.6,4.9-2.6h-9.8v-2.6h8.9v-2.1h-6.3v-2.6h6.3v-2.7h3v2.7h3.6v2.2
			c1.1-1.3,2-2.7,2.8-4.3l2.7,1.4c-1.2,1.9-2.6,3.7-4.1,5.4h6v2.6h-8.7c-0.5,0.4-1,0.8-1.6,1.2s-1.1,0.8-1.7,1.2h8.2v10.4H108z
			 M111,53h8v-1.7h-8V53z M111,56.9h8v-1.7h-8V56.9z M114.7,43.9h1.2c0.4-0.3,0.7-0.7,1.1-1s0.7-0.7,1-1.1h-3.2L114.7,43.9z"/>
		<path class="st4" d="M58.5,130.4c0-0.7,0.1-1.8,0.1-3.1s0.1-2.8,0.1-4.4s0.1-3.1,0.1-4.6s0-2.8,0-3.8c-4.7,3.3-9.7,6.2-15,8.5
			c-0.3-0.5-0.7-1.1-1.1-1.6c-0.5-0.7-1.1-1.3-1.7-2c-0.4-0.5-0.9-1-1.4-1.5c2.4-0.8,4.7-1.7,6.9-2.8c2.4-1.1,4.6-2.4,6.8-3.8
			c2.1-1.3,4.1-2.7,5.9-4.3c1.5-1.2,2.9-2.7,4.1-4.2h-3.3c-1.3,0-2.7,0-4.2,0.1s-3,0.1-4.5,0.1l-3.9,0.1c-1.2,0-2,0.1-2.6,0.2
			c0-0.6,0-1.1,0-1.7c0-0.8,0-1.6-0.1-2.4s-0.1-1.4-0.1-1.8c0.8,0.1,1.8,0.1,3.2,0.2s2.9,0,4.6,0h5.2l5.2-0.1c1.7,0,3.2-0.1,4.4-0.2
			s2.3-0.1,2.9-0.2c0.3,0.3,0.6,0.5,0.8,0.8c0.3,0.4,0.7,0.8,1,1.1s0.6,0.6,0.8,0.8c-0.3,0.4-0.7,0.9-1.2,1.5s-0.9,1.2-1.3,1.8
			c-0.8,1.1-1.6,2.2-2.5,3.3c-1,1-2,2.1-3.1,3.1c0,1.1,0,2.3,0,3.8s0,3,0,4.7s0,3.3,0,4.9s0,3,0.1,4.3s0,2.3,0,3.1H58.5z M65.7,95.9
			c-0.8-0.5-1.7-0.9-2.6-1.3c-1.1-0.5-2.3-1.1-3.6-1.6c-1.3-0.6-2.5-1-3.7-1.5c-0.9-0.4-1.9-0.7-2.8-1c0.3-0.4,0.6-0.9,1-1.6l1.2-2
			c0.4-0.7,0.7-1.2,0.9-1.6c0.8,0.2,1.8,0.6,2.9,1s2.4,1,3.7,1.5s2.5,1.1,3.6,1.6s1.9,0.9,2.5,1.2c-0.3,0.4-0.6,0.9-1,1.6
			s-0.8,1.3-1.2,2S65.9,95.4,65.7,95.9z M80.2,122.4c-0.8-0.8-1.7-1.6-2.6-2.3c-1.1-0.9-2.3-1.8-3.5-2.7c-1.3-0.9-2.5-1.7-3.7-2.5
			s-2.2-1.4-3.1-1.8c0.7-0.7,1.3-1.5,1.8-2.2c0.7-0.9,1.2-1.7,1.5-2.2c1,0.5,2.1,1.1,3.3,1.8c1.2,0.8,2.5,1.5,3.8,2.4
			c1.3,0.8,2.5,1.7,3.6,2.5c0.9,0.6,1.8,1.4,2.6,2.1c-0.4,0.4-0.8,0.9-1.3,1.5c-0.5,0.6-1,1.3-1.5,1.9S80.5,122,80.2,122.4z"/>
		<path class="st4" d="M114.9,112.6c-0.2-0.9-0.4-1.9-0.7-3.1s-0.7-2.3-1.1-3.4c-0.4-1.1-0.8-2.1-1.3-3.1c0.7-0.2,1.6-0.4,2.7-0.7
			l2.5-0.7c0.5,0.9,0.8,1.9,1.1,2.9c0.4,1.2,0.7,2.4,1,3.7s0.6,2.3,0.7,3.3c-0.7,0.2-1.6,0.3-2.6,0.6
			C116.4,112.1,115.6,112.3,114.9,112.6z M121.8,129.8c-0.3-0.5-0.7-0.9-1.1-1.3c-0.5-0.5-1-1-1.6-1.6c-0.4-0.4-0.9-0.8-1.3-1.2
			c5.3-1.8,9.2-4.3,11.8-7.6c2.8-3.6,4.5-8,5.1-12.6c0.1-0.9,0.3-1.9,0.4-2.9s0.2-1.8,0.3-2.2l1.8,0.4c0.7,0.2,1.5,0.3,2.2,0.4
			s1.3,0.2,1.6,0.2c-0.1,0.5-0.3,1.1-0.5,2s-0.4,1.7-0.5,2.6c-0.6,3.8-1.7,7.4-3.4,10.8c-1.5,2.9-3.5,5.5-6,7.6
			C127.9,126.6,124.9,128.5,121.8,129.8z M124.4,110.7c-0.2-1.7-0.4-3.3-0.7-5c-0.3-1.6-0.7-3.2-1.3-4.8l1.7-0.3
			c0.7-0.1,1.3-0.2,2-0.4l1.6-0.3c0.3,1,0.6,2,0.9,3c0.3,1.2,0.5,2.4,0.7,3.6c0.2,1.1,0.3,2.1,0.4,3.2c-0.5,0.1-1.1,0.2-1.6,0.3
			l-2,0.4L124.4,110.7z"/>
		<path class="st4" d="M180,130c0-0.5,0-1.5,0-2.8c0-1.4,0-3,0.1-4.9s0-4,0-6.2s0-4.6,0.1-6.9s0-4.7,0.1-6.9s0-4.2,0-6
			c0-2.3,0-4.3-0.1-6c0-1.2-0.1-2.5-0.3-3.7l2.1,0.2c0.8,0.1,1.7,0.1,2.6,0.2l2.1,0.1c-0.1,0.6-0.2,1.6-0.2,3s-0.1,3-0.1,5.1v7.8
			c1.1-1,1.9-1.9,2.6-2.6c0.9,0.8,2,1.7,3.2,2.6s2.5,1.8,3.9,2.7s2.7,1.7,3.9,2.4s2.4,1.4,3.4,1.9c-0.8,0.8-1.6,1.6-2.4,2.5
			c-0.7,0.8-1.4,1.6-2,2.5c-1.2-0.7-2.5-1.6-4-2.6s-3-2-4.5-3.2s-2.9-2.2-4.1-3.3c0,2.4,0,4.9,0,7.4c0,2.6,0,5,0,7.3s0,4.3,0,6v3.4
			H180z"/>
		<path class="st4" d="M243.8,112.4c-1.2-1-2.4-1.9-3.7-2.7c-1.4-0.9-2.9-1.8-4.4-2.6c-1.5-0.8-2.9-1.6-4.2-2.2
			c0.6-0.8,1.2-1.7,1.7-2.5c0.6-1,1.1-1.9,1.6-2.8c1,0.5,2.1,1,3.2,1.7s2.4,1.3,3.5,2.1s2.3,1.4,3.3,2.1s1.8,1.3,2.5,1.8
			c-0.5,0.6-1.1,1.5-1.8,2.5L243.8,112.4z M237.7,128.1c-0.2-0.4-0.6-1.1-1.1-1.9s-1-1.6-1.5-2.4c-0.4-0.6-0.8-1.2-1.2-1.7
			c3.4-0.8,6.8-1.8,10-3.2c3.5-1.4,6.9-3.1,10.1-5c3.3-1.9,6.4-4.1,9.4-6.5c2.9-2.3,5.5-4.8,8-7.4c0.1,0.4,0.2,0.9,0.4,1.5
			s0.4,1.3,0.5,2s0.4,1.3,0.6,1.9c0.1,0.4,0.3,0.8,0.5,1.2c-2.3,2.4-4.7,4.6-7.3,6.6c-2.8,2.2-5.7,4.2-8.8,6.1
			c-3.1,1.9-6.3,3.6-9.6,5.1C244.4,125.9,241.1,127.2,237.7,128.1L237.7,128.1z M250.5,101c-1.2-1-2.4-1.9-3.6-2.7
			c-1.4-0.9-2.8-1.8-4.3-2.7c-1.3-0.8-2.7-1.5-4.1-2.2c0.5-0.7,1.1-1.5,1.7-2.5s1.2-1.9,1.7-2.8c1,0.5,2,1.1,3.2,1.8
			s2.3,1.4,3.5,2.1s2.2,1.4,3.2,2.2s1.8,1.3,2.4,1.8c-0.5,0.6-1.1,1.4-1.8,2.4L250.5,101z"/>
		<path class="st4" d="M303,126.7c0-0.5,0-1,0-1.5c0-0.7,0-1.4,0-2.1c0-0.5,0-1,0-1.4c0.6,0,1.5,0.1,2.9,0.1h4.7h5.4h5h3.6v-5H321
			h-4.5h-4.8h-4.3c-1.3,0-2.3,0-3,0.1v-3.5c0-0.5,0-1,0-1.5c0.6,0,1.5,0.1,2.7,0.1h4h4.5h4.4h4.6v-4.8h-3.4h-5c-1.8,0-3.6,0-5.4,0.1
			l-4.7,0.1c-1.4,0-2.3,0-2.8,0.1c0-0.5,0-1,0-1.5c0-0.7,0-1.4,0-2.2c0-0.5,0-1,0-1.6c0.5,0,1.4,0.1,2.7,0.1h4.7h11.5h4.8
			c1.4,0,2.3,0,2.9-0.1c0,0.5,0,1.4-0.1,2.6s0,2.7,0,4.3v10.4c0,1.7,0,3.2,0,4.4s0,2.2,0.1,2.8c-0.5,0-1.5-0.1-2.9-0.1s-3,0-4.9,0
			h-5.8c-2,0-3.9,0-5.8,0h-4.8C304.4,126.6,303.5,126.7,303,126.7z"/>
		<path class="st4" d="M369.9,112.6c-0.2-0.9-0.4-1.9-0.7-3.1s-0.7-2.3-1.1-3.4c-0.4-1.1-0.8-2.1-1.3-3.1c0.7-0.2,1.6-0.4,2.6-0.7
			l2.5-0.7c0.5,0.9,0.8,1.9,1.1,2.9c0.4,1.2,0.7,2.4,1,3.7s0.6,2.3,0.7,3.3c-0.7,0.2-1.5,0.3-2.5,0.6
			C371.4,112.1,370.6,112.3,369.9,112.6z M376.8,129.8c-0.3-0.5-0.7-0.9-1.1-1.3c-0.5-0.5-1-1-1.6-1.6c-0.4-0.4-0.9-0.8-1.4-1.2
			c5.3-1.8,9.2-4.3,11.9-7.6c2.8-3.6,4.5-8,5-12.6c0.1-0.9,0.3-1.9,0.4-2.9s0.2-1.8,0.3-2.2l1.8,0.4c0.7,0.2,1.5,0.3,2.2,0.4
			s1.3,0.2,1.6,0.2c-0.1,0.5-0.3,1.1-0.5,2s-0.4,1.7-0.5,2.6c-0.6,3.8-1.7,7.4-3.4,10.8c-1.5,2.9-3.5,5.5-6,7.6
			C382.9,126.6,379.9,128.5,376.8,129.8L376.8,129.8z M379.4,110.7c-0.2-1.7-0.4-3.3-0.7-5c-0.3-1.6-0.7-3.2-1.3-4.8l1.6-0.3
			c0.7-0.1,1.4-0.2,2-0.4l1.6-0.3c0.3,1,0.6,2,0.9,3c0.3,1.2,0.5,2.4,0.7,3.6c0.2,1.1,0.3,2.1,0.4,3.2c-0.5,0.1-1.1,0.2-1.6,0.3
			l-2,0.4L379.4,110.7z"/>
		<path class="st4" d="M436.9,128.6c-0.4-0.4-0.9-1-1.5-1.6s-1.2-1.2-1.9-1.8c-0.5-0.5-1.1-0.9-1.6-1.2c4.2-1.6,8-3.8,11.5-6.6
			c3.2-2.6,5.9-5.7,8.1-9.1c2.1-3.3,3.8-7,5-10.8c-0.6,0-1.6,0-2.9,0s-2.9,0.1-4.7,0.1s-3.6,0-5.6,0.1s-3.8,0.1-5.6,0.1l-4.9,0.1
			c-1.4,0-2.5,0.1-3.3,0.1c0-0.6,0-1.3,0-1.9c0-0.8-0.1-1.6-0.1-2.4s-0.1-1.4-0.1-1.9c1.1,0.1,2.6,0.2,4.4,0.2s3.8,0.1,6,0.1
			s4.5,0,6.7,0s4.5-0.1,6.5-0.1s3.9-0.1,5.5-0.2s2.8-0.1,3.5-0.2c0.4,0.3,0.9,0.7,1.5,1.2l1.5,1.1c-0.3,0.5-0.6,1.1-0.8,1.7
			c-0.2,0.7-0.6,1.5-1.1,2.5c-2.1,6.7-5.4,12.9-9.9,18.2C448.6,121.6,443.1,125.7,436.9,128.6z M469,93.8c-1.4,0-2.7-0.5-3.7-1.5
			c-2-2-2-5.2-0.1-7.2c0,0,0,0,0.1-0.1c1-1,2.3-1.5,3.7-1.5c2.8,0,5.1,2.3,5.1,5.2S471.8,93.8,469,93.8z M469,91.5
			c0.8,0,1.5-0.3,2-0.8c1.1-1.1,1.1-3,0-4.1c-0.5-0.5-1.2-0.9-2-0.8c-0.8,0-1.5,0.3-2,0.8c-1.1,1.1-1.1,3,0,4.1
			C467.5,91.2,468.2,91.5,469,91.5z"/>
		<path class="st2" d="M58.5,130.4c0-0.7,0.1-1.8,0.1-3.1s0.1-2.8,0.1-4.4s0.1-3.1,0.1-4.6s0-2.8,0-3.8c-4.7,3.3-9.7,6.2-15,8.5
			c-0.3-0.5-0.7-1.1-1.1-1.6c-0.5-0.7-1.1-1.3-1.7-2c-0.4-0.5-0.9-1-1.4-1.5c2.4-0.8,4.7-1.7,6.9-2.8c2.4-1.1,4.6-2.4,6.8-3.8
			c2.1-1.3,4.1-2.7,5.9-4.3c1.5-1.2,2.9-2.7,4.1-4.2h-3.3c-1.3,0-2.7,0-4.2,0.1s-3,0.1-4.5,0.1l-3.9,0.1c-1.2,0-2,0.1-2.6,0.2
			c0-0.6,0-1.1,0-1.7c0-0.8,0-1.6-0.1-2.4s-0.1-1.4-0.1-1.8c0.8,0.1,1.8,0.1,3.2,0.2s2.9,0,4.6,0h5.2l5.2-0.1c1.7,0,3.2-0.1,4.4-0.2
			s2.3-0.1,2.9-0.2c0.3,0.3,0.6,0.5,0.8,0.8c0.3,0.4,0.7,0.8,1,1.1s0.6,0.6,0.8,0.8c-0.3,0.4-0.7,0.9-1.2,1.5s-0.9,1.2-1.3,1.8
			c-0.8,1.1-1.6,2.2-2.5,3.3c-1,1-2,2.1-3.1,3.1c0,1.1,0,2.3,0,3.8s0,3,0,4.7s0,3.3,0,4.9s0,3,0.1,4.3s0,2.3,0,3.1H58.5z M65.7,95.9
			c-0.8-0.5-1.7-0.9-2.6-1.3c-1.1-0.5-2.3-1.1-3.6-1.6c-1.3-0.6-2.5-1-3.7-1.5c-0.9-0.4-1.9-0.7-2.8-1c0.3-0.4,0.6-0.9,1-1.6l1.2-2
			c0.4-0.7,0.7-1.2,0.9-1.6c0.8,0.2,1.8,0.6,2.9,1s2.4,1,3.7,1.5s2.5,1.1,3.6,1.6s1.9,0.9,2.5,1.2c-0.3,0.4-0.6,0.9-1,1.6
			s-0.8,1.3-1.2,2S65.9,95.4,65.7,95.9z M80.2,122.4c-0.8-0.8-1.7-1.6-2.6-2.3c-1.1-0.9-2.3-1.8-3.5-2.7c-1.3-0.9-2.5-1.7-3.7-2.5
			s-2.2-1.4-3.1-1.8c0.7-0.7,1.3-1.5,1.8-2.2c0.7-0.9,1.2-1.7,1.5-2.2c1,0.5,2.1,1.1,3.3,1.8c1.2,0.8,2.5,1.5,3.8,2.4
			c1.3,0.8,2.5,1.7,3.6,2.5c0.9,0.6,1.8,1.4,2.6,2.1c-0.4,0.4-0.8,0.9-1.3,1.5c-0.5,0.6-1,1.3-1.5,1.9S80.5,122,80.2,122.4z"/>
		<path class="st2" d="M114.9,112.6c-0.2-0.9-0.4-1.9-0.7-3.1s-0.7-2.3-1.1-3.4c-0.4-1.1-0.8-2.1-1.3-3.1c0.7-0.2,1.6-0.4,2.7-0.7
			l2.5-0.7c0.5,0.9,0.8,1.9,1.1,2.9c0.4,1.2,0.7,2.4,1,3.7s0.6,2.3,0.7,3.3c-0.7,0.2-1.6,0.3-2.6,0.6
			C116.4,112.1,115.6,112.3,114.9,112.6z M121.8,129.8c-0.3-0.5-0.7-0.9-1.1-1.3c-0.5-0.5-1-1-1.6-1.6c-0.4-0.4-0.9-0.8-1.3-1.2
			c5.3-1.8,9.2-4.3,11.8-7.6c2.8-3.6,4.5-8,5.1-12.6c0.1-0.9,0.3-1.9,0.4-2.9s0.2-1.8,0.3-2.2l1.8,0.4c0.7,0.2,1.5,0.3,2.2,0.4
			s1.3,0.2,1.6,0.2c-0.1,0.5-0.3,1.1-0.5,2s-0.4,1.7-0.5,2.6c-0.6,3.8-1.7,7.4-3.4,10.8c-1.5,2.9-3.5,5.5-6,7.6
			C127.9,126.6,124.9,128.5,121.8,129.8z M124.4,110.7c-0.2-1.7-0.4-3.3-0.7-5c-0.3-1.6-0.7-3.2-1.3-4.8l1.7-0.3
			c0.7-0.1,1.3-0.2,2-0.4l1.6-0.3c0.3,1,0.6,2,0.9,3c0.3,1.2,0.5,2.4,0.7,3.6c0.2,1.1,0.3,2.1,0.4,3.2c-0.5,0.1-1.1,0.2-1.6,0.3
			l-2,0.4L124.4,110.7z"/>
		<path class="st2" d="M180,130c0-0.5,0-1.5,0-2.8c0-1.4,0-3,0.1-4.9s0-4,0-6.2s0-4.6,0.1-6.9s0-4.7,0.1-6.9s0-4.2,0-6
			c0-2.3,0-4.3-0.1-6c0-1.2-0.1-2.5-0.3-3.7l2.1,0.2c0.8,0.1,1.7,0.1,2.6,0.2l2.1,0.1c-0.1,0.6-0.2,1.6-0.2,3s-0.1,3-0.1,5.1v7.8
			c1.1-1,1.9-1.9,2.6-2.6c0.9,0.8,2,1.7,3.2,2.6s2.5,1.8,3.9,2.7s2.7,1.7,3.9,2.4s2.4,1.4,3.4,1.9c-0.8,0.8-1.6,1.6-2.4,2.5
			c-0.7,0.8-1.4,1.6-2,2.5c-1.2-0.7-2.5-1.6-4-2.6s-3-2-4.5-3.2s-2.9-2.2-4.1-3.3c0,2.4,0,4.9,0,7.4c0,2.6,0,5,0,7.3s0,4.3,0,6v3.4
			H180z"/>
		<path class="st2" d="M243.8,112.4c-1.2-1-2.4-1.9-3.7-2.7c-1.4-0.9-2.9-1.8-4.4-2.6c-1.5-0.8-2.9-1.6-4.2-2.2
			c0.6-0.8,1.2-1.7,1.7-2.5c0.6-1,1.1-1.9,1.6-2.8c1,0.5,2.1,1,3.2,1.7s2.4,1.3,3.5,2.1s2.3,1.4,3.3,2.1s1.8,1.3,2.5,1.8
			c-0.5,0.6-1.1,1.5-1.8,2.5L243.8,112.4z M237.7,128.1c-0.2-0.4-0.6-1.1-1.1-1.9s-1-1.6-1.5-2.4c-0.4-0.6-0.8-1.2-1.2-1.7
			c3.4-0.8,6.8-1.8,10-3.2c3.5-1.4,6.9-3.1,10.1-5c3.3-1.9,6.4-4.1,9.4-6.5c2.9-2.3,5.5-4.8,8-7.4c0.1,0.4,0.2,0.9,0.4,1.5
			s0.4,1.3,0.5,2s0.4,1.3,0.6,1.9c0.1,0.4,0.3,0.8,0.5,1.2c-2.3,2.4-4.7,4.6-7.3,6.6c-2.8,2.2-5.7,4.2-8.8,6.1
			c-3.1,1.9-6.3,3.6-9.6,5.1C244.4,125.9,241.1,127.2,237.7,128.1L237.7,128.1z M250.5,101c-1.2-1-2.4-1.9-3.6-2.7
			c-1.4-0.9-2.8-1.8-4.3-2.7c-1.3-0.8-2.7-1.5-4.1-2.2c0.5-0.7,1.1-1.5,1.7-2.5s1.2-1.9,1.7-2.8c1,0.5,2,1.1,3.2,1.8
			s2.3,1.4,3.5,2.1s2.2,1.4,3.2,2.2s1.8,1.3,2.4,1.8c-0.5,0.6-1.1,1.4-1.8,2.4L250.5,101z"/>
		<path class="st2" d="M303,126.7c0-0.5,0-1,0-1.5c0-0.7,0-1.4,0-2.1c0-0.5,0-1,0-1.4c0.6,0,1.5,0.1,2.9,0.1h4.7h5.4h5h3.6v-5H321
			h-4.5h-4.8h-4.3c-1.3,0-2.3,0-3,0.1v-3.5c0-0.5,0-1,0-1.5c0.6,0,1.5,0.1,2.7,0.1h4h4.5h4.4h4.6v-4.8h-3.4h-5c-1.8,0-3.6,0-5.4,0.1
			l-4.7,0.1c-1.4,0-2.3,0-2.8,0.1c0-0.5,0-1,0-1.5c0-0.7,0-1.4,0-2.2c0-0.5,0-1,0-1.6c0.5,0,1.4,0.1,2.7,0.1h4.7h11.5h4.8
			c1.4,0,2.3,0,2.9-0.1c0,0.5,0,1.4-0.1,2.6s0,2.7,0,4.3v10.4c0,1.7,0,3.2,0,4.4s0,2.2,0.1,2.8c-0.5,0-1.5-0.1-2.9-0.1s-3,0-4.9,0
			h-5.8c-2,0-3.9,0-5.8,0h-4.8C304.4,126.6,303.5,126.7,303,126.7z"/>
		<path class="st2" d="M369.9,112.6c-0.2-0.9-0.4-1.9-0.7-3.1s-0.7-2.3-1.1-3.4c-0.4-1.1-0.8-2.1-1.3-3.1c0.7-0.2,1.6-0.4,2.6-0.7
			l2.5-0.7c0.5,0.9,0.8,1.9,1.1,2.9c0.4,1.2,0.7,2.4,1,3.7s0.6,2.3,0.7,3.3c-0.7,0.2-1.5,0.3-2.5,0.6
			C371.4,112.1,370.6,112.3,369.9,112.6z M376.8,129.8c-0.3-0.5-0.7-0.9-1.1-1.3c-0.5-0.5-1-1-1.6-1.6c-0.4-0.4-0.9-0.8-1.4-1.2
			c5.3-1.8,9.2-4.3,11.9-7.6c2.8-3.6,4.5-8,5-12.6c0.1-0.9,0.3-1.9,0.4-2.9s0.2-1.8,0.3-2.2l1.8,0.4c0.7,0.2,1.5,0.3,2.2,0.4
			s1.3,0.2,1.6,0.2c-0.1,0.5-0.3,1.1-0.5,2s-0.4,1.7-0.5,2.6c-0.6,3.8-1.7,7.4-3.4,10.8c-1.5,2.9-3.5,5.5-6,7.6
			C382.9,126.6,379.9,128.5,376.8,129.8L376.8,129.8z M379.4,110.7c-0.2-1.7-0.4-3.3-0.7-5c-0.3-1.6-0.7-3.2-1.3-4.8l1.6-0.3
			c0.7-0.1,1.4-0.2,2-0.4l1.6-0.3c0.3,1,0.6,2,0.9,3c0.3,1.2,0.5,2.4,0.7,3.6c0.2,1.1,0.3,2.1,0.4,3.2c-0.5,0.1-1.1,0.2-1.6,0.3
			l-2,0.4L379.4,110.7z"/>
		<path class="st2" d="M436.9,128.6c-0.4-0.4-0.9-1-1.5-1.6s-1.2-1.2-1.9-1.8c-0.5-0.5-1.1-0.9-1.6-1.2c4.2-1.6,8-3.8,11.5-6.6
			c3.2-2.6,5.9-5.7,8.1-9.1c2.1-3.3,3.8-7,5-10.8c-0.6,0-1.6,0-2.9,0s-2.9,0.1-4.7,0.1s-3.6,0-5.6,0.1s-3.8,0.1-5.6,0.1l-4.9,0.1
			c-1.4,0-2.5,0.1-3.3,0.1c0-0.6,0-1.3,0-1.9c0-0.8-0.1-1.6-0.1-2.4s-0.1-1.4-0.1-1.9c1.1,0.1,2.6,0.2,4.4,0.2s3.8,0.1,6,0.1
			s4.5,0,6.7,0s4.5-0.1,6.5-0.1s3.9-0.1,5.5-0.2s2.8-0.1,3.5-0.2c0.4,0.3,0.9,0.7,1.5,1.2l1.5,1.1c-0.3,0.5-0.6,1.1-0.8,1.7
			c-0.2,0.7-0.6,1.5-1.1,2.5c-2.1,6.7-5.4,12.9-9.9,18.2C448.6,121.6,443.1,125.7,436.9,128.6z M469,93.8c-1.4,0-2.7-0.5-3.7-1.5
			c-2-2-2-5.2-0.1-7.2c0,0,0,0,0.1-0.1c1-1,2.3-1.5,3.7-1.5c2.8,0,5.1,2.3,5.1,5.2S471.8,93.8,469,93.8z M469,91.5
			c0.8,0,1.5-0.3,2-0.8c1.1-1.1,1.1-3,0-4.1c-0.5-0.5-1.2-0.9-2-0.8c-0.8,0-1.5,0.3-2,0.8c-1.1,1.1-1.1,3,0,4.1
			C467.5,91.2,468.2,91.5,469,91.5z"/>
		<path class="st5" d="M58.5,130.4c0-0.7,0.1-1.8,0.1-3.1s0.1-2.8,0.1-4.4s0.1-3.1,0.1-4.6s0-2.8,0-3.8c-4.7,3.3-9.7,6.2-15,8.5
			c-0.3-0.5-0.7-1.1-1.1-1.6c-0.5-0.7-1.1-1.3-1.7-2c-0.4-0.5-0.9-1-1.4-1.5c2.4-0.8,4.7-1.7,6.9-2.8c2.4-1.1,4.6-2.4,6.8-3.8
			c2.1-1.3,4.1-2.7,5.9-4.3c1.5-1.2,2.9-2.7,4.1-4.2h-3.3c-1.3,0-2.7,0-4.2,0.1s-3,0.1-4.5,0.1l-3.9,0.1c-1.2,0-2,0.1-2.6,0.2
			c0-0.6,0-1.1,0-1.7c0-0.8,0-1.6-0.1-2.4s-0.1-1.4-0.1-1.8c0.8,0.1,1.8,0.1,3.2,0.2s2.9,0,4.6,0h5.2l5.2-0.1c1.7,0,3.2-0.1,4.4-0.2
			s2.3-0.1,2.9-0.2c0.3,0.3,0.6,0.5,0.8,0.8c0.3,0.4,0.7,0.8,1,1.1s0.6,0.6,0.8,0.8c-0.3,0.4-0.7,0.9-1.2,1.5s-0.9,1.2-1.3,1.8
			c-0.8,1.1-1.6,2.2-2.5,3.3c-1,1-2,2.1-3.1,3.1c0,1.1,0,2.3,0,3.8s0,3,0,4.7s0,3.3,0,4.9s0,3,0.1,4.3s0,2.3,0,3.1H58.5z M65.7,95.9
			c-0.8-0.5-1.7-0.9-2.6-1.3c-1.1-0.5-2.3-1.1-3.6-1.6c-1.3-0.6-2.5-1-3.7-1.5c-0.9-0.4-1.9-0.7-2.8-1c0.3-0.4,0.6-0.9,1-1.6l1.2-2
			c0.4-0.7,0.7-1.2,0.9-1.6c0.8,0.2,1.8,0.6,2.9,1s2.4,1,3.7,1.5s2.5,1.1,3.6,1.6s1.9,0.9,2.5,1.2c-0.3,0.4-0.6,0.9-1,1.6
			s-0.8,1.3-1.2,2S65.9,95.4,65.7,95.9z M80.2,122.4c-0.8-0.8-1.7-1.6-2.6-2.3c-1.1-0.9-2.3-1.8-3.5-2.7c-1.3-0.9-2.5-1.7-3.7-2.5
			s-2.2-1.4-3.1-1.8c0.7-0.7,1.3-1.5,1.8-2.2c0.7-0.9,1.2-1.7,1.5-2.2c1,0.5,2.1,1.1,3.3,1.8c1.2,0.8,2.5,1.5,3.8,2.4
			c1.3,0.8,2.5,1.7,3.6,2.5c0.9,0.6,1.8,1.4,2.6,2.1c-0.4,0.4-0.8,0.9-1.3,1.5c-0.5,0.6-1,1.3-1.5,1.9S80.5,122,80.2,122.4z"/>
		<path class="st5" d="M114.9,112.6c-0.2-0.9-0.4-1.9-0.7-3.1s-0.7-2.3-1.1-3.4c-0.4-1.1-0.8-2.1-1.3-3.1c0.7-0.2,1.6-0.4,2.7-0.7
			l2.5-0.7c0.5,0.9,0.8,1.9,1.1,2.9c0.4,1.2,0.7,2.4,1,3.7s0.6,2.3,0.7,3.3c-0.7,0.2-1.6,0.3-2.6,0.6
			C116.4,112.1,115.6,112.3,114.9,112.6z M121.8,129.8c-0.3-0.5-0.7-0.9-1.1-1.3c-0.5-0.5-1-1-1.6-1.6c-0.4-0.4-0.9-0.8-1.3-1.2
			c5.3-1.8,9.2-4.3,11.8-7.6c2.8-3.6,4.5-8,5.1-12.6c0.1-0.9,0.3-1.9,0.4-2.9s0.2-1.8,0.3-2.2l1.8,0.4c0.7,0.2,1.5,0.3,2.2,0.4
			s1.3,0.2,1.6,0.2c-0.1,0.5-0.3,1.1-0.5,2s-0.4,1.7-0.5,2.6c-0.6,3.8-1.7,7.4-3.4,10.8c-1.5,2.9-3.5,5.5-6,7.6
			C127.9,126.6,124.9,128.5,121.8,129.8z M124.4,110.7c-0.2-1.7-0.4-3.3-0.7-5c-0.3-1.6-0.7-3.2-1.3-4.8l1.7-0.3
			c0.7-0.1,1.3-0.2,2-0.4l1.6-0.3c0.3,1,0.6,2,0.9,3c0.3,1.2,0.5,2.4,0.7,3.6c0.2,1.1,0.3,2.1,0.4,3.2c-0.5,0.1-1.1,0.2-1.6,0.3
			l-2,0.4L124.4,110.7z"/>
		<path class="st5" d="M180,130c0-0.5,0-1.5,0-2.8c0-1.4,0-3,0.1-4.9s0-4,0-6.2s0-4.6,0.1-6.9s0-4.7,0.1-6.9s0-4.2,0-6
			c0-2.3,0-4.3-0.1-6c0-1.2-0.1-2.5-0.3-3.7l2.1,0.2c0.8,0.1,1.7,0.1,2.6,0.2l2.1,0.1c-0.1,0.6-0.2,1.6-0.2,3s-0.1,3-0.1,5.1v7.8
			c1.1-1,1.9-1.9,2.6-2.6c0.9,0.8,2,1.7,3.2,2.6s2.5,1.8,3.9,2.7s2.7,1.7,3.9,2.4s2.4,1.4,3.4,1.9c-0.8,0.8-1.6,1.6-2.4,2.5
			c-0.7,0.8-1.4,1.6-2,2.5c-1.2-0.7-2.5-1.6-4-2.6s-3-2-4.5-3.2s-2.9-2.2-4.1-3.3c0,2.4,0,4.9,0,7.4c0,2.6,0,5,0,7.3s0,4.3,0,6v3.4
			H180z"/>
		<path class="st5" d="M243.8,112.4c-1.2-1-2.4-1.9-3.7-2.7c-1.4-0.9-2.9-1.8-4.4-2.6c-1.5-0.8-2.9-1.6-4.2-2.2
			c0.6-0.8,1.2-1.7,1.7-2.5c0.6-1,1.1-1.9,1.6-2.8c1,0.5,2.1,1,3.2,1.7s2.4,1.3,3.5,2.1s2.3,1.4,3.3,2.1s1.8,1.3,2.5,1.8
			c-0.5,0.6-1.1,1.5-1.8,2.5L243.8,112.4z M237.7,128.1c-0.2-0.4-0.6-1.1-1.1-1.9s-1-1.6-1.5-2.4c-0.4-0.6-0.8-1.2-1.2-1.7
			c3.4-0.8,6.8-1.8,10-3.2c3.5-1.4,6.9-3.1,10.1-5c3.3-1.9,6.4-4.1,9.4-6.5c2.9-2.3,5.5-4.8,8-7.4c0.1,0.4,0.2,0.9,0.4,1.5
			s0.4,1.3,0.5,2s0.4,1.3,0.6,1.9c0.1,0.4,0.3,0.8,0.5,1.2c-2.3,2.4-4.7,4.6-7.3,6.6c-2.8,2.2-5.7,4.2-8.8,6.1
			c-3.1,1.9-6.3,3.6-9.6,5.1C244.4,125.9,241.1,127.2,237.7,128.1L237.7,128.1z M250.5,101c-1.2-1-2.4-1.9-3.6-2.7
			c-1.4-0.9-2.8-1.8-4.3-2.7c-1.3-0.8-2.7-1.5-4.1-2.2c0.5-0.7,1.1-1.5,1.7-2.5s1.2-1.9,1.7-2.8c1,0.5,2,1.1,3.2,1.8
			s2.3,1.4,3.5,2.1s2.2,1.4,3.2,2.2s1.8,1.3,2.4,1.8c-0.5,0.6-1.1,1.4-1.8,2.4L250.5,101z"/>
		<path class="st5" d="M303,126.7c0-0.5,0-1,0-1.5c0-0.7,0-1.4,0-2.1c0-0.5,0-1,0-1.4c0.6,0,1.5,0.1,2.9,0.1h4.7h5.4h5h3.6v-5H321
			h-4.5h-4.8h-4.3c-1.3,0-2.3,0-3,0.1v-3.5c0-0.5,0-1,0-1.5c0.6,0,1.5,0.1,2.7,0.1h4h4.5h4.4h4.6v-4.8h-3.4h-5c-1.8,0-3.6,0-5.4,0.1
			l-4.7,0.1c-1.4,0-2.3,0-2.8,0.1c0-0.5,0-1,0-1.5c0-0.7,0-1.4,0-2.2c0-0.5,0-1,0-1.6c0.5,0,1.4,0.1,2.7,0.1h4.7h11.5h4.8
			c1.4,0,2.3,0,2.9-0.1c0,0.5,0,1.4-0.1,2.6s0,2.7,0,4.3v10.4c0,1.7,0,3.2,0,4.4s0,2.2,0.1,2.8c-0.5,0-1.5-0.1-2.9-0.1s-3,0-4.9,0
			h-5.8c-2,0-3.9,0-5.8,0h-4.8C304.4,126.6,303.5,126.7,303,126.7z"/>
		<path class="st5" d="M369.9,112.6c-0.2-0.9-0.4-1.9-0.7-3.1s-0.7-2.3-1.1-3.4c-0.4-1.1-0.8-2.1-1.3-3.1c0.7-0.2,1.6-0.4,2.6-0.7
			l2.5-0.7c0.5,0.9,0.8,1.9,1.1,2.9c0.4,1.2,0.7,2.4,1,3.7s0.6,2.3,0.7,3.3c-0.7,0.2-1.5,0.3-2.5,0.6
			C371.4,112.1,370.6,112.3,369.9,112.6z M376.8,129.8c-0.3-0.5-0.7-0.9-1.1-1.3c-0.5-0.5-1-1-1.6-1.6c-0.4-0.4-0.9-0.8-1.4-1.2
			c5.3-1.8,9.2-4.3,11.9-7.6c2.8-3.6,4.5-8,5-12.6c0.1-0.9,0.3-1.9,0.4-2.9s0.2-1.8,0.3-2.2l1.8,0.4c0.7,0.2,1.5,0.3,2.2,0.4
			s1.3,0.2,1.6,0.2c-0.1,0.5-0.3,1.1-0.5,2s-0.4,1.7-0.5,2.6c-0.6,3.8-1.7,7.4-3.4,10.8c-1.5,2.9-3.5,5.5-6,7.6
			C382.9,126.6,379.9,128.5,376.8,129.8L376.8,129.8z M379.4,110.7c-0.2-1.7-0.4-3.3-0.7-5c-0.3-1.6-0.7-3.2-1.3-4.8l1.6-0.3
			c0.7-0.1,1.4-0.2,2-0.4l1.6-0.3c0.3,1,0.6,2,0.9,3c0.3,1.2,0.5,2.4,0.7,3.6c0.2,1.1,0.3,2.1,0.4,3.2c-0.5,0.1-1.1,0.2-1.6,0.3
			l-2,0.4L379.4,110.7z"/>
		<path class="st5" d="M436.9,128.6c-0.4-0.4-0.9-1-1.5-1.6s-1.2-1.2-1.9-1.8c-0.5-0.5-1.1-0.9-1.6-1.2c4.2-1.6,8-3.8,11.5-6.6
			c3.2-2.6,5.9-5.7,8.1-9.1c2.1-3.3,3.8-7,5-10.8c-0.6,0-1.6,0-2.9,0s-2.9,0.1-4.7,0.1s-3.6,0-5.6,0.1s-3.8,0.1-5.6,0.1l-4.9,0.1
			c-1.4,0-2.5,0.1-3.3,0.1c0-0.6,0-1.3,0-1.9c0-0.8-0.1-1.6-0.1-2.4s-0.1-1.4-0.1-1.9c1.1,0.1,2.6,0.2,4.4,0.2s3.8,0.1,6,0.1
			s4.5,0,6.7,0s4.5-0.1,6.5-0.1s3.9-0.1,5.5-0.2s2.8-0.1,3.5-0.2c0.4,0.3,0.9,0.7,1.5,1.2l1.5,1.1c-0.3,0.5-0.6,1.1-0.8,1.7
			c-0.2,0.7-0.6,1.5-1.1,2.5c-2.1,6.7-5.4,12.9-9.9,18.2C448.6,121.6,443.1,125.7,436.9,128.6z M469,93.8c-1.4,0-2.7-0.5-3.7-1.5
			c-2-2-2-5.2-0.1-7.2c0,0,0,0,0.1-0.1c1-1,2.3-1.5,3.7-1.5c2.8,0,5.1,2.3,5.1,5.2S471.8,93.8,469,93.8z M469,91.5
			c0.8,0,1.5-0.3,2-0.8c1.1-1.1,1.1-3,0-4.1c-0.5-0.5-1.2-0.9-2-0.8c-0.8,0-1.5,0.3-2,0.8c-1.1,1.1-1.1,3,0,4.1
			C467.5,91.2,468.2,91.5,469,91.5z"/>
		<path class="st6" d="M40.4,200.6v-44.3H60v16.8H46.1v27.5H40.4z M46.1,163h8.5v-2.5h-8.5V163z M46.1,169.1h8.5v-2.5h-8.5V169.1z
			 M49.9,200.4c-0.4-0.7-0.8-1.4-1.3-2.1c-0.5-0.7-1-1.3-1.6-1.9c1.9-0.8,3.7-1.8,5.2-3.2c1.2-1.3,2.1-2.9,2.3-4.7h-6.3v-4.7h6.6
			V180h-5.1v-4.4h24.2v4.4H69v3.9h6.3v4.6H69v11h-5.2v-11h-4.1c-0.4,2.7-1.5,5.3-3.3,7.4C54.6,197.9,52.4,199.4,49.9,200.4
			L49.9,200.4z M59.9,184h3.8v-4h-3.8V184z M73.5,200.6c-0.1-0.8-0.2-1.8-0.3-2.9c-0.1-0.9-0.4-1.8-0.7-2.7h3.3
			c0.7,0.2,1.4-0.2,1.6-0.9c0.1-0.2,0.1-0.5,0-0.7v-20.2h-14v-16.8h19.6v39.2c0.1,1.4-0.4,2.8-1.4,3.8c-0.9,0.8-2.4,1.2-4.5,1.2
			L73.5,200.6z M68.9,163h8.6v-2.5h-8.6V163z M68.9,169.1h8.6v-2.5h-8.6V169.1z"/>
		<path class="st4" d="M108.8,168.5V164h18.9v4.6L108.8,168.5z M128.8,200.6c-0.3-0.9-0.7-1.7-1.1-2.6c-0.4-0.8-0.9-1.6-1.5-2.2v3.7
			H111v-14.4h15.2v10.6c1.9-0.5,3.8-1.2,5.6-2.1c1.7-0.9,3.3-1.9,4.8-3c-1.1-1.5-2.1-3-2.9-4.6c-0.8-1.6-1.5-3.3-2-5H128v-5h3.2
			c-0.7-0.6-1.4-1.2-2.1-1.8c-0.8-0.6-1.6-1.1-2.4-1.6c1-0.8,1.8-1.7,2.6-2.7c0.7-0.9,1.2-2,1.5-3.1c0.3-1.4,0.5-2.9,0.5-4.4v-6.1
			H147v11.2c0,0.3,0.1,0.5,0.2,0.7c0.3,0.2,0.6,0.2,0.9,0.2h0.9c0.5,0,1-0.3,1.3-0.8c0.4-1.1,0.6-2.3,0.5-3.5
			c0.8,0.3,1.6,0.6,2.4,0.8c1,0.3,1.9,0.5,2.7,0.6c0,1.8-0.3,3.5-0.9,5.2c-0.3,1-1,1.9-1.9,2.5c-1.1,0.5-2.2,0.7-3.4,0.7h-3.2
			c-1.4,0.1-2.8-0.1-4-0.7c-0.8-0.6-1.2-1.7-1.1-2.7v-9.3h-4.6v1.7c0,2.5-0.4,5-1.3,7.3c-1,2.2-2.4,4.2-4.3,5.8H150l2.2,2.2
			c-1.6,4.6-4.1,8.8-7.4,12.4c1.5,1.1,3.2,2.1,4.9,2.8c1.8,0.8,3.7,1.4,5.6,1.7c-0.6,0.8-1.2,1.6-1.7,2.5c-0.5,0.8-0.9,1.7-1.3,2.6
			c-2.2-0.5-4.4-1.3-6.4-2.2c-1.9-0.9-3.7-2.1-5.4-3.4c-1.7,1.3-3.6,2.4-5.5,3.4C133,199.2,130.9,200,128.8,200.6L128.8,200.6z
			 M111.1,175.5V171h14.6v4.6L111.1,175.5z M111.1,182.5V178h14.6v4.6L111.1,182.5z M111.1,161.5v-4.7h14.5v4.7H111.1z M116.1,195h5
			v-5.2h-5V195z M140.7,187.1c1.6-1.8,2.9-3.7,3.9-5.9h-7.4C137.9,183.3,139.1,185.3,140.7,187.1L140.7,187.1z"/>
		<path class="st2" d="M40.4,200.6v-44.3H60v16.8H46.1v27.5H40.4z M46.1,163h8.5v-2.5h-8.5V163z M46.1,169.1h8.5v-2.5h-8.5V169.1z
			 M49.9,200.3l-0.5,0.3c-0.4-0.7-0.3-1.7-0.8-2.4c-0.5-0.7-1-1.3-1.6-1.9c1.9-0.8,3.7-1.8,5.2-3.2c1.2-1.3,2.1-2.9,2.3-4.7h-6.3
			v-4.7h6.6V180h-5.1v-4.4h24.2v4.4H69v3.9h6.3v4.6H69v11h-5.2v-11h-4.1c-0.4,2.7-1.5,5.3-3.3,7.4C54.6,197.9,52.4,199.4,49.9,200.3
			 M59.9,184h3.8v-4h-3.8V184z M73.5,200.6c-0.1-0.8-0.2-1.8-0.3-2.9c-0.1-0.9-0.4-1.8-0.7-2.7h3.3c0.7,0.2,1.4-0.2,1.6-0.9
			c0.1-0.2,0.1-0.5,0-0.7v-20.2h-14v-16.8h19.6v39.2c0.1,1.4-0.4,2.8-1.4,3.8c-0.9,0.8-2.4,1.2-4.5,1.2L73.5,200.6z M68.9,163h8.6
			v-2.5h-8.6V163z M68.9,169.1h8.6v-2.5h-8.6V169.1z"/>
		<path class="st2" d="M108.8,168.5V164h18.9v4.6L108.8,168.5z M128.8,200.6c-0.3-0.9-0.7-1.7-1.1-2.6c-0.4-0.8-0.9-1.6-1.5-2.2v3.7
			H111v-14.4h15.2v10.6c1.9-0.5,3.8-1.2,5.6-2.1c1.7-0.9,3.3-1.9,4.8-3c-1.1-1.5-2.1-3-2.9-4.6c-0.8-1.6-1.5-3.3-2-5H128v-5h3.2
			c-0.7-0.6-1.4-1.2-2.1-1.8c-0.8-0.6-1.6-1.1-2.4-1.6c1-0.8,1.8-1.7,2.6-2.7c0.7-0.9,1.2-2,1.5-3.1c0.3-1.4,0.5-2.9,0.5-4.4v-6.1
			H147v11.2c0,0.3,0.1,0.5,0.2,0.7c0.3,0.2,0.6,0.2,0.9,0.2h0.9c0.5,0,1-0.3,1.3-0.8c0.4-1.1,0.6-2.3,0.5-3.5
			c0.8,0.3,1.6,0.6,2.4,0.8c1,0.3,1.9,0.5,2.7,0.6c0,1.8-0.3,3.5-0.9,5.2c-0.3,1-1,1.9-1.9,2.5c-1.1,0.5-2.2,0.7-3.4,0.7h-3.2
			c-1.4,0.1-2.8-0.1-4-0.7c-0.8-0.6-1.2-1.7-1.1-2.7v-9.3h-4.6v1.7c0,2.5-0.4,5-1.3,7.3c-1,2.2-2.4,4.2-4.3,5.8H150l2.2,2.2
			c-1.6,4.6-4.1,8.8-7.4,12.4c1.5,1.1,3.2,2.1,4.9,2.8c1.8,0.8,3.7,1.4,5.6,1.7c-0.6,0.8-1.2,1.6-1.7,2.5c-0.5,0.8-0.9,1.7-1.3,2.6
			c-2.2-0.5-4.4-1.3-6.4-2.2c-1.9-0.9-3.7-2.1-5.4-3.4c-1.7,1.3-3.6,2.4-5.5,3.4C133,199.2,130.9,200,128.8,200.6L128.8,200.6z
			 M111.1,175.5V171h14.6v4.6L111.1,175.5z M111.1,182.5V178h14.6v4.6L111.1,182.5z M111.1,161.5v-4.7h14.5v4.7H111.1z M116.1,195h5
			v-5.2h-5V195z M140.7,187.1c1.6-1.8,2.9-3.7,3.9-5.9h-7.4C137.9,183.3,139.1,185.3,140.7,187.1L140.7,187.1z"/>
		<path class="st5" d="M40.4,200.6v-44.3H60v16.8H46.1v27.5H40.4z M46.1,163h8.5v-2.5h-8.5V163z M46.1,169.1h8.5v-2.5h-8.5V169.1z
			 M49.9,200.4c-0.4-0.7-0.8-1.4-1.3-2.1c-0.5-0.7-1-1.3-1.6-1.9c1.9-0.8,3.7-1.8,5.2-3.2c1.2-1.3,2.1-2.9,2.3-4.7h-6.3v-4.7h6.6
			V180h-5.1v-4.4h24.2v4.4H69v3.9h6.3v4.6H69v11h-5.2v-11h-4.1c-0.4,2.7-1.5,5.3-3.3,7.4C54.6,197.9,52.4,199.4,49.9,200.4
			L49.9,200.4z M59.9,184h3.8v-4h-3.8V184z M73.5,200.6c-0.1-0.8-0.2-1.8-0.3-2.9c-0.1-0.9-0.4-1.8-0.7-2.7h3.3
			c0.7,0.2,1.4-0.2,1.6-0.9c0.1-0.2,0.1-0.5,0-0.7v-20.2h-14v-16.8h19.6v39.2c0.1,1.4-0.4,2.8-1.4,3.8c-0.9,0.8-2.4,1.2-4.5,1.2
			L73.5,200.6z M68.9,163h8.6v-2.5h-8.6V163z M68.9,169.1h8.6v-2.5h-8.6V169.1z"/>
		<path class="st5" d="M108.8,168.5V164h18.9v4.6L108.8,168.5z M128.8,200.6c-0.3-0.9-0.7-1.7-1.1-2.6c-0.4-0.8-0.9-1.6-1.5-2.2v3.7
			H111v-14.4h15.2v10.6c1.9-0.5,3.8-1.2,5.6-2.1c1.7-0.9,3.3-1.9,4.8-3c-1.1-1.5-2.1-3-2.9-4.6c-0.8-1.6-1.5-3.3-2-5H128v-5h3.2
			c-0.7-0.6-1.4-1.2-2.1-1.8c-0.8-0.6-1.6-1.1-2.4-1.6c1-0.8,1.8-1.7,2.6-2.7c0.7-0.9,1.2-2,1.5-3.1c0.3-1.4,0.5-2.9,0.5-4.4v-6.1
			H147v11.2c0,0.3,0.1,0.5,0.2,0.7c0.3,0.2,0.6,0.2,0.9,0.2h0.9c0.5,0,1-0.3,1.3-0.8c0.4-1.1,0.6-2.3,0.5-3.5
			c0.8,0.3,1.6,0.6,2.4,0.8c1,0.3,1.9,0.5,2.7,0.6c0,1.8-0.3,3.5-0.9,5.2c-0.3,1-1,1.9-1.9,2.5c-1.1,0.5-2.2,0.7-3.4,0.7h-3.2
			c-1.4,0.1-2.8-0.1-4-0.7c-0.8-0.6-1.2-1.7-1.1-2.7v-9.3h-4.6v1.7c0,2.5-0.4,5-1.3,7.3c-1,2.2-2.4,4.2-4.3,5.8H150l2.2,2.2
			c-1.6,4.6-4.1,8.8-7.4,12.4c1.5,1.1,3.2,2.1,4.9,2.8c1.8,0.8,3.7,1.4,5.6,1.7c-0.6,0.8-1.2,1.6-1.7,2.5c-0.5,0.8-0.9,1.7-1.3,2.6
			c-2.2-0.5-4.4-1.3-6.4-2.2c-1.9-0.9-3.7-2.1-5.4-3.4c-1.7,1.3-3.6,2.4-5.5,3.4C133,199.2,130.9,200,128.8,200.6L128.8,200.6z
			 M111.1,175.5V171h14.6v4.6L111.1,175.5z M111.1,182.5V178h14.6v4.6L111.1,182.5z M111.1,161.5v-4.7h14.5v4.7H111.1z M116.1,195h5
			v-5.2h-5V195z M140.7,187.1c1.6-1.8,2.9-3.7,3.9-5.9h-7.4C137.9,183.3,139.1,185.3,140.7,187.1L140.7,187.1z"/>
		<path class="st2" d="M192.8,198.8c-0.4-0.6-0.8-1.1-1.3-1.6c-0.6-0.6-1.1-1.3-1.7-1.9c-0.5-0.5-1.1-1-1.7-1.4
			c2.9-1.2,5.5-2.8,8-4.8c2.2-1.8,4.1-4,5.4-6.6c1.5-3,2.5-6.2,3-9.6c-1.9,0-3.8,0-5.6,0.1s-3.4,0.1-4.8,0.1s-2.4,0.1-3.1,0.1
			c0-0.4,0-1,0-1.9s0-1.7-0.1-2.5s0-1.5-0.1-1.9c0.8,0.1,2,0.1,3.4,0.2s3.1,0.1,5,0.1h5.9c0.1-1.4,0.1-2.9,0.1-4.5
			c0-1.2,0-2.4,0-3.5s-0.1-1.9-0.1-2.3l2,0.1l2.6,0.1l2.3,0.1c0,0.3-0.1,0.8-0.1,1.4s-0.1,1.3-0.1,1.9s-0.1,1.3-0.1,1.8
			c0,0.8-0.1,1.6-0.1,2.4s-0.1,1.5-0.1,2.2l6.2-0.1c2,0,3.8-0.1,5.4-0.1c1.6-0.1,2.9-0.1,3.8-0.2c0,1.1-0.1,2.4-0.1,4.1
			s-0.2,3.4-0.4,5.4s-0.3,3.8-0.5,5.8s-0.4,3.7-0.6,5.3c-0.2,1.3-0.4,2.7-0.7,4c-0.3,1.6-1,3-2.1,4.2c-1.1,1.1-2.5,1.8-4,2.1
			c-2.2,0.5-4.5,0.8-6.7,0.8c-0.1-0.6-0.3-1.2-0.5-2s-0.4-1.5-0.7-2.2c-0.2-0.6-0.5-1.3-0.8-1.9c1.7,0.1,3.3,0,5-0.2
			c1-0.1,1.9-0.5,2.6-1.1c0.6-0.7,1.1-1.6,1.3-2.6c0.3-1.2,0.5-2.4,0.7-3.6c0.2-1.4,0.4-2.9,0.6-4.4s0.3-2.9,0.4-4.3
			s0.1-2.4,0.1-3.2h-3.5l-6.2,0.1c-0.6,4-1.7,7.9-3.4,11.6c-1.5,3.1-3.5,5.8-5.9,8.1C198.8,195.1,195.9,197.2,192.8,198.8z
			 M227.8,166l-0.7-0.7l-1.4-1.5l-1.6-1.7c-0.5-0.6-1-1.1-1.3-1.5s-0.6-0.7-0.6-0.7l2.4-2.1l0.9,1c0.5,0.6,1.1,1.3,1.8,2
			s1.3,1.4,1.8,2l0.9,1L227.8,166z M232.1,162.2c-0.1-0.1-0.3-0.3-0.6-0.7l-1.3-1.5c-0.5-0.6-1-1.2-1.6-1.7s-1-1.1-1.4-1.5
			s-0.6-0.6-0.7-0.7l2.4-2.1c0.1,0.1,0.4,0.4,0.9,1l1.9,2l1.9,2l0.9,1L232.1,162.2z"/>
		<path class="st2" d="M274,199.1c0-0.6,0.1-1.6,0.1-3s0-2.9,0-4.7s0-3.7,0-5.7s0-4,0-5.9v-5.5c-2.5,1.9-5,3.6-7.5,5.2
			c-2.3,1.5-4.6,2.9-7,4.1c-0.5-0.5-0.9-1-1.5-1.5c-0.7-0.6-1.3-1.2-2-1.8s-1.2-1.1-1.6-1.4c2.9-1.3,5.7-2.8,8.4-4.5
			c2.9-1.8,5.7-3.7,8.5-5.8s5.3-4.2,7.6-6.3c2.1-1.9,4.1-3.8,6-5.9c0.4,0.3,0.9,0.8,1.6,1.2s1.4,1,2.1,1.4s1.3,0.8,1.7,1.1
			c-3.2,3.3-6.6,6.4-10.2,9.4c0,1.7,0,3.8,0,6.1s0.1,4.7,0.1,7.1s0.1,4.8,0.1,7s0,4.2,0.1,5.8s0,2.8,0,3.4L274,199.1z"/>
		<path class="st2" d="M327.4,199.9c0-0.5,0-1.5,0-2.9s0-3,0-4.9s0-4,0-6.2s0-4.6,0-6.9s0-4.7,0-6.9s0-4.2,0-6c0-2.3,0-4.3-0.1-6
			c0-1.2-0.1-2.5-0.3-3.7l2.1,0.1l2.5,0.2l2.1,0.1c-0.1,1-0.2,2-0.2,3c-0.1,1.4-0.1,3.1-0.1,5.1v7.8c1.1-1,1.9-1.9,2.6-2.6
			c1,0.9,2.1,1.8,3.2,2.6c1.2,0.9,2.5,1.8,3.9,2.6s2.7,1.7,4,2.4s2.4,1.4,3.4,1.9c-0.8,0.8-1.6,1.6-2.5,2.5c-0.7,0.8-1.4,1.6-2,2.5
			c-1.2-0.7-2.5-1.6-4-2.6s-3-2-4.5-3.1s-2.9-2.2-4.1-3.3c0,2.4,0,4.9,0,7.4s0,5,0,7.3c0,2.3,0,4.3,0,6v3.5L327.4,199.9z
			 M348.4,167.3c-0.1-0.1-0.4-0.5-1-1.1s-1.1-1.3-1.8-2s-1.3-1.4-1.9-2c-0.3-0.3-0.6-0.7-0.9-1l2.5-2.1l1,1c0.5,0.6,1.1,1.3,1.8,2
			s1.3,1.4,1.8,2l1,1L348.4,167.3z M352.8,163.5c-0.1-0.1-0.3-0.3-0.6-0.7l-1.3-1.5c-0.5-0.6-1-1.2-1.5-1.7s-1-1.1-1.4-1.5l-0.7-0.7
			l2.5-2.2c0.1,0.1,0.4,0.4,0.9,1.1s1.2,1.3,1.9,2s1.3,1.4,1.8,2l1,1L352.8,163.5z"/>
		<path class="st3" d="M192.8,198.8c-0.4-0.6-0.8-1.1-1.3-1.6c-0.6-0.6-1.1-1.3-1.7-1.9c-0.5-0.5-1.1-1-1.7-1.4
			c2.9-1.2,5.5-2.8,8-4.8c2.2-1.8,4.1-4,5.4-6.6c1.5-3,2.5-6.2,3-9.6c-1.9,0-3.8,0-5.6,0.1s-3.4,0.1-4.8,0.1s-2.4,0.1-3.1,0.1
			c0-0.4,0-1,0-1.9s0-1.7-0.1-2.5s0-1.5-0.1-1.9c0.8,0.1,2,0.1,3.4,0.2s3.1,0.1,5,0.1h5.9c0.1-1.4,0.1-2.9,0.1-4.5
			c0-1.2,0-2.4,0-3.5s-0.1-1.9-0.1-2.3l2,0.1l2.6,0.1l2.3,0.1c0,0.3-0.1,0.8-0.1,1.4s-0.1,1.3-0.1,1.9s-0.1,1.3-0.1,1.8
			c0,0.8-0.1,1.6-0.1,2.4s-0.1,1.5-0.1,2.2l6.2-0.1c2,0,3.8-0.1,5.4-0.1c1.6-0.1,2.9-0.1,3.8-0.2c0,1.1-0.1,2.4-0.1,4.1
			s-0.2,3.4-0.4,5.4s-0.3,3.8-0.5,5.8s-0.4,3.7-0.6,5.3c-0.2,1.3-0.4,2.7-0.7,4c-0.3,1.6-1,3-2.1,4.2c-1.1,1.1-2.5,1.8-4,2.1
			c-2.2,0.5-4.5,0.8-6.7,0.8c-0.1-0.6-0.3-1.2-0.5-2s-0.4-1.5-0.7-2.2c-0.2-0.6-0.5-1.3-0.8-1.9c1.7,0.1,3.3,0,5-0.2
			c1-0.1,1.9-0.5,2.6-1.1c0.6-0.7,1.1-1.6,1.3-2.6c0.3-1.2,0.5-2.4,0.7-3.6c0.2-1.4,0.4-2.9,0.6-4.4s0.3-2.9,0.4-4.3
			s0.1-2.4,0.1-3.2h-3.5l-6.2,0.1c-0.6,4-1.7,7.9-3.4,11.6c-1.5,3.1-3.5,5.8-5.9,8.1C198.8,195.1,195.9,197.2,192.8,198.8z
			 M227.8,166l-0.7-0.7l-1.4-1.5l-1.6-1.7c-0.5-0.6-1-1.1-1.3-1.5s-0.6-0.7-0.6-0.7l2.4-2.1l0.9,1c0.5,0.6,1.1,1.3,1.8,2
			s1.3,1.4,1.8,2l0.9,1L227.8,166z M232.1,162.2c-0.1-0.1-0.3-0.3-0.6-0.7l-1.3-1.5c-0.5-0.6-1-1.2-1.6-1.7s-1-1.1-1.4-1.5
			s-0.6-0.6-0.7-0.7l2.4-2.1c0.1,0.1,0.4,0.4,0.9,1l1.9,2l1.9,2l0.9,1L232.1,162.2z"/>
		<path class="st3" d="M274,199.1c0-0.6,0.1-1.6,0.1-3s0-2.9,0-4.7s0-3.7,0-5.7s0-4,0-5.9v-5.5c-2.5,1.9-5,3.6-7.5,5.2
			c-2.3,1.5-4.6,2.9-7,4.1c-0.5-0.5-0.9-1-1.5-1.5c-0.7-0.6-1.3-1.2-2-1.8s-1.2-1.1-1.6-1.4c2.9-1.3,5.7-2.8,8.4-4.5
			c2.9-1.8,5.7-3.7,8.5-5.8s5.3-4.2,7.6-6.3c2.1-1.9,4.1-3.8,6-5.9c0.4,0.3,0.9,0.8,1.6,1.2s1.4,1,2.1,1.4s1.3,0.8,1.7,1.1
			c-3.2,3.3-6.6,6.4-10.2,9.4c0,1.7,0,3.8,0,6.1s0.1,4.7,0.1,7.1s0.1,4.8,0.1,7s0,4.2,0.1,5.8s0,2.8,0,3.4L274,199.1z"/>
		<path class="st3" d="M327.4,199.9c0-0.5,0-1.5,0-2.9s0-3,0-4.9s0-4,0-6.2s0-4.6,0-6.9s0-4.7,0-6.9s0-4.2,0-6c0-2.3,0-4.3-0.1-6
			c0-1.2-0.1-2.5-0.3-3.7l2.1,0.1l2.5,0.2l2.1,0.1c-0.1,1-0.2,2-0.2,3c-0.1,1.4-0.1,3.1-0.1,5.1v7.8c1.1-1,1.9-1.9,2.6-2.6
			c1,0.9,2.1,1.8,3.2,2.6c1.2,0.9,2.5,1.8,3.9,2.6s2.7,1.7,4,2.4s2.4,1.4,3.4,1.9c-0.8,0.8-1.6,1.6-2.5,2.5c-0.7,0.8-1.4,1.6-2,2.5
			c-1.2-0.7-2.5-1.6-4-2.6s-3-2-4.5-3.1s-2.9-2.2-4.1-3.3c0,2.4,0,4.9,0,7.4s0,5,0,7.3c0,2.3,0,4.3,0,6v3.5L327.4,199.9z
			 M348.4,167.3c-0.1-0.1-0.4-0.5-1-1.1s-1.1-1.3-1.8-2s-1.3-1.4-1.9-2c-0.3-0.3-0.6-0.7-0.9-1l2.5-2.1l1,1c0.5,0.6,1.1,1.3,1.8,2
			s1.3,1.4,1.8,2l1,1L348.4,167.3z M352.8,163.5c-0.1-0.1-0.3-0.3-0.6-0.7l-1.3-1.5c-0.5-0.6-1-1.2-1.5-1.7s-1-1.1-1.4-1.5l-0.7-0.7
			l2.5-2.2c0.1,0.1,0.4,0.4,0.9,1.1s1.2,1.3,1.9,2s1.3,1.4,1.8,2l1,1L352.8,163.5z"/>
		<path class="st7" d="M149.8,59.2c-0.1-0.2-0.2-0.4-0.4-0.7s-0.4-0.5-0.6-0.8c-0.2-0.2-0.4-0.5-0.6-0.7c1.4-0.2,2.7-0.6,3.9-1.3
			c0.9-0.5,1.7-1.2,2.2-2.1c0.5-0.8,0.7-1.7,0.7-2.6c0-0.9-0.2-1.8-0.6-2.6c-0.4-0.8-1-1.5-1.7-2c-0.8-0.5-1.7-0.9-2.7-1
			c-0.1,1.6-0.4,3.2-0.8,4.8c-0.3,1.3-0.7,2.7-1.3,3.9c-0.4,1-1,1.9-1.7,2.7c-0.5,0.6-1.1,0.9-1.9,1c-0.6,0-1.1-0.2-1.6-0.5
			c-0.6-0.3-1-0.8-1.4-1.3c-0.4-0.6-0.8-1.3-1-2c-0.3-0.8-0.4-1.7-0.4-2.5c0-1.1,0.2-2.1,0.6-3.1c0.4-1,1-1.9,1.8-2.6
			c0.8-0.8,1.8-1.4,2.8-1.8c1.2-0.5,2.5-0.7,3.8-0.7c1.2,0,2.5,0.2,3.6,0.7c1,0.4,1.9,1,2.7,1.8c0.7,0.7,1.2,1.5,1.6,2.5
			c0.4,0.9,0.6,1.9,0.6,2.9c0,1.9-0.7,3.8-2,5.2C154,57.6,152,58.7,149.8,59.2z M144.3,55c0.2,0,0.5-0.2,0.8-0.7
			c0.4-0.6,0.7-1.3,1-2c0.4-1,0.7-2,0.9-3c0.3-1.3,0.5-2.6,0.7-3.9c-1,0.1-2,0.5-2.9,1.1c-0.8,0.6-1.4,1.3-1.8,2.2
			c-0.4,0.8-0.6,1.7-0.6,2.7c0,0.6,0.1,1.3,0.3,1.9c0.1,0.5,0.4,0.9,0.7,1.3C143.6,54.8,143.9,55,144.3,55z"/>
		<path class="st7" d="M169.1,59.5c-0.8-0.3-1.7-0.5-2.5-0.7c0.4-0.9,0.8-2,1.1-3.1s0.7-2.3,1-3.5s0.6-2.4,0.9-3.6
			c-1.1,0.1-2.1,0.1-3,0.1c0-0.2,0-0.4,0-0.7s0-0.6-0.1-0.9s-0.1-0.6-0.1-0.7c0.5,0,1.1,0,1.7,0s1.3,0,1.9-0.1
			c0.1-0.8,0.2-1.5,0.3-2.2c0.1-0.6,0.1-1.1,0.1-1.7l0.8,0.1l0.9,0.1l0.8,0.1c-0.1,0.5-0.1,1-0.2,1.6s-0.2,1.2-0.3,1.7l1.1-0.1
			c0.3,0,0.6-0.1,0.9-0.1c0,0.3,0,0.7,0,1.2s0.1,0.8,0.1,1.1l-1.2,0.2l-1.4,0.2c-0.2,0.9-0.4,1.9-0.7,3s-0.5,2.1-0.8,3.2
			s-0.5,2-0.7,2.9S169.3,58.9,169.1,59.5z M176.9,58.8c-1-0.1-2-0.3-2.9-0.6c-0.7-0.3-1.4-0.7-2-1.2c0.2-0.3,0.4-0.7,0.6-1
			c0.2-0.3,0.3-0.7,0.5-1.1c0.5,0.5,1.1,0.8,1.7,1.1c0.7,0.3,1.5,0.5,2.3,0.5c0.6,0,1.2,0,2,0s1.4,0,2.1-0.1s1.2-0.1,1.7-0.1
			c0,0.2-0.1,0.5-0.1,0.8s-0.1,0.6-0.1,0.9s0,0.5,0,0.7c-0.5,0.1-1.1,0.1-1.8,0.2s-1.3,0-2,0S177.5,58.9,176.9,58.8z M182.1,50.1
			c-0.7-0.2-1.5-0.4-2.3-0.5s-1.7-0.3-2.6-0.4S175.6,49,175,49c0.1-0.3,0.2-0.6,0.4-1.1c0.1-0.4,0.2-0.7,0.3-1.1
			c0.6,0,1.1,0,1.7,0.1c0.6,0.1,1.3,0.2,2,0.3s1.3,0.2,1.9,0.3s1.1,0.2,1.6,0.4c-0.2,0.4-0.3,0.7-0.4,1.1
			C182.3,49.4,182.2,49.7,182.1,50.1z"/>
		<path class="st7" d="M202.2,59.3c-0.2-0.4-0.4-0.8-0.7-1.1c-0.2-0.4-0.5-0.7-0.8-1c1.6-0.2,3.2-0.8,4.5-1.7c1-0.8,1.6-2,1.6-3.2
			c0-0.8-0.2-1.7-0.7-2.4c-0.5-0.8-1.3-1.4-2.2-1.7c-0.2,0.6-0.4,1.2-0.7,1.8s-0.5,1.1-0.8,1.7c-0.2,0.3-0.4,0.6-0.6,0.9
			s-0.4,0.6-0.6,0.9c0.2,0.2,0.4,0.3,0.5,0.5l0.6,0.5c-0.2,0.2-0.4,0.3-0.6,0.5c-0.2,0.2-0.4,0.4-0.6,0.6c-0.1,0.2-0.3,0.3-0.4,0.5
			c-0.4-0.2-0.7-0.5-1-0.8c-0.7,0.7-1.5,1.3-2.3,1.8c-0.7,0.4-1.4,0.7-2.2,0.7c-0.5,0-1-0.2-1.5-0.5c-0.5-0.4-0.9-0.8-1.2-1.4
			c-0.3-0.7-0.5-1.5-0.5-2.2c0-1.2,0.4-2.3,1-3.3c0.7-1.1,1.5-2,2.6-2.7c-0.2-0.7-0.4-1.4-0.6-2.2s-0.3-1.5-0.5-2.2
			c0.4,0,0.8,0,1.2-0.1l1.1-0.2c0.1,0.6,0.2,1.2,0.3,1.8s0.2,1.2,0.4,1.8c0.6-0.2,1.1-0.4,1.7-0.5c0.6-0.1,1.2-0.2,1.8-0.2
			c0.4,0,0.7,0,1.1,0.1c0.1-0.6,0.3-1.2,0.4-1.7c0.1-0.5,0.2-1,0.2-1.6c0.4,0.1,0.8,0.2,1.3,0.2c0.5,0.1,0.9,0.1,1.2,0.1
			c-0.1,0.6-0.2,1.1-0.3,1.7s-0.3,1.1-0.4,1.7c1.4,0.4,2.6,1.2,3.5,2.4c0.8,1.1,1.2,2.4,1.2,3.7c0,1.1-0.3,2.2-0.9,3.2
			c-0.6,1-1.5,1.8-2.4,2.3C204.8,58.6,203.6,59.1,202.2,59.3z M195.6,55.3c0.5,0,1-0.2,1.4-0.5c0.5-0.4,1-0.8,1.4-1.2
			c-0.4-0.6-0.8-1.2-1.1-1.8c-0.3-0.7-0.6-1.4-0.9-2.1c-0.6,0.5-1.1,1.1-1.5,1.8c-0.4,0.6-0.5,1.3-0.6,2c0,0.5,0.1,1,0.4,1.4
			C194.9,55.2,195.3,55.3,195.6,55.3z M199.9,51.8c0.1-0.2,0.3-0.4,0.4-0.7l0.4-0.7c0.4-0.8,0.8-1.7,1.1-2.6h-0.3h-0.3
			c-0.5,0-1,0.1-1.5,0.2c-0.5,0.1-0.9,0.3-1.4,0.4c0.2,0.6,0.4,1.2,0.7,1.7C199.2,50.7,199.5,51.3,199.9,51.8z"/>
		<path class="st7" d="M227.8,59.2c-0.1-0.2-0.2-0.4-0.4-0.7s-0.4-0.5-0.6-0.8c-0.2-0.2-0.4-0.5-0.6-0.7c1.4-0.2,2.7-0.6,3.9-1.3
			c0.9-0.5,1.7-1.2,2.2-2.1c0.5-0.8,0.7-1.7,0.7-2.6c0-0.9-0.2-1.8-0.6-2.6c-0.4-0.8-1-1.5-1.7-2c-0.8-0.5-1.7-0.9-2.7-1
			c-0.1,1.6-0.4,3.2-0.8,4.8c-0.3,1.3-0.7,2.7-1.3,3.9c-0.4,1-1,1.9-1.7,2.7c-0.5,0.6-1.1,0.9-1.9,1c-0.6,0-1.1-0.2-1.6-0.5
			c-0.6-0.3-1-0.8-1.4-1.3c-0.4-0.6-0.8-1.3-1-2c-0.3-0.8-0.4-1.7-0.4-2.5c0-1.1,0.2-2.1,0.6-3.1c0.4-1,1-1.9,1.8-2.6
			c0.8-0.8,1.8-1.4,2.8-1.8c1.2-0.5,2.5-0.7,3.8-0.7c1.2,0,2.5,0.2,3.6,0.7c1,0.4,1.9,1,2.7,1.8c0.7,0.7,1.2,1.5,1.6,2.5
			c0.4,0.9,0.6,1.9,0.6,2.9c0,1.9-0.7,3.8-2,5.2C232,57.6,230,58.7,227.8,59.2z M222.3,55c0.2,0,0.5-0.2,0.8-0.7
			c0.4-0.6,0.7-1.3,1-2c0.4-1,0.7-2,0.9-3c0.3-1.3,0.5-2.6,0.7-3.9c-1,0.1-2,0.5-2.9,1.1c-0.8,0.6-1.4,1.3-1.8,2.2
			c-0.4,0.8-0.6,1.7-0.6,2.7c0,0.6,0.1,1.3,0.3,1.9c0.1,0.5,0.4,0.9,0.7,1.3C221.6,54.8,221.9,55,222.3,55z"/>
		<line class="st8" x1="13.9" y1="36.1" x2="1" y2="34.3"/>
		<line class="st8" x1="17.9" y1="25.7" x2="3.9" y2="16.7"/>
		<line class="st8" x1="25.9" y1="18" x2="17.2" y2="4.1"/>
		<line class="st8" x1="36.4" y1="14.4" x2="34.7" y2="1"/>
	</g>
</g>
</svg>
