<svg xmlns="http://www.w3.org/2000/svg" viewBox="0 0 332.69 557.36"><defs><style>.cls-1{fill:#f6f5eb;}.cls-1,.cls-2,.cls-3,.cls-4{stroke:#000;}.cls-1,.cls-2,.cls-3{stroke-miterlimit:10;}.cls-1,.cls-2,.cls-4{stroke-width:4px;}.cls-2,.cls-3,.cls-4{fill:none;}.cls-3,.cls-4{stroke-linecap:round;}.cls-3{stroke-width:2px;}.cls-4{stroke-linejoin:round;}.cls-5{fill:#ffd900;}</style></defs><g id="レイヤー_2" data-name="レイヤー 2"><g id="レイヤー_1-2" data-name="レイヤー 1"><path class="cls-1" d="M166.35,472.12c63.31-.77,137.8,24.79,144.88,21.79,15.23-6.44,19.46-36.88,19.46-55.62,0-51.49-23.9-158.42-28.14-170.13s-5.08-27-22-38.7c-11.18-7.73-72.66-26.87-72.66-26.87l-9.4-22.43H134.22l-9.39,22.43s-61.49,19.14-72.67,26.87c-16.94,11.71-17.79,27-22,38.7S2,382.28,2,438.29C2,457,6.24,487.47,21.46,493.91c7.08,3,81.58,9.19,144.89,10Z"/><line class="cls-2" x1="75.23" y1="323.27" x2="52.36" y2="399.51"/><path class="cls-2" d="M267.29,323.27c1.69,2.54,11,69.46,11,69.46"/><path class="cls-1" d="M298.8,555.36H39.54a3.24,3.24,0,0,1-3.24-3.24L21.3,390a3.23,3.23,0,0,1,3.23-3.23h290a3.23,3.23,0,0,1,3.23,3.23l-15,161.36A4,4,0,0,1,298.8,555.36Z"/><path class="cls-1" d="M166.17,200.21c22.3,0,41.22-24.85,46-33.32s11.58-61,6.5-75.67-52.52-70.58-52.52-70.58-47,51.24-52.1,65.92,1.28,71.86,6.08,80.33S143.86,200.21,166.17,200.21Z"/><circle cx="144.15" cy="123.98" r="2.82"/><circle cx="189.89" cy="123.98" r="2.82"/><path class="cls-3" d="M164.49,153s.25,1.13,2.5,1.13,2.48-1.13,2.48-1.13"/><path class="cls-4" d="M148.42,163.69s8.81,8.24,18.6,8.24,19.14-8.24,19.14-8.24"/><path class="cls-1" d="M112.2,125.48a13.74,13.74,0,1,1,0-27.48"/><path class="cls-1" d="M220.49,97.75a13.75,13.75,0,0,1,0,27.49"/><path class="cls-5" d="M147,9.34C127,15,104.43,42.09,100.66,59s11.19,57,11.19,57l13.5-42.2a1.63,1.63,0,0,1,2.89-.45C132,78.8,141.13,91,150.92,99.13c12.9,10.73,74,24.85,74,24.85S239,94.29,239,80.92s-6.22-47.48-20.9-60.28S186.75,2,172.69,2,166.92,3.69,147,9.34Z"/><path class="cls-2" d="M234.92,99.34s3.32-5,3.32-18.42S232,33.44,217.35,20.64,186,2,171.92,2s-5.77,1.69-25.72,7.34S103.66,42.09,99.89,59s11.18,57,11.18,57l13.07-40.83"/><path class="cls-2" d="M130,74.71a91.29,91.29,0,0,0,20.12,24.42c12.89,10.73,74,24.85,74,24.85"/><path class="cls-2" d="M126.45,66.75s-3.2-9.6-3.2-18.63a131.42,131.42,0,0,1,1.6-18.64"/><path class="cls-2" d="M158.26,83.88c10.5,14.31,28.46,20,62.23,28.61"/><path class="cls-2" d="M177.08,83.88c10.5,14.31,9.64,13.18,43.41,21.84"/><path class="cls-1" d="M128.15,110.42s12.06-12.42,26.72,0"/><path class="cls-2" d="M124.83,202.12s12,29.27,41.72,29.27,41.32-29.27,41.32-29.27"/></g></g></svg>