<svg xmlns="http://www.w3.org/2000/svg" viewBox="0 0 73.95 42.94"><defs><style>.cls-1,.cls-4{fill:none;stroke:#333;stroke-miterlimit:10;}.cls-1{stroke-width:3px;}.cls-2{fill:#ffd900;}.cls-3{fill:#fff;}.cls-4{stroke-width:2px;}</style></defs><g id="レイヤー_2" data-name="レイヤー 2"><g id="レイヤー_1-2" data-name="レイヤー 1"><path class="cls-1" d="M28.68,40.88s13.58-4.36,27.17,0V10.7c-15.24-5.31-27.17,0-27.17,0S16.75,5.39,1.5,10.7V40.88C15.09,36.52,28.68,40.88,28.68,40.88Z"/><path class="cls-2" d="M28.68,40.88s13.58-4.36,27.17,0V10.7c-15.24-5.31-27.17,0-27.17,0S16.75,5.39,1.5,10.7V40.88C15.09,36.52,28.68,40.88,28.68,40.88Z"/><path class="cls-1" d="M28.65,38.32S41,34,53.31,38.32V8.39c-13.83-5.27-24.66,0-24.66,0S17.83,3.12,4,8.39V38.32C16.32,34,28.65,38.32,28.65,38.32Z"/><path class="cls-3" d="M28.65,38.32S41,34,53.31,38.32V8.39c-13.83-5.27-24.66,0-24.66,0S17.83,3.12,4,8.39V38.32C16.32,34,28.65,38.32,28.65,38.32Z"/><line class="cls-4" x1="28.65" y1="7.23" x2="28.65" y2="38.32"/><polygon class="cls-1" points="43.39 21.54 67.25 2.06 71.77 7 47.35 26.91 43.39 21.54"/><polygon class="cls-2" points="43.39 21.54 67.25 2.06 71.77 7 47.35 26.91 43.39 21.54"/><polyline class="cls-4" points="42.53 21.84 39.94 28.74 46.77 27.56"/></g></g></svg>