<?xml version="1.0" encoding="utf-8"?>
<!-- Generator: Adobe Illustrator 26.0.1, SVG Export Plug-In . SVG Version: 6.00 Build 0)  -->
<svg version="1.1" id="レイヤー_1" xmlns="http://www.w3.org/2000/svg" xmlns:xlink="http://www.w3.org/1999/xlink" x="0px"
	 y="0px" viewBox="0 0 30.9 40.5" style="enable-background:new 0 0 30.9 40.5;" xml:space="preserve">
<style type="text/css">
	.st0{fill:#FFE404;}
	.st1{fill:#333333;}
</style>
<path class="st0" d="M15.5,33.4C14,23.4,12.9,22,4.7,20.2C12.9,18.5,14,17,15.5,7"/>
<path class="st0" d="M15.5,33.4c1.4-10,2.6-11.4,10.7-13.2C18.1,18.5,16.9,17,15.5,7"/>
<g id="レイヤー_2_00000160896992391886495200000018353518990253661856_">
	<g id="レイヤー_1-2">
		<path class="st1" d="M15.5,40.5l-1-6.9c-1.4-9.6-2.2-10.7-10-12.4l-4.5-1l4.5-1c7.7-1.7,8.6-2.7,10-12.4l1-6.9l1,6.9
			c1.4,9.7,2.2,10.7,10,12.4l4.5,1l-4.5,1c-7.7,1.7-8.6,2.7-10,12.4L15.5,40.5z M8.7,20.2c4,1.3,5.7,3.2,6.8,7.6
			c1.1-4.5,2.8-6.3,6.8-7.6c-4-1.3-5.7-3.2-6.8-7.6C14.4,17.1,12.7,18.9,8.7,20.2z"/>
	</g>
</g>
</svg>
