<svg xmlns="http://www.w3.org/2000/svg" viewBox="0 0 329.96 523.6"><defs><style>.cls-1,.cls-3{fill:#f6f5eb;}.cls-1,.cls-2,.cls-4,.cls-5,.cls-6,.cls-8,.cls-9{stroke:#000;}.cls-1,.cls-2,.cls-4,.cls-6,.cls-8{stroke-miterlimit:10;}.cls-1,.cls-4,.cls-5,.cls-8{stroke-width:4px;}.cls-2,.cls-4,.cls-5,.cls-6,.cls-8,.cls-9{fill:none;}.cls-5,.cls-6,.cls-8,.cls-9{stroke-linecap:round;}.cls-5,.cls-9{stroke-linejoin:round;}.cls-6{stroke-width:2px;}.cls-7{fill:#ffd900;}.cls-9{stroke-width:3px;}</style></defs><g id="レイヤー_2" data-name="レイヤー 2"><g id="レイヤー_1-2" data-name="レイヤー 1"><path class="cls-1" d="M186,157.29l5.86,22L267.22,205s18.77,6.41,29.08,24.34,24.14,72.51,28.8,107.13,3.09,91.08-.85,106.33-16.14,35-16.14,35l-263,22.09s.83-6.77-12.86-29.1S2,421.8,2,380.73s32-145.21,39.9-157,33-23.15,39.31-24.84c8.3-2.23,18.51-4,26.47-6.63s18.92-8.87,21.8-13.55,3.61-14.41,3.61-14.41"/><path class="cls-2" d="M92.43,105.56c0,5.41,1.6,11.42,4,17.35"/><path class="cls-3" d="M90.47,22.41S86,81.87,81.09,85.71s.36,23.06.36,23.06,8.8,27.8,13,28.28a6.61,6.61,0,0,0,6.22-3.19l2.41,2.69c6.58,16.52,12.39,18.7,12.39,18.7S138,183.17,163,178.78c18.84-3.3,31.53-38.93,33.93-51.28s-1.7-91-1.7-91"/><path class="cls-2" d="M191.81,67.82s13.45,58.6,15.38,63.89,8.4,37.93,18,50.68,19.46,21.37,35.31,29.54"/><path class="cls-2" d="M207.67,94.24c-1.17,8.06-.06,18.34,2.54,28.85"/><circle cx="169.05" cy="110.06" r="2.8"/><path class="cls-4" d="M220.11,224.73c0,21.62-53.27,53-53.27,53s-56.07-33.6-70.49-83.68"/><path class="cls-4" d="M60.23,309.84s15.13,27.38,15.13,40.35v13"/><path class="cls-4" d="M275.56,307.13c-2.16,1.44-6.85,13.33-12.61,29.9s-5.77,38.19-5.77,38.19"/><path class="cls-5" d="M132.2,96.19s-4-4.2-12-3.21-13,8-13,8"/><path class="cls-5" d="M154.79,93s2.27-5.37,10-7.27,15,2.79,15,2.79"/><path class="cls-5" d="M146,153.28s7.76,3.15,13.13,1.27A21.67,21.67,0,0,0,168,148"/><path class="cls-1" d="M300.43,521.6H41.18a3.25,3.25,0,0,1-3.25-3.24l-15-162.09A3.23,3.23,0,0,1,26.16,353h290a3.23,3.23,0,0,1,3.23,3.23l-15,161.36A4,4,0,0,1,300.43,521.6Z"/><path class="cls-6" d="M151.31,135.16s.54,1,2.71.43,2.1-1.73,2.1-1.73"/><path class="cls-7" d="M270,203.34s-19.93-6-34.34-21.35c-9-9.64-22.5-16.84-22-45.62h0s5.87-41.57.58-62.47c-4.21-16.66-21-53.74-34.95-62S151.63.28,129.53,2.81c0,0-31.22,7.56-47,32.18C74,48.23,75.35,70.12,76.21,78.7s5,19.8,5,19.8L89,95.82s0-17.12,2.37-23.84,17.08-25.46,32.45-27.86l13.93-1.44c3.36,1.44,25.94,1,36.51,7.68s21.14,30.75,21.14,30.75,2.47,3.49,4.87,24.88-10.8,44.38-10.8,44.38-7.37,6.07-7.37,17.84,8.39,32.25,16.56,46.67c5.24,9.24,28.24,24.89,40.66,33.69,4.68,3.32,10.27,3.78,9.64-1.92L248,235.92c-.85-7.66,6.13-7.26,13.78-6.34l5.75.69a14.38,14.38,0,0,0,11.93-4.11c3.34-3.31,6.36-13.46,5.24-18.59Z"/><path class="cls-8" d="M203.87,151.59s4.24,24,19.49,39.25,28.47,18.94,44.32,27.11"/><path class="cls-5" d="M214.39,136.31s5.87-41.58.59-62.47c-4.22-16.67-20.5-54.44-34.95-62S152.29.22,130.19,2.74"/><path class="cls-5" d="M124,44.12C108.65,46.52,93.94,65.25,91.57,72s-2.38,25-2.38,25"/><path class="cls-5" d="M129.79,2.81A73.24,73.24,0,0,0,82.77,35c-8.49,13.24-6.9,37.69-6.31,43.71s5.47,25,5.47,25"/><path class="cls-9" d="M181.52,164.51s1.6,11.74,3.35,19.78a83.32,83.32,0,0,0,13.74,30.59c8.19,11.48,37.17,30.68,37.17,30.68"/><path class="cls-8" d="M214.48,135.78c-3.12,21.61,7.55,30.24,22,45.61s46.71,26.18,46.71,26.18"/><path class="cls-5" d="M197.4,170.84c1.8,8.51,8.27,29.73,16.3,38.54s15.17,13.13,29.13,16.69"/><path class="cls-8" d="M100.63,133.86s10.63,15.31,15.05,21.39,22.58,27.92,47.56,23.53c18.84-3.3,31.53-38.93,33.93-51.28s1.71-30-1-40.74S185,57.09,174.46,50.36,141.31,44.12,138,42.68s-9.61-5.53-11-12S124,13.61,124,13.61"/><circle cx="126.8" cy="116.93" r="2.8"/><path class="cls-8" d="M93.52,106.92S89,93.23,84,97.07s.36,23.06.36,23.06,6.82,16.82,11,17.3,4-3.16,4-3.16"/></g></g></svg>