<svg xmlns="http://www.w3.org/2000/svg" viewBox="0 0 329.96 536.64"><defs><style>.cls-1,.cls-3{fill:#f6f5eb;}.cls-1,.cls-2,.cls-4,.cls-5,.cls-6,.cls-8,.cls-9{stroke:#000;}.cls-1,.cls-2,.cls-4,.cls-6,.cls-8{stroke-miterlimit:10;}.cls-1,.cls-4,.cls-5,.cls-8{stroke-width:4px;}.cls-2,.cls-4,.cls-5,.cls-6,.cls-8,.cls-9{fill:none;}.cls-5,.cls-6,.cls-8,.cls-9{stroke-linecap:round;}.cls-5,.cls-9{stroke-linejoin:round;}.cls-6{stroke-width:2px;}.cls-7{fill:#ffd900;}.cls-9{stroke-width:3px;}</style></defs><g id="レイヤー_2" data-name="レイヤー 2"><g id="レイヤー_1-2" data-name="レイヤー 1"><path class="cls-1" d="M186,170.32l5.86,22,82.85,22.84s11.33,9.35,21.64,27.28,24.14,72.51,28.8,107.12,3.09,91.09-.85,106.33-16.14,35-16.14,35l-263,22.1s.83-6.77-12.86-29.11S2,434.83,2,393.76s32-145.21,39.9-157,33-23.16,39.31-24.85c8.3-2.23,18.51-4,26.47-6.63s18.92-8.86,21.8-13.54,3.61-14.41,3.61-14.41"/><path class="cls-2" d="M92.43,118.6c0,5.41,1.6,11.42,4,17.34"/><path class="cls-3" d="M90.47,35.44S86,94.9,81.09,98.75s.36,23,.36,23,6.82,16.82,11,17.3,4-3.16,4-3.16h0c6.58,16.53,19,32.34,19,32.34S138,196.2,163,191.82c18.84-3.31,31.53-38.94,33.93-51.28s-1.7-91-1.7-91"/><path class="cls-2" d="M120.24,13.36s1.44,10.57,2.88,17.05,7.69,10.57,11,12"/><path class="cls-2" d="M191.81,80.85s13.45,58.61,15.38,63.89,8.4,37.94,18,50.68S244.66,216.8,260.51,225"/><path class="cls-2" d="M207.67,107.27c-1.17,8.07-.06,18.34,2.54,28.85"/><circle cx="168.26" cy="119.79" r="2.8"/><path class="cls-4" d="M220.11,237.77c0,21.61-53.27,53-53.27,53s-56.07-33.6-70.49-83.68"/><path class="cls-4" d="M60.23,322.87s15.13,27.38,15.13,40.35v13"/><path class="cls-4" d="M275.56,320.17c-2.16,1.44-6.85,13.33-12.61,29.9s-5.77,38.19-5.77,38.19"/><path class="cls-5" d="M153.3,106.75a26.93,26.93,0,0,1,14-9.43c8.91-2.22,18.85,2.28,18.85,2.28"/><path class="cls-5" d="M132.2,109.23S121.81,105,113.89,106s-14.42,9.21-14.42,9.21"/><path class="cls-5" d="M142.35,166.6a19.06,19.06,0,0,0,16.35,3c9.56-2.64,12.47-8.48,12.47-8.48"/><path class="cls-1" d="M300.43,534.64H41.18a3.25,3.25,0,0,1-3.25-3.24l-15-162.09a3.23,3.23,0,0,1,3.23-3.23h290a3.22,3.22,0,0,1,3.23,3.23l-15,161.36A4,4,0,0,1,300.43,534.64Z"/><path class="cls-6" d="M151.31,148.2s.54,1,2.71.43,2.1-1.74,2.1-1.74"/><path class="cls-7" d="M278.88,207.91s-32.3-10.81-46.71-26.18c-9-9.63-22.5-16.84-22-45.61h0s5.86-41.58.58-62.47c-4.21-16.67-21-53.75-34.95-62S148.1,0,126,2.55c0,0-31.22,7.57-47,32.19C70.5,48,71.82,69.86,72.68,78.45S79,103.91,79,103.91l6.42-7.2s0-18.26,2.38-25,17.08-25.46,32.45-27.87l13.93-1.44c3.36,1.44,25.94,1,36.51,7.69s21.13,30.74,21.13,30.74,2.47,3.49,4.87,24.89-3.25,47-3.25,47-12.05,18.84-12.05,30.61,8.13,30.77,16.29,45.18c5.24,9.25,25.33,19.58,37.75,28.39a6.65,6.65,0,0,0,10.45-6.15l-.92-8.28a12,12,0,0,1,13.32-13.2L264,230a14.38,14.38,0,0,0,11.93-4.1c3.33-3.32,8.95-8.77,7.83-13.9Z"/><path class="cls-8" d="M202.56,155.16s4.24,24,19.48,39.25,28.48,18.94,44.33,27.1"/><path class="cls-5" d="M120.49,13.36s1.44,10.57,2.88,17.05,7.69,10.57,11,12,25.94,1,36.51,7.69,19.67,26.46,21.13,30.74,1.27,5.49,3.07,13.27"/><path class="cls-5" d="M210.46,136.12s5.86-41.58.58-62.47c-4.21-16.67-24.8-57-34.95-62S148.35,0,126.25,2.55"/><path class="cls-5" d="M120.49,43.86C105.12,46.27,90.41,65,88,71.73s-2.38,25-2.38,25"/><path class="cls-5" d="M126.25,2.55a73.32,73.32,0,0,0-47,32.19C70.75,48,72.34,72.42,72.93,78.45s6.31,25.46,6.31,25.46"/><path class="cls-9" d="M181.52,177.54s1.6,11.74,3.35,19.78a83.25,83.25,0,0,0,13.74,30.59c8.19,11.48,37.17,30.68,37.17,30.68"/><path class="cls-8" d="M210.46,136.12c-3.12,21.62,7.55,30.24,22,45.61s46.71,26.18,46.71,26.18"/><path class="cls-5" d="M199.1,176.63c1.8,8.51,8.27,29.73,16.3,38.54s15.16,13.13,29.12,16.69"/><path class="cls-8" d="M95.55,130.64c2.83,20.2,20.13,37.64,20.13,37.64s22.58,27.92,47.56,23.54c18.84-3.31,31.53-38.94,33.93-51.28s-2-46.42-2-46.42"/><path class="cls-8" d="M90.83,108.59s-4.57-13.69-9.49-9.84.36,23,.36,23,6.82,16.82,11,17.3,4-3.16,4-3.16"/><circle cx="126" cy="126.4" r="2.8"/></g></g></svg>