<svg xmlns="http://www.w3.org/2000/svg" viewBox="0 0 438.59 165.3"><defs><style>.cls-1{fill:#ffd900;}.cls-1,.cls-2{stroke:#333;stroke-miterlimit:10;}.cls-2{fill:#f6f5eb;}.cls-3{fill:#333;}</style></defs><g id="レイヤー_2" data-name="レイヤー 2"><g id="レイヤー_1-2" data-name="レイヤー 1"><path class="cls-1" d="M11.09,23.53a4.46,4.46,0,0,0-.56-.72c-.26-.27-.54-.54-.83-.8a4.44,4.44,0,0,0-.81-.58,14.23,14.23,0,0,0,2.95-2.49,11.66,11.66,0,0,0,2-3.24A18.07,18.07,0,0,0,15,11.39a37.16,37.16,0,0,0,.39-5.74H11.74L12,5.8c-.42.92-.88,1.81-1.39,2.69s-1.06,1.73-1.66,2.56c.41.32.88.66,1.4,1s1,.72,1.5,1.05l1.17.79a7,7,0,0,0-.94,1,8.55,8.55,0,0,0-.83,1.1c-.39-.27-.83-.59-1.32-1s-1-.76-1.46-1.18V23.4H5.59V14.78c-.42.38-.85.75-1.31,1.12s-.93.72-1.41,1a7.12,7.12,0,0,0-.94-1.15c-.41-.41-.76-.75-1.06-1a15.32,15.32,0,0,0,2-1.44,25.36,25.36,0,0,0,2-1.87A25.47,25.47,0,0,0,6.72,9.44,14.15,14.15,0,0,0,8,7.5H2V4.85h3.5V.75H8.39v4.1h2.25l1,.73V3h12.1V7.33c0,1.61,0,3.13-.11,4.56s-.16,2.69-.26,3.79-.2,2-.28,2.67a7.54,7.54,0,0,1-.87,3,3.5,3.5,0,0,1-1.7,1.5,6.83,6.83,0,0,1-2.53.43H16.54c0-.29-.08-.62-.15-1s-.15-.77-.24-1.14a5.57,5.57,0,0,0-.28-.91h2A3,3,0,0,0,19,20.05a1.29,1.29,0,0,0,.69-.69,5.87,5.87,0,0,0,.43-1.46c.1-.46.2-1.21.31-2.22s.2-2.24.27-3.68.12-3,.12-4.67V5.65H18.32a40.18,40.18,0,0,1-.78,7.88,17.11,17.11,0,0,1-2.29,5.73A15.87,15.87,0,0,1,11.09,23.53Zm.7-11a7.93,7.93,0,0,0-.94-.82,4.69,4.69,0,0,0-1-.65A17,17,0,0,0,11.1,9.44a13.68,13.68,0,0,0,1-1.66l2.2,1.4c-.17.28-.41.63-.73,1.06l-1,1.26C12.3,11.92,12,12.25,11.79,12.5Z"/><path class="cls-1" d="M36,18.3a12.81,12.81,0,0,0-1.3-.77,8.44,8.44,0,0,0-1.4-.63,14.72,14.72,0,0,0,1.13-1.64,23,23,0,0,0,1.13-2.1c.36-.74.68-1.46,1-2.17a14.92,14.92,0,0,0,.62-1.86l2.9,1a18.31,18.31,0,0,1-.7,2c-.3.73-.63,1.48-1,2.23s-.75,1.48-1.16,2.15A16.75,16.75,0,0,1,36,18.3Zm8.55,4.5a3.82,3.82,0,0,1-2.25-.49,1.91,1.91,0,0,1-.65-1.63V7.35h3.1v11.8a.68.68,0,0,0,.2.56,1.28,1.28,0,0,0,.78.17h3.17a1.51,1.51,0,0,0,1.41-.65,6.31,6.31,0,0,0,.54-2.43c.23.12.53.25.88.39s.71.27,1.08.39l1,.27A13.18,13.18,0,0,1,53.09,21a2.72,2.72,0,0,1-1.22,1.45,4.67,4.67,0,0,1-2.08.39ZM48.32,6.9a21.48,21.48,0,0,0-2-1.46c-.74-.49-1.48-1-2.23-1.39a22.42,22.42,0,0,0-2-1L43.57.63A22.93,22.93,0,0,1,45.8,1.74c.83.46,1.62.93,2.39,1.41a19.88,19.88,0,0,1,1.88,1.33c-.19.2-.4.45-.64.76s-.46.61-.66.91A7.34,7.34,0,0,0,48.32,6.9Zm6.77,9.93a21.47,21.47,0,0,0-2.4-3.68,22.23,22.23,0,0,0-2.95-3.07l2.18-1.85A18,18,0,0,1,54,10.18c.73.78,1.43,1.6,2.08,2.45A23,23,0,0,1,57.67,15a5.16,5.16,0,0,0-.88.51c-.35.24-.68.49-1,.74A8,8,0,0,0,55.09,16.83Z"/><path class="cls-1" d="M71.94,23.38V15.93q-2.13.95-4.62,1.9A6.88,6.88,0,0,0,67,17c-.17-.35-.35-.69-.54-1a5.47,5.47,0,0,0-.51-.76,48.57,48.57,0,0,0,5.6-2,34.82,34.82,0,0,0,4.92-2.63H66.69V8h8.9V5.88h-6.3V3.3h6.3V.58h3V3.3h3.6V5.45A21.92,21.92,0,0,0,85,1.18l2.65,1.37A40.4,40.4,0,0,1,83.54,8h6v2.57H80.87c-.52.43-1.05.85-1.59,1.25s-1.11.78-1.69,1.15h8.15V23.38Zm3-6.3h8v-1.7h-8Zm0,3.9h8V19.25h-8Zm3.7-13h1.2c.37-.34.72-.68,1.06-1s.67-.71,1-1.07H78.59Z"/><path class="cls-2" d="M22.44,94.39c0-.73.07-1.78.1-3.13s.07-2.81.1-4.4.06-3.12.08-4.62,0-2.77,0-3.8a88.24,88.24,0,0,1-14.95,8.5,12.26,12.26,0,0,0-1.1-1.55c-.53-.67-1.08-1.33-1.65-2a16.05,16.05,0,0,0-1.4-1.5,52.93,52.93,0,0,0,6.9-2.75,65.92,65.92,0,0,0,6.85-3.78,53,53,0,0,0,5.93-4.27,24.86,24.86,0,0,0,4.12-4.25l-3.32,0-4.25.08c-1.52,0-3,.07-4.45.12l-3.9.13c-1.15,0-2,.08-2.63.15,0-.37,0-.94,0-1.73S8.87,64,8.84,63.24s-.07-1.42-.1-1.85c.77.07,1.83.12,3.2.15s2.9.05,4.6.05l5.25,0c1.8,0,3.53,0,5.2-.07s3.15-.08,4.45-.15,2.28-.13,2.95-.2a10.05,10.05,0,0,1,.83.82c.35.39.7.75,1.05,1.1l.77.78c-.33.4-.72.9-1.15,1.5s-.88,1.2-1.35,1.8a35.58,35.58,0,0,1-2.65,3.22c-1,1-2,2.1-3.1,3.13,0,1.07,0,2.34,0,3.82s0,3.06.05,4.73,0,3.3.05,4.9,0,3,0,4.35,0,2.33,0,3.1Zm7.2-34.5a28.88,28.88,0,0,0-2.57-1.35C26,58,24.74,57.46,23.44,56.91s-2.53-1-3.7-1.5-2.12-.77-2.85-1c.27-.37.6-.88,1-1.55s.8-1.34,1.2-2,.7-1.2.9-1.57c.77.23,1.74.58,2.93,1.05s2.41,1,3.7,1.52,2.47,1.08,3.57,1.58,1.93.9,2.5,1.2q-.4.6-1,1.62c-.42.69-.81,1.36-1.18,2S29.84,59.49,29.64,59.89Zm14.5,26.55a26,26,0,0,0-2.57-2.3c-1.09-.87-2.26-1.75-3.53-2.65s-2.49-1.73-3.67-2.5-2.21-1.38-3.08-1.85a21.94,21.94,0,0,0,1.83-2.25c.65-.9,1.15-1.65,1.52-2.25,1,.47,2.08,1.07,3.33,1.82s2.52,1.55,3.82,2.38,2.51,1.66,3.63,2.47A28.43,28.43,0,0,1,48,81.44a19.74,19.74,0,0,0-1.32,1.5c-.52.63-1,1.27-1.48,1.92S44.41,86,44.14,86.44Z"/><path class="cls-2" d="M78.79,76.59c-.17-.9-.41-1.93-.72-3.08s-.68-2.3-1.08-3.45a25.51,25.51,0,0,0-1.3-3.12c.73-.17,1.62-.4,2.65-.7s1.87-.53,2.5-.7A21,21,0,0,1,82,68.44c.38,1.2.73,2.42,1,3.67s.55,2.36.72,3.33c-.7.17-1.55.35-2.55.55A20.76,20.76,0,0,0,78.79,76.59Zm6.9,17.25a11.79,11.79,0,0,0-1.12-1.3c-.52-.53-1-1.05-1.58-1.55a14.52,14.52,0,0,0-1.35-1.15q7.9-2.7,11.85-7.6a25.33,25.33,0,0,0,5.05-12.55c.13-.9.28-1.87.43-2.9s.24-1.78.27-2.25l1.75.37c.73.15,1.47.28,2.2.38s1.28.17,1.65.2c-.13.47-.29,1.12-.47,2s-.36,1.71-.53,2.58a37.48,37.48,0,0,1-3.42,10.8,25,25,0,0,1-6,7.62A34.94,34.94,0,0,1,85.69,93.84Zm2.6-19.15a47.7,47.7,0,0,0-.72-5A31.37,31.37,0,0,0,86.29,65l1.65-.28c.67-.11,1.34-.25,2-.4s1.2-.25,1.57-.32a26.38,26.38,0,0,1,.85,3c.27,1.19.51,2.38.73,3.58s.35,2.27.42,3.2a15.68,15.68,0,0,0-1.62.25c-.69.13-1.35.26-2,.37Z"/><path class="cls-2" d="M143.94,94q0-.8,0-2.85c0-1.37,0-3,.05-4.93s0-4,0-6.25,0-4.55.05-6.92,0-4.66,0-6.88,0-4.22,0-6q0-3.4-.07-6a28.15,28.15,0,0,0-.28-3.67l2.08.15c.85.07,1.7.12,2.55.17l2.07.13c-.1.63-.18,1.62-.25,3s-.1,3.06-.1,5.13v7.75c1.07-1,1.93-1.87,2.6-2.6.93.83,2,1.7,3.25,2.6s2.53,1.78,3.88,2.65,2.66,1.67,4,2.42,2.42,1.38,3.42,1.88c-.8.77-1.62,1.6-2.45,2.5a19.29,19.29,0,0,0-2,2.5q-1.76-1.1-4-2.58t-4.5-3.15q-2.28-1.66-4.13-3.27,0,3.6,0,7.45t0,7.32q0,3.48,0,6V94Z"/><path class="cls-2" d="M207.69,76.44A34.41,34.41,0,0,0,204,73.79q-2.13-1.35-4.38-2.6T195.44,69a29.76,29.76,0,0,0,1.7-2.53c.6-1,1.13-1.9,1.6-2.77,1,.47,2.08,1,3.25,1.67s2.34,1.34,3.53,2,2.28,1.42,3.3,2.1,1.84,1.28,2.47,1.78c-.5.63-1.1,1.46-1.8,2.47Zm-6.1,15.75c-.23-.43-.59-1.06-1.07-1.88s-1-1.61-1.48-2.4a13.66,13.66,0,0,0-1.2-1.67,56.84,56.84,0,0,0,10-3.18,77.59,77.59,0,0,0,10-5.07,82.3,82.3,0,0,0,9.38-6.5,70.42,70.42,0,0,0,8-7.45c.07.37.18.87.35,1.52s.35,1.33.55,2,.4,1.33.6,1.9a11.55,11.55,0,0,0,.45,1.15,65.84,65.84,0,0,1-7.3,6.62,90.94,90.94,0,0,1-8.75,6.08,89.45,89.45,0,0,1-9.62,5.12A73.93,73.93,0,0,1,201.59,92.19ZM214.39,65a39.9,39.9,0,0,0-3.65-2.7q-2.1-1.4-4.3-2.7a46.21,46.21,0,0,0-4.15-2.2c.53-.7,1.11-1.53,1.73-2.5s1.17-1.88,1.67-2.75c1,.5,2,1.08,3.18,1.75s2.3,1.37,3.47,2.1,2.25,1.45,3.25,2.15S217.41,59.51,218,60c-.5.6-1.11,1.41-1.82,2.42Z"/><path class="cls-2" d="M266.94,90.74q0-.45,0-1.5t0-2.1c0-.7,0-1.18-.05-1.45.57,0,1.53.06,2.88.07l4.67,0,5.4,0,5.05,0h3.6V80.74h-3.6l-4.55,0-4.75,0-4.27,0c-1.29,0-2.3,0-3,.08V77.41c0-.68,0-1.17-.05-1.47.63,0,1.54.06,2.73.07s2.5,0,3.95,0l4.5,0,4.42,0h4.65V71.14h-3.4l-5,0-5.38.08c-1.77,0-3.32.06-4.67.07s-2.3,0-2.83.08a14.11,14.11,0,0,0,0-1.48c0-.71,0-1.44,0-2.17s0-1.25-.05-1.55c.47,0,1.36.06,2.68.07s2.89,0,4.72,0h11.53c1.85,0,3.45,0,4.82,0s2.32,0,2.85-.07c0,.5-.06,1.37-.07,2.6s0,2.67,0,4.32v10.4c0,1.69,0,3.16,0,4.43s0,2.18.07,2.75c-.53,0-1.49-.06-2.87-.08l-4.88,0h-5.82l-5.78,0-4.77,0C268.32,90.68,267.41,90.71,266.94,90.74Z"/><path class="cls-2" d="M333.79,76.59c-.17-.9-.41-1.93-.72-3.08s-.68-2.3-1.08-3.45a25.51,25.51,0,0,0-1.3-3.12c.73-.17,1.62-.4,2.65-.7s1.87-.53,2.5-.7a21,21,0,0,1,1.13,2.9c.38,1.2.73,2.42,1,3.67s.55,2.36.72,3.33c-.7.17-1.55.35-2.55.55A20.76,20.76,0,0,0,333.79,76.59Zm6.9,17.25a11.79,11.79,0,0,0-1.12-1.3c-.52-.53-1.05-1.05-1.58-1.55a14.52,14.52,0,0,0-1.35-1.15q7.91-2.7,11.85-7.6a25.33,25.33,0,0,0,5.05-12.55c.13-.9.28-1.87.43-2.9s.24-1.78.27-2.25l1.75.37c.73.15,1.47.28,2.2.38s1.28.17,1.65.2c-.13.47-.29,1.12-.47,2s-.36,1.71-.53,2.58a37.48,37.48,0,0,1-3.42,10.8,25,25,0,0,1-6,7.62A34.94,34.94,0,0,1,340.69,93.84Zm2.6-19.15a47.7,47.7,0,0,0-.72-5A31.37,31.37,0,0,0,341.29,65l1.65-.28c.67-.11,1.34-.25,2-.4s1.2-.25,1.57-.32a26.38,26.38,0,0,1,.85,3c.27,1.19.51,2.38.73,3.58s.35,2.27.42,3.2a15.68,15.68,0,0,0-1.62.25c-.69.13-1.35.26-2,.37Z"/><path class="cls-2" d="M400.79,92.64c-.37-.43-.86-1-1.47-1.58s-1.25-1.2-1.9-1.77A13.29,13.29,0,0,0,395.79,88a41,41,0,0,0,11.48-6.58,39.49,39.49,0,0,0,8.15-9.12,44,44,0,0,0,5-10.75c-.6,0-1.57,0-2.92,0s-2.92.06-4.7.07l-5.58.08c-1.93,0-3.82.07-5.65.12l-4.9.13c-1.43,0-2.53.07-3.3.1q0-.75,0-2c0-.8-.07-1.59-.1-2.38s-.07-1.4-.1-1.87c1.1.1,2.56.17,4.38.22s3.82.09,6,.1,4.44,0,6.73,0,4.46-.08,6.55-.13,3.91-.1,5.5-.17,2.75-.13,3.52-.2q.56.4,1.53,1.17L428.84,58a9.13,9.13,0,0,0-.77,1.67c-.25.69-.61,1.53-1.08,2.53a52.22,52.22,0,0,1-9.92,18.25A49,49,0,0,1,400.79,92.64Zm32.15-34.85a5,5,0,0,1-3.67-1.5,5.12,5.12,0,0,1,0-7.3,5,5,0,0,1,3.67-1.5,5.15,5.15,0,1,1,0,10.3Zm0-2.25a2.72,2.72,0,0,0,2-.85,2.9,2.9,0,0,0,0-4.1,2.72,2.72,0,0,0-2-.85,2.9,2.9,0,0,0,0,5.8Z"/><path class="cls-2" d="M4.34,164.68v-44.3H23.89v16.8H10v27.5ZM10,127h8.45v-2.5H10Zm0,6.1h8.45v-2.5H10Zm3.85,31.25a17.8,17.8,0,0,0-1.27-2.1,9.31,9.31,0,0,0-1.63-1.8,17.81,17.81,0,0,0,5.2-3.17,8.37,8.37,0,0,0,2.3-4.68h-6.3v-4.65h6.6V144h-5.1v-4.35h24.2V144h-4.9v3.9h6.35v4.65H32.94v11H27.69v-11H23.54a14.42,14.42,0,0,1-3.27,7.4A17,17,0,0,1,13.84,164.33Zm10-16.4h3.85V144H23.84Zm13.6,16.7c-.07-.83-.18-1.81-.35-2.92a11.43,11.43,0,0,0-.7-2.73h3.35a1.81,1.81,0,0,0,1.33-.35,1.88,1.88,0,0,0,.32-1.25v-20.2h-14v-16.8H47v39.15a5,5,0,0,1-1.37,3.85c-.92.84-2.41,1.25-4.48,1.25ZM32.84,127h8.55v-2.5H32.84Zm0,6.1h8.55v-2.5H32.84Z"/><path class="cls-2" d="M72.69,132.53V128h18.9v4.55Zm20,32.15a16.72,16.72,0,0,0-1.1-2.55,10.41,10.41,0,0,0-1.5-2.25v3.7H74.89v-14.4H90.14v10.6a29.2,29.2,0,0,0,5.55-2.1,31.12,31.12,0,0,0,4.8-3,29.61,29.61,0,0,1-2.95-4.62,28.63,28.63,0,0,1-2-5H91.89v-5h3.25A26.21,26.21,0,0,0,93,138.36a18.14,18.14,0,0,0-2.45-1.58,17,17,0,0,0,2.6-2.67,8.91,8.91,0,0,0,1.48-3.1,17.77,17.77,0,0,0,.47-4.43v-6.1h15.85v11.2a.89.89,0,0,0,.23.7,1.41,1.41,0,0,0,.92.2h.9a1.39,1.39,0,0,0,1.28-.75,9.46,9.46,0,0,0,.52-3.45,13.56,13.56,0,0,0,2.38.8q1.52.4,2.67.6A18.72,18.72,0,0,1,119,135a4.37,4.37,0,0,1-2,2.5,7.25,7.25,0,0,1-3.38.67h-3.25a7.85,7.85,0,0,1-4-.72,3,3,0,0,1-1.1-2.68v-9.3h-4.55V127a20.25,20.25,0,0,1-1.27,7.3,16.32,16.32,0,0,1-4.28,5.85h18.7l2.2,2.2a36.1,36.1,0,0,1-7.45,12.45,25.61,25.61,0,0,0,4.93,2.83,25.27,25.27,0,0,0,5.62,1.72,18,18,0,0,0-1.7,2.53,20.1,20.1,0,0,0-1.3,2.62,29.21,29.21,0,0,1-6.45-2.25,26.08,26.08,0,0,1-5.35-3.45,34.19,34.19,0,0,1-11.65,5.9Zm-17.65-25.1V135H89.64v4.6Zm0,7V142H89.64v4.6Zm0-21.1v-4.7h14.5v4.7ZM80,159H85v-5.2H80Zm24.6-7.95a21.91,21.91,0,0,0,3.85-5.9h-7.35A17.86,17.86,0,0,0,104.59,151Z"/><path class="cls-1" d="M156.67,162.88c-.3-.43-.72-1-1.27-1.6s-1.13-1.25-1.73-1.87A9.34,9.34,0,0,0,152,158a36.94,36.94,0,0,0,8-4.75,20.53,20.53,0,0,0,5.4-6.55,30.6,30.6,0,0,0,3-9.55c-1.93,0-3.8,0-5.62.05l-4.78.1c-1.36,0-2.38.09-3.05.15,0-.4,0-1,0-1.85s0-1.67-.05-2.52,0-1.49-.08-1.93c.84.07,2,.12,3.43.15s3.11.05,5,.05H169q.15-2.1.15-4.5c0-1.2,0-2.35,0-3.47s-.09-1.88-.13-2.28l1.95.13,2.6.15,2.3.12c0,.34-.08.81-.15,1.43s-.11,1.27-.15,2-.06,1.27-.1,1.77c0,.84-.06,1.64-.1,2.4s-.08,1.52-.15,2.25l6.23-.1q3,0,5.4-.15c1.62-.06,2.89-.13,3.82-.2q0,1.6-.15,4.08c-.1,1.65-.22,3.43-.37,5.35s-.33,3.83-.53,5.75-.4,3.69-.62,5.32a34.34,34.34,0,0,1-.73,4,9,9,0,0,1-2.07,4.2,8.06,8.06,0,0,1-4,2.15,32.85,32.85,0,0,1-6.73.8c-.13-.56-.3-1.22-.52-2s-.45-1.5-.7-2.25a12,12,0,0,0-.78-1.88,31,31,0,0,0,5-.22,4.52,4.52,0,0,0,2.6-1.13,5.46,5.46,0,0,0,1.3-2.55,34.22,34.22,0,0,0,.73-3.62c.22-1.42.41-2.88.57-4.4s.3-2.94.4-4.28.15-2.4.15-3.2l-3.52,0-6.18.07a41.52,41.52,0,0,1-3.42,11.58,27.93,27.93,0,0,1-5.9,8.15A40.71,40.71,0,0,1,156.67,162.88Zm35-32.8c-.06-.06-.29-.3-.67-.72l-1.35-1.48c-.52-.56-1-1.13-1.55-1.7s-1-1.05-1.33-1.47-.58-.66-.65-.73l2.45-2.15c.1.1.42.45,1,1l1.83,2,1.82,2,1,1Zm4.35-3.8c-.06-.06-.28-.3-.65-.72s-.8-.92-1.32-1.5-1-1.16-1.55-1.73l-1.35-1.45-.68-.7,2.45-2.15,1,1,1.85,2,1.85,2,1,1Z"/><path class="cls-1" d="M237.92,163.18c0-.63.06-1.61.08-3s0-2.89.05-4.67,0-3.68,0-5.68,0-4,0-5.95v-5.5q-3.75,2.81-7.45,5.2a74.92,74.92,0,0,1-7,4.1,17.14,17.14,0,0,0-1.45-1.47c-.66-.62-1.34-1.23-2-1.83s-1.21-1.05-1.58-1.35a68,68,0,0,0,8.38-4.5q4.32-2.7,8.45-5.82t7.65-6.28a72.9,72.9,0,0,0,6-5.9c.4.34.94.75,1.6,1.25s1.36,1,2.08,1.45,1.29.84,1.72,1.1a123.25,123.25,0,0,1-10.2,9.35c0,1.74,0,3.75.05,6.05s.07,4.68.1,7.13.06,4.79.08,7,0,4.17.07,5.8,0,2.79,0,3.45Z"/><path class="cls-1" d="M291.32,163.93q0-.8,0-2.85c0-1.36,0-3,0-4.92s0-4,.05-6.25,0-4.56.05-6.93,0-4.65.05-6.87,0-4.23,0-6q0-3.39-.07-6a26.63,26.63,0,0,0-.28-3.68l2.08.15q1.27.11,2.55.18l2.07.12c-.1.64-.18,1.63-.25,3s-.1,3.06-.1,5.12v7.75c1.07-1,1.94-1.86,2.6-2.6.94.84,2,1.7,3.25,2.6s2.53,1.79,3.88,2.65,2.67,1.68,3.95,2.43,2.42,1.37,3.42,1.87c-.8.77-1.61,1.6-2.45,2.5a20,20,0,0,0-2,2.5c-1.16-.73-2.49-1.59-4-2.57s-3-2-4.5-3.15-2.89-2.21-4.13-3.28c0,2.4,0,4.89,0,7.45s0,5,.05,7.33,0,4.32,0,6v3.47Zm21.05-32.6c-.1-.1-.41-.45-.95-1.05s-1.14-1.27-1.82-2-1.3-1.42-1.85-2-.86-.93-.93-1l2.45-2.15c.1.1.42.45,1,1l1.83,2,1.82,2,.95,1Zm4.35-3.8c-.06-.06-.28-.3-.65-.72s-.8-.92-1.32-1.5-1-1.16-1.55-1.73l-1.35-1.45-.68-.7,2.5-2.2q.1.15.93,1l1.85,2,1.82,2,1,1Z"/><path class="cls-3" d="M113.69,23.19c-.11-.2-.25-.44-.42-.71s-.36-.55-.55-.81a3.92,3.92,0,0,0-.59-.66,11.6,11.6,0,0,0,3.93-1.32,6.11,6.11,0,0,0,2.21-2.12A5.23,5.23,0,0,0,119,15a5.87,5.87,0,0,0-.59-2.63,5.21,5.21,0,0,0-1.7-2,6,6,0,0,0-2.71-1,33.93,33.93,0,0,1-.78,4.77,23.81,23.81,0,0,1-1.3,3.93,10,10,0,0,1-1.66,2.67,2.61,2.61,0,0,1-1.88,1,3.16,3.16,0,0,1-1.59-.46,4.86,4.86,0,0,1-1.42-1.31,7,7,0,0,1-1-2,8,8,0,0,1-.38-2.54,8.09,8.09,0,0,1,.6-3.08,7.74,7.74,0,0,1,1.76-2.64,8.09,8.09,0,0,1,2.84-1.83A10.24,10.24,0,0,1,113,7.17a9.35,9.35,0,0,1,3.62.65,7.75,7.75,0,0,1,2.66,1.75,7.53,7.53,0,0,1,1.64,2.5,7.79,7.79,0,0,1,.56,2.9,7.28,7.28,0,0,1-2,5.17A11.62,11.62,0,0,1,113.69,23.19ZM108.21,19c.22,0,.49-.24.81-.7a11.21,11.21,0,0,0,1-2,26.24,26.24,0,0,0,.93-3.05,32.81,32.81,0,0,0,.67-3.88,6.07,6.07,0,0,0-2.89,1.13,5.65,5.65,0,0,0-1.8,2.16,6,6,0,0,0-.61,2.67,5.91,5.91,0,0,0,.28,1.91,3.3,3.3,0,0,0,.72,1.29A1.3,1.3,0,0,0,108.21,19Z"/><path class="cls-3" d="M133.07,23.49a12.57,12.57,0,0,0-1.29-.39,11.62,11.62,0,0,0-1.25-.27c.38-.94.76-2,1.12-3.1s.7-2.32,1-3.54.61-2.44.88-3.64c-1.08.08-2.09.12-3,.12,0-.19,0-.44,0-.74s0-.62,0-.93-.06-.56-.08-.73c.49,0,1.05,0,1.69,0s1.27,0,1.93-.1c.14-.78.25-1.5.32-2.16s.1-1.24.1-1.7l.76.14.95.13.83.07c-.06.49-.14,1-.24,1.6s-.22,1.14-.32,1.72l1.09-.12c.34,0,.64-.09.91-.14a8.37,8.37,0,0,0,0,1.19q0,.71.09,1.11l-1.21.16-1.45.16-.72,3c-.27,1.06-.54,2.11-.8,3.17s-.52,2-.74,2.89S133.21,22.94,133.07,23.49Zm7.76-.62a10.86,10.86,0,0,1-2.92-.61,6.53,6.53,0,0,1-2-1.21c.18-.27.38-.61.6-1a7,7,0,0,0,.46-1.09A5.39,5.39,0,0,0,138.66,20a7.35,7.35,0,0,0,2.31.53c.58,0,1.23.05,1.95,0s1.4,0,2.08-.08,1.25-.09,1.73-.14c0,.21-.06.47-.09.79s-.06.61-.07.9,0,.51,0,.69c-.51.06-1.09.11-1.75.15s-1.34.05-2,.05S141.44,22.92,140.83,22.87Zm5.24-8.74c-.7-.2-1.47-.38-2.33-.54s-1.72-.3-2.56-.4-1.6-.18-2.25-.2c.1-.28.22-.64.35-1.08s.21-.81.27-1.1a15.6,15.6,0,0,1,1.69.1c.63.06,1.28.15,2,.26s1.31.22,1.93.35,1.14.25,1.6.37a7.08,7.08,0,0,0-.42,1.1A4.48,4.48,0,0,0,146.07,14.13Z"/><path class="cls-3" d="M166.17,23.37a7.65,7.65,0,0,0-.66-1.11,4.79,4.79,0,0,0-.82-1,9.56,9.56,0,0,0,4.54-1.71,4,4,0,0,0,1.58-3.23,4.36,4.36,0,0,0-.69-2.39,4.22,4.22,0,0,0-2.23-1.65c-.22.6-.45,1.18-.7,1.75s-.53,1.11-.82,1.65l-.55.92c-.2.3-.4.6-.61.88.17.17.35.33.54.49s.38.3.6.45a4.92,4.92,0,0,0-.58.51,8.35,8.35,0,0,0-.59.61,4.36,4.36,0,0,0-.41.5,6.69,6.69,0,0,1-1-.84A11.53,11.53,0,0,1,161.52,21a4.37,4.37,0,0,1-2.19.68,2.68,2.68,0,0,1-1.48-.48,3.6,3.6,0,0,1-1.23-1.4,4.69,4.69,0,0,1-.49-2.24,6.23,6.23,0,0,1,1-3.31,8.71,8.71,0,0,1,2.55-2.69c-.22-.71-.41-1.43-.57-2.17s-.33-1.49-.47-2.25c.37,0,.78,0,1.24-.11L161,6.89c.08.6.17,1.2.29,1.81s.23,1.2.37,1.79a8.8,8.8,0,0,1,1.72-.52,9.33,9.33,0,0,1,1.84-.18,9,9,0,0,1,1.06.06c.14-.59.27-1.17.37-1.74a12.21,12.21,0,0,0,.17-1.58,12,12,0,0,0,1.27.21c.5.06.89.09,1.19.11-.1.57-.2,1.14-.32,1.71s-.26,1.13-.42,1.71a6.52,6.52,0,0,1,3.5,2.36,6.28,6.28,0,0,1,1.18,3.74,6,6,0,0,1-.86,3.2,7.27,7.27,0,0,1-2.44,2.36A12.36,12.36,0,0,1,166.17,23.37Zm-6.64-4a2.55,2.55,0,0,0,1.37-.48,8.88,8.88,0,0,0,1.45-1.24,13.19,13.19,0,0,1-1.12-1.85,17.08,17.08,0,0,1-.9-2.09,6.33,6.33,0,0,0-1.49,1.84,4.14,4.14,0,0,0-.55,2,2.19,2.19,0,0,0,.36,1.38A1.1,1.1,0,0,0,159.53,19.37Zm4.26-3.56.42-.66.38-.66a18.62,18.62,0,0,0,1.08-2.56,1.42,1.42,0,0,0-.29,0h-.31a7.12,7.12,0,0,0-2.84.6,17.89,17.89,0,0,0,.68,1.71A11.24,11.24,0,0,0,163.79,15.81Z"/><path class="cls-3" d="M191.69,23.19c-.11-.2-.25-.44-.42-.71s-.36-.55-.55-.81a3.92,3.92,0,0,0-.59-.66,11.6,11.6,0,0,0,3.93-1.32,6.11,6.11,0,0,0,2.21-2.12A5.23,5.23,0,0,0,197,15a5.87,5.87,0,0,0-.59-2.63,5.21,5.21,0,0,0-1.7-2,6,6,0,0,0-2.71-1,33.93,33.93,0,0,1-.78,4.77,23.81,23.81,0,0,1-1.3,3.93,10,10,0,0,1-1.66,2.67,2.61,2.61,0,0,1-1.88,1,3.16,3.16,0,0,1-1.59-.46,4.86,4.86,0,0,1-1.42-1.31,7,7,0,0,1-1-2,8,8,0,0,1-.38-2.54,8.09,8.09,0,0,1,.6-3.08,7.74,7.74,0,0,1,1.76-2.64,8.09,8.09,0,0,1,2.84-1.83A10.24,10.24,0,0,1,191,7.17a9.35,9.35,0,0,1,3.62.65,7.75,7.75,0,0,1,2.66,1.75,7.53,7.53,0,0,1,1.64,2.5,7.79,7.79,0,0,1,.56,2.9,7.28,7.28,0,0,1-2,5.17A11.62,11.62,0,0,1,191.69,23.19ZM186.21,19c.22,0,.49-.24.81-.7a11.21,11.21,0,0,0,1-2,26.24,26.24,0,0,0,.93-3.05,32.81,32.81,0,0,0,.67-3.88,6.07,6.07,0,0,0-2.89,1.13,5.65,5.65,0,0,0-1.8,2.16,6,6,0,0,0-.61,2.67,5.91,5.91,0,0,0,.28,1.91,3.3,3.3,0,0,0,.72,1.29A1.3,1.3,0,0,0,186.21,19Z"/></g></g></svg>