<svg xmlns="http://www.w3.org/2000/svg" viewBox="0 0 442.69 169.02"><defs><style>.cls-1{fill:none;stroke-width:4px;}.cls-1,.cls-3{stroke:#333;stroke-miterlimit:10;}.cls-2{fill:#ffd900;}.cls-3,.cls-4{fill:#f6f5eb;}.cls-5{fill:#333;}</style></defs><g id="レイヤー_2" data-name="レイヤー 2"><g id="レイヤー_1-2" data-name="レイヤー 1"><path class="cls-1" d="M13.69,25.41a4.62,4.62,0,0,0-.57-.72c-.25-.27-.53-.54-.82-.8a4,4,0,0,0-.81-.58,14.23,14.23,0,0,0,2.95-2.49,12.3,12.3,0,0,0,2-3.24,18.08,18.08,0,0,0,1.17-4.31A37.16,37.16,0,0,0,18,7.53H14.34l.22.15c-.42.92-.88,1.81-1.39,2.69a29.39,29.39,0,0,1-1.66,2.56l1.4,1,1.5,1,1.18.79a7,7,0,0,0-.94,1,8.74,8.74,0,0,0-.84,1.1l-1.31-.95c-.49-.37-1-.76-1.46-1.18v9.55H8.19V16.66c-.42.38-.86.75-1.32,1.12s-.93.72-1.41,1a7.12,7.12,0,0,0-.94-1.15,12.75,12.75,0,0,0-1.06-1,15.38,15.38,0,0,0,2-1.44,23.66,23.66,0,0,0,2-1.87,23.63,23.63,0,0,0,1.79-2,14.29,14.29,0,0,0,1.28-1.94H4.64V6.73h3.5V2.63H11v4.1h2.25l1,.73V4.83h12.1V9.21q0,2.41-.12,4.56c-.07,1.42-.16,2.69-.26,3.79s-.19,2-.27,2.67a7.63,7.63,0,0,1-.88,3,3.46,3.46,0,0,1-1.7,1.5,6.77,6.77,0,0,1-2.52.43H19.14c0-.29-.09-.62-.15-1s-.15-.77-.24-1.14a5.47,5.47,0,0,0-.29-.91h1.95a3,3,0,0,0,1.14-.18,1.36,1.36,0,0,0,.69-.69,6.4,6.4,0,0,0,.42-1.46A21.72,21.72,0,0,0,23,17.56c.11-1,.2-2.25.28-3.68s.11-3,.11-4.67V7.53H20.91a39.57,39.57,0,0,1-.77,7.88,17.32,17.32,0,0,1-2.29,5.73A15.87,15.87,0,0,1,13.69,25.41Zm.7-11a7.93,7.93,0,0,0-.94-.82,5,5,0,0,0-1-.65,17,17,0,0,0,1.26-1.59,12.32,12.32,0,0,0,1-1.66l2.2,1.4c-.17.28-.41.63-.72,1.06l-1,1.26C14.9,13.8,14.62,14.13,14.39,14.38Z"/><path class="cls-1" d="M38.64,20.18a14,14,0,0,0-1.3-.77,8.82,8.82,0,0,0-1.4-.63,14.78,14.78,0,0,0,1.12-1.64A23,23,0,0,0,38.2,15c.36-.74.68-1.46,1-2.17A17.07,17.07,0,0,0,39.79,11l2.9,1a18.31,18.31,0,0,1-.7,2c-.3.73-.64,1.48-1,2.23s-.76,1.48-1.17,2.15A15.35,15.35,0,0,1,38.64,20.18Zm8.55,4.5a3.82,3.82,0,0,1-2.25-.49,1.89,1.89,0,0,1-.65-1.63V9.23h3.1V21a.65.65,0,0,0,.2.56,1.26,1.26,0,0,0,.77.17h3.18A1.51,1.51,0,0,0,53,21.11a6.31,6.31,0,0,0,.54-2.43q.34.18.87.39c.35.14.71.27,1.09.39l1,.27a13.31,13.31,0,0,1-.75,3.11,2.7,2.7,0,0,1-1.23,1.45,4.66,4.66,0,0,1-2.07.39Zm3.72-15.9a21.26,21.26,0,0,0-2-1.46c-.74-.49-1.49-1-2.24-1.39a21.2,21.2,0,0,0-2.05-1l1.5-2.37A23,23,0,0,1,48.4,3.62c.82.46,1.62.93,2.39,1.41a18,18,0,0,1,1.87,1.33c-.18.2-.39.45-.64.76s-.46.61-.66.91A7.34,7.34,0,0,0,50.91,8.78Zm6.78,9.93A21.47,21.47,0,0,0,55.29,15,22.83,22.83,0,0,0,52.34,12l2.17-1.85a18.93,18.93,0,0,1,2.08,2c.73.78,1.42,1.6,2.07,2.45a23,23,0,0,1,1.6,2.35,5.56,5.56,0,0,0-.87.51c-.35.24-.69.49-1,.74A8,8,0,0,0,57.69,18.71Z"/><path class="cls-1" d="M74.54,25.26V17.81q-2.13.95-4.63,1.9a5.66,5.66,0,0,0-.35-.88,10.78,10.78,0,0,0-.54-1,5.47,5.47,0,0,0-.51-.76,47.91,47.91,0,0,0,5.6-2A34.4,34.4,0,0,0,79,12.43H69.29V9.86h8.9V7.76h-6.3V5.18h6.3V2.46h3V5.18h3.6V7.33a21.87,21.87,0,0,0,2.77-4.27l2.65,1.37a39.56,39.56,0,0,1-4.07,5.43h6v2.57H83.46c-.52.43-1,.85-1.59,1.25s-1.1.78-1.68,1.15h8.15V25.26ZM77.49,19h8v-1.7h-8Zm0,3.9h8V21.13h-8Zm3.7-13h1.2c.36-.34.72-.68,1.06-1s.67-.71,1-1.07H81.19Z"/><path class="cls-2" d="M13.69,25.41a4.62,4.62,0,0,0-.57-.72c-.25-.27-.53-.54-.82-.8a4,4,0,0,0-.81-.58,14.23,14.23,0,0,0,2.95-2.49,12.3,12.3,0,0,0,2-3.24,18.08,18.08,0,0,0,1.17-4.31A37.16,37.16,0,0,0,18,7.53H14.34l.22.15c-.42.92-.88,1.81-1.39,2.69a29.39,29.39,0,0,1-1.66,2.56l1.4,1,1.5,1,1.18.79a7,7,0,0,0-.94,1,8.74,8.74,0,0,0-.84,1.1l-1.31-.95c-.49-.37-1-.76-1.46-1.18v9.55H8.19V16.66c-.42.38-.86.75-1.32,1.12s-.93.72-1.41,1a7.12,7.12,0,0,0-.94-1.15,12.75,12.75,0,0,0-1.06-1,15.38,15.38,0,0,0,2-1.44,23.66,23.66,0,0,0,2-1.87,23.63,23.63,0,0,0,1.79-2,14.29,14.29,0,0,0,1.28-1.94H4.64V6.73h3.5V2.63H11v4.1h2.25l1,.73V4.83h12.1V9.21q0,2.41-.12,4.56c-.07,1.42-.16,2.69-.26,3.79s-.19,2-.27,2.67a7.63,7.63,0,0,1-.88,3,3.46,3.46,0,0,1-1.7,1.5,6.77,6.77,0,0,1-2.52.43H19.14c0-.29-.09-.62-.15-1s-.15-.77-.24-1.14a5.47,5.47,0,0,0-.29-.91h1.95a3,3,0,0,0,1.14-.18,1.36,1.36,0,0,0,.69-.69,6.4,6.4,0,0,0,.42-1.46A21.72,21.72,0,0,0,23,17.56c.11-1,.2-2.25.28-3.68s.11-3,.11-4.67V7.53H20.91a39.57,39.57,0,0,1-.77,7.88,17.32,17.32,0,0,1-2.29,5.73A15.87,15.87,0,0,1,13.69,25.41Zm.7-11a7.93,7.93,0,0,0-.94-.82,5,5,0,0,0-1-.65,17,17,0,0,0,1.26-1.59,12.32,12.32,0,0,0,1-1.66l2.2,1.4c-.17.28-.41.63-.72,1.06l-1,1.26C14.9,13.8,14.62,14.13,14.39,14.38Z"/><path class="cls-2" d="M38.64,20.18a14,14,0,0,0-1.3-.77,8.82,8.82,0,0,0-1.4-.63,14.78,14.78,0,0,0,1.12-1.64A23,23,0,0,0,38.2,15c.36-.74.68-1.46,1-2.17A17.07,17.07,0,0,0,39.79,11l2.9,1a18.31,18.31,0,0,1-.7,2c-.3.73-.64,1.48-1,2.23s-.76,1.48-1.17,2.15A15.35,15.35,0,0,1,38.64,20.18Zm8.55,4.5a3.82,3.82,0,0,1-2.25-.49,1.89,1.89,0,0,1-.65-1.63V9.23h3.1V21a.65.65,0,0,0,.2.56,1.26,1.26,0,0,0,.77.17h3.18A1.51,1.51,0,0,0,53,21.11a6.31,6.31,0,0,0,.54-2.43q.34.18.87.39c.35.14.71.27,1.09.39l1,.27a13.31,13.31,0,0,1-.75,3.11,2.7,2.7,0,0,1-1.23,1.45,4.66,4.66,0,0,1-2.07.39Zm3.72-15.9a21.26,21.26,0,0,0-2-1.46c-.74-.49-1.49-1-2.24-1.39a21.2,21.2,0,0,0-2.05-1l1.5-2.37A23,23,0,0,1,48.4,3.62c.82.46,1.62.93,2.39,1.41a18,18,0,0,1,1.87,1.33c-.18.2-.39.45-.64.76s-.46.61-.66.91A7.34,7.34,0,0,0,50.91,8.78Zm6.78,9.93A21.47,21.47,0,0,0,55.29,15,22.83,22.83,0,0,0,52.34,12l2.17-1.85a18.93,18.93,0,0,1,2.08,2c.73.78,1.42,1.6,2.07,2.45a23,23,0,0,1,1.6,2.35,5.56,5.56,0,0,0-.87.51c-.35.24-.69.49-1,.74A8,8,0,0,0,57.69,18.71Z"/><path class="cls-2" d="M74.54,25.26V17.81q-2.13.95-4.63,1.9a5.66,5.66,0,0,0-.35-.88,10.78,10.78,0,0,0-.54-1,5.47,5.47,0,0,0-.51-.76,47.91,47.91,0,0,0,5.6-2A34.4,34.4,0,0,0,79,12.43H69.29V9.86h8.9V7.76h-6.3V5.18h6.3V2.46h3V5.18h3.6V7.33a21.87,21.87,0,0,0,2.77-4.27l2.65,1.37a39.56,39.56,0,0,1-4.07,5.43h6v2.57H83.46c-.52.43-1,.85-1.59,1.25s-1.1.78-1.68,1.15h8.15V25.26ZM77.49,19h8v-1.7h-8Zm0,3.9h8V21.13h-8Zm3.7-13h1.2c.36-.34.72-.68,1.06-1s.67-.71,1-1.07H81.19Z"/><path class="cls-3" d="M25,96.27c0-.73.06-1.78.1-3.13s.06-2.81.1-4.4.05-3.12.07-4.62,0-2.77,0-3.8a88.24,88.24,0,0,1-14.95,8.5,12.26,12.26,0,0,0-1.1-1.55c-.54-.67-1.09-1.33-1.65-2a17.53,17.53,0,0,0-1.4-1.5A52.93,52.93,0,0,0,13.14,81,67,67,0,0,0,20,77.24,52.83,52.83,0,0,0,25.91,73,25,25,0,0,0,30,68.72l-3.33,0-4.25.08c-1.52,0-3,.07-4.45.12l-3.9.13c-1.15,0-2,.08-2.62.15,0-.37,0-.94,0-1.73s0-1.57-.07-2.37-.07-1.42-.1-1.85c.76.07,1.83.12,3.2.15s2.9,0,4.6,0l5.25,0c1.8,0,3.53,0,5.2-.07s3.15-.08,4.45-.15,2.28-.13,3-.2a10.29,10.29,0,0,1,.82.82c.35.39.7.75,1,1.1l.78.78c-.34.4-.72.9-1.15,1.5s-.89,1.2-1.35,1.8a37.35,37.35,0,0,1-2.65,3.22c-1,1.05-2,2.1-3.1,3.13,0,1.07,0,2.34,0,3.82s0,3.06.05,4.73,0,3.3.05,4.9,0,3.05,0,4.35,0,2.33,0,3.1Zm7.2-34.5a27.94,27.94,0,0,0-2.58-1.35c-1.12-.53-2.32-1.08-3.62-1.63s-2.54-1-3.7-1.5-2.12-.77-2.85-1c.26-.37.6-.88,1-1.55s.8-1.34,1.2-2,.7-1.2.9-1.57c.76.23,1.74.58,2.92,1s2.42,1,3.7,1.52,2.48,1.08,3.58,1.58,1.93.9,2.5,1.2c-.27.4-.61.94-1,1.62s-.81,1.36-1.17,2S32.44,61.37,32.24,61.77Zm14.5,26.55A27.5,27.5,0,0,0,44.16,86c-1.08-.87-2.26-1.75-3.52-2.65s-2.5-1.73-3.68-2.5S34.75,79.49,33.89,79a23.41,23.41,0,0,0,1.82-2.25q1-1.35,1.53-2.25c1,.47,2.07,1.07,3.32,1.82s2.53,1.55,3.83,2.38,2.5,1.66,3.62,2.47a28.77,28.77,0,0,1,2.63,2.13c-.37.37-.81.87-1.33,1.5s-1,1.27-1.47,1.92S47,87.92,46.74,88.32Z"/><path class="cls-3" d="M81.39,78.47c-.17-.9-.41-1.93-.73-3.08s-.67-2.3-1.07-3.45a27.18,27.18,0,0,0-1.3-3.12c.73-.17,1.61-.4,2.65-.7s1.86-.53,2.5-.7a21.16,21.16,0,0,1,1.12,2.9c.38,1.2.73,2.42,1,3.67s.56,2.36.73,3.33c-.7.17-1.55.35-2.55.55A20.76,20.76,0,0,0,81.39,78.47Zm6.9,17.25a11.2,11.2,0,0,0-1.13-1.3c-.52-.54-1-1-1.57-1.55a17.71,17.71,0,0,0-1.35-1.15q7.89-2.7,11.85-7.6a25.42,25.42,0,0,0,5-12.55l.42-2.9c.15-1,.24-1.78.28-2.25l1.75.37c.73.15,1.46.28,2.2.38s1.28.17,1.65.2c-.14.47-.3,1.12-.48,2s-.36,1.71-.52,2.58A37.78,37.78,0,0,1,103,82.72a25,25,0,0,1-6,7.62A35.12,35.12,0,0,1,88.29,95.72Zm2.6-19.15c-.14-1.5-.38-3.15-.73-4.95a31.43,31.43,0,0,0-1.27-4.75l1.65-.28c.66-.11,1.34-.25,2-.4s1.21-.25,1.58-.32a26.38,26.38,0,0,1,.85,3c.26,1.19.5,2.38.72,3.58a30.72,30.72,0,0,1,.43,3.2,15.8,15.8,0,0,0-1.63.25c-.68.13-1.35.26-2,.37Z"/><path class="cls-3" d="M146.54,95.92c0-.54,0-1.49,0-2.85s0-3,.05-4.93,0-4,0-6.25,0-4.55.05-6.92,0-4.66,0-6.88,0-4.22,0-6q0-3.41-.08-6a28.62,28.62,0,0,0-.27-3.67l2.07.15c.85.07,1.7.12,2.55.17l2.08.13a28.6,28.6,0,0,0-.25,3c-.07,1.35-.1,3.06-.1,5.13v7.75c1.06-1,1.93-1.87,2.6-2.6a41.46,41.46,0,0,0,3.25,2.6q1.85,1.35,3.87,2.65c1.35.87,2.67,1.67,4,2.42s2.43,1.38,3.43,1.88c-.8.77-1.62,1.6-2.45,2.5a18.47,18.47,0,0,0-2,2.5q-1.75-1.1-4-2.58T157,74.94q-2.28-1.66-4.12-3.27c0,2.4,0,4.88,0,7.45s0,5,0,7.32,0,4.32,0,6v3.48Z"/><path class="cls-3" d="M210.29,78.32a34.61,34.61,0,0,0-3.68-2.65c-1.42-.9-2.87-1.77-4.37-2.6s-2.9-1.55-4.2-2.15a29.76,29.76,0,0,0,1.7-2.53c.6-1,1.13-1.9,1.6-2.77,1,.47,2.08,1,3.25,1.67s2.34,1.34,3.52,2,2.28,1.42,3.3,2.1,1.84,1.28,2.48,1.78c-.5.63-1.1,1.46-1.8,2.47Zm-6.1,15.75c-.24-.44-.6-1.06-1.08-1.88s-1-1.61-1.47-2.4a13.66,13.66,0,0,0-1.2-1.67,57.1,57.1,0,0,0,10-3.18,77.59,77.59,0,0,0,10.05-5.07,82.17,82.17,0,0,0,9.37-6.5,70.53,70.53,0,0,0,8-7.45c.06.37.18.87.35,1.52s.35,1.33.55,2,.4,1.33.6,1.9a11.55,11.55,0,0,0,.45,1.15,66.76,66.76,0,0,1-7.3,6.62,92.2,92.2,0,0,1-8.75,6.08,88.66,88.66,0,0,1-9.63,5.12A73.81,73.81,0,0,1,204.19,94.07ZM217,66.92a41.34,41.34,0,0,0-3.65-2.7c-1.4-.93-2.84-1.83-4.3-2.7a46.21,46.21,0,0,0-4.15-2.2c.53-.7,1.1-1.53,1.72-2.5s1.18-1.88,1.68-2.75c1,.5,2,1.08,3.17,1.75s2.31,1.37,3.48,2.1,2.25,1.45,3.25,2.15,1.81,1.32,2.45,1.85c-.5.6-1.11,1.41-1.83,2.42Z"/><path class="cls-3" d="M269.54,92.62a13,13,0,0,0,0-1.5c0-.7,0-1.4,0-2.1s0-1.18-.05-1.45c.56,0,1.52.06,2.87.07l4.68,0,5.4,0,5.05,0h3.6V82.62h-3.6l-4.55,0-4.75,0-4.28,0c-1.28,0-2.29.05-3,.08V79.29c0-.68,0-1.17-.05-1.47.63,0,1.54.06,2.72.07s2.5,0,3.95,0l4.5,0,4.43,0h4.65V73h-3.4l-5,0-5.37.08c-1.77,0-3.33.06-4.68.07s-2.29,0-2.82.08a12.36,12.36,0,0,0,0-1.48c0-.71,0-1.44,0-2.17s0-1.25,0-1.55c.46,0,1.35.06,2.67.07s2.89,0,4.73,0h11.52q2.78,0,4.83,0c1.36,0,2.31,0,2.85-.07,0,.5-.06,1.37-.08,2.6s0,2.67,0,4.32v10.4c0,1.69,0,3.16,0,4.43s0,2.18.08,2.75c-.54,0-1.5-.06-2.88-.08l-4.87,0h-5.83l-5.77,0-4.78.05C270.91,92.56,270,92.59,269.54,92.62Z"/><path class="cls-3" d="M336.39,78.47c-.17-.9-.41-1.93-.73-3.08s-.67-2.3-1.07-3.45a27.18,27.18,0,0,0-1.3-3.12c.73-.17,1.61-.4,2.65-.7s1.86-.53,2.5-.7a21.16,21.16,0,0,1,1.12,2.9c.38,1.2.73,2.42,1.05,3.67s.56,2.36.73,3.33c-.7.17-1.55.35-2.55.55A20.76,20.76,0,0,0,336.39,78.47Zm6.9,17.25a11.2,11.2,0,0,0-1.13-1.3c-.52-.54-1-1-1.57-1.55a17.71,17.71,0,0,0-1.35-1.15q7.89-2.7,11.85-7.6a25.42,25.42,0,0,0,5.05-12.55l.42-2.9c.15-1,.24-1.78.28-2.25l1.75.37c.73.15,1.46.28,2.2.38s1.28.17,1.65.2c-.14.47-.3,1.12-.48,2s-.36,1.71-.52,2.58A37.78,37.78,0,0,1,358,82.72a25,25,0,0,1-6,7.62A35.12,35.12,0,0,1,343.29,95.72Zm2.6-19.15c-.14-1.5-.38-3.15-.73-4.95a31.43,31.43,0,0,0-1.27-4.75l1.65-.28c.66-.11,1.34-.25,2-.4s1.21-.25,1.58-.32a26.38,26.38,0,0,1,.85,3c.26,1.19.5,2.38.72,3.58a30.72,30.72,0,0,1,.43,3.2,15.8,15.8,0,0,0-1.63.25c-.68.13-1.35.26-2,.37Z"/><path class="cls-3" d="M403.39,94.52c-.37-.44-.86-1-1.48-1.58s-1.25-1.2-1.9-1.77a13.32,13.32,0,0,0-1.62-1.25,41,41,0,0,0,11.47-6.58A39.27,39.27,0,0,0,418,74.22a44,44,0,0,0,5-10.75c-.6,0-1.58,0-2.93.05s-2.92.06-4.7.07l-5.57.08c-1.94,0-3.82.07-5.65.12l-4.9.13c-1.44,0-2.54.07-3.3.1q0-.75,0-1.95c0-.8-.07-1.59-.1-2.38s-.07-1.4-.1-1.87c1.1.1,2.55.17,4.37.22s3.83.09,6,.1,4.44,0,6.72,0,4.47-.08,6.55-.13,3.92-.1,5.5-.17,2.76-.13,3.53-.2L430,58.79l1.43,1.13a9.09,9.09,0,0,0-.78,1.67c-.25.69-.61,1.53-1.07,2.53a52.4,52.4,0,0,1-9.93,18.25A48.92,48.92,0,0,1,403.39,94.52Zm32.15-34.85a5.06,5.06,0,0,1-3.68-1.5,5.14,5.14,0,0,1,0-7.3,5.06,5.06,0,0,1,3.68-1.5,5.15,5.15,0,1,1,0,10.3Zm0-2.25a2.74,2.74,0,0,0,2-.85,2.9,2.9,0,0,0,0-4.1,2.74,2.74,0,0,0-2-.85,2.9,2.9,0,0,0,0,5.8Z"/><path class="cls-1" d="M25,96.27c0-.73.06-1.78.1-3.13s.06-2.81.1-4.4.05-3.12.07-4.62,0-2.77,0-3.8a88.24,88.24,0,0,1-14.95,8.5,12.26,12.26,0,0,0-1.1-1.55c-.54-.67-1.09-1.33-1.65-2a17.53,17.53,0,0,0-1.4-1.5A52.93,52.93,0,0,0,13.14,81,67,67,0,0,0,20,77.24,52.83,52.83,0,0,0,25.91,73,25,25,0,0,0,30,68.72l-3.33,0-4.25.08c-1.52,0-3,.07-4.45.12l-3.9.13c-1.15,0-2,.08-2.62.15,0-.37,0-.94,0-1.73s0-1.57-.07-2.37-.07-1.42-.1-1.85c.76.07,1.83.12,3.2.15s2.9,0,4.6,0l5.25,0c1.8,0,3.53,0,5.2-.07s3.15-.08,4.45-.15,2.28-.13,3-.2a10.29,10.29,0,0,1,.82.82c.35.39.7.75,1,1.1l.78.78c-.34.4-.72.9-1.15,1.5s-.89,1.2-1.35,1.8a37.35,37.35,0,0,1-2.65,3.22c-1,1.05-2,2.1-3.1,3.13,0,1.07,0,2.34,0,3.82s0,3.06.05,4.73,0,3.3.05,4.9,0,3.05,0,4.35,0,2.33,0,3.1Zm7.2-34.5a27.94,27.94,0,0,0-2.58-1.35c-1.12-.53-2.32-1.08-3.62-1.63s-2.54-1-3.7-1.5-2.12-.77-2.85-1c.26-.37.6-.88,1-1.55s.8-1.34,1.2-2,.7-1.2.9-1.57c.76.23,1.74.58,2.92,1s2.42,1,3.7,1.52,2.48,1.08,3.58,1.58,1.93.9,2.5,1.2c-.27.4-.61.94-1,1.62s-.81,1.36-1.17,2S32.44,61.37,32.24,61.77Zm14.5,26.55A27.5,27.5,0,0,0,44.16,86c-1.08-.87-2.26-1.75-3.52-2.65s-2.5-1.73-3.68-2.5S34.75,79.49,33.89,79a23.41,23.41,0,0,0,1.82-2.25q1-1.35,1.53-2.25c1,.47,2.07,1.07,3.32,1.82s2.53,1.55,3.83,2.38,2.5,1.66,3.62,2.47a28.77,28.77,0,0,1,2.63,2.13c-.37.37-.81.87-1.33,1.5s-1,1.27-1.47,1.92S47,87.92,46.74,88.32Z"/><path class="cls-1" d="M81.39,78.47c-.17-.9-.41-1.93-.73-3.08s-.67-2.3-1.07-3.45a27.18,27.18,0,0,0-1.3-3.12c.73-.17,1.61-.4,2.65-.7s1.86-.53,2.5-.7a21.16,21.16,0,0,1,1.12,2.9c.38,1.2.73,2.42,1,3.67s.56,2.36.73,3.33c-.7.17-1.55.35-2.55.55A20.76,20.76,0,0,0,81.39,78.47Zm6.9,17.25a11.2,11.2,0,0,0-1.13-1.3c-.52-.54-1-1-1.57-1.55a17.71,17.71,0,0,0-1.35-1.15q7.89-2.7,11.85-7.6a25.42,25.42,0,0,0,5-12.55l.42-2.9c.15-1,.24-1.78.28-2.25l1.75.37c.73.15,1.46.28,2.2.38s1.28.17,1.65.2c-.14.47-.3,1.12-.48,2s-.36,1.71-.52,2.58A37.78,37.78,0,0,1,103,82.72a25,25,0,0,1-6,7.62A35.12,35.12,0,0,1,88.29,95.72Zm2.6-19.15c-.14-1.5-.38-3.15-.73-4.95a31.43,31.43,0,0,0-1.27-4.75l1.65-.28c.66-.11,1.34-.25,2-.4s1.21-.25,1.58-.32a26.38,26.38,0,0,1,.85,3c.26,1.19.5,2.38.72,3.58a30.72,30.72,0,0,1,.43,3.2,15.8,15.8,0,0,0-1.63.25c-.68.13-1.35.26-2,.37Z"/><path class="cls-1" d="M146.54,95.92c0-.54,0-1.49,0-2.85s0-3,.05-4.93,0-4,0-6.25,0-4.55.05-6.92,0-4.66,0-6.88,0-4.22,0-6q0-3.41-.08-6a28.62,28.62,0,0,0-.27-3.67l2.07.15c.85.07,1.7.12,2.55.17l2.08.13a28.6,28.6,0,0,0-.25,3c-.07,1.35-.1,3.06-.1,5.13v7.75c1.06-1,1.93-1.87,2.6-2.6a41.46,41.46,0,0,0,3.25,2.6q1.85,1.35,3.87,2.65c1.35.87,2.67,1.67,4,2.42s2.43,1.38,3.43,1.88c-.8.77-1.62,1.6-2.45,2.5a18.47,18.47,0,0,0-2,2.5q-1.75-1.1-4-2.58T157,74.94q-2.28-1.66-4.12-3.27c0,2.4,0,4.88,0,7.45s0,5,0,7.32,0,4.32,0,6v3.48Z"/><path class="cls-1" d="M210.29,78.32a34.61,34.61,0,0,0-3.68-2.65c-1.42-.9-2.87-1.77-4.37-2.6s-2.9-1.55-4.2-2.15a29.76,29.76,0,0,0,1.7-2.53c.6-1,1.13-1.9,1.6-2.77,1,.47,2.08,1,3.25,1.67s2.34,1.34,3.52,2,2.28,1.42,3.3,2.1,1.84,1.28,2.48,1.78c-.5.63-1.1,1.46-1.8,2.47Zm-6.1,15.75c-.24-.44-.6-1.06-1.08-1.88s-1-1.61-1.47-2.4a13.66,13.66,0,0,0-1.2-1.67,57.1,57.1,0,0,0,10-3.18,77.59,77.59,0,0,0,10.05-5.07,82.17,82.17,0,0,0,9.37-6.5,70.53,70.53,0,0,0,8-7.45c.06.37.18.87.35,1.52s.35,1.33.55,2,.4,1.33.6,1.9a11.55,11.55,0,0,0,.45,1.15,66.76,66.76,0,0,1-7.3,6.62,92.2,92.2,0,0,1-8.75,6.08,88.66,88.66,0,0,1-9.63,5.12A73.81,73.81,0,0,1,204.19,94.07ZM217,66.92a41.34,41.34,0,0,0-3.65-2.7c-1.4-.93-2.84-1.83-4.3-2.7a46.21,46.21,0,0,0-4.15-2.2c.53-.7,1.1-1.53,1.72-2.5s1.18-1.88,1.68-2.75c1,.5,2,1.08,3.17,1.75s2.31,1.37,3.48,2.1,2.25,1.45,3.25,2.15,1.81,1.32,2.45,1.85c-.5.6-1.11,1.41-1.83,2.42Z"/><path class="cls-1" d="M269.54,92.62a13,13,0,0,0,0-1.5c0-.7,0-1.4,0-2.1s0-1.18-.05-1.45c.56,0,1.52.06,2.87.07l4.68,0,5.4,0,5.05,0h3.6V82.62h-3.6l-4.55,0-4.75,0-4.28,0c-1.28,0-2.29.05-3,.08V79.29c0-.68,0-1.17-.05-1.47.63,0,1.54.06,2.72.07s2.5,0,3.95,0l4.5,0,4.43,0h4.65V73h-3.4l-5,0-5.37.08c-1.77,0-3.33.06-4.68.07s-2.29,0-2.82.08a12.36,12.36,0,0,0,0-1.48c0-.71,0-1.44,0-2.17s0-1.25,0-1.55c.46,0,1.35.06,2.67.07s2.89,0,4.73,0h11.52q2.78,0,4.83,0c1.36,0,2.31,0,2.85-.07,0,.5-.06,1.37-.08,2.6s0,2.67,0,4.32v10.4c0,1.69,0,3.16,0,4.43s0,2.18.08,2.75c-.54,0-1.5-.06-2.88-.08l-4.87,0h-5.83l-5.77,0-4.78.05C270.91,92.56,270,92.59,269.54,92.62Z"/><path class="cls-1" d="M336.39,78.47c-.17-.9-.41-1.93-.73-3.08s-.67-2.3-1.07-3.45a27.18,27.18,0,0,0-1.3-3.12c.73-.17,1.61-.4,2.65-.7s1.86-.53,2.5-.7a21.16,21.16,0,0,1,1.12,2.9c.38,1.2.73,2.42,1.05,3.67s.56,2.36.73,3.33c-.7.17-1.55.35-2.55.55A20.76,20.76,0,0,0,336.39,78.47Zm6.9,17.25a11.2,11.2,0,0,0-1.13-1.3c-.52-.54-1-1-1.57-1.55a17.71,17.71,0,0,0-1.35-1.15q7.89-2.7,11.85-7.6a25.42,25.42,0,0,0,5.05-12.55l.42-2.9c.15-1,.24-1.78.28-2.25l1.75.37c.73.15,1.46.28,2.2.38s1.28.17,1.65.2c-.14.47-.3,1.12-.48,2s-.36,1.71-.52,2.58A37.78,37.78,0,0,1,358,82.72a25,25,0,0,1-6,7.62A35.12,35.12,0,0,1,343.29,95.72Zm2.6-19.15c-.14-1.5-.38-3.15-.73-4.95a31.43,31.43,0,0,0-1.27-4.75l1.65-.28c.66-.11,1.34-.25,2-.4s1.21-.25,1.58-.32a26.38,26.38,0,0,1,.85,3c.26,1.19.5,2.38.72,3.58a30.72,30.72,0,0,1,.43,3.2,15.8,15.8,0,0,0-1.63.25c-.68.13-1.35.26-2,.37Z"/><path class="cls-1" d="M403.39,94.52c-.37-.44-.86-1-1.48-1.58s-1.25-1.2-1.9-1.77a13.32,13.32,0,0,0-1.62-1.25,41,41,0,0,0,11.47-6.58A39.27,39.27,0,0,0,418,74.22a44,44,0,0,0,5-10.75c-.6,0-1.58,0-2.93.05s-2.92.06-4.7.07l-5.57.08c-1.94,0-3.82.07-5.65.12l-4.9.13c-1.44,0-2.54.07-3.3.1q0-.75,0-1.95c0-.8-.07-1.59-.1-2.38s-.07-1.4-.1-1.87c1.1.1,2.55.17,4.37.22s3.83.09,6,.1,4.44,0,6.72,0,4.47-.08,6.55-.13,3.92-.1,5.5-.17,2.76-.13,3.53-.2L430,58.79l1.43,1.13a9.09,9.09,0,0,0-.78,1.67c-.25.69-.61,1.53-1.07,2.53a52.4,52.4,0,0,1-9.93,18.25A48.92,48.92,0,0,1,403.39,94.52Zm32.15-34.85a5.06,5.06,0,0,1-3.68-1.5,5.14,5.14,0,0,1,0-7.3,5.06,5.06,0,0,1,3.68-1.5,5.15,5.15,0,1,1,0,10.3Zm0-2.25a2.74,2.74,0,0,0,2-.85,2.9,2.9,0,0,0,0-4.1,2.74,2.74,0,0,0-2-.85,2.9,2.9,0,0,0,0,5.8Z"/><path class="cls-4" d="M25,96.27c0-.73.06-1.78.1-3.13s.06-2.81.1-4.4.05-3.12.07-4.62,0-2.77,0-3.8a88.24,88.24,0,0,1-14.95,8.5,12.26,12.26,0,0,0-1.1-1.55c-.54-.67-1.09-1.33-1.65-2a17.53,17.53,0,0,0-1.4-1.5A52.93,52.93,0,0,0,13.14,81,67,67,0,0,0,20,77.24,52.83,52.83,0,0,0,25.91,73,25,25,0,0,0,30,68.72l-3.33,0-4.25.08c-1.52,0-3,.07-4.45.12l-3.9.13c-1.15,0-2,.08-2.62.15,0-.37,0-.94,0-1.73s0-1.57-.07-2.37-.07-1.42-.1-1.85c.76.07,1.83.12,3.2.15s2.9,0,4.6,0l5.25,0c1.8,0,3.53,0,5.2-.07s3.15-.08,4.45-.15,2.28-.13,3-.2a10.29,10.29,0,0,1,.82.82c.35.39.7.75,1,1.1l.78.78c-.34.4-.72.9-1.15,1.5s-.89,1.2-1.35,1.8a37.35,37.35,0,0,1-2.65,3.22c-1,1.05-2,2.1-3.1,3.13,0,1.07,0,2.34,0,3.82s0,3.06.05,4.73,0,3.3.05,4.9,0,3.05,0,4.35,0,2.33,0,3.1Zm7.2-34.5a27.94,27.94,0,0,0-2.58-1.35c-1.12-.53-2.32-1.08-3.62-1.63s-2.54-1-3.7-1.5-2.12-.77-2.85-1c.26-.37.6-.88,1-1.55s.8-1.34,1.2-2,.7-1.2.9-1.57c.76.23,1.74.58,2.92,1s2.42,1,3.7,1.52,2.48,1.08,3.58,1.58,1.93.9,2.5,1.2c-.27.4-.61.94-1,1.62s-.81,1.36-1.17,2S32.44,61.37,32.24,61.77Zm14.5,26.55A27.5,27.5,0,0,0,44.16,86c-1.08-.87-2.26-1.75-3.52-2.65s-2.5-1.73-3.68-2.5S34.75,79.49,33.89,79a23.41,23.41,0,0,0,1.82-2.25q1-1.35,1.53-2.25c1,.47,2.07,1.07,3.32,1.82s2.53,1.55,3.83,2.38,2.5,1.66,3.62,2.47a28.77,28.77,0,0,1,2.63,2.13c-.37.37-.81.87-1.33,1.5s-1,1.27-1.47,1.92S47,87.92,46.74,88.32Z"/><path class="cls-4" d="M81.39,78.47c-.17-.9-.41-1.93-.73-3.08s-.67-2.3-1.07-3.45a27.18,27.18,0,0,0-1.3-3.12c.73-.17,1.61-.4,2.65-.7s1.86-.53,2.5-.7a21.16,21.16,0,0,1,1.12,2.9c.38,1.2.73,2.42,1,3.67s.56,2.36.73,3.33c-.7.17-1.55.35-2.55.55A20.76,20.76,0,0,0,81.39,78.47Zm6.9,17.25a11.2,11.2,0,0,0-1.13-1.3c-.52-.54-1-1-1.57-1.55a17.71,17.71,0,0,0-1.35-1.15q7.89-2.7,11.85-7.6a25.42,25.42,0,0,0,5-12.55l.42-2.9c.15-1,.24-1.78.28-2.25l1.75.37c.73.15,1.46.28,2.2.38s1.28.17,1.65.2c-.14.47-.3,1.12-.48,2s-.36,1.71-.52,2.58A37.78,37.78,0,0,1,103,82.72a25,25,0,0,1-6,7.62A35.12,35.12,0,0,1,88.29,95.72Zm2.6-19.15c-.14-1.5-.38-3.15-.73-4.95a31.43,31.43,0,0,0-1.27-4.75l1.65-.28c.66-.11,1.34-.25,2-.4s1.21-.25,1.58-.32a26.38,26.38,0,0,1,.85,3c.26,1.19.5,2.38.72,3.58a30.72,30.72,0,0,1,.43,3.2,15.8,15.8,0,0,0-1.63.25c-.68.13-1.35.26-2,.37Z"/><path class="cls-4" d="M146.54,95.92c0-.54,0-1.49,0-2.85s0-3,.05-4.93,0-4,0-6.25,0-4.55.05-6.92,0-4.66,0-6.88,0-4.22,0-6q0-3.41-.08-6a28.62,28.62,0,0,0-.27-3.67l2.07.15c.85.07,1.7.12,2.55.17l2.08.13a28.6,28.6,0,0,0-.25,3c-.07,1.35-.1,3.06-.1,5.13v7.75c1.06-1,1.93-1.87,2.6-2.6a41.46,41.46,0,0,0,3.25,2.6q1.85,1.35,3.87,2.65c1.35.87,2.67,1.67,4,2.42s2.43,1.38,3.43,1.88c-.8.77-1.62,1.6-2.45,2.5a18.47,18.47,0,0,0-2,2.5q-1.75-1.1-4-2.58T157,74.94q-2.28-1.66-4.12-3.27c0,2.4,0,4.88,0,7.45s0,5,0,7.32,0,4.32,0,6v3.48Z"/><path class="cls-4" d="M210.29,78.32a34.61,34.61,0,0,0-3.68-2.65c-1.42-.9-2.87-1.77-4.37-2.6s-2.9-1.55-4.2-2.15a29.76,29.76,0,0,0,1.7-2.53c.6-1,1.13-1.9,1.6-2.77,1,.47,2.08,1,3.25,1.67s2.34,1.34,3.52,2,2.28,1.42,3.3,2.1,1.84,1.28,2.48,1.78c-.5.63-1.1,1.46-1.8,2.47Zm-6.1,15.75c-.24-.44-.6-1.06-1.08-1.88s-1-1.61-1.47-2.4a13.66,13.66,0,0,0-1.2-1.67,57.1,57.1,0,0,0,10-3.18,77.59,77.59,0,0,0,10.05-5.07,82.17,82.17,0,0,0,9.37-6.5,70.53,70.53,0,0,0,8-7.45c.06.37.18.87.35,1.52s.35,1.33.55,2,.4,1.33.6,1.9a11.55,11.55,0,0,0,.45,1.15,66.76,66.76,0,0,1-7.3,6.62,92.2,92.2,0,0,1-8.75,6.08,88.66,88.66,0,0,1-9.63,5.12A73.81,73.81,0,0,1,204.19,94.07ZM217,66.92a41.34,41.34,0,0,0-3.65-2.7c-1.4-.93-2.84-1.83-4.3-2.7a46.21,46.21,0,0,0-4.15-2.2c.53-.7,1.1-1.53,1.72-2.5s1.18-1.88,1.68-2.75c1,.5,2,1.08,3.17,1.75s2.31,1.37,3.48,2.1,2.25,1.45,3.25,2.15,1.81,1.32,2.45,1.85c-.5.6-1.11,1.41-1.83,2.42Z"/><path class="cls-4" d="M269.54,92.62a13,13,0,0,0,0-1.5c0-.7,0-1.4,0-2.1s0-1.18-.05-1.45c.56,0,1.52.06,2.87.07l4.68,0,5.4,0,5.05,0h3.6V82.62h-3.6l-4.55,0-4.75,0-4.28,0c-1.28,0-2.29.05-3,.08V79.29c0-.68,0-1.17-.05-1.47.63,0,1.54.06,2.72.07s2.5,0,3.95,0l4.5,0,4.43,0h4.65V73h-3.4l-5,0-5.37.08c-1.77,0-3.33.06-4.68.07s-2.29,0-2.82.08a12.36,12.36,0,0,0,0-1.48c0-.71,0-1.44,0-2.17s0-1.25,0-1.55c.46,0,1.35.06,2.67.07s2.89,0,4.73,0h11.52q2.78,0,4.83,0c1.36,0,2.31,0,2.85-.07,0,.5-.06,1.37-.08,2.6s0,2.67,0,4.32v10.4c0,1.69,0,3.16,0,4.43s0,2.18.08,2.75c-.54,0-1.5-.06-2.88-.08l-4.87,0h-5.83l-5.77,0-4.78.05C270.91,92.56,270,92.59,269.54,92.62Z"/><path class="cls-4" d="M336.39,78.47c-.17-.9-.41-1.93-.73-3.08s-.67-2.3-1.07-3.45a27.18,27.18,0,0,0-1.3-3.12c.73-.17,1.61-.4,2.65-.7s1.86-.53,2.5-.7a21.16,21.16,0,0,1,1.12,2.9c.38,1.2.73,2.42,1.05,3.67s.56,2.36.73,3.33c-.7.17-1.55.35-2.55.55A20.76,20.76,0,0,0,336.39,78.47Zm6.9,17.25a11.2,11.2,0,0,0-1.13-1.3c-.52-.54-1-1-1.57-1.55a17.71,17.71,0,0,0-1.35-1.15q7.89-2.7,11.85-7.6a25.42,25.42,0,0,0,5.05-12.55l.42-2.9c.15-1,.24-1.78.28-2.25l1.75.37c.73.15,1.46.28,2.2.38s1.28.17,1.65.2c-.14.47-.3,1.12-.48,2s-.36,1.71-.52,2.58A37.78,37.78,0,0,1,358,82.72a25,25,0,0,1-6,7.62A35.12,35.12,0,0,1,343.29,95.72Zm2.6-19.15c-.14-1.5-.38-3.15-.73-4.95a31.43,31.43,0,0,0-1.27-4.75l1.65-.28c.66-.11,1.34-.25,2-.4s1.21-.25,1.58-.32a26.38,26.38,0,0,1,.85,3c.26,1.19.5,2.38.72,3.58a30.72,30.72,0,0,1,.43,3.2,15.8,15.8,0,0,0-1.63.25c-.68.13-1.35.26-2,.37Z"/><path class="cls-4" d="M403.39,94.52c-.37-.44-.86-1-1.48-1.58s-1.25-1.2-1.9-1.77a13.32,13.32,0,0,0-1.62-1.25,41,41,0,0,0,11.47-6.58A39.27,39.27,0,0,0,418,74.22a44,44,0,0,0,5-10.75c-.6,0-1.58,0-2.93.05s-2.92.06-4.7.07l-5.57.08c-1.94,0-3.82.07-5.65.12l-4.9.13c-1.44,0-2.54.07-3.3.1q0-.75,0-1.95c0-.8-.07-1.59-.1-2.38s-.07-1.4-.1-1.87c1.1.1,2.55.17,4.37.22s3.83.09,6,.1,4.44,0,6.72,0,4.47-.08,6.55-.13,3.92-.1,5.5-.17,2.76-.13,3.53-.2L430,58.79l1.43,1.13a9.09,9.09,0,0,0-.78,1.67c-.25.69-.61,1.53-1.07,2.53a52.4,52.4,0,0,1-9.93,18.25A48.92,48.92,0,0,1,403.39,94.52Zm32.15-34.85a5.06,5.06,0,0,1-3.68-1.5,5.14,5.14,0,0,1,0-7.3,5.06,5.06,0,0,1,3.68-1.5,5.15,5.15,0,1,1,0,10.3Zm0-2.25a2.74,2.74,0,0,0,2-.85,2.9,2.9,0,0,0,0-4.1,2.74,2.74,0,0,0-2-.85,2.9,2.9,0,0,0,0,5.8Z"/><path class="cls-3" d="M6.94,166.56v-44.3H26.49v16.8H12.59v27.5Zm5.65-37.7H21v-2.5H12.59Zm0,6.1H21v-2.5H12.59Zm3.85,31.25a18,18,0,0,0-1.28-2.1,9.61,9.61,0,0,0-1.62-1.8,18,18,0,0,0,5.2-3.17,8.44,8.44,0,0,0,2.3-4.68h-6.3v-4.65h6.6v-3.9h-5.1v-4.35h24.2v4.35h-4.9v3.9h6.35v4.65H35.54v11H30.29v-11H26.14a14.51,14.51,0,0,1-3.28,7.4A17,17,0,0,1,16.44,166.21Zm10-16.4h3.85v-3.9H26.44ZM40,166.51c-.07-.83-.19-1.81-.35-2.92a11.43,11.43,0,0,0-.7-2.73h3.35a1.8,1.8,0,0,0,1.32-.35,1.82,1.82,0,0,0,.33-1.25v-20.2H30v-16.8H49.64v39.15a4.93,4.93,0,0,1-1.38,3.85c-.92.84-2.41,1.25-4.47,1.25Zm-4.6-37.65H44v-2.5H35.44Zm0,6.1H44v-2.5H35.44Z"/><path class="cls-3" d="M75.29,134.41v-4.55h18.9v4.55Zm20,32.15a17.78,17.78,0,0,0-1.1-2.55,10.41,10.41,0,0,0-1.5-2.25v3.7H77.49v-14.4H92.74v10.6a29.72,29.72,0,0,0,5.55-2.1,31.12,31.12,0,0,0,4.8-2.95,28.9,28.9,0,0,1-3-4.62,27.86,27.86,0,0,1-2-5H94.49v-5h3.25c-.57-.53-1.29-1.12-2.15-1.77a18.79,18.79,0,0,0-2.45-1.58,17.43,17.43,0,0,0,2.6-2.67,9.08,9.08,0,0,0,1.47-3.1,17.32,17.32,0,0,0,.48-4.43v-6.1h15.85v11.2a.89.89,0,0,0,.22.7,1.45,1.45,0,0,0,.93.2h.9a1.37,1.37,0,0,0,1.27-.75,9.39,9.39,0,0,0,.53-3.45,13.13,13.13,0,0,0,2.37.8c1,.27,1.91.47,2.68.6a19,19,0,0,1-.88,5.18,4.37,4.37,0,0,1-2,2.5,7.21,7.21,0,0,1-3.37.67H113a7.82,7.82,0,0,1-4-.72,3,3,0,0,1-1.1-2.68v-9.3h-4.55v1.55a20.24,20.24,0,0,1-1.28,7.3A16.29,16.29,0,0,1,97.79,142h18.7l2.2,2.2a36.1,36.1,0,0,1-7.45,12.45,26.37,26.37,0,0,0,4.92,2.83,25.35,25.35,0,0,0,5.63,1.72,17.2,17.2,0,0,0-1.7,2.53,18.89,18.89,0,0,0-1.3,2.62,28.86,28.86,0,0,1-6.45-2.25,26.08,26.08,0,0,1-5.35-3.45,34.43,34.43,0,0,1-11.65,5.9Zm-17.65-25.1v-4.6H92.24v4.6Zm0,7v-4.6H92.24v4.6Zm0-21.1v-4.7h14.5v4.7Zm4.85,33.45h5v-5.2h-5Zm24.6-8A22.15,22.15,0,0,0,111,147h-7.35A17.86,17.86,0,0,0,107.19,152.91Z"/><path class="cls-1" d="M6.94,166.56v-44.3H26.49v16.8H12.59v27.5Zm5.65-37.7H21v-2.5H12.59Zm0,6.1H21v-2.5H12.59Zm3.85,31.25a18,18,0,0,0-1.28-2.1,9.61,9.61,0,0,0-1.62-1.8,18,18,0,0,0,5.2-3.17,8.44,8.44,0,0,0,2.3-4.68h-6.3v-4.65h6.6v-3.9h-5.1v-4.35h24.2v4.35h-4.9v3.9h6.35v4.65H35.54v11H30.29v-11H26.14a14.51,14.51,0,0,1-3.28,7.4A17,17,0,0,1,16.44,166.21Zm10-16.4h3.85v-3.9H26.44ZM40,166.51c-.07-.83-.19-1.81-.35-2.92a11.43,11.43,0,0,0-.7-2.73h3.35a1.8,1.8,0,0,0,1.32-.35,1.82,1.82,0,0,0,.33-1.25v-20.2H30v-16.8H49.64v39.15a4.93,4.93,0,0,1-1.38,3.85c-.92.84-2.41,1.25-4.47,1.25Zm-4.6-37.65H44v-2.5H35.44Zm0,6.1H44v-2.5H35.44Z"/><path class="cls-1" d="M75.29,134.41v-4.55h18.9v4.55Zm20,32.15a17.78,17.78,0,0,0-1.1-2.55,10.41,10.41,0,0,0-1.5-2.25v3.7H77.49v-14.4H92.74v10.6a29.72,29.72,0,0,0,5.55-2.1,31.12,31.12,0,0,0,4.8-2.95,28.9,28.9,0,0,1-3-4.62,27.86,27.86,0,0,1-2-5H94.49v-5h3.25c-.57-.53-1.29-1.12-2.15-1.77a18.79,18.79,0,0,0-2.45-1.58,17.43,17.43,0,0,0,2.6-2.67,9.08,9.08,0,0,0,1.47-3.1,17.32,17.32,0,0,0,.48-4.43v-6.1h15.85v11.2a.89.89,0,0,0,.22.7,1.45,1.45,0,0,0,.93.2h.9a1.37,1.37,0,0,0,1.27-.75,9.39,9.39,0,0,0,.53-3.45,13.13,13.13,0,0,0,2.37.8c1,.27,1.91.47,2.68.6a19,19,0,0,1-.88,5.18,4.37,4.37,0,0,1-2,2.5,7.21,7.21,0,0,1-3.37.67H113a7.82,7.82,0,0,1-4-.72,3,3,0,0,1-1.1-2.68v-9.3h-4.55v1.55a20.24,20.24,0,0,1-1.28,7.3A16.29,16.29,0,0,1,97.79,142h18.7l2.2,2.2a36.1,36.1,0,0,1-7.45,12.45,26.37,26.37,0,0,0,4.92,2.83,25.35,25.35,0,0,0,5.63,1.72,17.2,17.2,0,0,0-1.7,2.53,18.89,18.89,0,0,0-1.3,2.62,28.86,28.86,0,0,1-6.45-2.25,26.08,26.08,0,0,1-5.35-3.45,34.43,34.43,0,0,1-11.65,5.9Zm-17.65-25.1v-4.6H92.24v4.6Zm0,7v-4.6H92.24v4.6Zm0-21.1v-4.7h14.5v4.7Zm4.85,33.45h5v-5.2h-5Zm24.6-8A22.15,22.15,0,0,0,111,147h-7.35A17.86,17.86,0,0,0,107.19,152.91Z"/><path class="cls-4" d="M6.94,166.56v-44.3H26.49v16.8H12.59v27.5Zm5.65-37.7H21v-2.5H12.59Zm0,6.1H21v-2.5H12.59Zm3.85,31.25a18,18,0,0,0-1.28-2.1,9.61,9.61,0,0,0-1.62-1.8,18,18,0,0,0,5.2-3.17,8.44,8.44,0,0,0,2.3-4.68h-6.3v-4.65h6.6v-3.9h-5.1v-4.35h24.2v4.35h-4.9v3.9h6.35v4.65H35.54v11H30.29v-11H26.14a14.51,14.51,0,0,1-3.28,7.4A17,17,0,0,1,16.44,166.21Zm10-16.4h3.85v-3.9H26.44ZM40,166.51c-.07-.83-.19-1.81-.35-2.92a11.43,11.43,0,0,0-.7-2.73h3.35a1.8,1.8,0,0,0,1.32-.35,1.82,1.82,0,0,0,.33-1.25v-20.2H30v-16.8H49.64v39.15a4.93,4.93,0,0,1-1.38,3.85c-.92.84-2.41,1.25-4.47,1.25Zm-4.6-37.65H44v-2.5H35.44Zm0,6.1H44v-2.5H35.44Z"/><path class="cls-4" d="M75.29,134.41v-4.55h18.9v4.55Zm20,32.15a17.78,17.78,0,0,0-1.1-2.55,10.41,10.41,0,0,0-1.5-2.25v3.7H77.49v-14.4H92.74v10.6a29.72,29.72,0,0,0,5.55-2.1,31.12,31.12,0,0,0,4.8-2.95,28.9,28.9,0,0,1-3-4.62,27.86,27.86,0,0,1-2-5H94.49v-5h3.25c-.57-.53-1.29-1.12-2.15-1.77a18.79,18.79,0,0,0-2.45-1.58,17.43,17.43,0,0,0,2.6-2.67,9.08,9.08,0,0,0,1.47-3.1,17.32,17.32,0,0,0,.48-4.43v-6.1h15.85v11.2a.89.89,0,0,0,.22.7,1.45,1.45,0,0,0,.93.2h.9a1.37,1.37,0,0,0,1.27-.75,9.39,9.39,0,0,0,.53-3.45,13.13,13.13,0,0,0,2.37.8c1,.27,1.91.47,2.68.6a19,19,0,0,1-.88,5.18,4.37,4.37,0,0,1-2,2.5,7.21,7.21,0,0,1-3.37.67H113a7.82,7.82,0,0,1-4-.72,3,3,0,0,1-1.1-2.68v-9.3h-4.55v1.55a20.24,20.24,0,0,1-1.28,7.3A16.29,16.29,0,0,1,97.79,142h18.7l2.2,2.2a36.1,36.1,0,0,1-7.45,12.45,26.37,26.37,0,0,0,4.92,2.83,25.35,25.35,0,0,0,5.63,1.72,17.2,17.2,0,0,0-1.7,2.53,18.89,18.89,0,0,0-1.3,2.62,28.86,28.86,0,0,1-6.45-2.25,26.08,26.08,0,0,1-5.35-3.45,34.43,34.43,0,0,1-11.65,5.9Zm-17.65-25.1v-4.6H92.24v4.6Zm0,7v-4.6H92.24v4.6Zm0-21.1v-4.7h14.5v4.7Zm4.85,33.45h5v-5.2h-5Zm24.6-8A22.15,22.15,0,0,0,111,147h-7.35A17.86,17.86,0,0,0,107.19,152.91Z"/><path class="cls-1" d="M159.27,164.76c-.3-.43-.73-1-1.27-1.6s-1.13-1.25-1.73-1.87a9.69,9.69,0,0,0-1.7-1.43,37.18,37.18,0,0,0,8-4.75,20.8,20.8,0,0,0,5.4-6.55,30.6,30.6,0,0,0,3-9.55c-1.93,0-3.81,0-5.62.05l-4.78.1c-1.37,0-2.38.09-3,.15,0-.4,0-1,0-1.85s0-1.67-.05-2.52,0-1.49-.08-1.93c.83.07,2,.12,3.42.15s3.11.05,5,.05h5.85q.15-2.1.15-4.5c0-1.2,0-2.35,0-3.47s-.1-1.88-.13-2.28l1.95.13,2.6.15,2.3.12c0,.34-.08.81-.15,1.43s-.12,1.27-.15,1.95-.07,1.27-.1,1.77c0,.84-.07,1.64-.1,2.4s-.08,1.52-.15,2.25l6.22-.1c2,0,3.79-.08,5.41-.15s2.89-.13,3.82-.2q0,1.6-.15,4.08c-.1,1.65-.22,3.43-.37,5.35s-.33,3.83-.53,5.75-.41,3.69-.62,5.32a34.34,34.34,0,0,1-.73,4,8.93,8.93,0,0,1-2.08,4.2,8,8,0,0,1-4,2.15,32.65,32.65,0,0,1-6.72.8c-.13-.56-.31-1.22-.53-2s-.44-1.5-.69-2.25a12,12,0,0,0-.78-1.88,31,31,0,0,0,5-.22,4.55,4.55,0,0,0,2.6-1.13,5.46,5.46,0,0,0,1.3-2.55,34.22,34.22,0,0,0,.73-3.62c.21-1.42.4-2.88.57-4.4s.3-2.94.4-4.28.15-2.4.15-3.2l-3.53,0-6.17.07a41.52,41.52,0,0,1-3.42,11.58,27.78,27.78,0,0,1-5.91,8.15A40.64,40.64,0,0,1,159.27,164.76Zm35-32.8c-.07-.06-.29-.3-.67-.72s-.84-.91-1.35-1.48-1-1.13-1.55-1.7-1-1.06-1.33-1.47l-.65-.73,2.45-2.15c.1.1.42.45,1,1.05s1.14,1.28,1.83,2l1.82,2c.53.58.85.92.95,1Zm4.35-3.8c-.07-.06-.28-.3-.65-.72l-1.32-1.5-1.55-1.73-1.35-1.45-.68-.7,2.45-2.15.95,1,1.85,2,1.85,2c.53.58.85.92,1,1Z"/><path class="cls-1" d="M240.52,165.06c0-.63.06-1.61.08-2.95s0-2.89.05-4.67,0-3.68,0-5.68,0-4,0-5.95v-5.5q-3.75,2.81-7.45,5.2a77.54,77.54,0,0,1-7.05,4.1,15.78,15.78,0,0,0-1.45-1.47c-.67-.62-1.34-1.23-2-1.83s-1.21-1.05-1.58-1.35a67.92,67.92,0,0,0,8.37-4.5q4.34-2.7,8.46-5.82c2.75-2.08,5.29-4.18,7.65-6.28a72.9,72.9,0,0,0,6-5.9c.4.34.93.75,1.6,1.25s1.36,1,2.07,1.45,1.3.84,1.73,1.1a123.25,123.25,0,0,1-10.2,9.35c0,1.74,0,3.75.05,6s.07,4.68.1,7.13.06,4.79.07,7,.05,4.17.08,5.8,0,2.79,0,3.45Z"/><path class="cls-1" d="M293.92,165.81q0-.8,0-2.85c0-1.36,0-3,.05-4.92s0-4,0-6.25,0-4.56.06-6.93,0-4.66,0-6.87,0-4.23,0-6c0-2.26,0-4.26-.07-6a30.3,30.3,0,0,0-.28-3.68l2.08.15q1.28.11,2.55.18l2.07.12c-.1.64-.18,1.63-.25,3s-.1,3.06-.1,5.12v7.75c1.07-1,1.93-1.86,2.6-2.6a41,41,0,0,0,3.25,2.6c1.23.9,2.52,1.79,3.88,2.65s2.66,1.68,4,2.43,2.42,1.37,3.42,1.87c-.8.77-1.62,1.6-2.45,2.5a20,20,0,0,0-2,2.5q-1.76-1.09-4-2.57t-4.5-3.15q-2.28-1.68-4.13-3.28c0,2.4,0,4.89,0,7.45s0,5,0,7.33,0,4.32,0,6v3.47ZM315,133.21c-.1-.1-.42-.45-1-1.05s-1.14-1.27-1.82-2-1.3-1.42-1.85-2a13.2,13.2,0,0,1-.93-1l2.45-2.15c.1.1.42.45.95,1.05s1.14,1.28,1.83,2l1.82,2c.53.58.85.92.95,1Zm4.35-3.8c-.07-.06-.28-.3-.65-.72l-1.32-1.5-1.56-1.73c-.51-.56-1-1-1.34-1.45l-.68-.7,2.5-2.2q.11.15.93,1l1.84,2,1.83,2c.53.58.85.92.95,1Z"/><path class="cls-2" d="M159.27,164.76c-.3-.43-.73-1-1.27-1.6s-1.13-1.25-1.73-1.87a9.69,9.69,0,0,0-1.7-1.43,37.18,37.18,0,0,0,8-4.75,20.8,20.8,0,0,0,5.4-6.55,30.6,30.6,0,0,0,3-9.55c-1.93,0-3.81,0-5.62.05l-4.78.1c-1.37,0-2.38.09-3,.15,0-.4,0-1,0-1.85s0-1.67-.05-2.52,0-1.49-.08-1.93c.83.07,2,.12,3.42.15s3.11.05,5,.05h5.85q.15-2.1.15-4.5c0-1.2,0-2.35,0-3.47s-.1-1.88-.13-2.28l1.95.13,2.6.15,2.3.12c0,.34-.08.81-.15,1.43s-.12,1.27-.15,1.95-.07,1.27-.1,1.77c0,.84-.07,1.64-.1,2.4s-.08,1.52-.15,2.25l6.22-.1c2,0,3.79-.08,5.41-.15s2.89-.13,3.82-.2q0,1.6-.15,4.08c-.1,1.65-.22,3.43-.37,5.35s-.33,3.83-.53,5.75-.41,3.69-.62,5.32a34.34,34.34,0,0,1-.73,4,8.93,8.93,0,0,1-2.08,4.2,8,8,0,0,1-4,2.15,32.65,32.65,0,0,1-6.72.8c-.13-.56-.31-1.22-.53-2s-.44-1.5-.69-2.25a12,12,0,0,0-.78-1.88,31,31,0,0,0,5-.22,4.55,4.55,0,0,0,2.6-1.13,5.46,5.46,0,0,0,1.3-2.55,34.22,34.22,0,0,0,.73-3.62c.21-1.42.4-2.88.57-4.4s.3-2.94.4-4.28.15-2.4.15-3.2l-3.53,0-6.17.07a41.52,41.52,0,0,1-3.42,11.58,27.78,27.78,0,0,1-5.91,8.15A40.64,40.64,0,0,1,159.27,164.76Zm35-32.8c-.07-.06-.29-.3-.67-.72s-.84-.91-1.35-1.48-1-1.13-1.55-1.7-1-1.06-1.33-1.47l-.65-.73,2.45-2.15c.1.1.42.45,1,1.05s1.14,1.28,1.83,2l1.82,2c.53.58.85.92.95,1Zm4.35-3.8c-.07-.06-.28-.3-.65-.72l-1.32-1.5-1.55-1.73-1.35-1.45-.68-.7,2.45-2.15.95,1,1.85,2,1.85,2c.53.58.85.92,1,1Z"/><path class="cls-2" d="M240.52,165.06c0-.63.06-1.61.08-2.95s0-2.89.05-4.67,0-3.68,0-5.68,0-4,0-5.95v-5.5q-3.75,2.81-7.45,5.2a77.54,77.54,0,0,1-7.05,4.1,15.78,15.78,0,0,0-1.45-1.47c-.67-.62-1.34-1.23-2-1.83s-1.21-1.05-1.58-1.35a67.92,67.92,0,0,0,8.37-4.5q4.34-2.7,8.46-5.82c2.75-2.08,5.29-4.18,7.65-6.28a72.9,72.9,0,0,0,6-5.9c.4.34.93.75,1.6,1.25s1.36,1,2.07,1.45,1.3.84,1.73,1.1a123.25,123.25,0,0,1-10.2,9.35c0,1.74,0,3.75.05,6s.07,4.68.1,7.13.06,4.79.07,7,.05,4.17.08,5.8,0,2.79,0,3.45Z"/><path class="cls-2" d="M293.92,165.81q0-.8,0-2.85c0-1.36,0-3,.05-4.92s0-4,0-6.25,0-4.56.06-6.93,0-4.66,0-6.87,0-4.23,0-6c0-2.26,0-4.26-.07-6a30.3,30.3,0,0,0-.28-3.68l2.08.15q1.28.11,2.55.18l2.07.12c-.1.64-.18,1.63-.25,3s-.1,3.06-.1,5.12v7.75c1.07-1,1.93-1.86,2.6-2.6a41,41,0,0,0,3.25,2.6c1.23.9,2.52,1.79,3.88,2.65s2.66,1.68,4,2.43,2.42,1.37,3.42,1.87c-.8.77-1.62,1.6-2.45,2.5a20,20,0,0,0-2,2.5q-1.76-1.09-4-2.57t-4.5-3.15q-2.28-1.68-4.13-3.28c0,2.4,0,4.89,0,7.45s0,5,0,7.33,0,4.32,0,6v3.47ZM315,133.21c-.1-.1-.42-.45-1-1.05s-1.14-1.27-1.82-2-1.3-1.42-1.85-2a13.2,13.2,0,0,1-.93-1l2.45-2.15c.1.1.42.45.95,1.05s1.14,1.28,1.83,2l1.82,2c.53.58.85.92.95,1Zm4.35-3.8c-.07-.06-.28-.3-.65-.72l-1.32-1.5-1.56-1.73c-.51-.56-1-1-1.34-1.45l-.68-.7,2.5-2.2q.11.15.93,1l1.84,2,1.83,2c.53.58.85.92.95,1Z"/><path class="cls-5" d="M116.28,25.07a6.78,6.78,0,0,0-.42-.71,8.87,8.87,0,0,0-.55-.81,3.53,3.53,0,0,0-.59-.66,11.45,11.45,0,0,0,3.93-1.32,6,6,0,0,0,2.21-2.12,5.13,5.13,0,0,0,.7-2.6,5.74,5.74,0,0,0-.59-2.63,5.12,5.12,0,0,0-1.7-2,6,6,0,0,0-2.71-1,33.93,33.93,0,0,1-.78,4.77,22.91,22.91,0,0,1-1.3,3.93,9.73,9.73,0,0,1-1.66,2.67,2.6,2.6,0,0,1-1.88,1,3.22,3.22,0,0,1-1.59-.46,5,5,0,0,1-1.42-1.31,7.28,7.28,0,0,1-1-2,8.25,8.25,0,0,1-.38-2.54,8.09,8.09,0,0,1,.6-3.08,7.89,7.89,0,0,1,1.76-2.64,8.18,8.18,0,0,1,2.84-1.83,10.24,10.24,0,0,1,3.84-.67,9.31,9.31,0,0,1,3.62.65,7.66,7.66,0,0,1,2.66,1.75A7.38,7.38,0,0,1,123.5,14a7.6,7.6,0,0,1,.56,2.9,7.28,7.28,0,0,1-2,5.17A11.57,11.57,0,0,1,116.28,25.07Zm-5.48-4.2c.23,0,.5-.24.81-.7a10,10,0,0,0,1-2,22.86,22.86,0,0,0,.93-3,30.88,30.88,0,0,0,.67-3.88,6.15,6.15,0,0,0-2.89,1.13,5.83,5.83,0,0,0-1.8,2.16,6.35,6.35,0,0,0-.33,4.58,3.58,3.58,0,0,0,.72,1.29A1.32,1.32,0,0,0,110.8,20.87Z"/><path class="cls-5" d="M135.66,25.37a11.21,11.21,0,0,0-1.29-.39,10.67,10.67,0,0,0-1.25-.27c.39-.94.76-2,1.12-3.1s.7-2.32,1-3.54.62-2.44.88-3.64c-1.08.08-2.08.12-3,.12a5.73,5.73,0,0,0,0-.74c0-.31,0-.62,0-.93a6.69,6.69,0,0,0-.08-.73c.5,0,1.06,0,1.69,0s1.28-.05,1.93-.1c.15-.78.26-1.5.32-2.16a16.66,16.66,0,0,0,.1-1.7l.76.14.95.13.83.07c-.05.49-.13,1-.24,1.6s-.21,1.14-.32,1.72l1.09-.12c.34,0,.65-.09.91-.14,0,.32,0,.71,0,1.19s.07.84.09,1.11l-1.21.16-1.45.16c-.21.9-.45,1.89-.72,2.95s-.53,2.11-.8,3.17-.51,2-.74,2.89S135.81,24.82,135.66,25.37Zm7.76-.62a11,11,0,0,1-2.92-.61,6.76,6.76,0,0,1-2-1.21,9.3,9.3,0,0,0,.6-1,5.48,5.48,0,0,0,.46-1.09,5.62,5.62,0,0,0,1.73,1.07,7.48,7.48,0,0,0,2.31.53c.59,0,1.24.05,1.95,0s1.41,0,2.08-.08,1.25-.09,1.73-.14c0,.21,0,.47-.09.79s0,.61-.07.9,0,.51,0,.69c-.5.06-1.09.11-1.75.15s-1.33,0-2,0S144,24.8,143.42,24.75ZM148.66,16c-.69-.2-1.47-.38-2.33-.54s-1.71-.3-2.56-.4-1.59-.18-2.25-.2a10.69,10.69,0,0,0,.35-1.08,10.08,10.08,0,0,0,.27-1.1,15.32,15.32,0,0,1,1.69.1c.64.06,1.29.15,2,.26s1.32.22,1.93.35,1.15.25,1.6.37a9.92,9.92,0,0,0-.42,1.1A5.55,5.55,0,0,0,148.66,16Z"/><path class="cls-5" d="M168.76,25.25a7.65,7.65,0,0,0-.66-1.11,4.49,4.49,0,0,0-.82-.95,9.47,9.47,0,0,0,4.54-1.71,4,4,0,0,0,1.58-3.23,4.36,4.36,0,0,0-.69-2.39,4.18,4.18,0,0,0-2.23-1.65c-.21.6-.44,1.18-.7,1.75s-.52,1.11-.82,1.65c-.17.3-.35.61-.55.92a10.61,10.61,0,0,1-.61.88l.54.49.6.45a7.3,7.3,0,0,0-.58.51c-.21.2-.41.41-.59.61a5.78,5.78,0,0,0-.41.5,6.69,6.69,0,0,1-1-.84,11.24,11.24,0,0,1-2.23,1.78,4.32,4.32,0,0,1-2.19.68,2.73,2.73,0,0,1-1.48-.48,3.77,3.77,0,0,1-1.23-1.4,4.81,4.81,0,0,1-.49-2.24,6.32,6.32,0,0,1,1-3.31,9,9,0,0,1,2.55-2.69c-.21-.71-.4-1.43-.57-2.17s-.32-1.49-.47-2.25c.38,0,.79-.05,1.24-.11l1.14-.17c.08.6.18,1.2.29,1.81s.24,1.2.37,1.79a9,9,0,0,1,1.72-.52,9.41,9.41,0,0,1,1.84-.18,8.78,8.78,0,0,1,1.06.06c.15-.59.27-1.17.37-1.74a10.67,10.67,0,0,0,.17-1.58,12.41,12.41,0,0,0,1.27.21c.5.06.9.09,1.19.11-.09.57-.2,1.14-.32,1.71s-.26,1.13-.42,1.71a6.45,6.45,0,0,1,3.5,2.36,6.21,6.21,0,0,1,1.18,3.74,6,6,0,0,1-.86,3.2,7.09,7.09,0,0,1-2.44,2.36A12.26,12.26,0,0,1,168.76,25.25Zm-6.64-4a2.5,2.5,0,0,0,1.37-.48,8.48,8.48,0,0,0,1.45-1.24,15.4,15.4,0,0,1-1.12-1.85,20.86,20.86,0,0,1-.9-2.09,6.67,6.67,0,0,0-1.49,1.84,4.25,4.25,0,0,0-.55,2,2.19,2.19,0,0,0,.36,1.38A1.12,1.12,0,0,0,162.12,21.25Zm4.26-3.56q.23-.33.42-.66c.14-.23.26-.45.38-.66a16.43,16.43,0,0,0,1.08-2.56,1.37,1.37,0,0,0-.29,0h-.31a6.64,6.64,0,0,0-1.48.16,6.76,6.76,0,0,0-1.36.44c.2.58.43,1.15.68,1.71A13.67,13.67,0,0,0,166.38,17.69Z"/><path class="cls-5" d="M194.28,25.07a6.78,6.78,0,0,0-.42-.71,8.87,8.87,0,0,0-.55-.81,3.53,3.53,0,0,0-.59-.66,11.45,11.45,0,0,0,3.93-1.32,6,6,0,0,0,2.21-2.12,5.13,5.13,0,0,0,.7-2.6,5.74,5.74,0,0,0-.59-2.63,5.12,5.12,0,0,0-1.7-2,6,6,0,0,0-2.71-1,33.93,33.93,0,0,1-.78,4.77,22.91,22.91,0,0,1-1.3,3.93,9.73,9.73,0,0,1-1.66,2.67,2.6,2.6,0,0,1-1.88,1,3.22,3.22,0,0,1-1.59-.46,5,5,0,0,1-1.42-1.31,7.28,7.28,0,0,1-1-2,8.25,8.25,0,0,1-.38-2.54,8.09,8.09,0,0,1,.6-3.08,7.89,7.89,0,0,1,1.76-2.64,8.18,8.18,0,0,1,2.84-1.83,10.24,10.24,0,0,1,3.84-.67,9.31,9.31,0,0,1,3.62.65,7.66,7.66,0,0,1,2.66,1.75A7.38,7.38,0,0,1,201.5,14a7.6,7.6,0,0,1,.56,2.9,7.28,7.28,0,0,1-2,5.17A11.57,11.57,0,0,1,194.28,25.07Zm-5.48-4.2c.23,0,.5-.24.81-.7a10,10,0,0,0,1-2,22.86,22.86,0,0,0,.93-3,30.88,30.88,0,0,0,.67-3.88,6.15,6.15,0,0,0-2.89,1.13,5.83,5.83,0,0,0-1.8,2.16,6.35,6.35,0,0,0-.33,4.58,3.58,3.58,0,0,0,.72,1.29A1.32,1.32,0,0,0,188.8,20.87Z"/></g></g></svg>