<svg xmlns="http://www.w3.org/2000/svg" viewBox="0 0 476.16 205.44"><defs><style>.cls-1,.cls-5,.cls-6{fill:#f6f5eb;}.cls-1,.cls-2,.cls-3,.cls-5{stroke:#333;stroke-miterlimit:10;}.cls-1,.cls-2,.cls-8{stroke-width:2px;}.cls-2,.cls-4{fill:#ffd900;}.cls-3,.cls-8{fill:none;}.cls-3{stroke-width:4px;}.cls-7{fill:#333;}.cls-8{stroke:#000;stroke-linecap:round;stroke-linejoin:round;}</style></defs><g id="レイヤー_2" data-name="レイヤー 2"><g id="レイヤー_1-2" data-name="レイヤー 1"><path class="cls-1" d="M449,175.43l4.05-3.49a.69.69,0,0,0-.29-1.2l-30.18-7.09a1.65,1.65,0,0,0-1.13.15l-29,15.17a1.14,1.14,0,0,0-.61,1v7.68a4.42,4.42,0,0,0,2.25,3.67l31.58,13a1.1,1.1,0,0,0,1.15-.19l26.29-22.62a.6.6,0,0,0-.29-1l-3.09-.56"/><path class="cls-2" d="M449.75,175.8v5.08a1.08,1.08,0,0,1-.37.81L426.78,201a1.39,1.39,0,0,1-1.42.24L396,189.72a1.15,1.15,0,0,1-.73-1.07v-6.72a.63.63,0,0,1,.85-.59l29.52,11.38a1.34,1.34,0,0,0,1.31-.19l22-17.1A.46.46,0,0,1,449.75,175.8Z"/><path class="cls-1" d="M453.91,168.42s2.68-.47,2.37-.71-17.48-10-17.48-10l-40.43,9.42a.68.68,0,0,0-.54.67v5.4a.68.68,0,0,0,.23.51l16.38,14.92,41.17-14.21a.61.61,0,0,0,.13-1.1l-1.83-1.14"/><polygon class="cls-2" points="414.52 181.55 400.36 169.37 400.36 173.25 414.28 185.9 453.91 172.22 453.91 168.42 414.52 181.55"/><path class="cls-3" d="M47.16,59.49a3.62,3.62,0,0,0-.56-.71,10.32,10.32,0,0,0-.82-.8,4.13,4.13,0,0,0-.82-.59,13.69,13.69,0,0,0,2.95-2.49,11.77,11.77,0,0,0,2-3.24,18.57,18.57,0,0,0,1.17-4.31,37.07,37.07,0,0,0,.39-5.74H47.81l.23.15a29.72,29.72,0,0,1-1.39,2.69A30.23,30.23,0,0,1,45,47c.42.32.88.67,1.4,1s1,.73,1.5,1.05l1.17.79a7.7,7.7,0,0,0-.93,1,9.53,9.53,0,0,0-.84,1.1L46,51c-.49-.37-1-.76-1.47-1.18v9.55H41.66V50.74c-.41.38-.85.76-1.31,1.12s-.93.72-1.41,1A7.12,7.12,0,0,0,38,51.76c-.41-.41-.76-.75-1.06-1a16.17,16.17,0,0,0,2-1.43,25.51,25.51,0,0,0,2-1.88,22.24,22.24,0,0,0,1.79-2.05,13.27,13.27,0,0,0,1.27-1.94h-6V40.81h3.5v-4.1h2.85v4.1h2.25l1,.73V38.91h12.1v4.38c0,1.61,0,3.14-.11,4.56s-.16,2.69-.26,3.79-.19,2-.28,2.67a7.54,7.54,0,0,1-.87,3,3.46,3.46,0,0,1-1.7,1.5,6.59,6.59,0,0,1-2.53.43H52.61c0-.29-.08-.62-.15-1s-.14-.76-.23-1.14a5.79,5.79,0,0,0-.29-.91h2A3,3,0,0,0,55,56a1.26,1.26,0,0,0,.68-.68,6,6,0,0,0,.43-1.47c.1-.46.2-1.21.31-2.22s.2-2.24.28-3.68.11-3,.11-4.67V41.61H54.39a38.71,38.71,0,0,1-.78,7.88,17.25,17.25,0,0,1-2.28,5.74A15.88,15.88,0,0,1,47.16,59.49Zm.7-11a7,7,0,0,0-.93-.82,4.71,4.71,0,0,0-1-.65,15.76,15.76,0,0,0,1.27-1.59,11.73,11.73,0,0,0,1-1.66l2.2,1.4a12.35,12.35,0,0,1-.73,1.06q-.46.64-1,1.26A11.7,11.7,0,0,1,47.86,48.46Z"/><path class="cls-3" d="M72.11,54.26a11.78,11.78,0,0,0-1.3-.77,9.36,9.36,0,0,0-1.4-.63,15.48,15.48,0,0,0,1.13-1.63q.6-1,1.14-2.1c.36-.75.68-1.47,1-2.18a14.92,14.92,0,0,0,.62-1.86l2.9,1a16.45,16.45,0,0,1-.7,2c-.3.73-.63,1.48-1,2.24s-.75,1.47-1.16,2.15A16.07,16.07,0,0,1,72.11,54.26Zm8.55,4.5a4,4,0,0,1-2.25-.48,2,2,0,0,1-.65-1.64V43.31h3.1v11.8a.71.71,0,0,0,.2.57,1.42,1.42,0,0,0,.78.16H85a1.52,1.52,0,0,0,1.42-.65A6.25,6.25,0,0,0,87,52.76c.24.12.53.25.88.39s.71.27,1.09.39.7.21,1,.27a13.41,13.41,0,0,1-.75,3.12,2.72,2.72,0,0,1-1.22,1.45,4.83,4.83,0,0,1-2.08.38Zm3.73-15.9a21.26,21.26,0,0,0-2-1.46c-.74-.49-1.49-.95-2.24-1.39a21.2,21.2,0,0,0-2-1l1.5-2.37a23,23,0,0,1,2.24,1.11c.82.46,1.62.93,2.38,1.41a18.66,18.66,0,0,1,1.88,1.33c-.18.2-.4.45-.64.76s-.46.61-.66.91A7.34,7.34,0,0,0,84.39,42.86Zm6.77,9.93a21.86,21.86,0,0,0-2.4-3.68,22.23,22.23,0,0,0-3-3.07L88,44.19a18,18,0,0,1,2.07,2,30.25,30.25,0,0,1,2.08,2.45,23,23,0,0,1,1.6,2.35,5.58,5.58,0,0,0-.88.51c-.35.24-.68.49-1,.74S91.31,52.64,91.16,52.79Z"/><path class="cls-3" d="M108,59.34V51.89q-2.12.95-4.62,1.9a5.66,5.66,0,0,0-.35-.88c-.17-.35-.35-.68-.54-1a6.16,6.16,0,0,0-.51-.76,47.91,47.91,0,0,0,5.6-2,32.82,32.82,0,0,0,4.92-2.63h-9.75V43.94h8.9v-2.1h-6.3V39.26h6.3V36.54h3v2.72h3.6v2.15A21.47,21.47,0,0,0,121,37.14l2.65,1.37a38.78,38.78,0,0,1-4.08,5.43h6v2.57h-8.67c-.52.44-1,.85-1.59,1.25s-1.1.79-1.69,1.15h8.15V59.34ZM111,53h8v-1.7h-8Zm0,3.9h8V55.21h-8Zm3.7-13h1.2c.37-.34.73-.68,1.07-1s.67-.71,1-1.07h-3.25Z"/><path class="cls-4" d="M47.16,59.49a3.62,3.62,0,0,0-.56-.71,10.32,10.32,0,0,0-.82-.8,4.13,4.13,0,0,0-.82-.59,13.69,13.69,0,0,0,2.95-2.49,11.77,11.77,0,0,0,2-3.24,18.57,18.57,0,0,0,1.17-4.31,37.07,37.07,0,0,0,.39-5.74H47.81l.23.15a29.72,29.72,0,0,1-1.39,2.69A30.23,30.23,0,0,1,45,47c.42.32.88.67,1.4,1s1,.73,1.5,1.05l1.17.79a7.7,7.7,0,0,0-.93,1,9.53,9.53,0,0,0-.84,1.1L46,51c-.49-.37-1-.76-1.47-1.18v9.55H41.66V50.74c-.41.38-.85.76-1.31,1.12s-.93.72-1.41,1A7.12,7.12,0,0,0,38,51.76c-.41-.41-.76-.75-1.06-1a16.17,16.17,0,0,0,2-1.43,25.51,25.51,0,0,0,2-1.88,22.24,22.24,0,0,0,1.79-2.05,13.27,13.27,0,0,0,1.27-1.94h-6V40.81h3.5v-4.1h2.85v4.1h2.25l1,.73V38.91h12.1v4.38c0,1.61,0,3.14-.11,4.56s-.16,2.69-.26,3.79-.19,2-.28,2.67a7.54,7.54,0,0,1-.87,3,3.46,3.46,0,0,1-1.7,1.5,6.59,6.59,0,0,1-2.53.43H52.61c0-.29-.08-.62-.15-1s-.14-.76-.23-1.14a5.79,5.79,0,0,0-.29-.91h2A3,3,0,0,0,55,56a1.26,1.26,0,0,0,.68-.68,6,6,0,0,0,.43-1.47c.1-.46.2-1.21.31-2.22s.2-2.24.28-3.68.11-3,.11-4.67V41.61H54.39a38.71,38.71,0,0,1-.78,7.88,17.25,17.25,0,0,1-2.28,5.74A15.88,15.88,0,0,1,47.16,59.49Zm.7-11a7,7,0,0,0-.93-.82,4.71,4.71,0,0,0-1-.65,15.76,15.76,0,0,0,1.27-1.59,11.73,11.73,0,0,0,1-1.66l2.2,1.4a12.35,12.35,0,0,1-.73,1.06q-.46.64-1,1.26A11.7,11.7,0,0,1,47.86,48.46Z"/><path class="cls-4" d="M72.11,54.26a11.78,11.78,0,0,0-1.3-.77,9.36,9.36,0,0,0-1.4-.63,15.48,15.48,0,0,0,1.13-1.63q.6-1,1.14-2.1c.36-.75.68-1.47,1-2.18a14.92,14.92,0,0,0,.62-1.86l2.9,1a16.45,16.45,0,0,1-.7,2c-.3.73-.63,1.48-1,2.24s-.75,1.47-1.16,2.15A16.07,16.07,0,0,1,72.11,54.26Zm8.55,4.5a4,4,0,0,1-2.25-.48,2,2,0,0,1-.65-1.64V43.31h3.1v11.8a.71.71,0,0,0,.2.57,1.42,1.42,0,0,0,.78.16H85a1.52,1.52,0,0,0,1.42-.65A6.25,6.25,0,0,0,87,52.76c.24.12.53.25.88.39s.71.27,1.09.39.7.21,1,.27a13.41,13.41,0,0,1-.75,3.12,2.72,2.72,0,0,1-1.22,1.45,4.83,4.83,0,0,1-2.08.38Zm3.73-15.9a21.26,21.26,0,0,0-2-1.46c-.74-.49-1.49-.95-2.24-1.39a21.2,21.2,0,0,0-2-1l1.5-2.37a23,23,0,0,1,2.24,1.11c.82.46,1.62.93,2.38,1.41a18.66,18.66,0,0,1,1.88,1.33c-.18.2-.4.45-.64.76s-.46.61-.66.91A7.34,7.34,0,0,0,84.39,42.86Zm6.77,9.93a21.86,21.86,0,0,0-2.4-3.68,22.23,22.23,0,0,0-3-3.07L88,44.19a18,18,0,0,1,2.07,2,30.25,30.25,0,0,1,2.08,2.45,23,23,0,0,1,1.6,2.35,5.58,5.58,0,0,0-.88.51c-.35.24-.68.49-1,.74S91.31,52.64,91.16,52.79Z"/><path class="cls-4" d="M108,59.34V51.89q-2.12.95-4.62,1.9a5.66,5.66,0,0,0-.35-.88c-.17-.35-.35-.68-.54-1a6.16,6.16,0,0,0-.51-.76,47.91,47.91,0,0,0,5.6-2,32.82,32.82,0,0,0,4.92-2.63h-9.75V43.94h8.9v-2.1h-6.3V39.26h6.3V36.54h3v2.72h3.6v2.15A21.47,21.47,0,0,0,121,37.14l2.65,1.37a38.78,38.78,0,0,1-4.08,5.43h6v2.57h-8.67c-.52.44-1,.85-1.59,1.25s-1.1.79-1.69,1.15h8.15V59.34ZM111,53h8v-1.7h-8Zm0,3.9h8V55.21h-8Zm3.7-13h1.2c.37-.34.73-.68,1.07-1s.67-.71,1-1.07h-3.25Z"/><path class="cls-5" d="M58.51,130.35c0-.73.07-1.77.1-3.12s.07-2.82.1-4.4.06-3.13.08-4.63,0-2.77,0-3.8a87.86,87.86,0,0,1-15,8.5,11.29,11.29,0,0,0-1.1-1.55c-.53-.67-1.08-1.33-1.65-2a14.81,14.81,0,0,0-1.4-1.5,51.83,51.83,0,0,0,6.9-2.75,67.76,67.76,0,0,0,6.85-3.77,54.32,54.32,0,0,0,5.93-4.28,24.86,24.86,0,0,0,4.12-4.25l-3.32,0c-1.32,0-2.73,0-4.25.07s-3,.08-4.45.13l-3.9.12c-1.15,0-2,.08-2.63.15a14.24,14.24,0,0,0,0-1.72c0-.79,0-1.58-.08-2.38s-.06-1.42-.1-1.85c.77.07,1.84.12,3.2.15s2.9,0,4.6,0l5.25,0,5.2-.08c1.67,0,3.15-.08,4.45-.15s2.29-.13,2.95-.2a9,9,0,0,1,.83.83c.35.38.7.75,1,1.1s.61.6.77.77c-.33.4-.71.9-1.15,1.5s-.88,1.2-1.35,1.8A35.69,35.69,0,0,1,68,106.33c-1,1-2,2.09-3.1,3.12,0,1.07,0,2.34,0,3.83s0,3,0,4.72,0,3.3,0,4.9,0,3,.05,4.35,0,2.33,0,3.1Zm7.2-34.5a27.53,27.53,0,0,0-2.57-1.35q-1.68-.8-3.63-1.62c-1.3-.55-2.53-1-3.7-1.5a29.91,29.91,0,0,0-2.85-1c.27-.37.6-.88,1-1.55l1.2-2c.4-.69.7-1.21.9-1.58.77.23,1.75.58,2.93,1s2.42,1,3.7,1.53,2.47,1.07,3.57,1.57,1.94.9,2.5,1.2c-.26.4-.6.94-1,1.63s-.81,1.35-1.18,2S65.91,95.45,65.71,95.85Zm14.5,26.55a26,26,0,0,0-2.57-2.3q-1.62-1.3-3.53-2.65c-1.26-.9-2.49-1.73-3.67-2.5s-2.21-1.38-3.08-1.85a21.94,21.94,0,0,0,1.83-2.25c.65-.9,1.16-1.65,1.52-2.25q1.46.7,3.33,1.83t3.82,2.37q2,1.24,3.63,2.48a25.8,25.8,0,0,1,2.62,2.12q-.54.55-1.32,1.5c-.52.63-1,1.28-1.48,1.93S80.48,122,80.21,122.4Z"/><path class="cls-5" d="M114.86,112.55c-.16-.9-.4-1.92-.72-3.07s-.68-2.3-1.08-3.45a25.68,25.68,0,0,0-1.3-3.13c.74-.17,1.62-.4,2.65-.7l2.5-.7a19.82,19.82,0,0,1,1.13,2.9c.38,1.2.73,2.43,1,3.68s.56,2.35.72,3.32c-.7.17-1.55.35-2.55.55A20.76,20.76,0,0,0,114.86,112.55Zm6.9,17.25a10.78,10.78,0,0,0-1.12-1.3c-.52-.53-1-1-1.58-1.55a14.52,14.52,0,0,0-1.35-1.15q7.91-2.7,11.85-7.6a25.24,25.24,0,0,0,5.05-12.55c.14-.9.28-1.87.43-2.9s.24-1.78.27-2.25l1.75.38c.74.15,1.47.27,2.2.37s1.29.17,1.65.2c-.13.47-.29,1.13-.47,2s-.36,1.7-.53,2.57a37.48,37.48,0,0,1-3.42,10.8,25.06,25.06,0,0,1-6,7.63A35.21,35.21,0,0,1,121.76,129.8Zm2.6-19.15a47.7,47.7,0,0,0-.72-5,31.37,31.37,0,0,0-1.28-4.75l1.65-.27c.67-.12,1.35-.25,2-.4l1.57-.33a24.19,24.19,0,0,1,.85,3c.27,1.18.51,2.37.73,3.57a28,28,0,0,1,.42,3.2A15.68,15.68,0,0,0,128,110l-2,.38Z"/><path class="cls-5" d="M180,130q0-.8,0-2.85c0-1.37,0-3,.05-4.92s0-4,0-6.25,0-4.56.05-6.93,0-4.66.05-6.87,0-4.23,0-6q0-3.41-.07-6a26.48,26.48,0,0,0-.28-3.68l2.08.15q1.27.1,2.55.18l2.07.12c-.1.63-.18,1.63-.25,3s-.1,3-.1,5.12v7.75c1.07-1,1.94-1.87,2.6-2.6.94.83,2,1.7,3.25,2.6s2.53,1.78,3.88,2.65,2.67,1.68,3.95,2.43,2.42,1.37,3.42,1.87c-.8.77-1.61,1.6-2.45,2.5a19.29,19.29,0,0,0-2,2.5c-1.16-.73-2.49-1.59-4-2.57s-3-2-4.5-3.15-2.89-2.21-4.13-3.28q0,3.6,0,7.45c0,2.57,0,5,0,7.33s0,4.31,0,6V130Z"/><path class="cls-5" d="M243.76,112.4a33.42,33.42,0,0,0-3.67-2.65q-2.13-1.35-4.38-2.6t-4.2-2.15a28.72,28.72,0,0,0,1.7-2.52c.6-1,1.14-1.91,1.6-2.78,1,.47,2.09,1,3.25,1.68s2.35,1.33,3.53,2.05,2.28,1.41,3.3,2.1,1.84,1.27,2.47,1.77c-.5.63-1.1,1.46-1.8,2.48Zm-6.1,15.75c-.23-.43-.59-1.06-1.07-1.87s-1-1.62-1.48-2.4a13.17,13.17,0,0,0-1.2-1.68,57.63,57.63,0,0,0,10-3.17A79,79,0,0,0,254,114a82.3,82.3,0,0,0,9.38-6.5,69.57,69.57,0,0,0,8-7.45c.07.37.19.88.35,1.53s.35,1.32.55,2,.4,1.33.6,1.9a11.55,11.55,0,0,0,.45,1.15,65,65,0,0,1-7.3,6.63,90.87,90.87,0,0,1-8.75,6.07,90.37,90.37,0,0,1-9.62,5.13A75.24,75.24,0,0,1,237.66,128.15ZM250.46,101a39.9,39.9,0,0,0-3.65-2.7q-2.1-1.39-4.3-2.7a44.9,44.9,0,0,0-4.15-2.2c.54-.7,1.11-1.53,1.73-2.5s1.17-1.88,1.67-2.75c1,.5,2,1.08,3.18,1.75s2.31,1.37,3.47,2.1,2.25,1.45,3.25,2.15,1.82,1.32,2.45,1.85c-.5.6-1.1,1.41-1.82,2.43Z"/><path class="cls-5" d="M303,126.7a10.61,10.61,0,0,0,0-1.5q0-1,0-2.1a12.19,12.19,0,0,0-.05-1.45c.57,0,1.53.06,2.88.08l4.67,0,5.4,0,5,0h3.6V116.7H321l-4.55,0-4.75,0-4.27,0c-1.28,0-2.29,0-3,.07v-3.52a13.23,13.23,0,0,0-.05-1.48c.64,0,1.55.06,2.73.08l3.95,0,4.5,0,4.42,0h4.65V107.1h-3.4l-5,0c-1.82,0-3.61,0-5.38.07l-4.67.08c-1.35,0-2.29,0-2.83.07a9.94,9.94,0,0,0,0-1.47c0-.72,0-1.45,0-2.18a14.26,14.26,0,0,0-.05-1.55c.47,0,1.36.06,2.68.08l4.72,0h11.53l4.82,0c1.37,0,2.32,0,2.85-.08,0,.5-.05,1.37-.07,2.6s0,2.68,0,4.33v10.4c0,1.68,0,3.15,0,4.42s0,2.18.07,2.75c-.53,0-1.49-.06-2.87-.07s-3,0-4.88,0h-5.82c-2,0-3.94,0-5.78,0l-4.77,0C304.39,126.64,303.48,126.67,303,126.7Z"/><path class="cls-5" d="M369.86,112.55c-.16-.9-.4-1.92-.72-3.07s-.68-2.3-1.08-3.45a25.68,25.68,0,0,0-1.3-3.13c.74-.17,1.62-.4,2.65-.7l2.5-.7a19.82,19.82,0,0,1,1.13,2.9c.38,1.2.73,2.43,1,3.68s.56,2.35.72,3.32c-.7.17-1.55.35-2.55.55A20.76,20.76,0,0,0,369.86,112.55Zm6.9,17.25a10.78,10.78,0,0,0-1.12-1.3c-.52-.53-1-1-1.58-1.55a14.52,14.52,0,0,0-1.35-1.15q7.91-2.7,11.85-7.6a25.24,25.24,0,0,0,5.05-12.55c.14-.9.28-1.87.43-2.9s.24-1.78.27-2.25l1.75.38c.74.15,1.47.27,2.2.37s1.29.17,1.65.2c-.13.47-.29,1.13-.47,2s-.36,1.7-.53,2.57a37.48,37.48,0,0,1-3.42,10.8,25.06,25.06,0,0,1-6,7.63A35.21,35.21,0,0,1,376.76,129.8Zm2.6-19.15a47.7,47.7,0,0,0-.72-5,31.37,31.37,0,0,0-1.28-4.75l1.65-.27c.67-.12,1.35-.25,2-.4l1.57-.33a24.19,24.19,0,0,1,.85,3c.27,1.18.51,2.37.73,3.57a28,28,0,0,1,.42,3.2A15.68,15.68,0,0,0,383,110l-2,.38Z"/><path class="cls-5" d="M436.86,128.6c-.36-.43-.85-1-1.47-1.57s-1.25-1.21-1.9-1.78a12.57,12.57,0,0,0-1.63-1.25,41.25,41.25,0,0,0,11.48-6.57,39.51,39.51,0,0,0,8.15-9.13,43.62,43.62,0,0,0,5-10.75c-.6,0-1.57,0-2.92,0s-2.92.06-4.7.08-3.64,0-5.58.07-3.81.08-5.65.13l-4.9.12c-1.43,0-2.53.07-3.3.1a15.65,15.65,0,0,0,0-1.95c0-.8-.06-1.59-.1-2.37s-.06-1.41-.1-1.88c1.1.1,2.56.18,4.38.23s3.82.08,6,.1,4.45,0,6.73,0,4.47-.07,6.55-.12,3.92-.11,5.5-.18,2.76-.13,3.52-.2c.37.27.88.66,1.53,1.18L464.91,94a9.63,9.63,0,0,0-.77,1.68q-.37,1-1.08,2.52a52.22,52.22,0,0,1-9.92,18.25A48.86,48.86,0,0,1,436.86,128.6ZM469,93.75a5.05,5.05,0,0,1-3.67-1.5,5.12,5.12,0,0,1,0-7.3,5.05,5.05,0,0,1,3.67-1.5,5.15,5.15,0,1,1,0,10.3Zm0-2.25a2.71,2.71,0,0,0,2-.85,2.9,2.9,0,0,0,0-4.1,2.71,2.71,0,0,0-2-.85,2.79,2.79,0,0,0-2.05.85,2.9,2.9,0,0,0,0,4.1A2.79,2.79,0,0,0,469,91.5Z"/><path class="cls-3" d="M58.51,130.35c0-.73.07-1.77.1-3.12s.07-2.82.1-4.4.06-3.13.08-4.63,0-2.77,0-3.8a87.86,87.86,0,0,1-15,8.5,11.29,11.29,0,0,0-1.1-1.55c-.53-.67-1.08-1.33-1.65-2a14.81,14.81,0,0,0-1.4-1.5,51.83,51.83,0,0,0,6.9-2.75,67.76,67.76,0,0,0,6.85-3.77,54.32,54.32,0,0,0,5.93-4.28,24.86,24.86,0,0,0,4.12-4.25l-3.32,0c-1.32,0-2.73,0-4.25.07s-3,.08-4.45.13l-3.9.12c-1.15,0-2,.08-2.63.15a14.24,14.24,0,0,0,0-1.72c0-.79,0-1.58-.08-2.38s-.06-1.42-.1-1.85c.77.07,1.84.12,3.2.15s2.9,0,4.6,0l5.25,0,5.2-.08c1.67,0,3.15-.08,4.45-.15s2.29-.13,2.95-.2a9,9,0,0,1,.83.83c.35.38.7.75,1,1.1s.61.6.77.77c-.33.4-.71.9-1.15,1.5s-.88,1.2-1.35,1.8A35.69,35.69,0,0,1,68,106.33c-1,1-2,2.09-3.1,3.12,0,1.07,0,2.34,0,3.83s0,3,0,4.72,0,3.3,0,4.9,0,3,.05,4.35,0,2.33,0,3.1Zm7.2-34.5a27.53,27.53,0,0,0-2.57-1.35q-1.68-.8-3.63-1.62c-1.3-.55-2.53-1-3.7-1.5a29.91,29.91,0,0,0-2.85-1c.27-.37.6-.88,1-1.55l1.2-2c.4-.69.7-1.21.9-1.58.77.23,1.75.58,2.93,1s2.42,1,3.7,1.53,2.47,1.07,3.57,1.57,1.94.9,2.5,1.2c-.26.4-.6.94-1,1.63s-.81,1.35-1.18,2S65.91,95.45,65.71,95.85Zm14.5,26.55a26,26,0,0,0-2.57-2.3q-1.62-1.3-3.53-2.65c-1.26-.9-2.49-1.73-3.67-2.5s-2.21-1.38-3.08-1.85a21.94,21.94,0,0,0,1.83-2.25c.65-.9,1.16-1.65,1.52-2.25q1.46.7,3.33,1.83t3.82,2.37q2,1.24,3.63,2.48a25.8,25.8,0,0,1,2.62,2.12q-.54.55-1.32,1.5c-.52.63-1,1.28-1.48,1.93S80.48,122,80.21,122.4Z"/><path class="cls-3" d="M114.86,112.55c-.16-.9-.4-1.92-.72-3.07s-.68-2.3-1.08-3.45a25.68,25.68,0,0,0-1.3-3.13c.74-.17,1.62-.4,2.65-.7l2.5-.7a19.82,19.82,0,0,1,1.13,2.9c.38,1.2.73,2.43,1,3.68s.56,2.35.72,3.32c-.7.17-1.55.35-2.55.55A20.76,20.76,0,0,0,114.86,112.55Zm6.9,17.25a10.78,10.78,0,0,0-1.12-1.3c-.52-.53-1-1-1.58-1.55a14.52,14.52,0,0,0-1.35-1.15q7.91-2.7,11.85-7.6a25.24,25.24,0,0,0,5.05-12.55c.14-.9.28-1.87.43-2.9s.24-1.78.27-2.25l1.75.38c.74.15,1.47.27,2.2.37s1.29.17,1.65.2c-.13.47-.29,1.13-.47,2s-.36,1.7-.53,2.57a37.48,37.48,0,0,1-3.42,10.8,25.06,25.06,0,0,1-6,7.63A35.21,35.21,0,0,1,121.76,129.8Zm2.6-19.15a47.7,47.7,0,0,0-.72-5,31.37,31.37,0,0,0-1.28-4.75l1.65-.27c.67-.12,1.35-.25,2-.4l1.57-.33a24.19,24.19,0,0,1,.85,3c.27,1.18.51,2.37.73,3.57a28,28,0,0,1,.42,3.2A15.68,15.68,0,0,0,128,110l-2,.38Z"/><path class="cls-3" d="M180,130q0-.8,0-2.85c0-1.37,0-3,.05-4.92s0-4,0-6.25,0-4.56.05-6.93,0-4.66.05-6.87,0-4.23,0-6q0-3.41-.07-6a26.48,26.48,0,0,0-.28-3.68l2.08.15q1.27.1,2.55.18l2.07.12c-.1.63-.18,1.63-.25,3s-.1,3-.1,5.12v7.75c1.07-1,1.94-1.87,2.6-2.6.94.83,2,1.7,3.25,2.6s2.53,1.78,3.88,2.65,2.67,1.68,3.95,2.43,2.42,1.37,3.42,1.87c-.8.77-1.61,1.6-2.45,2.5a19.29,19.29,0,0,0-2,2.5c-1.16-.73-2.49-1.59-4-2.57s-3-2-4.5-3.15-2.89-2.21-4.13-3.28q0,3.6,0,7.45c0,2.57,0,5,0,7.33s0,4.31,0,6V130Z"/><path class="cls-3" d="M243.76,112.4a33.42,33.42,0,0,0-3.67-2.65q-2.13-1.35-4.38-2.6t-4.2-2.15a28.72,28.72,0,0,0,1.7-2.52c.6-1,1.14-1.91,1.6-2.78,1,.47,2.09,1,3.25,1.68s2.35,1.33,3.53,2.05,2.28,1.41,3.3,2.1,1.84,1.27,2.47,1.77c-.5.63-1.1,1.46-1.8,2.48Zm-6.1,15.75c-.23-.43-.59-1.06-1.07-1.87s-1-1.62-1.48-2.4a13.17,13.17,0,0,0-1.2-1.68,57.63,57.63,0,0,0,10-3.17A79,79,0,0,0,254,114a82.3,82.3,0,0,0,9.38-6.5,69.57,69.57,0,0,0,8-7.45c.07.37.19.88.35,1.53s.35,1.32.55,2,.4,1.33.6,1.9a11.55,11.55,0,0,0,.45,1.15,65,65,0,0,1-7.3,6.63,90.87,90.87,0,0,1-8.75,6.07,90.37,90.37,0,0,1-9.62,5.13A75.24,75.24,0,0,1,237.66,128.15ZM250.46,101a39.9,39.9,0,0,0-3.65-2.7q-2.1-1.39-4.3-2.7a44.9,44.9,0,0,0-4.15-2.2c.54-.7,1.11-1.53,1.73-2.5s1.17-1.88,1.67-2.75c1,.5,2,1.08,3.18,1.75s2.31,1.37,3.47,2.1,2.25,1.45,3.25,2.15,1.82,1.32,2.45,1.85c-.5.6-1.1,1.41-1.82,2.43Z"/><path class="cls-3" d="M303,126.7a10.61,10.61,0,0,0,0-1.5q0-1,0-2.1a12.19,12.19,0,0,0-.05-1.45c.57,0,1.53.06,2.88.08l4.67,0,5.4,0,5,0h3.6V116.7H321l-4.55,0-4.75,0-4.27,0c-1.28,0-2.29,0-3,.07v-3.52a13.23,13.23,0,0,0-.05-1.48c.64,0,1.55.06,2.73.08l3.95,0,4.5,0,4.42,0h4.65V107.1h-3.4l-5,0c-1.82,0-3.61,0-5.38.07l-4.67.08c-1.35,0-2.29,0-2.83.07a9.94,9.94,0,0,0,0-1.47c0-.72,0-1.45,0-2.18a14.26,14.26,0,0,0-.05-1.55c.47,0,1.36.06,2.68.08l4.72,0h11.53l4.82,0c1.37,0,2.32,0,2.85-.08,0,.5-.05,1.37-.07,2.6s0,2.68,0,4.33v10.4c0,1.68,0,3.15,0,4.42s0,2.18.07,2.75c-.53,0-1.49-.06-2.87-.07s-3,0-4.88,0h-5.82c-2,0-3.94,0-5.78,0l-4.77,0C304.39,126.64,303.48,126.67,303,126.7Z"/><path class="cls-3" d="M369.86,112.55c-.16-.9-.4-1.92-.72-3.07s-.68-2.3-1.08-3.45a25.68,25.68,0,0,0-1.3-3.13c.74-.17,1.62-.4,2.65-.7l2.5-.7a19.82,19.82,0,0,1,1.13,2.9c.38,1.2.73,2.43,1,3.68s.56,2.35.72,3.32c-.7.17-1.55.35-2.55.55A20.76,20.76,0,0,0,369.86,112.55Zm6.9,17.25a10.78,10.78,0,0,0-1.12-1.3c-.52-.53-1-1-1.58-1.55a14.52,14.52,0,0,0-1.35-1.15q7.91-2.7,11.85-7.6a25.24,25.24,0,0,0,5.05-12.55c.14-.9.28-1.87.43-2.9s.24-1.78.27-2.25l1.75.38c.74.15,1.47.27,2.2.37s1.29.17,1.65.2c-.13.47-.29,1.13-.47,2s-.36,1.7-.53,2.57a37.48,37.48,0,0,1-3.42,10.8,25.06,25.06,0,0,1-6,7.63A35.21,35.21,0,0,1,376.76,129.8Zm2.6-19.15a47.7,47.7,0,0,0-.72-5,31.37,31.37,0,0,0-1.28-4.75l1.65-.27c.67-.12,1.35-.25,2-.4l1.57-.33a24.19,24.19,0,0,1,.85,3c.27,1.18.51,2.37.73,3.57a28,28,0,0,1,.42,3.2A15.68,15.68,0,0,0,383,110l-2,.38Z"/><path class="cls-3" d="M436.86,128.6c-.36-.43-.85-1-1.47-1.57s-1.25-1.21-1.9-1.78a12.57,12.57,0,0,0-1.63-1.25,41.25,41.25,0,0,0,11.48-6.57,39.51,39.51,0,0,0,8.15-9.13,43.62,43.62,0,0,0,5-10.75c-.6,0-1.57,0-2.92,0s-2.92.06-4.7.08-3.64,0-5.58.07-3.81.08-5.65.13l-4.9.12c-1.43,0-2.53.07-3.3.1a15.65,15.65,0,0,0,0-1.95c0-.8-.06-1.59-.1-2.37s-.06-1.41-.1-1.88c1.1.1,2.56.18,4.38.23s3.82.08,6,.1,4.45,0,6.73,0,4.47-.07,6.55-.12,3.92-.11,5.5-.18,2.76-.13,3.52-.2c.37.27.88.66,1.53,1.18L464.91,94a9.63,9.63,0,0,0-.77,1.68q-.37,1-1.08,2.52a52.22,52.22,0,0,1-9.92,18.25A48.86,48.86,0,0,1,436.86,128.6ZM469,93.75a5.05,5.05,0,0,1-3.67-1.5,5.12,5.12,0,0,1,0-7.3,5.05,5.05,0,0,1,3.67-1.5,5.15,5.15,0,1,1,0,10.3Zm0-2.25a2.71,2.71,0,0,0,2-.85,2.9,2.9,0,0,0,0-4.1,2.71,2.71,0,0,0-2-.85,2.79,2.79,0,0,0-2.05.85,2.9,2.9,0,0,0,0,4.1A2.79,2.79,0,0,0,469,91.5Z"/><path class="cls-6" d="M58.51,130.35c0-.73.07-1.77.1-3.12s.07-2.82.1-4.4.06-3.13.08-4.63,0-2.77,0-3.8a87.86,87.86,0,0,1-15,8.5,11.29,11.29,0,0,0-1.1-1.55c-.53-.67-1.08-1.33-1.65-2a14.81,14.81,0,0,0-1.4-1.5,51.83,51.83,0,0,0,6.9-2.75,67.76,67.76,0,0,0,6.85-3.77,54.32,54.32,0,0,0,5.93-4.28,24.86,24.86,0,0,0,4.12-4.25l-3.32,0c-1.32,0-2.73,0-4.25.07s-3,.08-4.45.13l-3.9.12c-1.15,0-2,.08-2.63.15a14.24,14.24,0,0,0,0-1.72c0-.79,0-1.58-.08-2.38s-.06-1.42-.1-1.85c.77.07,1.84.12,3.2.15s2.9,0,4.6,0l5.25,0,5.2-.08c1.67,0,3.15-.08,4.45-.15s2.29-.13,2.95-.2a9,9,0,0,1,.83.83c.35.38.7.75,1,1.1s.61.6.77.77c-.33.4-.71.9-1.15,1.5s-.88,1.2-1.35,1.8A35.69,35.69,0,0,1,68,106.33c-1,1-2,2.09-3.1,3.12,0,1.07,0,2.34,0,3.83s0,3,0,4.72,0,3.3,0,4.9,0,3,.05,4.35,0,2.33,0,3.1Zm7.2-34.5a27.53,27.53,0,0,0-2.57-1.35q-1.68-.8-3.63-1.62c-1.3-.55-2.53-1-3.7-1.5a29.91,29.91,0,0,0-2.85-1c.27-.37.6-.88,1-1.55l1.2-2c.4-.69.7-1.21.9-1.58.77.23,1.75.58,2.93,1s2.42,1,3.7,1.53,2.47,1.07,3.57,1.57,1.94.9,2.5,1.2c-.26.4-.6.94-1,1.63s-.81,1.35-1.18,2S65.91,95.45,65.71,95.85Zm14.5,26.55a26,26,0,0,0-2.57-2.3q-1.62-1.3-3.53-2.65c-1.26-.9-2.49-1.73-3.67-2.5s-2.21-1.38-3.08-1.85a21.94,21.94,0,0,0,1.83-2.25c.65-.9,1.16-1.65,1.52-2.25q1.46.7,3.33,1.83t3.82,2.37q2,1.24,3.63,2.48a25.8,25.8,0,0,1,2.62,2.12q-.54.55-1.32,1.5c-.52.63-1,1.28-1.48,1.93S80.48,122,80.21,122.4Z"/><path class="cls-6" d="M114.86,112.55c-.16-.9-.4-1.92-.72-3.07s-.68-2.3-1.08-3.45a25.68,25.68,0,0,0-1.3-3.13c.74-.17,1.62-.4,2.65-.7l2.5-.7a19.82,19.82,0,0,1,1.13,2.9c.38,1.2.73,2.43,1,3.68s.56,2.35.72,3.32c-.7.17-1.55.35-2.55.55A20.76,20.76,0,0,0,114.86,112.55Zm6.9,17.25a10.78,10.78,0,0,0-1.12-1.3c-.52-.53-1-1-1.58-1.55a14.52,14.52,0,0,0-1.35-1.15q7.91-2.7,11.85-7.6a25.24,25.24,0,0,0,5.05-12.55c.14-.9.28-1.87.43-2.9s.24-1.78.27-2.25l1.75.38c.74.15,1.47.27,2.2.37s1.29.17,1.65.2c-.13.47-.29,1.13-.47,2s-.36,1.7-.53,2.57a37.48,37.48,0,0,1-3.42,10.8,25.06,25.06,0,0,1-6,7.63A35.21,35.21,0,0,1,121.76,129.8Zm2.6-19.15a47.7,47.7,0,0,0-.72-5,31.37,31.37,0,0,0-1.28-4.75l1.65-.27c.67-.12,1.35-.25,2-.4l1.57-.33a24.19,24.19,0,0,1,.85,3c.27,1.18.51,2.37.73,3.57a28,28,0,0,1,.42,3.2A15.68,15.68,0,0,0,128,110l-2,.38Z"/><path class="cls-6" d="M180,130q0-.8,0-2.85c0-1.37,0-3,.05-4.92s0-4,0-6.25,0-4.56.05-6.93,0-4.66.05-6.87,0-4.23,0-6q0-3.41-.07-6a26.48,26.48,0,0,0-.28-3.68l2.08.15q1.27.1,2.55.18l2.07.12c-.1.63-.18,1.63-.25,3s-.1,3-.1,5.12v7.75c1.07-1,1.94-1.87,2.6-2.6.94.83,2,1.7,3.25,2.6s2.53,1.78,3.88,2.65,2.67,1.68,3.95,2.43,2.42,1.37,3.42,1.87c-.8.77-1.61,1.6-2.45,2.5a19.29,19.29,0,0,0-2,2.5c-1.16-.73-2.49-1.59-4-2.57s-3-2-4.5-3.15-2.89-2.21-4.13-3.28q0,3.6,0,7.45c0,2.57,0,5,0,7.33s0,4.31,0,6V130Z"/><path class="cls-6" d="M243.76,112.4a33.42,33.42,0,0,0-3.67-2.65q-2.13-1.35-4.38-2.6t-4.2-2.15a28.72,28.72,0,0,0,1.7-2.52c.6-1,1.14-1.91,1.6-2.78,1,.47,2.09,1,3.25,1.68s2.35,1.33,3.53,2.05,2.28,1.41,3.3,2.1,1.84,1.27,2.47,1.77c-.5.63-1.1,1.46-1.8,2.48Zm-6.1,15.75c-.23-.43-.59-1.06-1.07-1.87s-1-1.62-1.48-2.4a13.17,13.17,0,0,0-1.2-1.68,57.63,57.63,0,0,0,10-3.17A79,79,0,0,0,254,114a82.3,82.3,0,0,0,9.38-6.5,69.57,69.57,0,0,0,8-7.45c.07.37.19.88.35,1.53s.35,1.32.55,2,.4,1.33.6,1.9a11.55,11.55,0,0,0,.45,1.15,65,65,0,0,1-7.3,6.63,90.87,90.87,0,0,1-8.75,6.07,90.37,90.37,0,0,1-9.62,5.13A75.24,75.24,0,0,1,237.66,128.15ZM250.46,101a39.9,39.9,0,0,0-3.65-2.7q-2.1-1.39-4.3-2.7a44.9,44.9,0,0,0-4.15-2.2c.54-.7,1.11-1.53,1.73-2.5s1.17-1.88,1.67-2.75c1,.5,2,1.08,3.18,1.75s2.31,1.37,3.47,2.1,2.25,1.45,3.25,2.15,1.82,1.32,2.45,1.85c-.5.6-1.1,1.41-1.82,2.43Z"/><path class="cls-6" d="M303,126.7a10.61,10.61,0,0,0,0-1.5q0-1,0-2.1a12.19,12.19,0,0,0-.05-1.45c.57,0,1.53.06,2.88.08l4.67,0,5.4,0,5,0h3.6V116.7H321l-4.55,0-4.75,0-4.27,0c-1.28,0-2.29,0-3,.07v-3.52a13.23,13.23,0,0,0-.05-1.48c.64,0,1.55.06,2.73.08l3.95,0,4.5,0,4.42,0h4.65V107.1h-3.4l-5,0c-1.82,0-3.61,0-5.38.07l-4.67.08c-1.35,0-2.29,0-2.83.07a9.94,9.94,0,0,0,0-1.47c0-.72,0-1.45,0-2.18a14.26,14.26,0,0,0-.05-1.55c.47,0,1.36.06,2.68.08l4.72,0h11.53l4.82,0c1.37,0,2.32,0,2.85-.08,0,.5-.05,1.37-.07,2.6s0,2.68,0,4.33v10.4c0,1.68,0,3.15,0,4.42s0,2.18.07,2.75c-.53,0-1.49-.06-2.87-.07s-3,0-4.88,0h-5.82c-2,0-3.94,0-5.78,0l-4.77,0C304.39,126.64,303.48,126.67,303,126.7Z"/><path class="cls-6" d="M369.86,112.55c-.16-.9-.4-1.92-.72-3.07s-.68-2.3-1.08-3.45a25.68,25.68,0,0,0-1.3-3.13c.74-.17,1.62-.4,2.65-.7l2.5-.7a19.82,19.82,0,0,1,1.13,2.9c.38,1.2.73,2.43,1,3.68s.56,2.35.72,3.32c-.7.17-1.55.35-2.55.55A20.76,20.76,0,0,0,369.86,112.55Zm6.9,17.25a10.78,10.78,0,0,0-1.12-1.3c-.52-.53-1-1-1.58-1.55a14.52,14.52,0,0,0-1.35-1.15q7.91-2.7,11.85-7.6a25.24,25.24,0,0,0,5.05-12.55c.14-.9.28-1.87.43-2.9s.24-1.78.27-2.25l1.75.38c.74.15,1.47.27,2.2.37s1.29.17,1.65.2c-.13.47-.29,1.13-.47,2s-.36,1.7-.53,2.57a37.48,37.48,0,0,1-3.42,10.8,25.06,25.06,0,0,1-6,7.63A35.21,35.21,0,0,1,376.76,129.8Zm2.6-19.15a47.7,47.7,0,0,0-.72-5,31.37,31.37,0,0,0-1.28-4.75l1.65-.27c.67-.12,1.35-.25,2-.4l1.57-.33a24.19,24.19,0,0,1,.85,3c.27,1.18.51,2.37.73,3.57a28,28,0,0,1,.42,3.2A15.68,15.68,0,0,0,383,110l-2,.38Z"/><path class="cls-6" d="M436.86,128.6c-.36-.43-.85-1-1.47-1.57s-1.25-1.21-1.9-1.78a12.57,12.57,0,0,0-1.63-1.25,41.25,41.25,0,0,0,11.48-6.57,39.51,39.51,0,0,0,8.15-9.13,43.62,43.62,0,0,0,5-10.75c-.6,0-1.57,0-2.92,0s-2.92.06-4.7.08-3.64,0-5.58.07-3.81.08-5.65.13l-4.9.12c-1.43,0-2.53.07-3.3.1a15.65,15.65,0,0,0,0-1.95c0-.8-.06-1.59-.1-2.37s-.06-1.41-.1-1.88c1.1.1,2.56.18,4.38.23s3.82.08,6,.1,4.45,0,6.73,0,4.47-.07,6.55-.12,3.92-.11,5.5-.18,2.76-.13,3.52-.2c.37.27.88.66,1.53,1.18L464.91,94a9.63,9.63,0,0,0-.77,1.68q-.37,1-1.08,2.52a52.22,52.22,0,0,1-9.92,18.25A48.86,48.86,0,0,1,436.86,128.6ZM469,93.75a5.05,5.05,0,0,1-3.67-1.5,5.12,5.12,0,0,1,0-7.3,5.05,5.05,0,0,1,3.67-1.5,5.15,5.15,0,1,1,0,10.3Zm0-2.25a2.71,2.71,0,0,0,2-.85,2.9,2.9,0,0,0,0-4.1,2.71,2.71,0,0,0-2-.85,2.79,2.79,0,0,0-2.05.85,2.9,2.9,0,0,0,0,4.1A2.79,2.79,0,0,0,469,91.5Z"/><path class="cls-5" d="M40.41,200.65V156.34H60v16.81H46.06v27.5ZM46.06,163h8.45v-2.5H46.06Zm0,6.1h8.45v-2.5H46.06Zm3.85,31.25a15.26,15.26,0,0,0-1.27-2.1A8.75,8.75,0,0,0,47,196.4a17.68,17.68,0,0,0,5.2-3.18,8.28,8.28,0,0,0,2.3-4.67h-6.3V183.9h6.6V180h-5.1v-4.35h24.2V180H69v3.9h6.35v4.65H69v11H63.76v-11H59.61a14.46,14.46,0,0,1-3.27,7.4A17.16,17.16,0,0,1,49.91,200.3Zm10-16.4h3.85V180H59.91Zm13.6,16.69c-.06-.83-.18-1.8-.35-2.92a10.88,10.88,0,0,0-.7-2.72h3.35a1.32,1.32,0,0,0,1.65-1.61V173.15h-14V156.34H83.11V195.5a4.92,4.92,0,0,1-1.37,3.84c-.92.84-2.41,1.25-4.48,1.25ZM68.91,163h8.55v-2.5H68.91Zm0,6.1h8.55v-2.5H68.91Z"/><path class="cls-5" d="M108.76,168.5V164h18.9v4.55Zm20,32.15a16.36,16.36,0,0,0-1.1-2.56,10.41,10.41,0,0,0-1.5-2.25v3.71H111v-14.4h15.25v10.6a30.61,30.61,0,0,0,5.55-2.1,30.94,30.94,0,0,0,4.8-3,31,31,0,0,1-2.95-4.63,28.32,28.32,0,0,1-2-5H128v-5h3.25a24.61,24.61,0,0,0-2.15-1.77,17.41,17.41,0,0,0-2.45-1.57,17,17,0,0,0,2.6-2.68,8.91,8.91,0,0,0,1.48-3.1,17.28,17.28,0,0,0,.47-4.42v-6.1H147v11.2a.88.88,0,0,0,.23.69,1.42,1.42,0,0,0,.92.21h.9a1.38,1.38,0,0,0,1.28-.75,9.26,9.26,0,0,0,.52-3.46,14.32,14.32,0,0,0,2.38.81q1.53.39,2.67.6a18.71,18.71,0,0,1-.87,5.17,4.37,4.37,0,0,1-1.95,2.5,7.25,7.25,0,0,1-3.38.67h-3.25a7.87,7.87,0,0,1-4-.72,3,3,0,0,1-1.1-2.67v-9.3h-4.55V163a20.12,20.12,0,0,1-1.27,7.3,16.26,16.26,0,0,1-4.28,5.84H150l2.2,2.21a36,36,0,0,1-7.45,12.45,26.42,26.42,0,0,0,4.93,2.82,26,26,0,0,0,5.62,1.73,17.29,17.29,0,0,0-1.7,2.52,20.13,20.13,0,0,0-1.3,2.63,30.28,30.28,0,0,1-6.45-2.25,27.23,27.23,0,0,1-5.35-3.45A33.73,33.73,0,0,1,135,198.2,35.1,35.1,0,0,1,128.81,200.65Zm-17.65-25.1V171h14.55v4.6Zm0,7V178h14.55v4.59Zm0-21.09v-4.7h14.5v4.7ZM116.06,195h5v-5.2h-5Zm24.6-7.95a22.11,22.11,0,0,0,3.85-5.91h-7.35A18.08,18.08,0,0,0,140.66,187Z"/><path class="cls-3" d="M40.41,200.65V156.34H60v16.81H46.06v27.5ZM46.06,163h8.45v-2.5H46.06Zm0,6.1h8.45v-2.5H46.06Zm3.85,31.25a15.26,15.26,0,0,0-1.27-2.1A8.75,8.75,0,0,0,47,196.4a17.68,17.68,0,0,0,5.2-3.18,8.28,8.28,0,0,0,2.3-4.67h-6.3V183.9h6.6V180h-5.1v-4.35h24.2V180H69v3.9h6.35v4.65H69v11H63.76v-11H59.61a14.46,14.46,0,0,1-3.27,7.4A17.16,17.16,0,0,1,49.91,200.3Zm10-16.4h3.85V180H59.91Zm13.6,16.69c-.06-.83-.18-1.8-.35-2.92a10.88,10.88,0,0,0-.7-2.72h3.35a1.32,1.32,0,0,0,1.65-1.61V173.15h-14V156.34H83.11V195.5a4.92,4.92,0,0,1-1.37,3.84c-.92.84-2.41,1.25-4.48,1.25ZM68.91,163h8.55v-2.5H68.91Zm0,6.1h8.55v-2.5H68.91Z"/><path class="cls-3" d="M108.76,168.5V164h18.9v4.55Zm20,32.15a16.36,16.36,0,0,0-1.1-2.56,10.41,10.41,0,0,0-1.5-2.25v3.71H111v-14.4h15.25v10.6a30.61,30.61,0,0,0,5.55-2.1,30.94,30.94,0,0,0,4.8-3,31,31,0,0,1-2.95-4.63,28.32,28.32,0,0,1-2-5H128v-5h3.25a24.61,24.61,0,0,0-2.15-1.77,17.41,17.41,0,0,0-2.45-1.57,17,17,0,0,0,2.6-2.68,8.91,8.91,0,0,0,1.48-3.1,17.28,17.28,0,0,0,.47-4.42v-6.1H147v11.2a.88.88,0,0,0,.23.69,1.42,1.42,0,0,0,.92.21h.9a1.38,1.38,0,0,0,1.28-.75,9.26,9.26,0,0,0,.52-3.46,14.32,14.32,0,0,0,2.38.81q1.53.39,2.67.6a18.71,18.71,0,0,1-.87,5.17,4.37,4.37,0,0,1-1.95,2.5,7.25,7.25,0,0,1-3.38.67h-3.25a7.87,7.87,0,0,1-4-.72,3,3,0,0,1-1.1-2.67v-9.3h-4.55V163a20.12,20.12,0,0,1-1.27,7.3,16.26,16.26,0,0,1-4.28,5.84H150l2.2,2.21a36,36,0,0,1-7.45,12.45,26.42,26.42,0,0,0,4.93,2.82,26,26,0,0,0,5.62,1.73,17.29,17.29,0,0,0-1.7,2.52,20.13,20.13,0,0,0-1.3,2.63,30.28,30.28,0,0,1-6.45-2.25,27.23,27.23,0,0,1-5.35-3.45A33.73,33.73,0,0,1,135,198.2,35.1,35.1,0,0,1,128.81,200.65Zm-17.65-25.1V171h14.55v4.6Zm0,7V178h14.55v4.59Zm0-21.09v-4.7h14.5v4.7ZM116.06,195h5v-5.2h-5Zm24.6-7.95a22.11,22.11,0,0,0,3.85-5.91h-7.35A18.08,18.08,0,0,0,140.66,187Z"/><path class="cls-6" d="M40.41,200.65V156.34H60v16.81H46.06v27.5ZM46.06,163h8.45v-2.5H46.06Zm0,6.1h8.45v-2.5H46.06Zm3.85,31.25a15.26,15.26,0,0,0-1.27-2.1A8.75,8.75,0,0,0,47,196.4a17.68,17.68,0,0,0,5.2-3.18,8.28,8.28,0,0,0,2.3-4.67h-6.3V183.9h6.6V180h-5.1v-4.35h24.2V180H69v3.9h6.35v4.65H69v11H63.76v-11H59.61a14.46,14.46,0,0,1-3.27,7.4A17.16,17.16,0,0,1,49.91,200.3Zm10-16.4h3.85V180H59.91Zm13.6,16.69c-.06-.83-.18-1.8-.35-2.92a10.88,10.88,0,0,0-.7-2.72h3.35a1.32,1.32,0,0,0,1.65-1.61V173.15h-14V156.34H83.11V195.5a4.92,4.92,0,0,1-1.37,3.84c-.92.84-2.41,1.25-4.48,1.25ZM68.91,163h8.55v-2.5H68.91Zm0,6.1h8.55v-2.5H68.91Z"/><path class="cls-6" d="M108.76,168.5V164h18.9v4.55Zm20,32.15a16.36,16.36,0,0,0-1.1-2.56,10.41,10.41,0,0,0-1.5-2.25v3.71H111v-14.4h15.25v10.6a30.61,30.61,0,0,0,5.55-2.1,30.94,30.94,0,0,0,4.8-3,31,31,0,0,1-2.95-4.63,28.32,28.32,0,0,1-2-5H128v-5h3.25a24.61,24.61,0,0,0-2.15-1.77,17.41,17.41,0,0,0-2.45-1.57,17,17,0,0,0,2.6-2.68,8.91,8.91,0,0,0,1.48-3.1,17.28,17.28,0,0,0,.47-4.42v-6.1H147v11.2a.88.88,0,0,0,.23.69,1.42,1.42,0,0,0,.92.21h.9a1.38,1.38,0,0,0,1.28-.75,9.26,9.26,0,0,0,.52-3.46,14.32,14.32,0,0,0,2.38.81q1.53.39,2.67.6a18.71,18.71,0,0,1-.87,5.17,4.37,4.37,0,0,1-1.95,2.5,7.25,7.25,0,0,1-3.38.67h-3.25a7.87,7.87,0,0,1-4-.72,3,3,0,0,1-1.1-2.67v-9.3h-4.55V163a20.12,20.12,0,0,1-1.27,7.3,16.26,16.26,0,0,1-4.28,5.84H150l2.2,2.21a36,36,0,0,1-7.45,12.45,26.42,26.42,0,0,0,4.93,2.82,26,26,0,0,0,5.62,1.73,17.29,17.29,0,0,0-1.7,2.52,20.13,20.13,0,0,0-1.3,2.63,30.28,30.28,0,0,1-6.45-2.25,27.23,27.23,0,0,1-5.35-3.45A33.73,33.73,0,0,1,135,198.2,35.1,35.1,0,0,1,128.81,200.65Zm-17.65-25.1V171h14.55v4.6Zm0,7V178h14.55v4.59Zm0-21.09v-4.7h14.5v4.7ZM116.06,195h5v-5.2h-5Zm24.6-7.95a22.11,22.11,0,0,0,3.85-5.91h-7.35A18.08,18.08,0,0,0,140.66,187Z"/><path class="cls-3" d="M192.75,198.84a19.78,19.78,0,0,0-1.28-1.59c-.55-.64-1.12-1.26-1.72-1.88a9.18,9.18,0,0,0-1.7-1.42,37.25,37.25,0,0,0,8-4.75,20.64,20.64,0,0,0,5.4-6.55,30.4,30.4,0,0,0,3-9.56c-1.94,0-3.81,0-5.63.06s-3.41.06-4.77.1-2.39.08-3.05.15c0-.4,0-1,0-1.85s0-1.68-.05-2.53,0-1.49-.07-1.93c.83.07,2,.12,3.42.16s3.11.05,5,.05h5.85q.15-2.1.15-4.5c0-1.21,0-2.36,0-3.48s-.09-1.87-.12-2.27l2,.12,2.6.15,2.3.13c0,.33-.08.8-.15,1.42s-.12,1.27-.15,1.95-.07,1.27-.1,1.77c0,.84-.07,1.64-.1,2.41s-.08,1.51-.15,2.25l6.22-.1q3-.06,5.4-.15c1.62-.07,2.89-.14,3.83-.2,0,1.06-.05,2.42-.15,4.07s-.23,3.43-.38,5.35-.32,3.83-.52,5.75-.41,3.69-.63,5.33a33.32,33.32,0,0,1-.72,4,9.17,9.17,0,0,1-2.08,4.2,8.14,8.14,0,0,1-4,2.15,34.2,34.2,0,0,1-6.72.8c-.14-.57-.31-1.23-.53-2s-.45-1.5-.7-2.25a13.15,13.15,0,0,0-.77-1.88,31.08,31.08,0,0,0,5-.22,4.65,4.65,0,0,0,2.6-1.12,5.66,5.66,0,0,0,1.3-2.55,34.71,34.71,0,0,0,.72-3.63c.22-1.42.41-2.88.58-4.4s.3-2.94.4-4.27.15-2.4.15-3.2l-3.53,0-6.17.08a41.53,41.53,0,0,1-3.43,11.57,27.75,27.75,0,0,1-5.9,8.15A40.28,40.28,0,0,1,192.75,198.84Zm35-32.79-.68-.73-1.35-1.48-1.55-1.69c-.51-.57-1-1.06-1.32-1.48s-.59-.66-.65-.72l2.45-2.15.95,1c.53.61,1.14,1.28,1.82,2s1.29,1.42,1.83,2l.95,1Zm4.35-3.8c-.07-.07-.29-.31-.65-.73l-1.33-1.5c-.51-.58-1-1.16-1.55-1.72s-1-1.05-1.35-1.46-.6-.63-.67-.69L229,154c.1.09.41.44.95,1l1.85,2,1.85,2,.95,1Z"/><path class="cls-3" d="M274,199.15c0-.64.06-1.62.07-3s0-2.9.05-4.68,0-3.68.05-5.68,0-4,0-5.94v-5.5c-2.5,1.86-5,3.6-7.45,5.19a77.77,77.77,0,0,1-7.05,4.11,17,17,0,0,0-1.45-1.48c-.67-.62-1.34-1.22-2-1.82s-1.21-1.06-1.57-1.35a70.72,70.72,0,0,0,8.37-4.5q4.34-2.7,8.45-5.83t7.65-6.27a78.33,78.33,0,0,0,6-5.9c.4.33.93.75,1.6,1.25s1.36,1,2.07,1.45,1.29.83,1.73,1.09a126.58,126.58,0,0,1-10.2,9.36c0,1.73,0,3.75.05,6.05s.06,4.67.1,7.12.06,4.79.07,7,0,4.16.08,5.8,0,2.78,0,3.45Z"/><path class="cls-3" d="M327.4,199.9c0-.54,0-1.49,0-2.85s0-3,.05-4.93,0-4,0-6.25,0-4.56.05-6.92,0-4.66.05-6.88,0-4.23,0-6q0-3.41-.08-6a28.46,28.46,0,0,0-.27-3.67l2.07.15,2.55.17,2.08.12a29.13,29.13,0,0,0-.25,3c-.07,1.35-.1,3.06-.1,5.13v7.75c1.06-1,1.93-1.87,2.6-2.61a39.24,39.24,0,0,0,3.25,2.61c1.23.89,2.52,1.78,3.87,2.64s2.67,1.68,3.95,2.43,2.43,1.38,3.43,1.88c-.8.76-1.62,1.6-2.45,2.5a18.47,18.47,0,0,0-2,2.5c-1.17-.74-2.49-1.6-4-2.58s-3-2-4.5-3.15-2.89-2.21-4.12-3.27q0,3.6,0,7.44t0,7.33q0,3.48,0,6v3.48Zm21.05-32.6c-.1-.1-.42-.46-.95-1.05s-1.14-1.28-1.83-2-1.3-1.42-1.85-2a12.78,12.78,0,0,1-.92-1l2.45-2.15.95,1c.53.61,1.14,1.28,1.82,2s1.29,1.42,1.83,2l.95,1Zm4.35-3.8c-.07-.07-.29-.31-.65-.73l-1.33-1.5c-.51-.58-1-1.16-1.55-1.72s-1-1.05-1.35-1.46l-.67-.69,2.5-2.2c.06.1.37.45.92,1.05s1.17,1.27,1.85,2,1.29,1.42,1.83,2l.95,1Z"/><path class="cls-4" d="M192.75,198.84a19.78,19.78,0,0,0-1.28-1.59c-.55-.64-1.12-1.26-1.72-1.88a9.18,9.18,0,0,0-1.7-1.42,37.25,37.25,0,0,0,8-4.75,20.64,20.64,0,0,0,5.4-6.55,30.4,30.4,0,0,0,3-9.56c-1.94,0-3.81,0-5.63.06s-3.41.06-4.77.1-2.39.08-3.05.15c0-.4,0-1,0-1.85s0-1.68-.05-2.53,0-1.49-.07-1.93c.83.07,2,.12,3.42.16s3.11.05,5,.05h5.85q.15-2.1.15-4.5c0-1.21,0-2.36,0-3.48s-.09-1.87-.12-2.27l2,.12,2.6.15,2.3.13c0,.33-.08.8-.15,1.42s-.12,1.27-.15,1.95-.07,1.27-.1,1.77c0,.84-.07,1.64-.1,2.41s-.08,1.51-.15,2.25l6.22-.1q3-.06,5.4-.15c1.62-.07,2.89-.14,3.83-.2,0,1.06-.05,2.42-.15,4.07s-.23,3.43-.38,5.35-.32,3.83-.52,5.75-.41,3.69-.63,5.33a33.32,33.32,0,0,1-.72,4,9.17,9.17,0,0,1-2.08,4.2,8.14,8.14,0,0,1-4,2.15,34.2,34.2,0,0,1-6.72.8c-.14-.57-.31-1.23-.53-2s-.45-1.5-.7-2.25a13.15,13.15,0,0,0-.77-1.88,31.08,31.08,0,0,0,5-.22,4.65,4.65,0,0,0,2.6-1.12,5.66,5.66,0,0,0,1.3-2.55,34.71,34.71,0,0,0,.72-3.63c.22-1.42.41-2.88.58-4.4s.3-2.94.4-4.27.15-2.4.15-3.2l-3.53,0-6.17.08a41.53,41.53,0,0,1-3.43,11.57,27.75,27.75,0,0,1-5.9,8.15A40.28,40.28,0,0,1,192.75,198.84Zm35-32.79-.68-.73-1.35-1.48-1.55-1.69c-.51-.57-1-1.06-1.32-1.48s-.59-.66-.65-.72l2.45-2.15.95,1c.53.61,1.14,1.28,1.82,2s1.29,1.42,1.83,2l.95,1Zm4.35-3.8c-.07-.07-.29-.31-.65-.73l-1.33-1.5c-.51-.58-1-1.16-1.55-1.72s-1-1.05-1.35-1.46-.6-.63-.67-.69L229,154c.1.09.41.44.95,1l1.85,2,1.85,2,.95,1Z"/><path class="cls-4" d="M274,199.15c0-.64.06-1.62.07-3s0-2.9.05-4.68,0-3.68.05-5.68,0-4,0-5.94v-5.5c-2.5,1.86-5,3.6-7.45,5.19a77.77,77.77,0,0,1-7.05,4.11,17,17,0,0,0-1.45-1.48c-.67-.62-1.34-1.22-2-1.82s-1.21-1.06-1.57-1.35a70.72,70.72,0,0,0,8.37-4.5q4.34-2.7,8.45-5.83t7.65-6.27a78.33,78.33,0,0,0,6-5.9c.4.33.93.75,1.6,1.25s1.36,1,2.07,1.45,1.29.83,1.73,1.09a126.58,126.58,0,0,1-10.2,9.36c0,1.73,0,3.75.05,6.05s.06,4.67.1,7.12.06,4.79.07,7,0,4.16.08,5.8,0,2.78,0,3.45Z"/><path class="cls-4" d="M327.4,199.9c0-.54,0-1.49,0-2.85s0-3,.05-4.93,0-4,0-6.25,0-4.56.05-6.92,0-4.66.05-6.88,0-4.23,0-6q0-3.41-.08-6a28.46,28.46,0,0,0-.27-3.67l2.07.15,2.55.17,2.08.12a29.13,29.13,0,0,0-.25,3c-.07,1.35-.1,3.06-.1,5.13v7.75c1.06-1,1.93-1.87,2.6-2.61a39.24,39.24,0,0,0,3.25,2.61c1.23.89,2.52,1.78,3.87,2.64s2.67,1.68,3.95,2.43,2.43,1.38,3.43,1.88c-.8.76-1.62,1.6-2.45,2.5a18.47,18.47,0,0,0-2,2.5c-1.17-.74-2.49-1.6-4-2.58s-3-2-4.5-3.15-2.89-2.21-4.12-3.27q0,3.6,0,7.44t0,7.33q0,3.48,0,6v3.48Zm21.05-32.6c-.1-.1-.42-.46-.95-1.05s-1.14-1.28-1.83-2-1.3-1.42-1.85-2a12.78,12.78,0,0,1-.92-1l2.45-2.15.95,1c.53.61,1.14,1.28,1.82,2s1.29,1.42,1.83,2l.95,1Zm4.35-3.8c-.07-.07-.29-.31-.65-.73l-1.33-1.5c-.51-.58-1-1.16-1.55-1.72s-1-1.05-1.35-1.46l-.67-.69,2.5-2.2c.06.1.37.45.92,1.05s1.17,1.27,1.85,2,1.29,1.42,1.83,2l.95,1Z"/><path class="cls-7" d="M149.76,59.15c-.11-.2-.25-.44-.42-.71s-.36-.55-.55-.81a3.53,3.53,0,0,0-.59-.66,11.6,11.6,0,0,0,3.93-1.32,6,6,0,0,0,2.21-2.12,5.1,5.1,0,0,0,.7-2.6,5.87,5.87,0,0,0-.59-2.63,5.2,5.2,0,0,0-1.7-2,6,6,0,0,0-2.71-1,33.93,33.93,0,0,1-.78,4.77A22.62,22.62,0,0,1,148,54a10,10,0,0,1-1.66,2.67,2.61,2.61,0,0,1-1.88,1,3.22,3.22,0,0,1-1.59-.46,4.73,4.73,0,0,1-1.42-1.31,7,7,0,0,1-1-2,8.25,8.25,0,0,1-.38-2.54,8.12,8.12,0,0,1,.6-3.08,7.89,7.89,0,0,1,1.76-2.64,8.23,8.23,0,0,1,2.84-1.83,10.24,10.24,0,0,1,3.84-.67,9.31,9.31,0,0,1,3.62.65,7.9,7.9,0,0,1,2.66,1.75A7.38,7.38,0,0,1,157,48a7.79,7.79,0,0,1,.56,2.9,7.28,7.28,0,0,1-2,5.17A11.5,11.5,0,0,1,149.76,59.15ZM144.28,55c.23,0,.5-.23.81-.7a10.56,10.56,0,0,0,1-2,26.24,26.24,0,0,0,.93-3,30.57,30.57,0,0,0,.67-3.88,6.11,6.11,0,0,0-2.89,1.13,5.83,5.83,0,0,0-1.8,2.16,6,6,0,0,0-.61,2.67,5.91,5.91,0,0,0,.28,1.91,3.58,3.58,0,0,0,.72,1.29A1.26,1.26,0,0,0,144.28,55Z"/><path class="cls-7" d="M169.14,59.45a16.25,16.25,0,0,0-2.54-.66c.39-.94.76-2,1.12-3.1s.7-2.31,1-3.54.61-2.44.88-3.64c-1.08.08-2.09.12-3,.12,0-.19,0-.44,0-.74s0-.62-.05-.93-.05-.56-.08-.73c.49,0,1.06,0,1.69,0s1.28,0,1.93-.1c.15-.77.25-1.5.32-2.16a16.51,16.51,0,0,0,.1-1.7l.76.14.95.13.83.07c-.05.49-.13,1-.24,1.6s-.21,1.15-.32,1.72l1.09-.12c.34,0,.64-.09.91-.14,0,.32,0,.71,0,1.19s.06.84.09,1.11l-1.21.16-1.45.16c-.21.91-.45,1.89-.72,2.95s-.53,2.12-.8,3.17-.51,2-.74,2.89S169.29,58.9,169.14,59.45Zm7.76-.62a11,11,0,0,1-2.92-.61,6.76,6.76,0,0,1-2-1.21,9.3,9.3,0,0,0,.6-1,6.15,6.15,0,0,0,.46-1.09A5.51,5.51,0,0,0,174.73,56a7.21,7.21,0,0,0,2.31.53c.59,0,1.24.05,2,0s1.41,0,2.08-.08,1.25-.09,1.73-.14c0,.21-.06.47-.09.79s-.06.61-.07.9,0,.51,0,.69c-.51.06-1.09.11-1.75.15s-1.33,0-2,0S177.51,58.88,176.9,58.83Zm5.24-8.74c-.69-.2-1.47-.38-2.33-.54s-1.71-.29-2.56-.4S175.65,49,175,49c.11-.28.22-.64.35-1.08a10.08,10.08,0,0,0,.27-1.1,15.46,15.46,0,0,1,1.69.1c.63.06,1.29.15,2,.26s1.32.22,1.93.35,1.15.25,1.6.37a7.08,7.08,0,0,0-.42,1.1A5.84,5.84,0,0,0,182.14,50.09Z"/><path class="cls-7" d="M202.24,59.33a7.65,7.65,0,0,0-.66-1.11,4.76,4.76,0,0,0-.82-.95,9.51,9.51,0,0,0,4.54-1.71,4,4,0,0,0,1.58-3.23,4.38,4.38,0,0,0-.69-2.39A4.18,4.18,0,0,0,204,48.29c-.21.6-.45,1.18-.7,1.75s-.53,1.11-.82,1.65c-.17.31-.36.61-.55.92s-.4.6-.61.88c.17.17.35.33.54.49l.6.45a5.87,5.87,0,0,0-.58.51c-.21.2-.41.41-.59.61a5.44,5.44,0,0,0-.41.5,6.69,6.69,0,0,1-1-.84A10.89,10.89,0,0,1,197.59,57a4.37,4.37,0,0,1-2.19.68,2.7,2.7,0,0,1-1.48-.48,3.77,3.77,0,0,1-1.23-1.4,4.66,4.66,0,0,1-.49-2.24,6.23,6.23,0,0,1,1-3.31,9,9,0,0,1,2.55-2.69c-.21-.71-.4-1.43-.57-2.17s-.32-1.49-.47-2.25c.37,0,.79-.05,1.24-.11l1.14-.17c.08.6.18,1.2.29,1.81s.24,1.2.37,1.79a9,9,0,0,1,1.72-.52,9.33,9.33,0,0,1,1.84-.18,8.91,8.91,0,0,1,1.06.06c.15-.59.27-1.17.37-1.74a10.53,10.53,0,0,0,.17-1.58,12.41,12.41,0,0,0,1.27.21c.5.06.9.1,1.19.11-.09.57-.2,1.14-.32,1.71s-.26,1.13-.42,1.71a6.54,6.54,0,0,1,3.5,2.36,6.21,6.21,0,0,1,1.18,3.74,6,6,0,0,1-.86,3.2A7.18,7.18,0,0,1,206,57.89,12.26,12.26,0,0,1,202.24,59.33Zm-6.64-4a2.53,2.53,0,0,0,1.37-.48,8.48,8.48,0,0,0,1.45-1.24,13.57,13.57,0,0,1-1.12-1.85,20.86,20.86,0,0,1-.9-2.09,6.63,6.63,0,0,0-1.49,1.84,4.14,4.14,0,0,0-.55,2,2.17,2.17,0,0,0,.36,1.38A1.1,1.1,0,0,0,195.6,55.33Zm4.26-3.56c.15-.22.29-.43.42-.66l.38-.66a16,16,0,0,0,1.08-2.56l-.29,0h-.31a6.58,6.58,0,0,0-1.48.16,7.46,7.46,0,0,0-1.36.44c.2.58.43,1.16.68,1.71A12.34,12.34,0,0,0,199.86,51.77Z"/><path class="cls-7" d="M227.76,59.15c-.11-.2-.25-.44-.42-.71s-.36-.55-.55-.81a3.53,3.53,0,0,0-.59-.66,11.6,11.6,0,0,0,3.93-1.32,6,6,0,0,0,2.21-2.12,5.1,5.1,0,0,0,.7-2.6,5.87,5.87,0,0,0-.59-2.63,5.2,5.2,0,0,0-1.7-2,6,6,0,0,0-2.71-1,33.93,33.93,0,0,1-.78,4.77A22.62,22.62,0,0,1,226,54a10,10,0,0,1-1.66,2.67,2.61,2.61,0,0,1-1.88,1,3.22,3.22,0,0,1-1.59-.46,4.73,4.73,0,0,1-1.42-1.31,7,7,0,0,1-1-2,8.25,8.25,0,0,1-.38-2.54,8.12,8.12,0,0,1,.6-3.08,7.89,7.89,0,0,1,1.76-2.64,8.23,8.23,0,0,1,2.84-1.83,10.24,10.24,0,0,1,3.84-.67,9.31,9.31,0,0,1,3.62.65,7.9,7.9,0,0,1,2.66,1.75A7.38,7.38,0,0,1,235,48a7.79,7.79,0,0,1,.56,2.9,7.28,7.28,0,0,1-2,5.17A11.5,11.5,0,0,1,227.76,59.15ZM222.28,55c.23,0,.5-.23.81-.7a10.56,10.56,0,0,0,1-2,26.24,26.24,0,0,0,.93-3,30.57,30.57,0,0,0,.67-3.88,6.11,6.11,0,0,0-2.89,1.13,5.83,5.83,0,0,0-1.8,2.16,6,6,0,0,0-.61,2.67,5.91,5.91,0,0,0,.28,1.91,3.58,3.58,0,0,0,.72,1.29A1.26,1.26,0,0,0,222.28,55Z"/><line class="cls-8" x1="13.87" y1="36.12" x2="1" y2="34.33"/><line class="cls-8" x1="17.85" y1="25.72" x2="2.68" y2="15.9"/><line class="cls-8" x1="25.86" y1="17.98" x2="16.26" y2="2.66"/><line class="cls-8" x1="36.38" y1="14.35" x2="34.73" y2="1"/></g></g></svg>