<svg id="レイヤー_1" data-name="レイヤー 1" xmlns="http://www.w3.org/2000/svg" viewBox="0 0 90 90"><defs><style>.cls-1{fill:#fff;}</style></defs><rect width="90" height="90"/><polygon class="cls-1" points="80.07 74.72 71.35 74.72 72.34 66.61 81.06 66.61 80.07 74.72"/><path class="cls-1" d="M56.26,23.69a21,21,0,0,0-7-1.3q-5.21,0-7.89,2.52a7.72,7.72,0,0,0-2.68,5.77,6.87,6.87,0,0,0,3,5.57,43.42,43.42,0,0,0,8.41,4.84,31.24,31.24,0,0,1,9.56,6.14q3.45,3.47,3.45,9.64a17.76,17.76,0,0,1-2.23,8.53,17.46,17.46,0,0,1-6.75,6.79,21.39,21.39,0,0,1-11,2.65,29.5,29.5,0,0,1-10.94-2,31.6,31.6,0,0,1-9.06-5.36l4.23-6a23.88,23.88,0,0,0,7.11,4.51,21.07,21.07,0,0,0,8.33,1.83,12.93,12.93,0,0,0,8.38-2.68,9.56,9.56,0,0,0,3.66-7A7.52,7.52,0,0,0,52.24,52a28.94,28.94,0,0,0-7.52-4.72,71.73,71.73,0,0,1-7.28-3.86,17.69,17.69,0,0,1-4.88-4.55,11.13,11.13,0,0,1-2.07-6.79,15.54,15.54,0,0,1,9.18-14.72,21.64,21.64,0,0,1,9.68-2,32.62,32.62,0,0,1,9.59,1.75,35.29,35.29,0,0,1,8,4L63.09,27A33,33,0,0,0,56.26,23.69Z" transform="translate(0 -0.12)"/></svg>