<svg id="レイヤー_1" data-name="レイヤー 1" xmlns="http://www.w3.org/2000/svg" viewBox="0 0 738.16 92.28"><polygon points="736.68 89.4 723.61 89.4 725.09 77.25 738.16 77.25 736.68 89.4"/><path d="M566.34,334.58A31,31,0,0,0,556,332.66c-5.12,0-9,1.25-11.64,3.72a11.42,11.42,0,0,0-4,8.52q0,4.8,4.38,8.22a64.4,64.4,0,0,0,12.42,7.14,45.89,45.89,0,0,1,14.1,9.06q5.1,5.12,5.1,14.22a26.24,26.24,0,0,1-3.3,12.6,25.75,25.75,0,0,1-10,10q-6.66,3.91-16.26,3.9a43.66,43.66,0,0,1-16.14-3,46.58,46.58,0,0,1-13.38-7.92l6.24-8.88a35.52,35.52,0,0,0,10.5,6.66,31.1,31.1,0,0,0,12.3,2.7,19.08,19.08,0,0,0,12.36-4,14.05,14.05,0,0,0,5.4-10.32,11.08,11.08,0,0,0-3.78-9,42.41,42.41,0,0,0-11.1-7,104.24,104.24,0,0,1-10.74-5.7,26.06,26.06,0,0,1-7.2-6.72,16.39,16.39,0,0,1-3.06-10,22.93,22.93,0,0,1,13.56-21.72,32.18,32.18,0,0,1,14.28-2.88,48.77,48.77,0,0,1,14.16,2.58,53.23,53.23,0,0,1,11.76,5.94l-5.64,8.64A49.58,49.58,0,0,0,566.34,334.58Z" transform="translate(-517.38 -319.82)"/><path d="M612.84,405.32a37.46,37.46,0,0,1-15.36-14.1q-5.82-9.36-5.82-22.32a48.92,48.92,0,0,1,5.46-22.08,46.46,46.46,0,0,1,16.2-18.06q10.74-7.12,25.5-7.14a45.36,45.36,0,0,1,20.46,4.74,37.46,37.46,0,0,1,15.36,14.1q5.82,9.36,5.82,22.32A48.89,48.89,0,0,1,675,384.86a46.26,46.26,0,0,1-16.2,18.06q-10.74,7.15-25.5,7.14A45.23,45.23,0,0,1,612.84,405.32Zm39.9-11.88a33.45,33.45,0,0,0,11.82-13.5,38,38,0,0,0,3.9-16.56,30.75,30.75,0,0,0-3.9-15.18A30,30,0,0,0,653.76,337a29.16,29.16,0,0,0-15.42-4.2q-11.28,0-19.14,5.34a33.3,33.3,0,0,0-11.7,13.56,39,39,0,0,0-3.84,16.62,31.1,31.1,0,0,0,3.84,15.18,29.17,29.17,0,0,0,26,15.3Q644.82,398.78,652.74,393.44Z" transform="translate(-517.38 -319.82)"/><path d="M710.22,381.38a16.85,16.85,0,0,0,5,12.6q5,4.93,13.08,4.92a23.43,23.43,0,0,0,11-2.64,22.2,22.2,0,0,0,8.22-7.32,23.61,23.61,0,0,0,3.9-10.44l6.84-56h12l-6.84,56.4a35.68,35.68,0,0,1-6.24,16.44,34.28,34.28,0,0,1-12.9,11,38.5,38.5,0,0,1-17.34,3.9,32.23,32.23,0,0,1-14.94-3.36,25.06,25.06,0,0,1-10.26-9.48,26.72,26.72,0,0,1-3.72-14.16c0-1,.07-2.4.24-4.32l7-56.4h12l-6.84,56A23.28,23.28,0,0,0,710.22,381.38Z" transform="translate(-517.38 -319.82)"/><path d="M998.09,322.46l-9.24,75.48H1033l-1.32,11.28h-55.8l10.68-86.76Z" transform="translate(-517.38 -319.82)"/><path d="M1070.15,405.32a37.46,37.46,0,0,1-15.36-14.1q-5.82-9.36-5.82-22.32a48.92,48.92,0,0,1,5.46-22.08,46.46,46.46,0,0,1,16.2-18.06q10.74-7.12,25.5-7.14a45.36,45.36,0,0,1,20.46,4.74,37.46,37.46,0,0,1,15.36,14.1q5.82,9.36,5.82,22.32a48.89,48.89,0,0,1-5.46,22.08,46.26,46.26,0,0,1-16.2,18.06q-10.74,7.15-25.5,7.14A45.23,45.23,0,0,1,1070.15,405.32Zm39.9-11.88a33.45,33.45,0,0,0,11.82-13.5,38,38,0,0,0,3.9-16.56,30.75,30.75,0,0,0-3.9-15.18,30,30,0,0,0-10.8-11.22,29.16,29.16,0,0,0-15.42-4.2q-11.28,0-19.14,5.34a33.3,33.3,0,0,0-11.7,13.56A39,39,0,0,0,1061,368.3a31.1,31.1,0,0,0,3.84,15.18,29.17,29.17,0,0,0,26,15.3Q1102.13,398.78,1110.05,393.44Z" transform="translate(-517.38 -319.82)"/><path d="M1209.41,408.62a57.61,57.61,0,0,1-15.12,1.92,48.9,48.9,0,0,1-19.44-4.5,40.11,40.11,0,0,1-16.44-13.56q-6.6-9.18-6.48-22.74a56,56,0,0,1,5.52-22.32,45,45,0,0,1,15.72-18.12q10.56-7.2,25.92-7.2a54.74,54.74,0,0,1,14.76,2,45.6,45.6,0,0,1,13.08,5.88l-5.16,10.56a39,39,0,0,0-10.68-5,37.91,37.91,0,0,0-11.76-1.74q-12.24,0-20.16,5.52a32.54,32.54,0,0,0-11.52,13.74,41.12,41.12,0,0,0-3.6,16.62q0,9.72,5.1,16.32a30.75,30.75,0,0,0,12.72,9.78,39.16,39.16,0,0,0,15.18,3.18,31.41,31.41,0,0,0,13.32-2.52l2.16-18.24h-17.28l1.44-11h29.16l-4.44,36.48C1218.77,405.62,1214.77,407.27,1209.41,408.62Z" transform="translate(-517.38 -319.82)"/><polygon points="345.88 65.61 353.64 2.64 342 2.64 335.95 53.98 345.88 65.61"/><polygon points="334.56 65.74 334.56 65.76 332.32 63.12 323.89 53.25 323.93 53.21 278.88 0 278.4 0 267.48 89.4 279.12 89.4 286.56 27.24 342.24 92.28 342.6 92.28 344.44 77.31 334.56 65.74"/><path d="M957.83,341.42a31.16,31.16,0,0,0-13-13.74q-9-5.22-23.28-5.22H896.21l-1.37,11.16h26.57a34,34,0,0,1,14.4,3,23.72,23.72,0,0,1,10.32,9.12Q950,351.86,950,361q0,11.88-4.62,20.16a30.76,30.76,0,0,1-12.66,12.54,38.36,38.36,0,0,1-18.24,4.26h-16l6.85-55.62H893.77l-8.24,66.9h29.16a49,49,0,0,0,22.62-5.28,43.47,43.47,0,0,0,16.92-15.3,47.49,47.49,0,0,0,7.38-23.46q.24-3.12.24-4.68A44.2,44.2,0,0,0,957.83,341.42Z" transform="translate(-517.38 -319.82)"/></svg>