<svg xmlns="http://www.w3.org/2000/svg" viewBox="0 0 54.21 53.35"><defs><style>.cls-1{fill:#ffe404;stroke:#333;stroke-miterlimit:10;stroke-width:2px;}.cls-2{fill:#333;}</style></defs><g id="レイヤー_2" data-name="レイヤー 2"><g id="レイヤー_1-2" data-name="レイヤー 1"><path class="cls-1" d="M15.47,33.45C14,23.45,12.87,22,4.72,20.26c8.15-1.77,9.31-3.2,10.75-13.2"/><path class="cls-1" d="M15.47,33.45c1.44-10,2.6-11.43,10.75-13.19-8.15-1.77-9.31-3.2-10.75-13.2"/><g id="レイヤー_2-2" data-name="レイヤー 2"><g id="レイヤー_1-2-2" data-name="レイヤー 1-2"><path class="cls-2" d="M15.47,40.48l-1-6.89c-1.39-9.64-2.23-10.68-10-12.36L0,20.25l4.51-1c7.74-1.68,8.58-2.72,10-12.37l1-6.88,1,6.88c1.39,9.65,2.23,10.69,10,12.37l4.51,1-4.51,1c-7.74,1.68-8.58,2.72-10,12.36ZM8.69,20.25c4,1.31,5.66,3.16,6.78,7.65,1.12-4.49,2.81-6.34,6.78-7.65-4-1.3-5.66-3.16-6.78-7.64C14.35,17.09,12.66,19,8.69,20.25Z"/></g></g><path class="cls-1" d="M46.42,28.27c-.72-5-1.31-5.73-5.39-6.61,4.08-.89,4.67-1.6,5.39-6.62"/><path class="cls-1" d="M46.42,28.27c.72-5,1.3-5.73,5.38-6.61-4.08-.89-4.66-1.6-5.38-6.62"/><g id="レイヤー_2-3" data-name="レイヤー 2"><g id="レイヤー_1-2-3" data-name="レイヤー 1-2"><path class="cls-2" d="M46.42,31.8l-.5-3.46c-.7-4.83-1.12-5.35-5-6.19l-2.24-.49,2.26-.5c3.88-.85,4.3-1.37,5-6.2l.5-3.45.5,3.45c.7,4.83,1.12,5.35,5,6.2l2.26.5-2.26.5c-3.88.84-4.3,1.36-5,6.19ZM43,21.66c2,.65,2.84,1.58,3.4,3.83.56-2.25,1.41-3.18,3.4-3.83-2-.65-2.84-1.59-3.4-3.83C45.86,20.07,45,21,43,21.66Z"/></g></g><path class="cls-1" d="M35.94,48.61c-1-6.75-1.75-7.72-7.25-8.91,5.5-1.19,6.28-2.16,7.25-8.91"/><path class="cls-1" d="M35.94,48.61c1-6.75,1.76-7.72,7.26-8.91-5.5-1.19-6.29-2.16-7.26-8.91"/><g id="レイヤー_2-4" data-name="レイヤー 2"><g id="レイヤー_1-2-4" data-name="レイヤー 1-2"><path class="cls-2" d="M35.94,53.35l-.67-4.65c-.94-6.51-1.51-7.21-6.75-8.34l-3-.66L28.55,39c5.22-1.13,5.79-1.83,6.74-8.35L36,26l.67,4.64c.94,6.52,1.51,7.22,6.75,8.35l3,.68-3,.67c-5.22,1.14-5.79,1.84-6.75,8.34ZM31.37,39.7c2.7.88,3.82,2.13,4.57,5.16.76-3,1.9-4.28,4.58-5.16-2.7-.88-3.82-2.14-4.58-5.16C35.19,37.56,34.05,38.82,31.37,39.7Z"/></g></g></g></g></svg>